<svg width="16" height="16" viewBox="0 0 16 16" fill="none" xmlns="http://www.w3.org/2000/svg">
<path d="M4.66667 7.33438H6V8.66771H4.66667V7.33438ZM14 4.00105V13.3344C14 14.0677 13.4 14.6677 12.6667 14.6677H3.33333C2.97971 14.6677 2.64057 14.5272 2.39052 14.2772C2.14048 14.0271 2 13.688 2 13.3344L2.00667 4.00105C2.00667 3.26771 2.59333 2.66771 3.33333 2.66771H4V1.33438H5.33333V2.66771H10.6667V1.33438H12V2.66771H12.6667C13.4 2.66771 14 3.26771 14 4.00105ZM3.33333 5.33438H12.6667V4.00105H3.33333V5.33438ZM12.6667 13.3344V6.66771H3.33333V13.3344H12.6667ZM10 8.66771H11.3333V7.33438H10V8.66771ZM7.33333 8.66771H8.66667V7.33438H7.33333V8.66771Z" fill="#00060F"/>
</svg>
