<svg width="255" height="270" viewBox="0 0 255 270" fill="none" xmlns="http://www.w3.org/2000/svg">
<path d="M268.003 237.604C261.48 232.702 254.657 229.776 247.431 226.853C247.634 228.528 247.837 230.233 248.07 232.32C248.41 232.366 248.778 232.324 249.134 232.489C249.482 232.65 249.813 233.026 250.145 233.307C250.139 233.693 250.133 234.073 250.129 234.463C249.415 234.449 248.685 234.435 247.957 234.421C247.945 235.226 247.937 235.917 247.921 236.86C247.121 236.319 246.383 235.839 245.625 235.362C245.561 235.726 245.496 236.09 245.434 236.456C246.864 238.296 248.213 240.152 249.474 242.022C248.931 244.67 249.472 247.282 250.489 248.276C251.51 249.275 251.72 247.499 251.426 244.652C251.342 243.834 252.174 242.253 252.673 241.427C253.173 240.6 253.781 240.263 254.289 239.758C256.228 247.853 257.69 239.611 259.274 239.764C259.129 241.383 259.095 242.995 258.852 244.182C258.602 245.406 258.146 246.214 257.78 247.212C258.51 247.377 259.268 247.162 259.536 245.855C260.016 243.536 260.199 240.604 260.527 237.826C261.158 237.755 261.916 237.596 262.654 237.586C264.544 237.556 266.318 237.95 268.003 237.604Z" fill="#B22234"/>
<path d="M241.867 228.166C242.056 227.971 242.245 227.782 242.434 227.589C243.31 229.55 244.157 231.538 245.245 234.309C245.665 233.579 246.465 232.773 246.835 231.364C247.137 230.217 246.928 228.347 246.95 226.831C247.045 226.815 247.145 226.801 247.24 226.789C246.459 226.51 245.661 226.23 244.837 225.959C244.67 226.435 244.507 226.902 244.356 227.336C243.025 226.391 241.664 225.223 240.228 224.64C239.116 224.187 237.948 224.511 236.745 224.388C234.924 224.201 232.983 223.779 230.986 223.717C227.94 223.622 224.669 223.622 221.188 223.857C219.28 223.984 216.903 224.453 215.252 225.126C216.895 227.853 218.894 230.173 220.758 233.073C221.427 231.191 222.051 229.453 222.768 227.499C223.677 232.701 224.104 233.053 226.679 230.957C228.354 229.592 229.993 228.269 231.666 227.227C232.121 226.94 232.917 227.557 233.51 227.963C233.679 228.078 233.886 229.321 233.828 229.369C233.369 229.755 232.86 230.308 232.332 230.193C231.356 229.982 230.584 230.059 230.222 231.502C229.882 231.458 229.539 231.448 229.217 231.496C227.466 231.756 225.925 233.139 226.195 234.207C226.498 235.391 228.143 236.047 229.965 235.721C231.332 235.474 232.348 234.878 232.766 234.177C233.436 235.266 233.93 236.883 234.632 237.394C235.392 235.397 236.082 233.604 236.84 231.663C238.03 233.487 238.784 234.728 239.176 235.377C240.318 233.951 241.245 232.779 242.108 231.685C242.026 230.515 241.947 229.335 241.867 228.166Z" fill="#B22234"/>
<path d="M159.429 230.482C160 229.917 160.458 229.362 160.907 228.92C160.161 229.189 159.411 229.469 158.657 229.752C158.914 229.953 159.168 230.194 159.429 230.482Z" fill="#B22234"/>
<path d="M164.342 228.096C164.605 227.869 164.877 227.659 165.15 227.452C164.43 227.692 163.706 227.941 162.978 228.192C163.517 228.263 164.038 228.357 164.342 228.096Z" fill="#B22234"/>
<path d="M209.471 219.287C209.835 220.106 210.127 221.005 210.475 221.925C211.977 221.364 213.209 220.924 214.376 220.514C214.331 220.12 214.293 219.756 214.251 219.402C212.683 219.328 211.092 219.283 209.471 219.287Z" fill="#B22234"/>
<path d="M223.66 220.763C223.676 220.813 223.688 220.862 223.702 220.914C224.062 220.934 224.418 220.948 224.77 220.96C224.402 220.894 224.032 220.829 223.66 220.763Z" fill="#B22234"/>
<path d="M217.669 219.78C218.572 220.263 219.081 220.303 219.73 220.104C219.052 219.997 218.367 219.885 217.669 219.78Z" fill="#B22234"/>
<path d="M411.345 212.499C411.966 211.151 412.483 210.034 413.315 208.278C411.26 209.615 409.937 210.387 408.658 211.288C406.34 212.915 406.352 212.947 405.202 212.591C406.008 211.61 406.895 210.54 407.784 209.464C407.09 209.629 406.392 209.79 405.435 210.001C406.362 208.986 407.108 208.182 407.854 207.371C407.774 207.216 407.701 207.058 407.623 206.903C406.961 207.331 406.272 207.693 405.65 208.188C404.301 209.263 403.042 210.685 401.673 211.423C398.253 213.271 394.868 214.735 391.565 216.132C372.718 225.559 353.841 234.75 332.196 231.227C310.195 227.646 288.836 212.358 273.512 196.919C249.74 172.969 210.532 164.712 178.852 172.528C143.503 181.255 115.092 199.903 89.9264 227.602C89.6479 228.303 89.3794 229.017 89.085 229.681C89.3476 230.035 89.6101 230.385 89.8727 230.736C98.7213 223.813 105.107 213.806 114.439 206.895C114.395 207.391 114.336 208.135 114.276 208.883C114.537 208.986 114.799 209.096 115.06 209.201C116.182 206.937 117.32 204.699 118.533 202.366C119.755 202.435 121.406 202.543 123.174 202.696C123.23 203.609 123.302 204.81 123.401 206.372C125.291 205.407 126.916 204.618 128.52 203.864C128.748 208.359 126.335 207.675 124.187 207.791C123.827 209.627 123.512 211.25 123.16 213.118C122.53 213.576 121.726 213.967 121.117 214.682C120.417 215.503 119.896 216.621 119.291 217.606C118.374 219.096 113.635 221.175 112.364 221.111C111.346 221.059 110.015 221.453 109.078 222.343C107.11 224.209 106.132 229.452 107.258 231.454C108.469 233.606 110.013 231.732 111.507 230.332C113.279 228.667 115.101 227.119 116.983 225.525C116.967 226.476 116.956 227.336 116.944 228.167C157.755 197.14 231.541 177.123 272.921 216.504C285.691 228.655 301.202 239.134 318.117 244.818C319.04 244.41 320.029 244.211 321.065 243.925C323.828 243.159 324.708 247.038 326.723 246.925C327.479 246.881 328.635 246.429 329.418 247.657C330.881 247.935 332.341 248.156 333.803 248.323C334.716 248.427 335.629 248.522 336.542 248.59C336.904 246.402 337.231 244.43 338.959 244.484C339.12 246.262 339.413 247.691 339.837 248.739C343.537 248.831 347.235 248.616 350.949 248.098C351.184 247.87 351.415 247.615 351.641 247.325C351.773 247.158 352.009 247.165 352.19 247.189C352.922 247.281 353.662 247.428 354.399 247.528C357.957 246.853 361.532 245.898 365.141 244.685C365.76 244.221 366.378 243.581 367.081 243.004C367.242 243.36 367.413 243.626 367.59 243.827C370.285 242.837 373.001 241.699 375.736 240.43C376.319 239.787 376.757 238.824 376.914 237.334C377.371 237.523 377.771 237.641 378.139 237.831C378.75 238.148 382.351 236.994 382.516 236.258C383.142 233.463 384.447 234.249 385.615 234.356C386.431 234.432 387.221 234.271 387.996 233.978C389.089 233.342 390.183 232.691 391.283 232.021C392.073 231.426 392.86 230.787 393.652 230.183C394.006 229.91 394.108 228.893 394.414 227.956C395.673 229.309 397.004 228.336 398.5 227.24C401.309 225.173 404.182 223.029 407.166 221.258C409.479 219.888 411.379 218.65 411.401 215.704C409.262 214.32 409.276 214.278 410.305 211.262C410.623 211.644 410.894 211.97 411.345 212.499Z" fill="#B22234"/>
<path d="M294.078 171.188C304.252 178.932 317.431 184.361 330.278 187.063C357.353 192.754 383.725 180.41 406.533 166.561C406.283 166.354 406.03 166.139 405.767 165.918C406.867 165.132 407.749 164.736 407.987 164.283C409.028 162.297 410.784 161.565 412.436 160.408C418.427 156.21 424.254 151.861 429.848 147.429C431.205 146.353 432.343 144.636 433.59 143.162C434.167 142.478 434.698 141.77 435.249 141.061C435.267 141.055 435.283 141.053 435.297 141.049C435.305 141.024 435.309 140.996 435.315 140.97C435.287 141.006 435.275 141.024 435.245 141.059C437.018 138.847 437.302 137.379 436.081 136.524C434.957 137.377 433.741 138.236 432.57 139.16C430.827 140.536 428.871 142.641 427.529 143.092C424.421 144.141 423.848 145.925 423.132 147.895C422.527 147.954 422.066 147.998 421.519 148.044C421.286 150.039 421.284 150.053 419.728 151.684C419.653 149.932 419.595 148.263 419.553 146.606C391.641 164.555 363.367 178.517 331.595 172.284C319.355 169.881 305.913 163.887 296.314 155.577C288.393 148.718 281.597 139.607 273.592 132.318C262.121 121.874 250.832 111.721 238.373 102.351C238.285 111.44 240.85 125.214 240.85 125.214C240.85 125.214 258.419 135.038 272.898 148.673C280.115 155.476 286.26 165.236 294.078 171.188Z" fill="#B22234"/>
<path d="M429.768 173.917C432.269 171.997 432.474 171.432 430.88 169.789C429.87 173.233 426.945 173.149 424.994 175.154C425.121 174.384 425.203 173.889 425.352 173.024C422.704 176.788 421.065 177.788 419.45 176.901C419.855 176.296 420.568 175.55 420.58 175.126C420.596 174.603 420.027 174.351 419.784 174.068C421.562 172.741 423.128 171.564 424.761 170.324C425.324 171.036 425.841 171.693 426.253 172.2C427.278 170.744 428.485 168.389 429.247 168.108C431.133 167.418 432.573 165.675 434.302 164.782C435.354 164.239 435.364 164.151 435.319 163.115C433.968 163.799 432.635 164.314 431.358 165.12C428.559 166.885 425.917 167.565 423.064 169.9C421.015 171.579 417.783 174.683 415.684 172.875C415.698 172.847 415.718 172.817 415.732 172.787C388.714 190.691 362.346 205.064 330.636 201.459C317.443 199.959 303.012 194.079 292.954 185.698C285.41 179.415 279.508 170.32 272.724 163.499C245.325 135.953 206.249 124.87 169.168 128.284C146.851 130.339 126.023 144.168 108.537 158.197C110.49 157.407 112.469 156.578 113.784 155.154C118.233 150.335 124.815 147.95 130.485 145.416C132.775 144.391 135.088 143.367 137.639 142.949C139.552 142.637 141.408 141.2 143.509 142.396C143.941 142.643 144.802 141.99 145.471 141.899C148.067 141.541 150.651 141.32 153.488 141.155C153.006 143.918 152.489 145.798 150.255 145.058C147.643 144.192 145.576 146.12 145.278 147.962C144.392 153.417 140.227 153.974 136.998 156.146C135.796 156.958 134.352 157.224 133.053 157.911C130.551 159.232 128.589 161.366 126.468 163.61C123.663 166.58 119.649 168.136 116.172 170.475C112.46 172.974 108.795 175.654 106.631 180.577C106.366 181.178 105.907 181.846 105.447 182.197C100.118 186.265 95.5741 191.409 91.7506 196.784C90.3202 198.796 88.9914 200.62 86.6201 200.496C83.841 200.351 81.0858 202.943 79.3789 207.596C80.859 206.313 82.345 205.04 84.8973 202.957C83.9385 205.709 83.6699 207.76 82.8662 208.645C81.3961 210.266 80.9604 210.572 81.229 211.561C107.948 182.214 135.613 159.142 173.632 150.425C206.869 142.802 247.778 153.809 272.633 178.93C279.134 185.501 285.257 194.343 292.431 200.347C302.956 209.152 317.994 213.99 331.885 216.089C340.75 217.43 348.956 216.793 357.108 215.088C357.048 214.806 356.987 214.519 356.925 214.235C357.828 213.893 358.731 213.533 359.634 213.159C359.736 213.503 359.835 213.849 359.937 214.193C359.366 214.42 358.797 214.629 358.228 214.842C364.126 213.539 370.011 211.708 376.114 209.671C376.134 209.618 376.156 209.576 376.174 209.524C376.182 209.564 376.186 209.596 376.194 209.639C392.844 201.887 407.933 191.365 422.935 180.88C422.806 180.707 422.674 180.532 422.547 180.356C423.18 179.734 423.79 179.075 424.465 178.49C425.489 177.593 426.568 176.754 427.62 175.849C428.348 175.232 429.016 174.496 429.768 173.917ZM373.062 204.881C372.973 204.596 372.885 204.308 372.798 204.02C374.254 203.441 375.726 202.82 377.206 202.158C377.268 202.374 377.329 202.587 377.391 202.804C375.937 203.536 374.497 204.226 373.062 204.881ZM380.514 204.951C379.758 205.167 379.008 205.378 378.262 205.569C378.237 205.325 378.211 205.082 378.185 204.837C378.961 204.587 379.741 204.312 380.524 204.037C380.518 204.34 380.516 204.648 380.514 204.951ZM379.357 202.681C379.241 202.398 379.126 202.114 379.01 201.829C380.52 199.655 382.834 200.204 384.545 198.549C384.6 198.726 384.664 198.909 384.718 199.086C382.916 200.331 381.125 201.533 379.357 202.681ZM391.519 197.383C391.889 195.058 393.336 195.736 394.551 194.763C393.972 197.411 392.705 196.973 391.519 197.383ZM403.165 191.405C401.516 192.662 399.811 193.759 398.122 194.684C397.271 195.151 396.332 195.207 395.446 195.426C395.421 195.151 395.401 194.881 395.375 194.608C399.22 192.565 403.181 190.297 407.49 187.685C406.384 189.752 404.569 190.333 403.165 191.405ZM414.755 185.68C414.504 185.736 414.252 185.797 414.001 185.853C414.206 184.992 414.411 184.136 414.624 183.275C414.874 183.197 415.121 183.118 415.372 183.034C415.161 183.915 414.956 184.793 414.755 185.68Z" fill="#B22234"/>
<path d="M253.718 9.8983C253.429 9.49248 253.139 9.10053 252.85 8.7345C253.013 8.41421 253.178 8.09394 253.342 7.76769C257.129 9.89628 260.738 11.1177 263.913 16.8669C263.774 17.2787 263.591 17.5493 263.38 17.7343C274.206 27.5795 284.403 38.5547 292.633 50.3634C307.804 72.1267 323.002 96.8581 348.563 108.247C359.272 113.017 370.193 115.23 386.03 113.206C386.052 112.888 386.076 112.576 386.1 112.257C388.228 112.548 390.279 111.209 392.338 110.167C392.788 109.942 393.134 109.379 393.598 108.899C393.104 108.768 392.728 108.659 392.442 108.575C393.017 108.036 393.5 107.583 394.133 107C389.987 108.05 386.396 109.063 382.774 110.901C378.823 110.348 377.768 110.459 375.063 112.85C374.434 111.128 372.811 112.574 371.617 112.606C371.442 112.299 371.273 111.997 371.086 111.669C370.744 111.965 370.442 112.379 370.269 112.363C368.265 112.154 366.204 112.512 364.412 112.158C363.264 111.931 362.264 111.305 361.01 111.036C359.534 110.718 357.947 110.744 356.604 109.771C355.363 108.87 353.785 108.474 352.371 107.905C351.559 107.579 350.672 106.886 350.334 107.684C350.174 107.324 349.912 107.016 349.598 106.827C349.017 106.475 348.394 106.204 347.813 105.852C346.842 105.259 346.062 104.334 344.801 104.358C343.739 104.38 342.016 103.703 341.183 101.835C341.107 101.666 340.823 101.386 340.671 101.348C338.159 100.694 339.183 99.4741 339.434 99.1359C338.469 98.9409 337.524 98.742 336.643 98.553C336.735 99.0384 336.794 99.3487 336.91 99.9256C335.738 98.9648 335.161 98.2446 335.171 97.1028C335.187 95.5252 334.021 94.077 332.609 93.7726C332.611 94.067 332.613 94.3634 332.615 94.6459C331.98 94.2679 331.485 93.9636 330.997 93.6612C330.681 92.6765 331.115 91.1367 329.603 91.0234C329.541 91.0194 329.428 90.8185 329.364 90.6912C327.969 87.8583 327.212 86.7423 325.433 85.1588C324.019 83.8996 322.576 82.8671 321.363 80.639C320.382 78.8347 319.101 77.4063 317.884 75.7234C316.36 73.6226 314.723 71.5 312.99 69.0054C310.467 65.3749 308.386 61.0401 306.152 56.7909C303.29 51.3441 299.989 45.6347 296.323 40.0944C291.903 33.4221 286.886 26.7897 281.815 21.0326C277.611 16.2562 272.358 12.4864 268.019 7.49116C265.904 5.05423 262.95 2.61332 261.199 6.06084C261.182 3.94618 261.17 2.9734 261.152 1.2944C258.15 1.80367 254.832 -2.19288 251.571 -3.96736C246.003 -6.99712 240.455 -10.9341 234.656 -14.2622C234.821 -10.0468 234.952 -6.01244 235.066 -2.12926C241.583 1.56295 247.807 5.48396 253.718 9.8983Z" fill="#B22234"/>
<path d="M391.78 125.418C388.062 126.528 384.523 127.454 381.225 127.742C379.327 127.907 377.156 128.989 375.758 127.418C375.623 127.262 375.235 127.294 374.97 127.346C372.953 127.73 370.999 128.018 369.104 128.243C365.947 128.617 362.994 128.307 360.283 126.823C359.62 126.461 358.906 126.266 358.254 125.892C356.392 124.826 354.577 123.658 352.978 122.299C352.743 122.1 352.546 121.81 352.365 121.501C349.722 120.604 347.121 119.57 344.683 118.404C320.844 106.993 304.591 86.9188 288.474 66.7887C273.904 48.5943 255.666 33.161 235.558 20.9883C235.661 28.1041 235.731 34.8221 235.8 41.2775C252.761 52.6605 269.054 64.5866 282.583 79.7115C300.267 99.4835 317.073 119.618 340.228 130.724C369.318 144.679 401.458 126.532 427.586 110.276C428.073 109.802 428.551 109.335 429.062 108.839C427.459 109.52 426.229 110.031 425.07 110.492C425.734 109.364 426.168 108.642 426.679 107.817C427.942 107.683 428.925 108.242 431.788 105.04C430.073 105.726 428.531 105.947 427.194 106.904C425.044 108.445 423.357 108.957 421.493 110.075C415.755 113.512 409.835 117.041 403.676 120.22C402.503 120.827 401.319 121.865 400.207 122.331C397.458 123.477 394.949 123.23 392.265 125.305C392.14 125.403 391.945 125.369 391.78 125.418Z" fill="#B22234"/>
<path d="M419.478 125.08C395.391 140.597 365.814 153.976 337.11 143.935C325.005 139.702 311.358 134.261 303.104 125.399C294.914 116.606 287.396 104.523 278.785 95.0097C266.598 81.5498 251.567 70.2285 236.109 60.3495C236.286 66.96 236.513 73.4353 236.82 79.9822C250.988 89.1888 264.654 99.7244 275.596 112.585C283.957 122.411 290.983 132.956 299.434 140.138C309.343 148.557 322.108 154.871 334.16 157.745C365.034 165.104 393.038 152.663 420.411 134.765C419.544 134.584 418.665 134.309 416.968 135.606C414.575 137.436 412.842 137.53 413.182 136.173C413.393 135.32 413.484 134.512 413.677 133.442C414.27 133.402 415.014 133.344 415.464 133.304C416.498 132.192 417.389 131.233 418.291 130.257C418.034 130.275 417.785 130.285 417.537 130.3C416.773 130.35 416.011 130.392 415.259 130.43C415.89 129.545 416.596 128.649 417.159 127.752C417.867 126.62 418.633 125.765 419.478 125.08Z" fill="#B22234"/>
<path d="M199.756 236.599C199.786 236.497 199.812 236.4 199.848 236.295C198.614 236.633 197.693 236.941 196.758 237.12C196.43 237.184 196.1 237.214 195.772 237.248C195.503 237.152 195.181 237.062 194.765 236.971C193.649 236.722 192.569 236.955 191.486 237.446C189.555 238.33 189.374 239.135 190.054 239.939C190.657 239.856 191.252 239.772 191.849 239.688C191.9 239.77 191.924 239.856 192.006 239.931C192.535 240.422 193.173 240.641 194.837 240.323C196.519 240.003 197.793 239.561 198.574 238.926C198.887 239.175 199.418 239.336 200.228 239.482C201.379 239.69 202.386 239.312 203.337 238.608C205.036 237.345 205.032 236.332 204.182 235.393C202.72 235.793 201.274 236.187 199.756 236.599Z" fill="#B22234"/>
<path d="M206.121 243.98C205.582 244.488 204.987 244.826 204.987 245.102C204.985 245.395 205.552 245.629 205.87 245.888C206.326 245.556 206.98 245.251 207.159 244.889C207.273 244.684 206.618 244.39 206.121 243.98Z" fill="#B22234"/>
<path d="M254.91 245.046C254.886 244.59 255.075 244.039 254.76 243.725C254.577 243.544 253.583 243.749 252.226 243.812C253.195 244.517 253.702 244.885 254.207 245.255C254.442 245.183 254.675 245.113 254.91 245.046Z" fill="#B22234"/>
<path d="M183.436 232.167C182.921 232.169 182.537 232.211 182.225 232.294C181.757 232.195 181.183 232.179 180.578 232.29C178.386 232.702 176.746 233.251 175.242 234.401C175.101 234.504 175.006 234.602 174.936 234.691C174.592 234.904 174.172 235.264 174.069 235.563C173.945 235.907 174.122 236.356 174.319 236.595C174.6 236.929 175.081 236.812 175.539 236.318C175.728 236.114 175.913 235.891 176.106 235.654C177.341 235.799 179.478 235.67 182.645 234.942C183.432 234.759 183.91 234.628 184.177 234.403C184.779 233.888 184.572 233.446 183.884 233.096C184.214 232.861 184.57 232.682 184.68 232.509C184.815 232.29 184.234 232.163 183.436 232.167Z" fill="#B22234"/>
<path d="M191.452 230.153C192.007 230.028 192.347 229.51 192.403 229.124C192.48 228.587 191.782 228.169 190.654 228.05C189.828 227.961 188.991 227.941 187.903 227.877C187.515 228.774 187.96 229.395 189.182 229.817C189.832 230.045 190.919 230.27 191.452 230.153Z" fill="#B22234"/>
<path d="M244.056 244.052C243.298 244.43 242.058 244.756 241.937 245.216C241.826 245.614 242.984 246.173 244.038 247.032C245.023 246.312 246.123 245.892 246.047 245.455C245.973 244.997 244.766 244.52 244.056 244.052Z" fill="#B22234"/>
<path d="M255.303 246.929C254.826 247.114 254.149 247.249 253.944 247.506C253.817 247.655 254.45 247.996 254.919 248.407C255.492 248.093 256.111 247.922 256.129 247.701C256.151 247.466 255.603 247.188 255.303 246.929Z" fill="#B22234"/>
<path d="M204.8 235.385C204.792 235.753 204.563 236.161 204.854 236.465C205.025 236.64 206.034 236.644 207.39 236.817C206.475 236.093 205.994 235.717 205.516 235.339C205.278 235.355 205.041 235.373 204.8 235.385Z" fill="#B22234"/>
<path d="M47.5154 27.5141C47.5373 26.6269 47.5632 25.7754 47.5811 24.9479C47.1156 25.0195 46.6401 25.0931 46.1587 25.1667C46.5566 25.9943 46.9524 26.8159 47.3682 27.6753C47.4239 27.6255 47.4657 27.5678 47.5154 27.5141Z" fill="#3C3B6E"/>
<path d="M47.6657 20.5448C47.6677 20.4653 47.6677 20.3837 47.6697 20.3041C46.3528 20.2245 45.0895 20.1529 43.7109 20.0833C44.1645 21.0342 44.5803 21.8996 44.9781 22.7331C45.9111 21.9612 46.8004 21.2371 47.6657 20.5448Z" fill="#3C3B6E"/>
<path d="M10.9903 121.258C10.6024 121.431 10.2065 121.608 9.80664 121.789C10.1926 122.451 10.491 123.239 10.664 124.154C10.8192 124.112 10.9744 124.077 11.1276 124.039C11.0778 123.076 11.0321 122.155 10.9903 121.258Z" fill="#3C3B6E"/>
<path d="M82.1524 150.837C81.4323 148.84 81.122 146.546 80.547 143.924C79.803 144.004 78.6094 144.133 77.573 144.252C79.1207 139.74 76.2023 139.999 74.396 139.084C74.2806 139.223 74.1732 139.36 74.0578 139.5C73.6938 140.534 73.3297 141.571 72.9697 142.609C74.2687 144.344 75.6155 146.074 77.191 147.972C74.7422 148.348 72.7309 148.585 70.8252 148.754C70.1548 150.672 69.4744 152.596 68.7841 154.527C69.4505 155.401 70.1209 156.29 70.8252 157.225C71.5513 155.2 72.2077 153.399 72.9577 151.376C73.5605 152.224 74.2309 153.17 74.8914 154.119C69.7251 159.497 66.2696 162.91 67.881 169.911C73.5287 163.511 79.4151 157.235 85.5781 151.074C83.732 151.006 82.3355 151.346 82.1524 150.837Z" fill="#3C3B6E"/>
<path d="M34.2352 45.6727C33.9785 45.7961 33.712 45.8995 33.4275 45.9572C32.9242 46.0587 32.2419 48.9214 31.6431 50.6024C32.4786 50.2502 33.3658 49.9817 34.1894 49.6037C34.2053 48.3723 34.2193 47.0891 34.2352 45.6727Z" fill="#3C3B6E"/>
<path d="M25.9312 151.34C25.9709 151.308 26.0127 151.276 26.0545 151.244C26.0644 151.234 26.0764 151.23 26.0883 151.22C26.0445 151.234 26.0008 151.244 25.957 151.256C25.9471 151.286 25.9411 151.312 25.9312 151.34Z" fill="#3C3B6E"/>
<path d="M238.377 102.353C237.71 94.6349 237.197 87.2266 236.827 79.9795C236.495 73.4545 236.276 66.9374 236.117 60.3467C235.97 54.1718 235.88 47.8418 235.801 41.2769C235.721 34.8275 235.659 28.0996 235.558 20.9877C235.456 13.7426 235.311 6.07768 235.076 -2.12634C234.965 -6.00554 234.832 -10.0439 234.667 -14.2593C233.246 -15.0391 231.794 -15.793 230.314 -16.4694C226.857 -18.047 224.432 -17.7964 222.341 -17.2393C220.789 -16.8256 219.41 -15.3236 218.05 -14.7686C216.916 -14.3071 215.595 -14.1857 214.135 -14.1896C214.668 -12.8608 215.223 -11.4543 215.83 -9.90264C214.079 -11.5518 212.497 -12.9821 210.996 -14.3011C209.754 -14.3687 208.453 -14.4363 207.092 -14.4204C207.59 -15.055 207.811 -15.6797 207.848 -16.2964C205.965 -15.7851 203.943 -15.242 201.483 -14.5994C202.33 -16.7738 203.022 -18.604 203.679 -20.3865C201.357 -22.2107 198.827 -24.1165 195.624 -26.3604C191.311 -27.4148 187.074 -26.1535 182.383 -28.3875C181.86 -28.6362 181.165 -28.117 180.493 -28.0871C179.407 -28.0354 178.289 -27.9499 177.133 -28.1249C173.218 -28.7217 169.126 -29.5652 165.048 -29.9432C164.923 -29.9531 164.801 -29.9671 164.676 -29.977C163.116 -29.2549 161.769 -28.6083 160.486 -27.9757C161.708 -26.1575 162.971 -24.2815 164.549 -21.9222C161.453 -23.6449 159.038 -24.8664 156.701 -26.0481C154.888 -25.1011 152.979 -24.0687 150.659 -22.7498C151.115 -24.9341 151.493 -26.7304 151.837 -28.4571C150.317 -29.1952 148.725 -29.9532 146.957 -30.7787C144.767 -30.7787 142.58 -30.7489 140.4 -30.6892C135.055 -30.546 129.238 -30.9259 124.611 -29.4618C121.863 -28.5904 118.935 -28.3139 116.007 -27.9698C114.742 -26.804 113.622 -25.7497 112.547 -24.7252C113.862 -23.1258 115.239 -21.4667 116.906 -19.4574C113.934 -20.283 111.513 -20.9176 109.233 -21.4965C107.652 -19.9269 105.985 -18.234 103.961 -16.1154C104.184 -18.6219 104.365 -20.6888 104.52 -22.6682C103.062 -23.0203 101.54 -23.3764 99.8614 -23.7623C95.268 -22.8035 90.3245 -22.2146 85.9022 -20.844C83.0197 -19.9508 79.23 -18.6617 78.1518 -16.6525C76.7413 -14.0265 74.5511 -13.1234 72.3171 -12.6121C71.1075 -10.7978 70.0452 -9.1845 69.0426 -7.64078C70.3178 -6.25023 71.6546 -4.81195 73.2918 -3.06333C70.5426 -3.1807 68.3205 -3.23838 66.2376 -3.27618C65.3584 -1.8916 64.4492 -0.443384 63.4387 1.17991C65.5255 0.865599 67.6242 0.65275 69.6732 0.941204C70.1805 1.01083 71.1931 -0.423477 71.9172 -1.19335C72.7149 -2.04081 73.449 -2.93202 74.2149 -3.79937C74.9609 -2.94993 75.7069 -2.10443 76.423 -1.29079C78.4979 -1.91544 80.7518 -2.46652 82.954 -3.16477C86.2882 -4.21912 84.6987 -6.03935 83.7279 -7.95707C85.1821 -7.28269 86.5547 -6.94651 87.8816 -6.8371C87.9632 -8.0685 88.0467 -9.39138 88.1382 -10.8894C89.4472 -9.43515 90.5592 -8.21169 91.5838 -7.08771C93.7183 -7.52934 95.7673 -8.39475 97.8343 -9.24618C99.6346 -9.9882 101.519 -10.6009 103.301 -11.3529C105.607 -12.3257 107.851 -13.378 110.144 -14.3389C112.161 -14.1996 114.395 -11.2296 117.356 -13.5949C118.068 -14.1638 117.017 -16.0736 116.721 -17.6412C119.958 -19.3898 120.441 -15.1127 122.713 -15.0053C123.684 -14.9595 124.646 -15.0033 125.607 -15.0789C125.18 -15.2062 124.74 -15.3395 124.288 -15.4728C127.449 -16.0219 130.046 -16.3918 132.496 -16.6843C132.781 -18.3951 133.079 -20.2293 133.437 -22.517C135.065 -20.4262 136.364 -18.7512 137.575 -17.1956C140.048 -17.3945 142.694 -17.5437 145.946 -17.6332C143.661 -16.2526 141.818 -15.0868 140.094 -13.9589C141.295 -12.4211 142.554 -10.8098 144.076 -8.83834C141.174 -9.93844 138.785 -10.7879 136.539 -11.5618C134.844 -10.3861 133.063 -9.09897 130.895 -7.4717C131.279 -9.64604 131.591 -11.4285 131.884 -13.1214C130.734 -13.4934 129.544 -13.8674 128.265 -14.2652C125.665 -13.9032 122.96 -13.5431 120.465 -13.1393C112.734 -11.894 105.567 -8.16595 97.7129 -6.57648C96.7182 -5.46643 95.8111 -4.43792 94.9398 -3.4353C96.1751 -2.10244 97.4742 -0.705936 99.0597 0.996935C96.2547 0.652781 93.9789 0.412064 91.8404 0.207163C90.3623 1.97568 88.8007 3.88742 86.9128 6.26866C87.1117 3.78398 87.2729 1.74492 87.4181 -0.186722C85.2895 -0.359795 83.0256 -0.518959 80.2704 -0.678106C81.1218 -1.10979 81.9255 -1.50966 82.6994 -1.88963C81.3188 -1.46988 80.0695 -0.912827 79.1942 -0.109135C74.4854 4.21966 66.8941 4.42651 63.2914 9.92702C60.202 10.5875 57.8327 11.9164 56.2631 14.0211C56.9972 13.4959 57.7611 12.9528 58.5827 12.3779C56.8838 15.2127 55.5171 17.5422 54.238 19.7543C55.4216 20.9062 56.667 22.1117 58.1988 23.5858C57.2498 23.6872 56.3706 23.7848 55.537 23.8842C55.7797 24.1588 56.0065 24.4174 56.2273 24.6044C54.0013 27.3119 52.2705 29.4782 50.2673 32.0385C49.4457 32.329 47.518 32.4841 46.7481 33.4251C45.0015 35.5656 43.8318 38.102 42.4711 40.4594C39.1827 39.4587 37.7484 42.4925 35.8307 44.4619C36.6244 45.188 37.3525 45.8484 38.0468 46.481C39.9247 44.7384 41.93 42.9221 44.4346 40.7478C44.16 41.269 43.8915 41.7942 43.6189 42.3174C47.0605 39.7452 50.6154 37.2704 54.423 34.742C55.2764 35.3109 56.2512 35.9634 57.2319 36.6199C57.2439 36.3016 57.2558 35.9853 57.2677 35.667C58.5946 35.2333 59.9235 34.8057 62.0143 34.1711C61.0932 36.0649 60.763 37.8612 59.9892 38.1795C56.663 39.5482 56.3228 42.7868 54.5145 44.9632C48.4172 52.2959 43.5294 60.8182 35.2617 66.5177C33.8035 67.5243 32.8606 69.6826 31.476 71.0374C31.4124 71.099 31.3487 71.1628 31.285 71.2244C30.0735 73.9617 28.8799 76.7309 27.7042 79.5299C28.8123 80.5285 29.996 81.5968 31.4561 82.9336C29.1266 83.6736 27.2467 84.3023 25.4861 84.913C24.2965 87.8532 23.1268 90.8333 21.9789 93.859C21.9073 90.8631 21.8616 88.462 21.8258 86.216C20.0771 86.8586 18.231 87.5668 15.9891 88.458C18.1992 85.7545 20.0314 83.5941 21.7661 81.5908C21.7641 81.2725 21.7601 80.9503 21.7581 80.63C20.8311 81.5988 19.918 82.5775 19.0228 83.5841C16.4048 86.5303 14.1768 89.9759 11.7319 93.1489C8.87918 96.851 6.09212 100.682 3.1678 104.229C-0.590056 108.787 -0.88647 110.098 1.65391 114.433C0.0186766 117.785 0.0127078 117.811 2.41582 120.785C4.435 119.287 6.4681 119.112 8.03371 119.997C8.99058 118.63 9.87981 117.355 10.7412 116.144C10.6318 113.683 10.5283 111.103 10.4169 107.987C11.8512 109.304 13.0289 110.39 14.1469 111.439C15.7842 109.219 17.5348 106.895 19.721 104.102C18.6209 107.225 17.5268 110.402 16.4625 113.647C17.5925 114.733 18.802 115.905 20.3079 117.387C18.0401 118.27 16.2238 119.024 14.509 119.738C14.0892 121.023 13.6794 122.311 13.2696 123.604C13.2418 124.499 13.3114 125.044 13.1821 125.529C12.2392 128.993 14.0415 130.252 15.3982 131.093C16.1283 131.547 18.0102 129.707 19.3033 128.639C20.6322 127.536 21.8715 126.108 23.1686 124.839C23.3695 125.1 23.5684 125.358 23.7693 125.617C20.4173 131.123 17.2642 136.674 14.32 142.256C14.0693 142.096 13.8147 141.933 13.5621 141.772C13.0787 145.176 11.7975 149.003 14.5866 150.806C14.9108 151.015 14.875 152.497 14.7258 153.378C14.1071 157.026 13.4109 160.689 12.6868 165.037C15.0899 163.366 17.9187 161.482 20.8152 159.646C20.9445 160.016 21.0758 160.39 21.2051 160.762C21.7084 159.175 22.2177 157.593 22.7369 156.018C22.6135 154.761 22.4962 153.577 22.3907 152.429C20.6918 153.01 18.9034 153.652 16.7351 154.478C18.6985 151.595 20.3477 149.272 21.9153 147.086C21.6945 144.498 21.4756 141.77 21.2309 138.436C22.7767 139.99 24.0399 141.261 25.2415 142.5C26.8409 140.326 28.5636 138.032 30.7241 135.249C29.6956 138.508 28.687 141.784 27.7182 145.092C28.5239 145.95 29.3693 146.857 30.3162 147.885C31.0145 147.346 31.7247 146.815 32.423 146.288C32.0092 144.661 31.7466 143.616 31.482 142.578C31.5715 142.1 31.663 141.627 31.7545 141.15C35.5064 146.942 37.4858 138.171 41.186 137.941C40.3027 140.22 39.5229 142.277 38.7232 144.442C40.6866 144.215 41.8206 140.861 43.3106 139.283C43.2051 137.714 43.0918 136.154 42.9923 134.587C44.3669 136.12 45.5287 137.431 46.6129 138.675C47.4265 137.64 48.1824 136.608 49.0578 135.834C49.1692 135.735 49.5312 135.91 49.8634 136.158C50.8442 135.016 51.8965 133.803 53.0722 132.474C51.9443 135.746 50.8541 139.045 49.7819 142.373C50.2056 142.878 50.6413 143.401 51.0929 143.948C54.228 144.868 57.405 142.182 60.8108 138.337C64.3756 134.31 67.853 129.967 72.6314 127.962C73.5922 127.558 74.4715 126.359 75.3349 125.468C76.994 123.759 78.5039 121.825 80.3022 120.379C83.8035 117.566 87.4738 114.968 91.1043 112.698C94.7926 110.39 98.6479 108.528 102.495 106.776C102.316 104.574 102.151 102.391 102.006 100.231C103.412 102.027 104.638 103.672 105.8 105.248C108.036 104.156 110.25 102.974 112.563 102.009C112.746 101.882 112.921 101.759 113.108 101.631C113.081 101.693 113.053 101.753 113.027 101.814C115.983 100.629 119.124 99.8211 122.655 100.058C118.129 103.523 114.272 107.579 109.703 110.603C111.093 112.505 112.396 114.325 113.918 116.36C111.384 116.187 109.275 115.998 107.272 115.791C105.983 118.606 104.656 121.453 103.229 124.304C103.217 121.296 103.158 118.31 103.072 115.34C102.644 115.294 102.205 115.25 101.761 115.205C101.632 115.324 101.501 115.443 101.369 115.551C97.5438 118.652 93.6189 121.829 89.8849 125.328C87.3803 127.678 84.9115 130.186 82.8088 133.001C82.0887 133.966 82.4209 135.824 82.3095 137.272C82.208 138.577 82.1583 139.882 82.0827 141.189C82.2518 141.038 82.4209 140.887 82.59 140.738C83.5608 143.809 84.5137 146.885 85.7152 150.937C98.7334 139.118 111.97 127.258 126.242 119.026C155.813 101.974 190.044 101.6 222.012 115.539C228.426 118.336 234.832 122.617 240.947 125.776C239.769 119.364 239.035 109.955 238.377 102.353ZM88.6018 145.059C88.4904 144.653 88.375 144.249 88.2616 143.843C89.5009 143.055 90.7443 142.283 91.9896 141.521C92.101 142.039 92.2084 142.556 92.3178 143.075C91.0765 143.724 89.8371 144.382 88.6018 145.059ZM97.874 134.666C96.0538 133.123 96.0399 133.089 99.4516 130.041C98.7115 132.203 98.3057 133.387 97.874 134.666ZM221.424 40.4912C219.335 40.5688 217.604 40.6543 215.975 40.7517C216.717 42.6436 217.491 44.6668 218.416 47.1376C216.233 44.7444 214.381 42.7988 212.589 40.9945C210.944 41.1278 209.191 41.2949 207.017 41.5376C207.671 39.8626 208.216 38.5098 208.748 37.2466C206.878 35.48 204.837 33.628 202.239 31.382C205.266 32.6114 207.655 33.6499 209.866 34.6604C210.417 33.4191 211.017 32.1121 211.769 30.4928C212.814 32.9536 213.645 34.939 214.409 36.8229C216.552 37.8812 218.782 39.037 221.424 40.4912ZM200.016 51.5399C197.502 49.2701 195.413 47.4777 193.454 45.8624C191.87 46.302 190.235 46.851 188.253 47.6368C188.663 45.6535 189.003 44.064 189.342 42.5959C187.39 41.1019 185.315 39.584 182.699 37.7559C185.558 38.4044 187.862 39.0031 190.05 39.6536C190.41 38.2173 190.806 36.7293 191.305 34.9031C192.668 37.3301 193.75 39.2996 194.755 41.1855C197.018 41.9872 199.438 42.9281 202.346 44.1436C200.195 44.4639 198.429 44.7444 196.792 45.0726C197.766 46.9705 198.789 49.0194 200.016 51.5399ZM176.15 31.6685C173.419 29.9199 171.133 28.5233 168.955 27.2382C167.232 27.9186 165.392 28.6805 163.11 29.6632C163.588 27.6839 163.986 26.0923 164.372 24.6143C162.143 23.3809 159.911 22.2828 157.228 21.1011C160.196 21.0593 162.722 21.2344 165.189 21.5785C165.587 20.1422 166.019 18.6363 166.554 16.7942C168.002 18.9467 169.162 20.6993 170.252 22.3683C172.671 22.7841 175.211 23.2735 178.253 23.92C176.049 24.6461 174.237 25.2688 172.526 25.8895C173.61 27.5904 174.758 29.4146 176.15 31.6685ZM157.112 43.3498C154.512 42.1224 152.362 41.1954 150.335 40.3798C148.829 41.5973 147.245 42.952 145.322 44.6847C145.61 42.3592 145.859 40.4932 146.103 38.7744C144.064 38.0463 141.892 37.3301 139.206 36.5244C142.081 35.9435 144.428 35.5497 146.637 35.2453C146.905 33.5743 147.204 31.8336 147.584 29.715C149.006 31.6287 150.156 33.2043 151.236 34.7201C153.45 34.5212 155.799 34.378 158.676 34.3103C156.649 35.6511 155.014 36.799 153.488 37.9329C154.57 39.5005 155.72 41.2113 157.112 43.3498ZM177.322 11.1843C180.36 11.8328 182.831 12.4197 185.2 13.0503C185.643 11.6916 186.121 10.2533 186.71 8.46088C188.146 10.8143 189.282 12.7241 190.336 14.5284C192.863 15.3102 195.592 16.2233 198.898 17.4208C196.418 17.7332 194.373 17.9958 192.491 18.2823C193.509 20.0925 194.578 22.0242 195.851 24.3915C193.08 22.2112 190.808 20.4983 188.699 18.9566C186.901 19.3266 185.063 19.7901 182.87 20.4407C183.417 18.6503 183.871 17.194 184.303 15.8333C182.24 14.405 180.061 12.9469 177.322 11.1843ZM217.576 -4.13558C212.147 -5.62559 214.55 -10.4099 214.55 -10.4099C214.55 -10.4099 217.077 -6.3895 217.576 -4.13558ZM212.826 9.51924C215.525 10.6512 218.147 11.8189 220.7 13.0463C218.334 13.2651 216.379 13.4601 214.531 13.6491C215.336 15.6324 216.176 17.7272 217.168 20.2775C214.739 17.8386 212.681 15.8732 210.685 14.049C208.809 14.2519 206.816 14.4727 204.331 14.7691C205.129 13.0503 205.784 11.6319 206.414 10.2771C204.329 8.49867 202.063 6.64064 199.171 4.40463C202.095 5.37344 204.946 6.40594 207.721 7.47223C208.362 6.08964 209.048 4.59763 209.901 2.71174C211.067 5.37546 211.982 7.51399 212.826 9.51924ZM180.382 -14.315C180.833 -15.8687 181.311 -17.5536 181.89 -19.6822C183.127 -17.7287 184.161 -16.0616 185.106 -14.5179C188.401 -14.8322 191.657 -15.055 194.983 -14.4662C200.398 -13.5093 205.684 -11.9536 210.856 -12.1983C210.785 -9.8509 210.741 -8.50616 210.695 -7.21508C209.531 -7.0997 208.183 -7.15738 207.037 -6.81124C204.321 -5.98766 201.703 -6.61229 198.244 -9.05519C197.209 -9.78528 196.006 -10.2488 194.757 -10.589C192.332 -10.014 190.271 -9.5406 188.377 -9.08306C189.513 -7.16335 190.692 -5.1382 192.097 -2.65949C189.019 -4.81195 186.513 -6.49295 184.209 -8.02076C182.242 -7.48364 180.25 -6.88084 177.905 -6.105C178.498 -8.02869 178.983 -9.61417 179.445 -11.136C177.213 -12.5743 174.879 -14.0544 171.931 -15.8309C175.164 -15.3017 177.817 -14.8223 180.382 -14.315ZM159.303 -4.25093C159.707 -5.731 160.138 -7.31055 160.669 -9.26209C162.11 -7.19318 163.281 -5.48829 164.415 -3.82123C166.984 -3.42336 169.681 -2.96586 172.924 -2.3611C170.56 -1.58128 168.613 -0.942669 166.779 -0.323986C167.901 1.34904 169.08 3.12949 170.505 5.31776C167.636 3.6129 165.239 2.24823 162.953 0.988981C161.103 1.63353 159.362 2.66997 157.136 3.83572C157.644 1.90208 158.063 0.32847 158.465 -1.15358C156.305 -2.14029 153.999 -3.15086 151.138 -4.33252C154.298 -4.38823 156.874 -4.3504 159.303 -4.25093ZM139.763 9.43764C140.086 7.87005 140.43 6.21494 140.86 4.17588C142.328 6.00606 143.505 7.49804 144.609 8.90649C146.957 8.69761 149.457 8.53849 152.525 8.44698C150.337 9.71817 148.566 10.8004 146.917 11.8627C148.017 13.289 149.185 14.8168 150.599 16.7067C147.868 15.6544 145.626 14.8546 143.507 14.1444C141.88 15.2743 140.159 16.5197 138.076 18.1112C138.464 16.0164 138.791 14.3215 139.103 12.736C136.982 12.0895 134.719 11.4409 131.933 10.7068C134.955 10.1359 137.43 9.74599 139.763 9.43764ZM133.891 23.737C131.848 25.4518 130.201 26.8961 128.667 28.3045C129.809 29.6453 131.026 31.0955 132.508 32.8979C129.801 32.2235 127.589 31.7302 125.506 31.3084C124.002 32.7885 122.41 34.4078 120.493 36.4608C120.747 34.1293 120.964 32.2494 121.179 30.5007C119.1 30.1446 116.89 29.8064 114.179 29.4503C117.055 28.3821 119.417 27.5864 121.647 26.8901C121.881 25.1753 122.132 23.369 122.452 21.1608C123.946 22.8458 125.154 24.2264 126.292 25.5394C128.54 24.9346 130.939 24.3537 133.891 23.737ZM113.807 1.30528C114.045 -0.425442 114.298 -2.27156 114.604 -4.55333C116.172 -2.77486 117.437 -1.33659 118.619 0.00621414C120.958 -0.578651 123.455 -1.14561 126.542 -1.74241C124.408 -0.0276012 122.687 1.41271 121.082 2.80724C122.259 4.14407 123.503 5.55848 125.017 7.29914C122.21 6.6546 119.92 6.17717 117.767 5.75742C116.188 7.20367 114.523 8.77719 112.508 10.7586C112.812 8.50266 113.069 6.6665 113.305 4.93578C111.153 4.5598 108.869 4.19176 106.066 3.78594C109.046 2.74949 111.491 1.97767 113.807 1.30528ZM96.4974 22.2768C96.6784 20.4606 96.8714 18.5408 97.1141 16.1775C98.6459 17.7491 99.8853 19.0282 101.049 20.2338C103.257 19.2868 105.615 18.3359 108.535 17.2498C106.555 19.3366 104.964 21.0773 103.48 22.7562C104.648 23.9717 105.887 25.2668 107.409 26.8702C104.695 26.6056 102.489 26.4345 100.416 26.3052C98.9622 28.0399 97.4245 29.9239 95.5724 32.2872C95.7793 29.8721 95.9583 27.9186 96.1274 26.0864C94.0684 26.0029 91.8861 25.9392 89.2165 25.9133C92.0135 24.4412 94.3151 23.3013 96.4974 22.2768ZM91.3808 50.231C88.7509 50.2628 86.6204 50.3364 84.6231 50.4279C83.3002 52.4729 81.9116 54.6851 80.2386 57.4641C80.3202 54.8044 80.4037 52.6599 80.4873 50.6666C78.5039 50.8059 76.4071 50.979 73.8489 51.2356C76.4708 49.3636 78.6312 47.8935 80.6822 46.5487C80.7837 44.5852 80.901 42.5203 81.0542 39.9978C82.5721 41.4699 83.8094 42.6754 84.9772 43.8233C87.0521 42.5461 89.2702 41.2371 92.0254 39.7054C90.2131 42.1841 88.7629 44.249 87.4101 46.2324C88.5838 47.4041 89.8371 48.6614 91.3808 50.231ZM71.7302 20.3869C71.8436 18.4334 71.965 16.3506 72.1082 13.7784C73.6559 15.3241 74.9112 16.5734 76.0908 17.7391C78.2095 16.4938 80.4773 15.2207 83.2962 13.7307C81.4362 16.1875 79.9402 18.2206 78.5457 20.1641C79.7234 21.3239 80.9746 22.5474 82.5084 24.0533C79.8487 24.0931 77.6922 24.1667 75.6691 24.2523C74.2984 26.2356 72.8582 28.3762 71.1115 31.0438C71.2548 28.4975 71.3741 26.4246 71.4895 24.4711C69.4823 24.5924 67.3557 24.7416 64.7675 24.9664C67.4372 23.1362 69.6414 21.6979 71.7302 20.3869ZM56.9733 47.3225C57.039 45.2934 57.1146 43.1449 57.212 40.515C58.706 41.8996 59.9215 43.0315 61.0694 44.0978C63.0547 42.574 65.1754 40.9925 67.8232 39.1185C66.3451 41.4998 64.9008 43.9068 63.4745 46.3358C64.6243 47.4101 65.8497 48.554 67.3557 49.9743C64.8213 50.3006 62.7702 50.599 60.8485 50.8994C59.4321 53.4059 58.0336 55.9383 56.6729 58.5026C56.7286 55.7971 56.7863 53.6089 56.844 51.5618C54.9343 51.896 52.9131 52.276 50.4543 52.7753C52.9509 50.6169 55.0158 48.9001 56.9733 47.3225ZM36.0336 114.556C34.9514 117.807 33.8214 121.037 32.7194 124.272C32.5523 120.966 32.4269 118.282 32.2738 115.728C30.4913 116.305 28.6034 116.937 26.3137 117.749C28.4861 114.89 30.2844 112.618 31.9873 110.504C31.862 108.011 31.7486 105.409 31.6272 102.276C33.1431 103.746 34.3884 104.966 35.5741 106.139C37.3008 104.076 39.1449 101.916 41.4466 99.3277C40.2848 102.373 39.1648 105.471 38.0548 108.632C39.2484 109.845 40.5315 111.168 42.1229 112.835C39.7457 113.478 37.828 114.019 36.0336 114.556ZM41.3491 132.794C46.0877 128.275 47.6075 128.356 49.2169 132.924C46.4438 132.856 44.2834 132.816 41.3491 132.794ZM37.5355 83.3315C39.871 80.8468 41.8086 78.8674 43.6368 77.0352C43.6269 74.841 43.6269 72.5354 43.6368 69.7304C45.1169 71.0871 46.3304 72.2011 47.4762 73.2674C49.3323 71.485 51.3157 69.625 53.7904 67.4009C52.4575 70.0686 51.1625 72.7741 49.8833 75.5134C51.0391 76.5995 52.2705 77.7733 53.7964 79.2394C51.3515 79.7606 49.3761 80.2182 47.528 80.6658C46.2647 83.4907 45.0274 86.3552 43.8159 89.2676C43.7443 86.2697 43.7025 83.8666 43.6746 81.6326C41.8405 82.114 39.8969 82.6492 37.5355 83.3315ZM55.541 135.87C53.681 133.391 53.671 133.385 55.4316 131.219C55.7419 131.264 56.0523 131.308 56.3646 131.356C56.1259 132.643 55.8891 133.934 55.541 135.87ZM65.1634 110.727C62.6608 111.087 60.6317 111.413 58.7359 111.749C57.6258 114.964 56.468 118.187 55.2884 121.376C55.1332 117.958 54.9621 115.139 54.7751 112.503C52.8952 112.881 50.9059 113.309 48.4888 113.874C50.7606 111.206 52.6426 109.091 54.425 107.128C54.2738 104.572 54.1365 101.916 53.9933 98.717C55.6007 100.372 56.9196 101.743 58.1769 103.078C59.9852 101.168 61.9168 99.1785 64.3219 96.8092C63.1204 99.7833 61.9546 102.819 60.8167 105.912C62.0899 107.297 63.4625 108.817 65.1634 110.727ZM60.1642 80.2301C62.6151 77.9742 64.6362 76.1878 66.554 74.5426C66.55 72.3464 66.5599 70.0487 66.5878 67.2637C68.1275 68.7537 69.3868 69.985 70.5824 71.1667C72.5259 69.5792 74.6028 67.934 77.1869 65.9825C75.7865 68.505 74.4317 71.0692 73.0949 73.6733C74.2964 74.8887 75.5855 76.2037 77.179 77.8588C74.6307 78.0975 72.5677 78.3403 70.6341 78.5889C69.3112 81.3004 68.0121 84.0536 66.7549 86.8646C66.6693 83.8249 66.6216 81.3919 66.5898 79.1459C64.6721 79.4384 62.6409 79.7805 60.1642 80.2301ZM89.3617 111.773C86.7517 111.755 84.6291 111.791 82.6437 111.859C81.5217 115.047 80.2068 118.119 78.9634 121.264C78.8441 118.224 78.7764 115.215 78.5118 112.065C76.5305 112.195 74.4417 112.372 71.8854 112.632C74.2587 110.166 76.2142 108.224 78.0682 106.436C77.8554 103.497 77.6544 100.597 77.4973 97.7343C79.2002 99.646 80.5987 101.239 81.9315 102.793C83.8035 101.076 85.8047 99.2919 88.2894 97.1952C87.062 100.1 85.8863 103.078 84.7405 106.113C86.0972 107.737 87.5554 109.515 89.3617 111.773ZM97.2434 74.7137C98.4927 76.1222 99.8335 77.6658 101.483 79.6055C98.8607 79.4602 96.7222 79.3986 94.7209 79.3727C93.3602 81.9628 92.0234 84.6027 90.7383 87.3022C90.6269 84.171 90.5573 81.6783 90.5135 79.3826C88.5202 79.4185 86.4095 79.496 83.8313 79.6393C86.3777 77.6599 88.4764 76.1082 90.4618 74.6918C90.4518 72.4637 90.4578 70.1501 90.4896 67.3511C92.0891 69.0461 93.3921 70.4505 94.6334 71.8112C96.6426 70.4684 98.7911 69.0899 101.453 67.4845C100.005 69.8438 98.6161 72.2569 97.2434 74.7137ZM98.0591 52.2501C100.774 50.7203 103.009 49.5406 105.121 48.4783C105.247 46.5507 105.394 44.5315 105.587 42.0787C107.12 43.7119 108.364 45.0587 109.541 46.3517C111.676 45.369 113.956 44.3843 116.773 43.2623C114.901 45.4586 113.403 47.2987 112.006 49.0811C113.198 50.414 114.465 51.8583 116.027 53.6725C113.355 53.3025 111.177 53.0618 109.13 52.8708C107.765 54.7308 106.333 56.756 104.602 59.3143C104.697 56.6525 104.791 54.516 104.892 52.5406C102.857 52.4093 100.697 52.3138 98.0591 52.2501ZM126.308 85.7366C123.67 85.0503 121.507 84.5649 119.476 84.159C118.11 86.6159 116.769 89.1264 115.49 91.7086C115.364 88.9076 115.283 86.1424 115.217 83.4011C113.174 83.0789 111.01 82.7884 108.344 82.5039C110.958 80.8746 113.102 79.6214 115.13 78.4954C115.1 75.9551 115.08 73.4386 115.1 70.9419C116.735 72.9571 118.062 74.6341 119.329 76.2693C121.362 75.2408 123.536 74.2124 126.21 73.0466C124.762 75.2349 123.371 77.4829 122.001 79.7825C123.27 81.4894 124.639 83.3673 126.308 85.7366ZM122.79 56.7759C125.542 55.6738 127.798 54.8522 129.924 54.138C130.061 52.1944 130.225 50.1812 130.443 47.7363C131.967 49.6421 133.195 51.2216 134.36 52.7514C136.499 52.1347 138.779 51.5439 141.574 50.9252C139.702 52.8211 138.194 54.4284 136.793 55.998C137.969 57.5935 139.224 59.3361 140.75 61.5304C138.118 60.6133 135.95 59.9369 133.913 59.356C132.54 61.0152 131.1 62.8413 129.365 65.1649C129.461 62.4295 129.556 60.2452 129.666 58.236C127.625 57.7466 125.458 57.2792 122.79 56.7759ZM150.585 97.4518C148.16 96.3815 146.115 95.4744 144.152 94.613C142.849 96.7754 141.528 98.9656 140.133 101.152C140.098 98.341 140.036 95.56 139.98 92.8167C137.977 91.9831 135.831 91.1357 133.197 90.2524C135.785 89.1006 137.897 88.2491 139.887 87.5151C139.841 84.8096 139.811 82.1359 139.825 79.4861C141.238 81.6684 142.614 83.8885 143.973 86.1325C145.96 85.5138 148.073 84.9269 150.659 84.3281C149.257 86.3373 147.926 88.4202 146.613 90.5567C147.946 92.8286 149.265 95.1342 150.585 97.4518ZM165.802 75.8536C162.85 74.099 160.033 72.591 158.095 71.475C156.772 72.9312 155.378 74.5446 153.703 76.6235C153.802 73.7071 153.91 71.3935 154.029 69.2769C152.069 68.2842 149.981 67.3034 147.383 66.1934C150.07 65.6304 152.256 65.2544 154.309 64.9759C154.461 62.9507 154.638 60.858 154.878 58.3375C156.327 60.673 157.484 62.6205 158.581 64.5164C160.626 64.3552 163.534 64.5661 166.592 64.7153C164.555 66.1934 162.882 67.4606 161.304 68.7198C162.641 70.7887 164.065 73.0427 165.802 75.8536ZM164.005 48.8245C167.141 49.0712 169.631 49.3158 171.947 49.6023C172.227 47.9352 172.544 46.2165 172.944 44.1316C174.416 46.493 175.595 48.4266 176.713 50.2827C178.981 50.6527 181.352 51.0983 184.189 51.705C182.208 52.6221 180.579 53.4139 179.039 54.2136C180.157 56.1313 181.35 58.2181 182.791 60.8023C180.157 58.8865 177.947 57.3567 175.842 55.9642C174.294 56.8514 172.645 57.8521 170.602 59.1511C170.891 56.7719 171.141 54.874 171.394 53.1334C169.239 51.8124 166.92 50.4617 164.005 48.8245ZM191.269 96.3019C188.828 94.424 186.734 92.7987 184.708 91.2232C183.378 92.4008 181.935 93.6283 180.093 95.0646C180.227 92.6595 180.31 90.2742 180.394 87.9049C178.295 86.3195 176.031 84.6564 173.19 82.7566C176.111 82.874 178.418 83.0291 180.567 83.234C180.654 80.8687 180.754 78.5233 180.903 76.2117C182.276 78.7222 183.602 81.2347 184.903 83.7572C187.002 84.0616 189.194 84.4594 191.818 85.0085C190.127 86.3592 188.757 87.5707 187.458 88.7444C188.727 91.251 189.992 93.7695 191.269 96.3019ZM205.583 82.9853C203.645 80.8687 201.612 78.7978 199.493 76.7508C198.174 77.4749 196.788 78.3343 195.091 79.4841C195.28 76.9716 195.449 74.9743 195.63 73.156C193.577 71.3079 191.454 69.4738 189.236 67.6834C191.908 68.2822 194.044 68.8451 196.042 69.4519C196.257 67.6973 196.505 65.897 196.829 63.7226C197.999 66.1039 199.121 68.4811 200.221 70.8544C202.227 71.5904 204.339 72.4458 206.872 73.5499C205.087 74.1925 203.633 74.7654 202.276 75.3722C203.408 77.9046 204.516 80.437 205.583 82.9853ZM205.905 58.8905C208.565 60.0702 210.665 61.0609 212.607 62.0238C213.017 60.6392 213.47 59.2088 214.047 57.4702C215.058 60.0205 215.861 62.1013 216.611 64.0887C218.493 65.0953 220.17 66.0601 223.63 67.944C221.016 67.7968 219.534 68.0116 218.153 68.2484C218.889 70.2755 219.681 72.4717 220.614 75.1772C218.903 73.0466 217.099 70.924 215.251 68.8193C213.872 69.1177 212.416 69.4758 210.616 69.9671C211.049 67.9917 211.423 66.4202 211.793 64.9799C209.899 62.9388 207.946 60.9057 205.905 58.8905ZM226.866 110.002C224.599 107.57 222.299 105.087 219.91 102.57C218.308 102.966 217.449 103.704 215.959 104.317C216.243 102.236 216.432 100.289 216.609 98.3231C214.841 95.9856 213.039 93.6601 211.135 91.3863C213.46 92.4227 215.291 93.2941 216.987 94.1574C217.168 92.2417 217.381 90.2504 217.7 88.0721C218.611 90.6801 219.426 93.2722 220.737 96.115C223.148 97.3662 225.605 98.7011 228.422 100.316C226.445 100.762 224.804 101.22 223.246 101.661C224.465 104.41 225.655 107.186 226.866 110.002Z" fill="#3C3B6E"/>
<path d="M66.8698 149.054C66.7942 149.06 66.7147 149.06 66.6391 149.064C66.2989 149.517 65.9607 149.975 65.6245 150.433C66.1119 151.055 66.5794 151.664 67.0449 152.269C66.9892 151.192 66.9295 150.122 66.8698 149.054Z" fill="#3C3B6E"/>
<path d="M61.8335 1.43638C61.8752 -0.284391 61.9091 -1.83602 61.9389 -3.332C59.866 -3.34393 57.6698 -3.34199 55.0041 -3.29624C57.6797 -5.15428 59.8959 -6.60847 61.9986 -7.93337C62.0065 -8.64555 62.0125 -9.37163 62.0165 -10.1335C56.6413 -8.38691 52.1116 -5.58994 49.9512 0.811741C51.0214 1.06638 51.8072 1.18377 52.5194 1.44039C55.4497 2.49474 58.6088 1.96356 61.8335 1.43638Z" fill="#3C3B6E"/>
<path d="M30.0067 72.4626C28.3735 74.0442 26.7442 75.6237 25.1309 77.2172C25.2224 77.3007 25.3179 77.3843 25.4114 77.4659C26.8059 75.9102 28.284 74.2928 30.0067 72.4626Z" fill="#3C3B6E"/>
<path fill-rule="evenodd" clip-rule="evenodd" d="M377.221 222.579C377.056 222.696 376.811 222.559 376.536 222.535C376.781 221.924 376.97 221.457 377.215 220.852C375.2 220.846 373.318 220.639 371.444 220.593C369.617 220.55 367.682 221.373 366.154 219.559C368.334 219.01 370.489 218.674 372.669 218.499C373.706 218.417 374.396 218.153 374.565 216.651C372.689 214.733 370.737 217.916 368.798 216.828C369.033 215.352 368.673 213.169 370.728 214.81C370.924 214.968 371.287 214.876 371.553 214.775C373.529 214.027 375.156 212.507 376.117 209.674C361.193 214.651 347.576 218.461 331.89 216.092C317.998 213.993 302.961 209.155 292.435 200.35C285.26 194.346 279.139 185.504 272.637 178.933C247.783 153.812 206.876 142.805 173.636 150.428C135.618 159.147 107.952 182.217 81.2337 211.564C81.3073 211.84 81.4306 212.165 81.6096 212.594C82.3636 214.403 82.7495 215.841 80.7801 217.956C80.1475 218.636 79.8531 220.144 79.4492 221.172C81.5042 223.377 81.922 220.122 82.8072 218.107C83.1096 219.253 83.3185 220.048 83.6169 221.188C86.5531 217.737 89.2348 214.019 92.2705 211.669C96.1557 208.661 99.5316 204.368 103.685 201.745C106.751 199.809 109.936 201.595 112.751 197.396C111.412 203.861 106.876 206.638 103.731 210.541C99.8061 215.413 95.2406 219.945 91.3812 224.735C90.7825 225.475 90.3408 226.526 89.9191 227.598C115.084 199.898 143.496 181.25 178.844 172.523C210.524 164.705 249.732 172.965 273.505 196.914C288.831 212.354 310.19 227.642 332.188 231.222C353.834 234.746 372.713 225.555 391.558 216.127C391.096 216.324 390.635 216.505 390.177 216.7C385.697 218.602 381.285 219.706 377.221 222.579ZM363.427 219.549C363.313 219.225 363.198 218.895 363.087 218.57C363.693 218.206 364.298 217.84 364.903 217.464C365 217.685 365.096 217.904 365.193 218.125C364.604 218.604 364.018 219.08 363.427 219.549ZM365.913 216.119C367.23 215.373 367.222 215.367 368.08 217.409C367.31 217.315 366.546 217.208 365.788 217.084C365.83 216.766 365.872 216.442 365.913 216.119Z" fill="white"/>
<path fill-rule="evenodd" clip-rule="evenodd" d="M314.95 248.024C315.883 246.166 316.941 245.33 318.109 244.815C301.194 239.132 285.685 228.652 272.913 216.501C231.535 177.12 157.747 197.139 116.936 228.164C116.924 229.046 116.914 229.893 116.904 230.78C118.366 230.229 119.393 229.857 120.483 229.473C120.515 230.977 120.544 232.026 120.566 232.811C122.438 231.906 124.28 231.558 125.78 230.247C127.069 229.117 127.917 226.796 129.081 225.162C131.271 222.095 132.498 222.306 133.59 224.934C132.62 226.843 131.933 228.232 131.108 229.921C129.478 228.459 127.793 227.878 126.359 231.727C126.099 232.43 124.991 232.672 124.314 233.245C120.741 236.261 117.228 239.47 113.789 242.806C113.81 243.144 113.832 243.48 113.854 243.82C115.133 243.94 116.413 244.073 117.654 244.218C117.125 246.59 116.661 248.742 116.098 251.517C119.641 250.043 122.88 250.091 125.124 247.799C129.015 243.832 132.624 239.947 137.404 238.559C140.046 237.791 141.822 233.918 145.66 231.047C146.342 231.628 147.223 232.394 147.78 232.883C151.964 232.943 154.93 226.826 158.662 229.754C159.416 229.471 160.166 229.191 160.912 228.922C161.202 228.636 161.487 228.391 161.803 228.246C162.137 228.097 162.561 228.139 162.977 228.194C163.705 227.944 164.429 227.695 165.149 227.454C171.075 222.859 177.778 222.698 183.636 220.899C185.456 220.342 188.009 220.054 187.971 216.551C187.941 216.507 187.907 216.475 187.877 216.429C187.895 216.398 187.917 216.366 187.937 216.334C187.376 216.079 186.803 215.829 185.958 215.466C186.682 214.076 187.285 212.934 187.919 211.736C190.213 213.519 188.781 214.904 187.937 216.334C187.949 216.34 187.953 216.344 187.965 216.346C187.965 216.417 187.969 216.479 187.969 216.551C189.135 218.279 190.263 218.729 192.242 217.915C195.244 216.68 198.439 216.523 201.441 216.205C202.686 216.071 204.162 216.919 205.147 216.33C207.218 215.087 208.228 216.775 209.265 218.84C209.336 218.986 209.404 219.141 209.47 219.292C211.089 219.288 212.682 219.334 214.25 219.409C214.17 218.711 214.089 218.053 214.001 217.291C215.577 218.472 216.814 219.332 217.666 219.787C218.364 219.893 219.048 220.002 219.727 220.112C219.987 220.03 220.27 219.915 220.612 219.771C219.488 218.976 218.358 218.2 216.794 217.177C221.171 214.816 222.171 215.399 223.66 220.772C224.033 220.836 224.402 220.901 224.768 220.971C226.713 221.047 228.581 221.055 230.381 221.403C233.399 221.986 233.69 221.604 233.797 216.686C237.907 216.726 241.647 216.764 245.005 216.807C245.54 219.36 245.864 221.039 246.111 222.334C245.642 223.665 245.222 224.868 244.84 225.97C245.664 226.241 246.461 226.521 247.243 226.8C247.307 226.788 247.366 226.776 247.426 226.766C247.432 226.8 247.434 226.832 247.438 226.861C254.661 229.786 261.485 232.71 268.01 237.612C268.326 237.546 268.64 237.463 268.951 237.337C269.854 236.977 270.942 240.053 271.706 234.178C272.386 236.579 272.909 238.531 273.508 240.866C273.614 240.14 273.775 239.03 273.872 238.378C274.893 237.916 275.876 236.943 276.791 237.168C278.505 237.586 280.149 238.887 281.883 239.454C284.392 240.272 287.016 240.727 289.934 241.366C290.501 241.491 291.102 242.738 291.472 239.647C291.502 239.412 292.305 239.247 292.427 239.804C293.443 244.495 295.007 243.045 296.694 241.947C297.728 245.396 297.78 245.287 299.049 242.199C299.304 241.574 300.378 242.175 300.378 242.241C300.38 246.689 301.801 245.509 302.712 245.838C304.743 246.566 306.955 246.98 309.334 247.101C310.747 247.171 312.205 246.57 314.017 246.198C314.079 246.317 314.483 247.117 314.95 248.024ZM183.499 215.632C178.601 217.895 173.417 220.132 167.56 222.982C167.648 221.156 167.405 219.95 167.783 219.63C169.444 218.22 171.165 216.598 173.023 216.02C175.561 215.232 178.255 215.653 180.7 215.049C181.977 214.732 183.039 213.145 184.185 212.16C184.418 212.301 184.653 212.443 184.885 212.584C184.434 213.628 184.185 215.315 183.499 215.632Z" fill="white"/>
<path fill-rule="evenodd" clip-rule="evenodd" d="M439.85 125.858C438.728 126.062 437.572 126.645 436.422 127.439C432.885 129.88 429.479 132.245 426.201 134.31C423.074 136.278 420.058 138.04 417.145 139.576C416.324 140.01 415.54 140.071 414.75 140.286C414.826 140.067 414.903 139.849 414.981 139.628C416.692 138.36 418.528 136.274 420.303 137.235C420.712 136.15 421.184 134.875 420.766 134.817C420.649 134.802 420.531 134.78 420.416 134.758C393.045 152.656 365.039 165.097 334.164 157.739C322.115 154.866 309.349 148.552 299.439 140.131C290.986 132.952 283.96 122.404 275.6 112.579C264.659 99.7177 250.992 89.1822 236.824 79.9755C237.226 87.2525 237.735 94.6031 238.374 102.35C250.833 111.719 262.123 121.873 273.593 132.317C281.598 139.606 288.394 148.717 296.315 155.576C305.914 163.888 319.354 169.88 331.596 172.283C363.368 178.515 391.644 164.552 419.555 146.604C419.549 146.378 419.545 146.153 419.541 145.926C419.684 145.828 419.825 145.725 419.966 145.628C420.092 145.781 420.219 145.934 420.35 146.087C421.154 145.56 421.97 145.017 422.789 144.47C425.306 141.919 429.046 138.876 430.114 138.559C432.835 135.749 435.336 133.131 438.429 129.842C435.042 131.446 432.551 132.542 430.102 133.574C430.138 133.375 430.176 133.176 430.213 132.975C433.307 130.777 436.516 128.414 439.85 125.858ZM408.49 144.344C407.913 144.613 407.368 144.428 406.813 144.434C406.896 144.273 406.982 144.116 407.067 143.955C407.861 143.533 408.663 143.095 409.473 142.652C409.586 142.711 409.699 142.777 409.813 142.836C409.367 143.362 408.908 144.151 408.49 144.344Z" fill="white"/>
<path fill-rule="evenodd" clip-rule="evenodd" d="M428.537 160.337C435.685 155.539 442.508 150.647 449.302 145.68C447.106 145.312 445.319 144.994 443.33 144.62C443.089 145.76 442.936 146.502 442.729 147.554C439.28 147.984 436.226 149.993 433.405 153.751C433.178 153.341 432.973 152.965 432.778 152.607C431.647 153.403 430.688 154.234 429.79 154.67C425.48 156.763 425.002 157.077 421.799 160.789C421.622 160.994 421.312 161.135 421.065 161.292C420.09 161.909 419.13 162.532 418.171 163.085C417.482 163.483 416.782 163.845 416.106 164.123C415.366 164.427 414.632 164.499 413.92 164.883C412.111 165.856 410.341 166.912 408.312 168.022C407.763 167.577 407.17 167.089 406.537 166.562C383.727 180.412 357.355 192.756 330.282 187.064C317.435 184.363 304.258 178.932 294.082 171.189C286.262 165.237 280.123 155.682 272.902 148.678C258.238 134.462 239.256 123.664 222.016 115.542C191.19 101.023 155.778 102 126.246 119.029C111.974 127.259 98.7374 139.121 85.7192 150.94C85.7331 150.986 85.747 151.037 85.761 151.083C85.6973 151.081 85.6436 151.079 85.5819 151.077C79.419 157.238 73.5305 163.514 67.8848 169.914C67.9206 170.177 67.9604 170.445 67.9982 170.724C68.8118 170.706 69.6235 170.694 70.4331 170.684C70.7852 171.1 71.1374 171.517 71.4875 171.935C66.7409 171.396 69.2853 175.498 66.8245 178.011C66.1123 177.06 65.4021 176.103 64.682 175.156C64.9406 181.18 58.6622 185.958 60.1602 191.618C57.1503 195.007 54.0291 198.511 51.1625 202.368C49.8913 204.077 50.132 207.817 50.8044 207.152C60.1503 197.918 68.1971 185.681 79.3255 178.387C80.2286 177.794 81.4918 175.305 81.9514 175.436C84.4957 176.159 86.3777 174.008 88.0487 171.748C89.6262 169.62 90.8178 167.091 91.8483 165.352C92.5764 165.311 93.5731 165.605 94.4524 165.158C98.4151 163.142 102.39 161.099 106.362 159.146C107.059 158.802 107.799 158.503 108.543 158.201C126.027 144.172 146.855 130.342 169.174 128.287C206.257 124.874 245.333 135.958 272.731 163.502C279.514 170.322 285.417 179.419 292.96 185.701C303.018 194.082 317.449 199.963 330.642 201.463C362.352 205.066 388.721 190.695 415.738 172.791C416.225 171.832 416.734 170.837 417.282 169.781C417.787 170.065 418.181 170.282 418.734 170.582C419.227 169.56 419.583 168.84 419.663 168.681C421.016 167.982 422.384 167.573 422.76 166.992C423.964 165.132 425.495 164.813 426.904 164C428.925 162.834 430.99 161.78 433.089 160.672C433.286 160.566 433.471 160.453 433.654 160.337C433.96 160.121 434.266 159.9 434.575 159.681C435.862 158.625 436.799 157.288 437.859 155.782C434.45 157.64 431.462 159.207 428.539 160.691C428.537 160.572 428.535 160.459 428.537 160.337ZM95.2739 146.476C95.0273 146.332 94.7806 146.185 94.5339 146.044C95.6778 144.081 96.8316 142.133 97.9894 140.207C98.429 140.502 98.8627 140.8 99.2984 141.095C97.9496 142.865 96.6088 144.659 95.2739 146.476Z" fill="white"/>
<path fill-rule="evenodd" clip-rule="evenodd" d="M288.473 66.7892C304.591 86.9172 320.842 106.996 344.682 118.404C347.121 119.57 349.721 120.603 352.365 121.502C352.162 121.15 351.973 120.776 351.766 120.444C351.856 120.314 351.943 120.179 352.035 120.05C352.741 120.511 353.459 120.969 354.33 121.496C354.446 120.953 354.48 120.525 354.625 120.177C355.048 119.16 355.882 119.003 356.564 119.705C357.072 120.229 357.577 121.052 358.152 121.118C358.683 121.176 359.292 120.416 359.988 119.93C360.272 121.293 361.146 121.86 362.099 121.211C363.756 120.085 365.017 120.784 366.513 121.41C368.182 122.111 369.666 123.758 372.027 122.813C372.988 122.429 374.033 122.461 374.771 121.347C374.92 121.124 375.226 120.911 375.475 120.845C377.484 120.304 379.575 119.694 381.433 119.077C382.651 117.828 383.681 116.666 384.896 115.667C385.31 115.325 386.152 115.464 386.798 115.212C387.504 114.933 388.209 114.47 389.01 114.024C388.346 112.719 386.892 114.058 385.973 114.155C385.995 113.823 386.014 113.515 386.036 113.208C370.199 115.231 359.278 113.019 348.569 108.249C323.008 96.858 307.812 72.1285 292.639 50.3652C284.409 38.5565 274.212 27.5814 263.386 17.7362C262.18 18.8005 259.909 16.648 258.478 15.8741C257.106 15.1341 255.433 12.2993 253.722 9.9002C247.809 5.48586 241.585 1.56686 235.076 -2.12335C235.306 6.08066 235.458 13.7436 235.557 20.9907C255.665 33.1614 273.904 48.5947 288.473 66.7892ZM380.599 114.7C381.262 114.818 381.902 114.919 382.835 115.046C381.668 115.619 380.747 116.063 379.557 116.618C380.017 115.755 380.313 115.216 380.599 114.7Z" fill="white"/>
<path fill-rule="evenodd" clip-rule="evenodd" d="M340.226 130.723C317.071 119.617 300.263 99.4827 282.582 79.7107C269.052 64.5858 252.759 52.6597 235.798 41.2767C235.888 47.8515 235.983 54.1577 236.115 60.3465C251.572 70.2255 266.601 81.5468 278.79 95.0067C287.402 104.52 294.919 116.603 303.109 125.396C311.363 134.258 325.008 139.699 337.115 143.932C365.819 153.975 395.397 140.594 419.484 125.077C419.949 124.703 420.442 124.375 420.958 124.097C422.471 123.082 424.013 122.038 425.585 120.938C425.308 120.958 425.183 120.965 425.207 120.964C425.991 119.537 427.31 117.793 427.377 116.889C427.483 115.477 424.276 116.193 422.143 117.617C421.009 118.373 419.891 119.183 418.823 119.911C418.286 118.956 419.145 118.254 420.643 117.263C424.97 114.401 429.482 111.162 434.236 107.838C433.717 107.587 433.252 107.368 432.729 107.118C431.955 108.003 431.071 109.031 430.359 109.875C428.591 110.905 427.035 111.807 424.735 113.096C425.834 111.994 426.719 111.12 427.586 110.273C401.456 126.53 369.317 144.674 340.226 130.723Z" fill="white"/>
<path fill-rule="evenodd" clip-rule="evenodd" d="M11.1226 124.039C11.8209 123.864 12.5191 123.689 13.2731 123.506C13.2731 123.544 13.2731 123.568 13.2711 123.605C13.6829 122.312 14.0907 121.023 14.5104 119.74C16.2252 119.028 18.0415 118.274 20.3094 117.389C18.8034 115.907 17.5939 114.735 16.464 113.649C17.5283 110.404 18.6224 107.227 19.7225 104.104C17.5362 106.895 15.7856 109.219 14.1484 111.441C13.0304 110.392 11.8527 109.306 10.4184 107.989C10.5298 111.102 10.6332 113.683 10.7426 116.145C9.88126 117.355 8.99402 118.632 8.03516 119.999C8.72943 120.391 9.33419 120.993 9.7997 121.789C10.2015 121.608 10.5954 121.431 10.9834 121.258C11.0271 122.155 11.0729 123.076 11.1226 124.039Z" fill="white"/>
<path fill-rule="evenodd" clip-rule="evenodd" d="M25.2374 142.502C24.0358 141.263 22.7746 139.992 21.2269 138.438C21.4735 141.772 21.6904 144.5 21.9112 147.088C20.3436 149.274 18.6944 151.598 16.731 154.48C18.8993 153.655 20.6877 153.012 22.3866 152.431C22.4941 153.577 22.6094 154.763 22.7328 156.02C23.0511 155.059 23.3714 154.096 23.6936 153.141C24.4337 152.539 25.1757 151.94 25.9217 151.341C25.9316 151.313 25.9376 151.287 25.9456 151.26C25.9893 151.246 26.0331 151.236 26.0769 151.224C27.4773 150.1 28.8858 148.986 30.3082 147.892C29.3612 146.861 28.5158 145.954 27.7101 145.099C28.6789 141.79 29.6895 138.512 30.716 135.255C28.5595 138.036 26.8368 140.33 25.2374 142.502Z" fill="white"/>
<path fill-rule="evenodd" clip-rule="evenodd" d="M21.9846 93.8602C23.1324 90.8344 24.3041 87.8524 25.4918 84.9142C27.2523 84.3034 29.1322 83.6748 31.4617 82.9348C30.0016 81.5979 28.8159 80.5297 27.7099 79.531C28.8836 76.732 30.0792 73.9629 31.2907 71.2256C30.8649 71.6394 30.4313 72.0491 30.0056 72.4629C28.2848 74.2951 26.8047 75.9105 25.4102 77.4661C25.3167 77.3826 25.2232 77.301 25.1297 77.2174C23.9918 78.3434 22.8678 79.4774 21.7617 80.6332C21.7637 80.9534 21.7677 81.2757 21.7697 81.5939C20.035 83.5972 18.2028 85.7577 15.9927 88.4612C18.2347 87.57 20.0828 86.8617 21.8294 86.2192C21.8672 88.4651 21.9129 90.8663 21.9846 93.8602Z" fill="white"/>
<path fill-rule="evenodd" clip-rule="evenodd" d="M36.0299 114.557C37.8243 114.02 39.744 113.479 42.1212 112.838C40.5298 111.171 39.2467 109.848 38.0531 108.635C39.1631 105.474 40.2831 102.376 41.4449 99.3307C39.1432 101.919 37.2991 104.079 35.5724 106.142C34.3867 104.967 33.1414 103.749 31.6255 102.279C31.7469 105.412 31.8603 108.014 31.9856 110.507C30.2827 112.622 28.4844 114.893 26.312 117.752C28.6017 116.942 30.4876 116.308 32.2721 115.731C32.4233 118.285 32.5486 120.969 32.7177 124.275C33.8158 121.038 34.9477 117.808 36.0299 114.557Z" fill="white"/>
<path fill-rule="evenodd" clip-rule="evenodd" d="M49.8622 136.162C50.2024 136.416 50.5048 136.754 50.463 136.961C50.1109 138.779 49.4445 140.62 48.8477 142.647C49.5976 143.313 50.3456 143.731 51.0916 143.95C50.64 143.403 50.2044 142.88 49.7807 142.374C50.8529 139.046 51.9411 135.748 53.071 132.475C51.8973 133.808 50.8429 135.02 49.8622 136.162Z" fill="white"/>
<path fill-rule="evenodd" clip-rule="evenodd" d="M46.2707 139.101C46.3861 138.958 46.4975 138.82 46.6089 138.677C45.5247 137.434 44.3649 136.123 42.9883 134.589C43.0858 136.157 43.1991 137.716 43.3066 139.286C44.1282 138.418 45.0552 138.08 46.2707 139.101Z" fill="white"/>
<path fill-rule="evenodd" clip-rule="evenodd" d="M42.376 43.2568C42.7878 42.9425 43.2056 42.6322 43.6233 42.3199C43.8959 41.7967 44.1644 41.2715 44.439 40.7503C41.9344 42.9266 39.9271 44.7409 38.0512 46.4835C37.3569 45.8529 36.6288 45.1925 35.8351 44.4644C35.3457 44.9657 34.8265 45.3914 34.2376 45.6719C34.2217 47.0883 34.2058 48.3714 34.1919 49.6028C34.5898 49.4198 34.9757 49.2169 35.3298 48.9543C37.721 47.1778 39.9689 45.087 42.376 43.2568Z" fill="white"/>
<path fill-rule="evenodd" clip-rule="evenodd" d="M43.8135 89.2671C45.023 86.3547 46.2604 83.4921 47.5256 80.6653C49.3737 80.2177 51.3491 79.7601 53.794 79.2389C52.2682 77.7728 51.0348 76.599 49.881 75.5128C51.1621 72.7735 52.4552 70.0681 53.7881 67.4004C51.3133 69.6245 49.33 71.4844 47.4739 73.2669C46.3261 72.2006 45.1146 71.0866 43.6345 69.7299C43.6245 72.5348 43.6245 74.8405 43.6345 77.0347C41.8063 78.8669 39.8687 80.8483 37.5332 83.331C39.8945 82.6466 41.8381 82.1115 43.6723 81.6321C43.6982 83.8661 43.7419 86.2692 43.8135 89.2671Z" fill="white"/>
<path fill-rule="evenodd" clip-rule="evenodd" d="M58.7373 111.749C60.6351 111.413 62.6622 111.087 65.1648 110.726C63.4639 108.817 62.0913 107.297 60.8181 105.912C61.956 102.817 63.1218 99.7831 64.3233 96.8091C61.9182 99.1784 59.9846 101.168 58.1783 103.077C56.921 101.743 55.6021 100.372 53.9947 98.7168C54.138 101.914 54.2752 104.569 54.4264 107.128C52.644 109.089 50.7621 111.206 48.4902 113.874C50.9073 113.311 52.8966 112.883 54.7765 112.503C54.9655 115.139 55.1366 117.958 55.2898 121.375C56.4695 118.186 57.6272 114.964 58.7373 111.749Z" fill="white"/>
<path fill-rule="evenodd" clip-rule="evenodd" d="M68.7819 154.528C69.4722 152.594 70.1525 150.67 70.8229 148.755C72.7307 148.585 74.74 148.349 77.1888 147.973C75.6133 146.075 74.2665 144.344 72.9675 142.609C73.3275 141.573 73.6936 140.535 74.0556 139.5C71.4317 142.757 68.9947 145.898 66.6274 149.061C66.703 149.057 66.7826 149.057 66.8582 149.051C66.9199 150.119 66.9776 151.189 67.0353 152.264C67.6201 153.022 68.201 153.77 68.7819 154.528Z" fill="white"/>
<path fill-rule="evenodd" clip-rule="evenodd" d="M47.5756 24.9494C47.5577 25.7769 47.5318 26.6284 47.51 27.5156C49.8017 25.1105 50.0842 21.7426 53.2651 22.2339C54.224 22.3811 54.9342 23.1968 55.5429 23.8911C56.3764 23.7916 57.2557 23.6941 58.2046 23.5927C56.6728 22.1186 55.4275 20.913 54.2439 19.7612C55.523 17.549 56.8877 15.2196 58.5886 12.3848C57.767 12.9597 57.0031 13.5027 56.269 14.0279C55.2365 15.4125 54.5462 17.1233 54.2399 19.2141C52.7698 18.1777 51.7373 17.4496 50.2493 16.4012C49.7201 18.303 49.3759 19.5543 49.1412 20.3998C48.6379 20.3679 48.1505 20.3361 47.6711 20.3083C47.6691 20.3879 47.6691 20.4694 47.6671 20.549C46.8018 21.2413 45.9125 21.9654 44.9775 22.7372C45.3814 23.5767 45.7693 24.3784 46.1532 25.1742C46.6366 25.0966 47.1101 25.021 47.5756 24.9494Z" fill="white"/>
<path fill-rule="evenodd" clip-rule="evenodd" d="M57.208 40.5149C57.1105 43.1448 57.0349 45.2932 56.9693 47.3224C55.0118 48.8999 52.9468 50.6167 50.4482 52.7771C52.909 52.2778 54.9302 51.8978 56.838 51.5636C56.7823 53.6086 56.7246 55.7989 56.6669 58.5044C58.0296 55.9402 59.4261 53.4078 60.8425 50.9012C62.7642 50.6008 64.8152 50.3024 67.3496 49.9762C65.8457 48.5578 64.6183 47.4119 63.4684 46.3376C64.8928 43.9067 66.3371 41.4996 67.8171 39.1204C65.1713 40.9943 63.0487 42.5758 61.0633 44.0996C59.9175 43.0314 58.7 41.8994 57.208 40.5149Z" fill="white"/>
<path fill-rule="evenodd" clip-rule="evenodd" d="M66.7528 86.8661C68.01 84.0552 69.3111 81.302 70.632 78.5906C72.5656 78.3439 74.6286 78.0992 77.1769 77.8605C75.5834 76.2073 74.2943 74.8904 73.0928 73.6749C74.4276 71.0709 75.7844 68.5066 77.1849 65.9841C74.6007 67.9337 72.5238 69.5808 70.5803 71.1683C69.3847 69.9847 68.1254 68.7552 66.5857 67.2652C66.5578 70.0503 66.5459 72.348 66.5519 74.5442C64.6341 76.1894 62.613 77.9758 60.1621 80.2317C62.6388 79.7801 64.6699 79.44 66.5897 79.1495C66.6195 81.3915 66.6672 83.8264 66.7528 86.8661Z" fill="white"/>
<path fill-rule="evenodd" clip-rule="evenodd" d="M81.9343 102.796C80.6015 101.242 79.201 99.6485 77.5001 97.7367C77.6553 100.599 77.8562 103.5 78.071 106.438C76.215 108.226 74.2615 110.168 71.8882 112.635C74.4445 112.374 76.5333 112.197 78.5147 112.068C78.7792 115.217 78.8449 118.227 78.9662 121.267C80.2096 118.121 81.5245 115.05 82.6465 111.861C84.6319 111.793 86.7545 111.758 89.3645 111.775C87.5582 109.518 86.098 107.739 84.7472 106.116C85.8931 103.08 87.0688 100.102 88.2962 97.1976C85.8076 99.2944 83.8063 101.077 81.9343 102.796Z" fill="white"/>
<path fill-rule="evenodd" clip-rule="evenodd" d="M61.8313 1.43653C62.3685 1.349 62.9036 1.26348 63.4427 1.18191C64.4513 -0.441382 65.3624 -1.8896 66.2417 -3.27417C68.3265 -3.23439 70.5466 -3.17671 73.2959 -3.06133C71.6586 -4.80995 70.3218 -6.25022 69.0466 -7.63877C70.0493 -9.1825 71.1116 -10.7958 72.3211 -12.6101C71.0797 -12.3256 69.8285 -12.1645 68.6806 -11.9119C67.8829 -11.4623 67.119 -11.0246 66.375 -10.589C66.19 -10.7959 66.001 -10.9988 65.814 -11.2117C64.5169 -10.8814 63.2457 -10.5332 62.0143 -10.1314C62.0124 -9.36948 62.0044 -8.64141 61.9965 -7.93121C59.8937 -6.60831 57.6776 -5.15213 55.002 -3.29409C57.6677 -3.34183 59.8639 -3.34383 61.9368 -3.32991C61.9069 -1.83592 61.8751 -0.284244 61.8313 1.43653Z" fill="white"/>
<path fill-rule="evenodd" clip-rule="evenodd" d="M76.0855 17.7396C74.9078 16.5738 73.6506 15.3245 72.1029 13.7788C71.9596 16.351 71.8383 18.4318 71.7249 20.3873C69.6361 21.6983 67.4319 23.1366 64.7622 24.9668C67.3503 24.742 69.4789 24.5908 71.4842 24.4715C71.3688 26.425 71.2494 28.4959 71.1062 31.0443C72.8528 28.3766 74.2931 26.238 75.6638 24.2527C77.6869 24.1671 79.8433 24.0935 82.5031 24.0537C80.9693 22.5478 79.72 21.3243 78.5403 20.1645C79.9349 18.219 81.4308 16.1879 83.2909 13.7311C80.472 15.2211 78.2041 16.4942 76.0855 17.7396Z" fill="white"/>
<path fill-rule="evenodd" clip-rule="evenodd" d="M81.0515 39.9994C80.8984 42.5219 80.781 44.5868 80.6796 46.5503C78.6305 47.8951 76.4701 49.3652 73.8462 51.2372C76.4045 50.9806 78.5012 50.8075 80.4846 50.6682C80.401 52.6615 80.3175 54.804 80.2359 57.4658C81.909 54.6867 83.2975 52.4746 84.6204 50.4295C86.6177 50.338 88.7483 50.2644 91.3782 50.2326C89.8365 48.663 88.5812 47.4057 87.4075 46.236C88.7602 44.2506 90.2104 42.1877 92.0227 39.709C89.2675 41.2408 87.0494 42.5498 84.9745 43.8269C83.8068 42.6751 82.5694 41.4715 81.0515 39.9994Z" fill="white"/>
<path fill-rule="evenodd" clip-rule="evenodd" d="M94.7158 79.3733C96.7191 79.3992 98.8556 79.4609 101.478 79.6061C99.8264 77.6665 98.4876 76.1248 97.2383 74.7144C98.6109 72.2575 99.9995 69.8445 101.446 67.4831C98.784 69.0885 96.6355 70.4671 94.6263 71.8099C93.385 70.4492 92.0819 69.0448 90.4825 67.3499C90.4507 70.1488 90.4427 72.4624 90.4547 74.6904C88.4693 76.1049 86.3706 77.6586 83.8242 79.638C86.4044 79.4947 88.5131 79.4171 90.5064 79.3813C90.5502 81.679 90.6198 84.1697 90.7312 87.3009C92.0183 84.6033 93.3551 81.9635 94.7158 79.3733Z" fill="white"/>
<path fill-rule="evenodd" clip-rule="evenodd" d="M102.497 106.781C102.989 106.558 103.48 106.333 103.971 106.111C104.584 105.834 105.195 105.548 105.801 105.251C104.642 103.678 103.414 102.032 102.008 100.234C102.153 102.395 102.318 104.577 102.497 106.781Z" fill="white"/>
<path fill-rule="evenodd" clip-rule="evenodd" d="M113.113 101.633C112.926 101.762 112.749 101.884 112.568 102.011C112.724 101.945 112.875 101.88 113.032 101.814C113.058 101.754 113.086 101.695 113.113 101.633Z" fill="white"/>
<path fill-rule="evenodd" clip-rule="evenodd" d="M107.276 115.792C109.279 115.999 111.388 116.188 113.922 116.361C112.398 114.328 111.097 112.506 109.707 110.604C107.956 111.758 106.078 112.751 103.989 113.487C103.185 113.771 102.491 114.545 101.767 115.204C102.211 115.249 102.648 115.295 103.078 115.339C103.164 118.309 103.221 121.295 103.235 124.303C104.66 121.452 105.986 118.607 107.276 115.792Z" fill="white"/>
<path fill-rule="evenodd" clip-rule="evenodd" d="M86.9134 6.27488C88.7992 3.89166 90.3629 1.9819 91.8409 0.213387C93.9815 0.418288 96.2573 0.660993 99.0602 1.00316C97.4747 -0.699712 96.1757 -2.09622 94.9403 -3.42907C95.8116 -4.42971 96.7188 -5.4602 97.7135 -6.57025C96.9575 -6.46482 96.1976 -6.3773 95.4078 -6.33154C94.9662 -6.30767 94.433 -5.85608 94.1605 -5.498C92.5949 -3.44898 90.1162 -3.38931 87.5897 -2.9437C86.0181 -2.66519 84.2755 -2.36675 82.7019 -1.88334C81.9281 -1.50338 81.1224 -1.10357 80.2729 -0.671882C83.0282 -0.514725 85.2901 -0.35357 87.4206 -0.180498C87.2734 1.75115 87.1123 3.7902 86.9134 6.27488Z" fill="white"/>
<path fill-rule="evenodd" clip-rule="evenodd" d="M97.1071 16.1808C96.8644 18.5442 96.6715 20.4639 96.4904 22.2802C94.3101 23.3047 92.0065 24.4425 89.2095 25.9186C91.8792 25.9445 94.0615 26.0081 96.1204 26.0917C95.9513 27.9219 95.7723 29.8774 95.5654 32.2925C97.4175 29.9271 98.9532 28.0453 100.409 26.3106C102.482 26.4399 104.686 26.6109 107.402 26.8755C105.88 25.2701 104.643 23.9771 103.473 22.7616C104.957 21.0826 106.547 19.3419 108.528 17.2551C105.608 18.3413 103.25 19.2922 101.042 20.2391C99.8783 19.0316 98.6389 17.7524 97.1071 16.1808Z" fill="white"/>
<path fill-rule="evenodd" clip-rule="evenodd" d="M109.543 46.3522C108.363 45.0591 107.122 43.7123 105.588 42.0791C105.395 44.532 105.246 46.5511 105.123 48.4788C103.01 49.5411 100.778 50.7227 98.0605 52.2505C100.698 52.3142 102.859 52.4117 104.894 52.539C104.79 54.5144 104.699 56.651 104.603 59.3127C106.334 56.7544 107.767 54.7292 109.131 52.8692C111.178 53.0602 113.357 53.3009 116.028 53.6709C114.469 51.8587 113.199 50.4124 112.008 49.0795C113.406 47.2971 114.904 45.457 116.774 43.2608C113.957 44.3847 111.676 45.3694 109.543 46.3522Z" fill="white"/>
<path fill-rule="evenodd" clip-rule="evenodd" d="M119.326 76.2713C118.061 74.6361 116.734 72.959 115.097 70.9438C115.077 73.4405 115.099 75.957 115.127 78.4973C113.1 79.6233 110.957 80.8746 108.341 82.5059C111.005 82.7923 113.169 83.0808 115.214 83.4031C115.282 86.1444 115.364 88.9096 115.487 91.7106C116.764 89.1284 118.107 86.6178 119.474 84.161C121.505 84.5668 123.667 85.0522 126.305 85.7386C124.634 83.3693 123.267 81.4913 121.996 79.7845C123.365 77.4848 124.757 75.2369 126.206 73.0486C123.534 74.2124 121.36 75.2428 119.326 76.2713Z" fill="white"/>
<path fill-rule="evenodd" clip-rule="evenodd" d="M126.537 -1.74475C123.447 -1.14596 120.953 -0.579 118.613 0.00387478C117.432 -1.33893 116.168 -2.7772 114.599 -4.55566C114.292 -2.2739 114.04 -0.427781 113.801 1.30294C111.485 1.97534 109.04 2.74719 106.064 3.77965C108.865 4.18349 111.149 4.55351 113.304 4.92949C113.067 6.6622 112.81 8.49637 112.506 10.7523C114.521 8.76891 116.186 7.19533 117.766 5.75108C119.918 6.17282 122.208 6.64825 125.015 7.2928C123.501 5.55213 122.258 4.13971 121.08 2.80089C122.681 1.41035 124.402 -0.0299397 126.537 -1.74475Z" fill="white"/>
<path fill-rule="evenodd" clip-rule="evenodd" d="M122.451 21.1639C122.131 23.372 121.878 25.1764 121.645 26.8932C119.415 27.5894 117.054 28.3851 114.177 29.4534C116.889 29.8095 119.099 30.1477 121.178 30.5038C120.965 32.2524 120.746 34.1324 120.491 36.4639C122.409 34.4109 124.001 32.7915 125.505 31.3114C127.587 31.7332 129.799 32.2266 132.507 32.9009C131.025 31.1006 129.807 29.6504 128.666 28.3076C130.199 26.8991 131.847 25.4529 133.89 23.74C130.937 24.3587 128.538 24.9396 126.288 25.5444C125.152 24.2274 123.945 22.8469 122.451 21.1639Z" fill="white"/>
<path fill-rule="evenodd" clip-rule="evenodd" d="M133.909 59.356C135.947 59.9369 138.115 60.6132 140.747 61.5303C139.221 59.3361 137.966 57.5934 136.79 55.9979C138.193 54.4284 139.698 52.821 141.57 50.9252C138.775 51.5438 136.496 52.1347 134.357 52.7514C133.191 51.2216 131.964 49.642 130.44 47.7363C130.221 50.1792 130.058 52.1943 129.921 54.1379C127.794 54.8521 125.538 55.6737 122.787 56.7758C125.455 57.2791 127.621 57.7466 129.66 58.2379C129.551 60.2452 129.455 62.4315 129.36 65.1668C131.099 62.8433 132.537 61.0171 133.909 59.356Z" fill="white"/>
<path fill-rule="evenodd" clip-rule="evenodd" d="M143.969 86.1323C142.61 83.8884 141.233 81.6683 139.821 79.486C139.807 82.1358 139.835 84.8094 139.883 87.5149C137.893 88.249 135.779 89.1005 133.192 90.2523C135.826 91.1355 137.973 91.983 139.976 92.8165C140.032 95.5618 140.093 98.3409 140.129 101.152C141.524 98.9635 142.843 96.7753 144.148 94.6129C146.111 95.4742 148.158 96.3814 150.581 97.4517C149.258 95.1341 147.939 92.8284 146.608 90.5546C147.921 88.4181 149.252 86.3353 150.655 84.326C148.071 84.9248 145.956 85.5117 143.969 86.1323Z" fill="white"/>
<path fill-rule="evenodd" clip-rule="evenodd" d="M140.86 4.17682C140.43 6.21589 140.084 7.87099 139.764 9.43859C137.43 9.74494 134.955 10.1349 131.934 10.7058C134.719 11.4399 136.981 12.0864 139.103 12.7349C138.791 14.3204 138.465 16.0153 138.077 18.1101C140.161 16.5186 141.88 15.2733 143.508 14.1434C145.626 14.8536 147.868 15.6533 150.6 16.7057C149.185 14.8178 148.019 13.29 146.917 11.8616C148.568 10.7993 150.337 9.71711 152.525 8.44592C149.458 8.53743 146.957 8.69661 144.61 8.90549C143.506 7.50102 142.33 6.009 140.86 4.17682Z" fill="white"/>
<path fill-rule="evenodd" clip-rule="evenodd" d="M151.237 34.7189C150.156 33.203 149.006 31.6275 147.584 29.7137C147.204 31.8324 146.908 33.5731 146.637 35.2441C144.429 35.5485 142.082 35.9443 139.207 36.5232C141.893 37.3289 144.065 38.045 146.104 38.7731C145.857 40.4919 145.609 42.3579 145.322 44.6835C147.246 42.9508 148.829 41.596 150.335 40.3786C152.363 41.1942 154.515 42.1212 157.113 43.3487C155.72 41.2101 154.571 39.4993 153.488 37.9297C155.014 36.7958 156.65 35.6479 158.677 34.3071C155.8 34.3767 153.449 34.52 151.237 34.7189Z" fill="white"/>
<path fill-rule="evenodd" clip-rule="evenodd" d="M158.58 64.5165C157.484 62.6207 156.326 60.6731 154.878 58.3376C154.637 60.8581 154.46 62.9509 154.309 64.976C152.256 65.2565 150.069 65.6305 147.382 66.1935C149.982 67.3035 152.069 68.2843 154.028 69.277C153.909 71.3936 153.803 73.7092 153.702 76.6236C155.377 74.5447 156.771 72.9314 158.094 71.4752C160.03 72.5912 162.847 74.0971 165.801 75.8537C164.064 73.0428 162.64 70.7889 161.303 68.72C162.881 67.4607 164.552 66.1915 166.591 64.7154C163.533 64.5662 160.625 64.3554 158.58 64.5165Z" fill="white"/>
<path fill-rule="evenodd" clip-rule="evenodd" d="M164.414 -3.82C163.28 -5.48707 162.106 -7.19395 160.668 -9.26086C160.139 -7.30734 159.707 -5.72977 159.301 -4.24971C156.872 -4.34718 154.296 -4.38503 151.135 -4.3333C153.996 -3.15164 156.302 -2.14101 158.462 -1.1543C158.062 0.329741 157.64 1.9033 157.133 3.83494C159.361 2.66919 161.102 1.63474 162.95 0.988203C165.236 2.24745 167.633 3.61212 170.501 5.31698C169.077 3.12872 167.897 1.34827 166.775 -0.324765C168.612 -0.943448 170.557 -1.582 172.92 -2.36182C169.68 -2.96658 166.982 -3.42214 164.414 -3.82Z" fill="white"/>
<path fill-rule="evenodd" clip-rule="evenodd" d="M166.546 16.7967C166.009 18.6408 165.579 20.1447 165.181 21.581C162.714 21.2369 160.188 21.0618 157.22 21.1036C159.905 22.2853 162.135 23.3834 164.363 24.6168C163.978 26.0929 163.58 27.6863 163.102 29.6657C165.384 28.681 167.224 27.9211 168.947 27.2407C171.125 28.5258 173.411 29.9223 176.142 31.6709C174.75 29.417 173.602 27.5928 172.516 25.8919C174.227 25.2712 176.039 24.6506 178.243 23.9225C175.199 23.276 172.661 22.7866 170.242 22.3708C169.154 20.6998 167.994 18.9492 166.546 16.7967Z" fill="white"/>
<path fill-rule="evenodd" clip-rule="evenodd" d="M175.84 55.967C177.945 57.3596 180.155 58.8894 182.789 60.8051C181.348 58.2209 180.155 56.1361 179.037 54.2164C180.577 53.4167 182.206 52.625 184.187 51.7079C181.35 51.1011 178.979 50.6535 176.711 50.2855C175.595 48.4275 174.414 46.4958 172.941 44.1345C172.54 46.2193 172.223 47.9381 171.945 49.6051C169.627 49.3187 167.137 49.074 164.003 48.8273C166.92 50.4645 169.239 51.8173 171.39 53.1362C171.137 54.8769 170.887 56.7767 170.598 59.1539C172.643 57.8529 174.292 56.8543 175.84 55.967Z" fill="white"/>
<path fill-rule="evenodd" clip-rule="evenodd" d="M184.902 83.7581C183.601 81.2356 182.274 78.7231 180.902 76.2125C180.752 78.5261 180.653 80.8715 180.565 83.2349C178.417 83.028 176.109 82.8728 173.189 82.7575C176.03 84.6573 178.294 86.3203 180.392 87.9058C180.309 90.2731 180.225 92.6603 180.092 95.0654C181.934 93.6291 183.376 92.4017 184.707 91.224C186.732 92.7996 188.827 94.4229 191.268 96.3028C189.991 93.7704 188.728 91.2519 187.456 88.7453C188.756 87.5716 190.126 86.3601 191.817 85.0094C189.195 84.4603 187.003 84.0644 184.902 83.7581Z" fill="white"/>
<path fill-rule="evenodd" clip-rule="evenodd" d="M186.71 8.46246C186.122 10.2529 185.642 11.6932 185.201 13.0519C182.831 12.4213 180.36 11.8344 177.323 11.1858C180.062 12.9464 182.24 14.4046 184.303 15.8369C183.872 17.1996 183.418 18.6558 182.871 20.4442C185.063 19.7937 186.901 19.3322 188.7 18.9602C190.81 20.4999 193.08 22.2147 195.851 24.395C194.578 22.0277 193.51 20.0941 192.491 18.2858C194.373 17.9973 196.42 17.7368 198.899 17.4244C195.593 16.2268 192.863 15.3117 190.337 14.5319C189.283 12.7236 188.147 10.8139 186.71 8.46246Z" fill="white"/>
<path fill-rule="evenodd" clip-rule="evenodd" d="M194.748 41.1831C193.743 39.2992 192.661 37.3277 191.298 34.9008C190.799 36.727 190.403 38.215 190.043 39.6513C187.855 39.0008 185.551 38.402 182.692 37.7534C185.308 39.5816 187.383 41.0995 189.335 42.5935C188.997 44.0617 188.656 45.6511 188.247 47.6345C190.228 46.8487 191.863 46.2996 193.447 45.86C195.408 47.4753 197.497 49.2697 200.01 51.5376C198.782 49.0171 197.76 46.968 196.785 45.0682C198.422 44.74 200.189 44.4595 202.339 44.1392C199.431 42.9257 197.012 41.9848 194.748 41.1831Z" fill="white"/>
<path fill-rule="evenodd" clip-rule="evenodd" d="M200.22 70.8507C199.12 68.4794 197.998 66.1022 196.829 63.7189C196.504 65.8933 196.256 67.6936 196.041 69.4482C194.044 68.8415 191.907 68.2785 189.235 67.6797C191.453 69.4681 193.576 71.3023 195.629 73.1524C195.448 74.9706 195.279 76.9679 195.09 79.4804C196.787 78.3326 198.173 77.4732 199.492 76.7471C201.609 78.7941 203.644 80.867 205.582 82.9817C204.515 80.4353 203.407 77.9029 202.275 75.3645C203.632 74.7578 205.086 74.1848 206.871 73.5422C204.338 72.4421 202.226 71.5867 200.22 70.8507Z" fill="white"/>
<path fill-rule="evenodd" clip-rule="evenodd" d="M206.41 10.2794C205.779 11.6342 205.125 13.0526 204.327 14.7714C206.812 14.4769 208.805 14.2541 210.681 14.0512C212.674 15.8754 214.735 17.8409 217.164 20.2798C216.171 17.7295 215.332 15.6328 214.526 13.6514C216.374 13.4644 218.332 13.2694 220.695 13.0486C218.143 11.8212 215.521 10.6535 212.821 9.52155C211.978 7.5163 211.063 5.37771 209.897 2.71399C209.046 4.59988 208.359 6.09189 207.717 7.47448C204.94 6.40819 202.089 5.37773 199.167 4.40694C202.059 6.64295 204.325 8.50098 206.41 10.2794Z" fill="white"/>
<path fill-rule="evenodd" clip-rule="evenodd" d="M214.407 36.8209C213.643 34.937 212.812 32.9517 211.767 30.4908C211.015 32.1102 210.414 33.4172 209.863 34.6585C207.653 33.6479 205.264 32.6095 202.236 31.3801C204.834 33.626 206.875 35.4781 208.745 37.2446C208.214 38.5078 207.667 39.8606 207.015 41.5356C209.189 41.2929 210.942 41.1258 212.587 40.9925C214.377 42.7988 216.229 44.7444 218.414 47.1356C217.489 44.6649 216.715 42.6417 215.973 40.7499C217.6 40.6504 219.331 40.5648 221.421 40.4892C218.778 39.037 216.548 37.8812 214.407 36.8209Z" fill="white"/>
<path fill-rule="evenodd" clip-rule="evenodd" d="M214.046 57.4712C213.469 59.2099 213.016 60.6402 212.606 62.0248C210.664 61.0619 208.564 60.0712 205.904 58.8916C207.943 60.9068 209.898 62.9418 211.788 64.9809C211.418 66.4212 211.044 67.9927 210.611 69.9682C212.413 69.4748 213.869 69.1187 215.246 68.8203C217.094 70.927 218.9 73.0477 220.609 75.1783C219.676 72.4728 218.882 70.2765 218.148 68.2494C219.529 68.0127 221.011 67.7978 223.625 67.945C220.165 66.0611 218.49 65.0963 216.606 64.0897C215.858 62.1024 215.057 60.0215 214.046 57.4712Z" fill="white"/>
<path fill-rule="evenodd" clip-rule="evenodd" d="M220.736 96.1137C219.423 93.2709 218.61 90.6788 217.699 88.0708C217.38 90.2491 217.165 92.2404 216.986 94.1562C215.29 93.2928 213.459 92.4215 211.134 91.3851C213.038 93.6609 214.84 95.9864 216.608 98.3219C216.431 100.285 216.24 102.235 215.958 104.316C217.448 103.703 218.307 102.965 219.909 102.569C222.298 105.088 224.598 107.57 226.865 110.001C225.656 107.184 224.464 104.409 223.247 101.66C224.804 101.218 226.444 100.761 228.423 100.315C225.604 98.6998 223.147 97.365 220.736 96.1137Z" fill="white"/>
</svg>
