<svg width="13" height="13" viewBox="0 0 13 13" fill="none" xmlns="http://www.w3.org/2000/svg">
<path d="M0.6725 1.12443C0.61871 1.17106 0.575495 1.22863 0.545747 1.2933C0.515998 1.35797 0.500402 1.42825 0.5 1.49943V11.9994C0.5 12.132 0.552679 12.2592 0.646447 12.353C0.740215 12.4468 0.867392 12.4994 1 12.4994C1.13261 12.4994 1.25979 12.4468 1.35355 12.353C1.44732 12.2592 1.5 12.132 1.5 11.9994V9.23506C3.17437 7.91256 4.61687 8.62568 6.27812 9.44818C7.30312 9.95506 8.40687 10.5013 9.59062 10.5013C10.4612 10.5013 11.3744 10.2044 12.3294 9.37631C12.3832 9.32968 12.4264 9.27211 12.4561 9.20744C12.4859 9.14277 12.5015 9.07249 12.5019 9.00131V1.49943C12.5016 1.40346 12.4738 1.30958 12.4217 1.22901C12.3695 1.14843 12.2953 1.08456 12.2079 1.04502C12.1204 1.00548 12.0234 0.991944 11.9285 1.00603C11.8336 1.02011 11.7447 1.06121 11.6725 1.12443C9.9225 2.63881 8.44 1.90506 6.72187 1.05443C4.94187 0.171934 2.92375 -0.826191 0.6725 1.12443ZM11.5 8.76506C9.82562 10.0876 8.38312 9.37381 6.72187 8.55193C5.15937 7.78006 3.42125 6.91881 1.5 8.02693V1.73631C3.17437 0.413809 4.61687 1.12693 6.27812 1.94881C7.84062 2.72068 9.57937 3.58193 11.5 2.47381V8.76506Z" fill="#234577"/>
</svg>
