<svg width="32" height="32" viewBox="0 0 32 32" fill="none" xmlns="http://www.w3.org/2000/svg">
<g clip-path="url(#clip0_278_5765)">
<path d="M23.5663 20.989C23.2845 20.7057 22.9496 20.4809 22.5809 20.3275C22.2122 20.1741 21.8169 20.0952 21.4177 20.0952C21.0185 20.0952 20.6232 20.1741 20.2545 20.3275C19.8858 20.4809 19.5509 20.7057 19.2691 20.989L17.803 22.4578C16.1523 21.4082 14.6229 20.1784 13.243 18.7909C11.8609 17.4057 10.6336 15.8739 9.58278 14.2224L11.0489 12.7537C11.3317 12.4713 11.556 12.1359 11.7091 11.7665C11.8622 11.3971 11.941 11.0011 11.941 10.6011C11.941 10.2012 11.8622 9.80516 11.7091 9.43578C11.556 9.0664 11.3317 8.73093 11.0489 8.44861L8.18746 5.59208C7.90964 5.30784 7.57761 5.08246 7.21111 4.92932C6.84462 4.77619 6.45113 4.69844 6.05404 4.70068C5.65413 4.6997 5.25798 4.77795 4.88837 4.93093C4.51876 5.08392 4.183 5.30861 3.9004 5.59208L2.5253 6.95957C1.86988 7.66557 1.38071 8.50974 1.09375 9.43003C0.806798 10.3503 0.729349 11.3234 0.867101 12.2776C1.19065 16.0762 3.67796 20.6446 7.51003 24.4938C11.3421 28.343 15.9527 30.8248 19.7443 31.1894C20.0272 31.2046 20.3107 31.2046 20.5937 31.1894C21.4098 31.2237 22.2247 31.0945 22.9903 30.8092C23.756 30.524 24.4571 30.0884 25.0526 29.5282L26.4176 28.1506C26.7005 27.8674 26.9248 27.5311 27.0775 27.1608C27.2302 26.7905 27.3083 26.3936 27.3074 25.993C27.3096 25.5952 27.232 25.2009 27.0791 24.8338C26.9263 24.4666 26.7013 24.134 26.4176 23.8556L23.5663 20.989ZM24.9919 26.7223L23.6168 28.0898C23.1084 28.5143 22.5149 28.8244 21.8764 28.9992C21.238 29.174 20.5695 29.2093 19.9162 29.1027C16.6301 28.8191 12.4442 26.4893 8.98623 23.025C5.52827 19.5607 3.20274 15.3975 2.8893 12.1054C2.78026 11.4509 2.81419 10.7806 2.98875 10.1405C3.16331 9.50046 3.47434 8.90595 3.9004 8.39796L5.32605 7.02035C5.42053 6.92647 5.53257 6.85219 5.65576 6.80178C5.77895 6.75137 5.91086 6.72582 6.04393 6.72659C6.177 6.72582 6.30891 6.75137 6.4321 6.80178C6.55529 6.85219 6.66733 6.92647 6.76181 7.02035L9.62322 9.91739C9.81154 10.1072 9.91724 10.3639 9.91724 10.6315C9.91724 10.8991 9.81154 11.1559 9.62322 11.3457L7.60102 13.3716C7.44278 13.5293 7.3411 13.7351 7.31184 13.9568C7.28258 14.1785 7.32737 14.4037 7.43925 14.5972C8.64993 16.6621 10.1214 18.5619 11.8173 20.2495C13.5019 21.9485 15.3982 23.4227 17.4592 24.6356C17.6524 24.7477 17.8772 24.7926 18.0985 24.7633C18.3198 24.7339 18.5252 24.6321 18.6827 24.4735L20.7049 22.4476C20.8943 22.259 21.1506 22.1531 21.4177 22.1531C21.6848 22.1531 21.9411 22.259 22.1305 22.4476L24.9919 25.3143C25.0856 25.4089 25.1598 25.5212 25.2101 25.6446C25.2604 25.768 25.2859 25.9002 25.2852 26.0335C25.2788 26.2922 25.1739 26.5386 24.9919 26.7223ZM26.7512 5.24768C25.3461 3.83458 23.6756 2.71412 21.8361 1.9509C19.9967 1.18768 18.0246 0.796809 16.0336 0.800812C15.7654 0.800812 15.5083 0.907533 15.3186 1.0975C15.129 1.28746 15.0225 1.54511 15.0225 1.81377C15.0225 2.08242 15.129 2.34007 15.3186 2.53003C15.5083 2.72 15.7654 2.82672 16.0336 2.82672C17.7691 2.82666 19.4875 3.17092 21.0895 3.83965C22.6915 4.50839 24.1455 5.48834 25.3676 6.72296C26.5896 7.95759 27.5555 9.42244 28.2094 11.033C28.8634 12.6435 29.1926 14.3679 29.1779 16.1065C29.1779 16.3752 29.2844 16.6328 29.474 16.8228C29.6636 17.0128 29.9208 17.1195 30.189 17.1195C30.4571 17.1195 30.7143 17.0128 30.9039 16.8228C31.0936 16.6328 31.2001 16.3752 31.2001 16.1065C31.2194 14.0907 30.8358 12.0914 30.0717 10.2264C29.3077 8.36145 28.1786 6.66861 26.7512 5.24768Z" fill="white"/>
<path d="M21.1134 10.8643C21.6683 11.4098 22.1072 12.0595 22.4044 12.7753C22.7016 13.4911 22.8511 14.2584 22.844 15.0322C22.844 15.2887 22.947 15.5346 23.1303 15.716C23.3137 15.8973 23.5624 15.9992 23.8217 15.9992C24.081 15.9992 24.3297 15.8973 24.513 15.716C24.6964 15.5346 24.7994 15.2887 24.7994 15.0322C24.8123 14.0081 24.6196 12.9917 24.2323 12.0419C23.845 11.0921 23.2709 10.2279 22.5433 9.4992C21.8157 8.77055 20.9491 8.19204 19.9937 7.79722C19.0383 7.4024 18.0131 7.19914 16.9777 7.19922C16.7184 7.19922 16.4697 7.3011 16.2864 7.48246C16.103 7.66381 16 7.90978 16 8.16625C16 8.42272 16.103 8.66869 16.2864 8.85005C16.4697 9.0314 16.7184 9.13328 16.9777 9.13328C17.7482 9.13903 18.51 9.29485 19.2197 9.59186C19.9293 9.88886 20.5728 10.3212 21.1134 10.8643Z" fill="white"/>
</g>
<defs>
<clipPath id="clip0_278_5765">
<rect width="32" height="32" fill="white"/>
</clipPath>
</defs>
</svg>
