<svg width="32" height="32" viewBox="0 0 32 32" fill="none" xmlns="http://www.w3.org/2000/svg">
<g clip-path="url(#clip0_305_7500)">
<path d="M23.5663 20.9882C23.2845 20.7049 22.9496 20.4801 22.5809 20.3267C22.2122 20.1733 21.8169 20.0944 21.4177 20.0944C21.0185 20.0944 20.6232 20.1733 20.2545 20.3267C19.8858 20.4801 19.5509 20.7049 19.2691 20.9882L17.803 22.457C16.1523 21.4074 14.6229 20.1776 13.243 18.7901C11.8609 17.405 10.6336 15.8731 9.58278 14.2217L11.0489 12.7529C11.3317 12.4706 11.556 12.1351 11.7091 11.7657C11.8622 11.3963 11.941 11.0003 11.941 10.6003C11.941 10.2004 11.8622 9.80437 11.7091 9.43499C11.556 9.06561 11.3317 8.73014 11.0489 8.44782L8.18746 5.59129C7.90964 5.30705 7.57761 5.08166 7.21111 4.92853C6.84462 4.7754 6.45113 4.69764 6.05404 4.69989V4.69989C5.65413 4.69891 5.25798 4.77716 4.88837 4.93014C4.51876 5.08312 4.183 5.30781 3.9004 5.59129L2.5253 6.95878C1.86988 7.66477 1.38071 8.50895 1.09375 9.42924C0.806798 10.3495 0.729349 11.3226 0.867101 12.2768C1.19065 16.0754 3.67796 20.6438 7.51003 24.493C11.3421 28.3422 15.9527 30.824 19.7443 31.1886C20.0272 31.2038 20.3107 31.2038 20.5937 31.1886C21.4098 31.223 22.2247 31.0937 22.9903 30.8084C23.756 30.5232 24.4571 30.0876 25.0526 29.5274L26.4176 28.1498C26.7005 27.8666 26.9248 27.5303 27.0775 27.16C27.2302 26.7897 27.3083 26.3928 27.3074 25.9922C27.3096 25.5944 27.232 25.2002 27.0791 24.833C26.9263 24.4658 26.7013 24.1332 26.4176 23.8548L23.5663 20.9882ZM24.9919 26.7215L23.6168 28.089C23.1084 28.5135 22.5149 28.8236 21.8764 28.9984C21.238 29.1732 20.5695 29.2085 19.9162 29.1019C16.6301 28.8183 12.4442 26.4885 8.98623 23.0242C5.52827 19.5599 3.20274 15.3967 2.8893 12.1046C2.78026 11.4501 2.81419 10.7798 2.98875 10.1397C3.16331 9.49967 3.47434 8.90516 3.9004 8.39717L5.32605 7.01955C5.42053 6.92567 5.53257 6.8514 5.65576 6.80099C5.77895 6.75058 5.91086 6.72503 6.04393 6.7258C6.177 6.72503 6.30891 6.75058 6.4321 6.80099C6.55529 6.8514 6.66733 6.92567 6.76181 7.01955L9.62322 9.9166C9.81154 10.1064 9.91724 10.3631 9.91724 10.6307C9.91724 10.8983 9.81154 11.1551 9.62322 11.3449L7.60102 13.3708C7.44278 13.5285 7.3411 13.7343 7.31184 13.956C7.28258 14.1777 7.32737 14.4029 7.43925 14.5964C8.64993 16.6613 10.1214 18.5611 11.8173 20.2487C13.5019 21.9477 15.3982 23.4219 17.4592 24.6348C17.6524 24.7469 17.8772 24.7918 18.0985 24.7625C18.3198 24.7331 18.5252 24.6313 18.6827 24.4727L20.7049 22.4468C20.8943 22.2582 21.1506 22.1523 21.4177 22.1523C21.6848 22.1523 21.9411 22.2582 22.1305 22.4468L24.9919 25.3135C25.0856 25.4081 25.1598 25.5204 25.2101 25.6438C25.2604 25.7672 25.2859 25.8994 25.2852 26.0327C25.2788 26.2914 25.1739 26.5379 24.9919 26.7215V26.7215ZM26.7512 5.24688C25.3461 3.83378 23.6756 2.71332 21.8361 1.95011C19.9967 1.18689 18.0246 0.796015 16.0336 0.800018C15.7654 0.800018 15.5083 0.90674 15.3186 1.09671C15.129 1.28667 15.0225 1.54432 15.0225 1.81297C15.0225 2.08162 15.129 2.33927 15.3186 2.52924C15.5083 2.7192 15.7654 2.82593 16.0336 2.82593C17.7691 2.82586 19.4875 3.17013 21.0895 3.83886C22.6915 4.50759 24.1455 5.48755 25.3676 6.72217C26.5896 7.9568 27.5555 9.42165 28.2094 11.0322C28.8634 12.6427 29.1926 14.3671 29.1779 16.1057C29.1779 16.3744 29.2844 16.632 29.474 16.822C29.6636 17.012 29.9208 17.1187 30.189 17.1187C30.4571 17.1187 30.7143 17.012 30.9039 16.822C31.0936 16.632 31.2001 16.3744 31.2001 16.1057C31.2195 14.0899 30.8358 12.0906 30.0717 10.2256C29.3077 8.36066 28.1786 6.66782 26.7512 5.24688V5.24688Z" fill="#01020E"/>
<path d="M21.1134 10.8651C21.6683 11.4106 22.1072 12.0603 22.4044 12.7761C22.7016 13.4919 22.8511 14.2592 22.844 15.033C22.844 15.2895 22.947 15.5354 23.1303 15.7168C23.3137 15.8981 23.5624 16 23.8217 16C24.081 16 24.3297 15.8981 24.513 15.7168C24.6964 15.5354 24.7994 15.2895 24.7994 15.033C24.8123 14.0089 24.6196 12.9925 24.2323 12.0427C23.845 11.0929 23.2709 10.2286 22.5433 9.49999C21.8157 8.77134 20.9491 8.19283 19.9937 7.79801C19.0383 7.4032 18.0131 7.19993 16.9777 7.20001C16.7184 7.20001 16.4697 7.3019 16.2864 7.48325C16.103 7.6646 16 7.91057 16 8.16704C16 8.42352 16.103 8.66949 16.2864 8.85084C16.4697 9.03219 16.7184 9.13408 16.9777 9.13408C17.7482 9.13982 18.51 9.29564 19.2197 9.59265C19.9293 9.88966 20.5728 10.322 21.1134 10.8651Z" fill="#01020E"/>
</g>
<defs>
<clipPath id="clip0_305_7500">
<rect width="32" height="32" fill="white"/>
</clipPath>
</defs>
</svg>
