<svg width="44" height="44" viewBox="0 0 44 44" fill="none" xmlns="http://www.w3.org/2000/svg">
<path d="M15.4113 41.4867L15.4832 32.0805C15.4832 31.5779 15.0521 31.1471 14.5492 31.1471L9.30544 31.0753C8.94621 31.0753 8.65912 30.7881 8.58726 30.3573C8.58726 29.9983 8.87435 29.6392 9.23387 29.6392L11.0293 29.5674C11.3886 29.5674 11.6759 29.352 11.8196 28.993C11.9635 28.634 11.8914 28.275 11.6759 27.9878C11.6759 27.9878 9.162 25.1157 10.9575 21.6692C10.9575 21.5974 11.0293 21.5974 11.0293 21.5256C11.0293 21.4538 11.8196 19.3715 12.3225 17.002C13.1124 13.5555 13.0406 11.3296 12.1069 10.1808C12.0354 10.109 11.9635 10.0372 11.8914 9.96535L1.97848 3.43132C1.83505 3.1441 1.6914 2.49788 1.83505 1.99527L29.0591 17.7918C29.0591 17.8636 28.9873 17.9354 28.9156 18.0072C28.7722 18.079 28.3412 18.3662 26.7605 18.0072L18.9307 13.2683C18.4999 12.9811 17.9252 13.1247 17.6378 13.5555C17.5663 13.6273 16.4887 15.5659 15.8421 18.5817C15.2674 21.382 14.9803 25.6183 16.9916 30.2855L16.5605 41.2713C16.5605 41.6303 16.2732 41.9175 15.9139 41.9175C15.7705 42.1329 15.4113 41.8457 15.4113 41.4867ZM26.0426 11.9758C28.2694 12.263 30.2804 10.9706 30.999 8.88831L42.1325 2.35428C42.1325 2.9287 41.989 3.57492 41.4863 4.07754L32.0045 9.96535C31.7169 10.109 31.5735 10.3962 31.5735 10.6834L30.8549 25.6183L28.197 29.0648C27.9101 29.5674 27.4074 29.711 26.9764 29.5674L26.1143 29.2802L27.7667 24.3259C27.9101 23.8232 27.6943 23.3206 27.1915 23.177C26.6888 23.0334 26.1861 23.2488 26.0426 23.7514L23.6719 30.6445C23.6001 30.7881 23.6001 30.9317 23.6719 31.0753C25.4674 40.625 25.3957 40.1942 25.3957 40.266C25.4674 40.6968 25.2523 41.0559 24.8213 41.1277C24.462 41.1995 24.1748 40.984 24.1029 40.625C22.5224 32.2959 22.5943 32.7268 22.5943 32.655C22.5224 32.3677 22.5224 32.0805 22.5224 31.7933L22.6662 29.0648C22.6662 28.634 22.8098 28.275 22.9535 27.916C22.9535 27.916 22.8817 28.1314 26.3295 20.7357C26.4012 20.5921 26.4012 20.4485 26.4012 20.2331L26.3295 19.8023C28.1253 20.3049 29.4901 20.2331 30.2804 19.4433C31.2142 18.5817 31.0707 17.361 30.999 17.2174C30.9266 16.9302 30.7831 16.7148 30.568 16.5712L24.0311 12.8375L26.0426 11.9758ZM26.6888 4.65196C28.197 4.65196 29.4184 5.8726 29.4184 7.45226C29.4184 8.96011 28.197 10.2526 26.6888 10.2526C25.1806 10.2526 23.9593 9.03191 23.9593 7.45226C23.8871 5.9444 25.1806 4.65196 26.6888 4.65196ZM18.2128 17.72C18.4999 16.7866 18.7873 15.9968 19.0747 15.4941L20.5112 16.3558L18.2128 17.72ZM19.0031 29.9983C17.6378 26.8389 17.2071 23.536 17.7097 20.2331C17.8536 20.1613 17.5663 20.3049 22.0914 17.5764C22.1633 17.5046 22.2351 17.5046 22.3072 17.4328L24.5337 18.7253C24.5337 18.8689 24.5337 18.8689 24.6771 20.1613L21.4449 27.0544C21.1578 27.6288 20.9423 28.275 20.9423 28.9212L20.6552 31.7215C20.6552 32.1523 20.6552 32.655 20.7986 33.0858C22.3791 41.4149 22.3072 40.984 22.3072 41.0559C22.3791 41.4867 22.5943 41.8457 22.8817 42.1329H18.4999C18.5718 41.9175 18.5718 41.7739 18.5718 41.5585L19.0031 30.3573C19.0747 30.2137 19.0747 30.0701 19.0031 29.9983ZM17.4944 2.78509C19.0031 2.78509 20.2241 4.00574 20.2241 5.58539C20.2241 7.09325 19.0031 8.38569 17.4944 8.38569C15.9858 8.38569 14.7645 7.16505 14.7645 5.58539C14.7645 4.07754 15.9858 2.78509 17.4944 2.78509ZM43.0662 42.1329H26.5454C27.1198 41.4867 27.3357 40.625 27.1198 39.8352L25.5392 31.0035L26.4012 31.2907C27.6226 31.6497 28.9156 31.2189 29.6335 30.2855L32.4355 26.5517C32.579 26.4081 32.579 26.1927 32.6507 26.0491L33.3693 11.2578C43.0662 5.22638 42.4918 5.58539 42.5635 5.51359C44.7903 3.64672 43.6407 0.70282 43.569 0.559216C43.3538 0.0565948 42.7076 -0.158813 42.2766 0.128399L31.1425 6.66243C30.7831 4.43655 28.9156 2.78509 26.6171 2.78509C24.1029 2.78509 22.0198 4.86737 22.0198 7.38046C22.0198 8.81651 22.6661 10.109 23.7438 10.9706L22.1633 11.7604L19.0031 9.89354C20.7986 9.24732 22.0914 7.52406 22.0914 5.51359C22.0914 3.0005 20.0083 0.918228 17.4944 0.918228C14.6211 0.918228 12.4661 3.57492 12.969 6.44702L2.19428 0.200199C1.90662 0.0565948 1.54775 0.0565948 1.26066 0.200199C-0.535365 1.34904 -0.032479 3.57492 0.470404 4.58016C0.541981 4.72376 0.613769 4.86737 0.75749 4.93917L10.8141 11.6168C11.0293 11.9758 11.3886 13.2683 10.5986 16.7866C10.1675 18.8689 9.52124 20.7357 9.37723 21.0229C8.22838 23.3206 8.29989 25.6901 9.37723 27.8442H9.23387C7.86887 27.8442 6.71973 29.0648 6.79124 30.4291C6.79124 31.7933 7.94073 32.8704 9.30544 32.8704L13.6156 32.9422L13.5435 41.4149C13.5435 41.6303 13.5435 41.9175 13.6156 42.1329H0.973004C0.470405 42.1329 0.0393075 42.5637 0.0393075 43.0663C0.0393075 43.5689 0.470405 43.9998 0.973004 43.9998H43.0662C43.569 43.9998 44 43.5689 44 43.0663C44 42.5637 43.569 42.1329 43.0662 42.1329Z" fill="white"/>
<path d="M40.3392 32.0808C40.3392 32.5834 39.9082 33.0143 39.4055 33.0143C38.9027 33.0143 38.4717 32.5834 38.4717 32.0808C38.4717 31.5782 38.9027 31.1474 39.4055 31.1474C39.9082 31.1474 40.3392 31.5782 40.3392 32.0808ZM36.6759 32.0808C36.6759 33.5887 37.8973 34.8093 39.4055 34.8093C40.9144 34.8093 42.135 33.5887 42.135 32.0808C42.135 30.573 40.9144 29.3523 39.4055 29.3523C37.8973 29.3523 36.6759 30.573 36.6759 32.0808Z" fill="white"/>
<path d="M2.76807 16.5719C2.26547 16.5719 1.83437 16.1411 1.83437 15.6384C1.83437 15.1358 2.26547 14.705 2.76807 14.705C3.27124 14.705 3.70197 15.1358 3.70197 15.6384C3.70197 16.1411 3.27124 16.5719 2.76807 16.5719ZM2.76807 12.9099C1.25999 12.9099 0.0386353 14.1306 0.0386353 15.6384C0.0386353 17.1463 1.25999 18.3669 2.76807 18.3669C4.27672 18.3669 5.49771 17.1463 5.49771 15.6384C5.56957 14.1306 4.27672 12.9099 2.76807 12.9099Z" fill="white"/>
<path d="M39.4032 16.5719H41.199V18.3669H39.4032V16.5719Z" fill="white"/>
<path d="M39.4032 20.234H41.199V22.0291H39.4032V20.234Z" fill="white"/>
<path d="M41.2691 18.3658H43.0649V20.1609H41.2691V18.3658Z" fill="white"/>
<path d="M37.6069 18.3658H39.4027V20.1609H37.6069V18.3658Z" fill="white"/>
<path d="M2.76984 33.9469H4.56586V35.7419H2.76984V33.9469Z" fill="white"/>
<path d="M2.76984 37.609H4.56586V39.4041H2.76984V37.609Z" fill="white"/>
<path d="M4.63568 35.7428H6.43142V37.5378H4.63568V35.7428Z" fill="white"/>
<path d="M0.973511 35.7428H2.76925V37.5378H0.973511V35.7428Z" fill="white"/>
</svg>
