<svg width="44" height="44" viewBox="0 0 44 44" fill="none" xmlns="http://www.w3.org/2000/svg">
<path d="M1.86723 39.3987C1.86723 38.3921 2.73005 37.5294 3.73714 37.5294L6.46845 37.4575V41.3398L3.66464 41.268C2.65826 41.268 1.86723 40.4052 1.86723 39.3987ZM43.0641 42.1307L8.19407 41.3398V37.3856L43.0641 36.5947C43.5673 36.5947 43.998 36.1633 43.927 35.6601C43.927 35.1568 43.4948 34.7254 42.9917 34.7973L3.66464 35.6601C1.65188 35.732 -0.00195312 37.3856 -0.00195312 39.3987C-0.00195312 41.4117 1.65188 43.0654 3.66464 43.1372C43.8545 44 43.0641 44 43.0641 44C43.5673 44 43.998 43.5686 43.998 43.1372C43.998 42.5621 43.5673 42.2026 43.0641 42.1307Z" fill="white"/>
<path d="M17.3917 1.86926C23.9346 1.86926 29.3262 7.18956 29.3262 13.804C29.3262 20.3465 24.0064 25.7387 17.3917 25.7387C10.7778 25.7387 5.52913 20.3465 5.52913 13.7321C5.52913 7.18956 10.8496 1.86926 17.3917 1.86926ZM17.3917 27.4642C24.9417 27.4642 31.1243 21.2812 31.1243 13.7321C31.1243 6.18302 24.9417 -4.00543e-05 17.3917 -4.00543e-05C9.84318 -4.00543e-05 3.65991 6.18302 3.65991 13.7321C3.65991 21.3531 9.84318 27.4642 17.3917 27.4642Z" fill="white"/>
<path d="M32.207 6.11143C38.4621 8.19641 41.7691 14.9546 39.6845 21.2096C37.5993 27.4645 30.841 30.7718 24.5867 28.6868C24.0835 28.543 23.5803 28.7587 23.436 29.2619C23.2917 29.7652 23.5078 30.2685 24.011 30.4123C31.2007 32.8567 38.9653 28.9744 41.4101 21.7848C43.8543 14.5952 39.9717 6.75849 32.7827 4.38592C32.2795 4.24213 31.7756 4.45782 31.6321 4.96109C31.4885 5.46436 31.7038 5.96763 32.207 6.11143Z" fill="white"/>
<path d="M14.6657 8.26896C17.1817 8.26896 19.2662 10.3539 19.2662 12.8703C19.2662 15.3867 17.1817 17.4716 14.6657 17.4716C12.1491 17.4716 10.0638 15.3867 10.0638 12.8703C10.0638 10.282 12.1491 8.26896 14.6657 8.26896ZM14.6657 19.269C18.1888 19.269 21.0643 16.3932 21.0643 12.8703C21.0643 9.3474 18.1888 6.47156 14.6657 6.47156C11.1427 6.47156 8.26709 9.3474 8.26709 12.8703C8.26709 16.3932 11.1427 19.269 14.6657 19.269Z" fill="white"/>
<path d="M35.7301 16.5358C36.2332 16.5358 36.6646 16.9672 36.6646 17.4705C36.6646 17.9737 36.2332 18.4051 35.7301 18.4051C35.2269 18.4051 34.7955 17.9737 34.7955 17.4705C34.7955 16.8953 35.2269 16.5358 35.7301 16.5358ZM35.7301 20.2025C37.2396 20.2025 38.4621 18.9803 38.4621 17.4705C38.4621 15.9607 37.2396 14.7384 35.7301 14.7384C34.2198 14.7384 32.998 15.9607 32.998 17.4705C32.9988 18.9084 34.2198 20.2025 35.7301 20.2025Z" fill="white"/>
<path d="M5.53625 31.1309H7.33364V32.9283H5.53625V31.1309Z" fill="white"/>
<path d="M9.20288 31.1309H11.001V32.9283H9.20288V31.1309Z" fill="white"/>
<path d="M12.8647 31.1309H14.6629V32.9283H12.8647V31.1309Z" fill="white"/>
<path d="M16.5363 31.1309H18.3337V32.9283H16.5363V31.1309Z" fill="white"/>
<path d="M39.3956 0.934656H41.1924V2.73206H39.3956V0.934656Z" fill="white"/>
<path d="M39.3956 4.6014H41.1924V6.3988H39.3956V4.6014Z" fill="white"/>
<path d="M41.2671 2.73104H43.0652V4.52844H41.2671V2.73104Z" fill="white"/>
<path d="M37.6005 2.73104H39.3986V4.52844H37.6005V2.73104Z" fill="white"/>
<path d="M41.2671 31.1309C41.2671 31.6341 40.8357 32.0655 40.3325 32.0655C39.8293 32.0655 39.3986 31.6341 39.3986 31.1309C39.3986 30.6276 39.8293 30.1962 40.3325 30.1962C40.8357 30.2681 41.2671 30.6276 41.2671 31.1309ZM37.6005 31.1309C37.6005 32.6407 38.8229 33.8629 40.3325 33.8629C41.8428 33.8629 43.0652 32.6407 43.0652 31.1309C43.0652 29.6211 41.8428 28.3988 40.3325 28.3988C38.8229 28.3988 37.6005 29.6211 37.6005 31.1309Z" fill="white"/>
<path d="M2.73005 1.86907C3.23395 1.86907 3.66464 2.30045 3.66464 2.80372C3.66464 3.30699 3.23395 3.73837 2.73005 3.73837C2.22686 3.73837 1.79546 3.30699 1.79546 2.80372C1.86725 2.22855 2.22686 1.86907 2.73005 1.86907ZM2.73005 5.53577C4.24033 5.53577 5.46206 4.31353 5.46206 2.80372C5.46206 1.2939 4.24033 0.0716705 2.73005 0.0716705C1.22048 0.0716705 -0.00195312 1.2939 -0.00195312 2.80372C-0.00195312 4.24164 1.22048 5.53577 2.73005 5.53577Z" fill="white"/>
</svg>
