<svg width="17" height="16" viewBox="0 0 17 16" fill="none" xmlns="http://www.w3.org/2000/svg">
<path d="M15.375 0.75H1.62499C1.29347 0.75 0.975529 0.881696 0.741109 1.11612C0.506688 1.35054 0.374992 1.66848 0.374992 2V14.5C0.373551 14.7384 0.440982 14.9721 0.56918 15.173C0.697378 15.374 0.880887 15.5336 1.09765 15.6328C1.26283 15.7097 1.44278 15.7497 1.62499 15.75C1.91843 15.7493 2.20214 15.6447 2.42577 15.4547L2.4328 15.4492L4.98437 13.25H15.375C15.7065 13.25 16.0245 13.1183 16.2589 12.8839C16.4933 12.6495 16.625 12.3315 16.625 12V2C16.625 1.66848 16.4933 1.35054 16.2589 1.11612C16.0245 0.881696 15.7065 0.75 15.375 0.75ZM15.375 12H4.74999C4.59992 12.0001 4.45489 12.0542 4.3414 12.1523L1.62499 14.5V2H15.375V12Z" fill="#081003"/>
</svg>
