<svg width="1440" height="778" viewBox="0 0 1440 778" fill="none" xmlns="http://www.w3.org/2000/svg">
<g opacity="0.05">
<path d="M-4.68787 1034.12C-46.7665 859.364 -45.4259 759.625 -0.588943 729.204C59.6148 688.352 187.378 778.568 310.931 865.809C421.926 944.187 526.758 1018.21 570.187 987.503C600.418 966.121 598.036 895.237 562.907 770.797C523.892 632.622 518.299 557.441 545.807 540.963C582.763 518.818 673.402 606.079 761.052 690.47C843.952 770.288 922.259 845.669 951.655 827.263C974.832 812.749 964.719 739.98 920.738 604.798C873.63 459.999 863.955 380.667 891.16 362.27C924.108 339.991 1004.36 407.053 1089.31 478.052C1175.45 550.029 1264.5 624.455 1302.25 601.03C1327.33 585.466 1327.65 528.631 1303.25 427.28L1304.22 427.045C1328.74 528.869 1328.27 586.059 1302.78 601.879C1297.82 604.961 1291.99 606.393 1285.43 606.395C1241.33 606.399 1163.89 541.677 1088.67 478.82C1047.91 444.755 1005.76 409.529 970.899 386.563C932.086 360.988 906.186 353.315 891.722 363.098C864.934 381.212 874.736 460.171 921.688 604.487C965.832 740.171 975.808 813.319 952.187 828.111C949.032 830.084 945.346 831.02 941.178 831.02C905.59 831.021 834.823 762.885 760.359 691.189C672.979 607.06 582.623 520.072 546.32 541.819C519.254 558.035 524.995 632.845 563.868 770.527C599.128 895.423 601.384 966.663 570.763 988.319C563.727 993.296 555.119 995.577 545.182 995.579C492.978 995.585 403.848 932.644 310.354 866.627C187.08 779.58 59.6064 689.563 -0.0274773 730.032C-44.4791 760.191 -45.6853 859.583 -3.71494 1033.89L-4.68787 1034.12Z" fill="#884B1C"/>
<path d="M-22.3835 1030.93C-62.2065 859.631 -59.4965 761.238 -14.1002 730.119C47.3082 688.018 175.759 775.405 299.981 859.91C411.567 935.822 516.966 1007.52 561.229 975.852C591.807 953.97 590.358 884.095 556.794 762.234C519.439 626.632 514.863 552.512 542.803 535.632C580.493 512.863 671.126 597.778 758.775 679.887C841.69 757.559 920.014 830.929 949.987 811.963C973.527 797.079 964.349 725.405 921.929 592.842C876.526 450.956 867.853 372.818 895.417 353.96C928.978 331 1009.45 396.143 1094.65 465.114C1180.99 535.004 1270.27 607.274 1308.78 583.166C1334.23 567.232 1335.36 511.147 1312.24 411.706L1313.22 411.479C1336.44 511.388 1335.17 567.824 1309.31 584.014C1304 587.334 1297.76 588.871 1290.74 588.872C1245.95 588.879 1168.89 526.494 1094.03 465.891C1053.15 432.799 1010.88 398.582 975.854 376.435C936.857 351.776 910.731 344.696 895.981 354.786C868.831 373.359 877.631 451.128 922.882 592.536C965.459 725.595 974.501 797.647 950.523 812.808C947.157 814.938 943.205 815.944 938.739 815.944C902.554 815.953 832.155 749.998 758.091 680.616C670.711 598.76 580.362 514.123 543.321 536.488C515.817 553.104 520.538 626.858 557.757 761.967C591.446 884.282 592.773 954.51 561.81 976.664C554.291 982.044 545.053 984.5 534.367 984.502C481.349 984.508 392.537 924.084 299.418 860.738C175.474 776.42 47.3113 689.234 -13.5351 730.943C-58.5522 761.801 -61.1283 859.852 -21.4095 1030.7L-22.3835 1030.93Z" fill="#DC223B"/>
<path d="M-40.2632 1028.07C-77.8533 860.176 -73.7886 763.091 -27.8386 731.267C34.8067 687.881 164.023 772.464 288.984 854.261C401.222 927.73 507.236 997.125 552.35 964.462C583.264 942.077 582.731 873.195 550.715 753.883C515.008 620.813 511.444 547.723 539.823 530.437C578.242 507.03 668.931 589.613 756.635 669.481C839.6 745.034 917.968 816.398 948.542 796.874C972.439 781.612 964.188 711.005 923.315 581.018C879.6 442.002 871.92 365.033 899.836 345.709C934.036 322.034 1014.78 385.291 1100.26 452.255C1186.86 520.083 1276.4 590.219 1315.68 565.41C1341.5 549.102 1343.43 493.746 1321.59 396.183L1322.57 395.965C1344.52 493.992 1342.44 549.694 1316.21 566.255C1276.33 591.443 1186.51 521.085 1099.65 453.042C1014.46 386.31 933.996 323.281 900.406 346.53C872.898 365.573 880.703 442.175 924.268 580.718C965.296 711.195 973.412 782.177 949.082 797.717C945.484 800.014 941.254 801.095 936.466 801.097C899.68 801.105 829.632 737.307 755.962 670.221C668.532 590.602 578.127 508.271 540.343 531.291C512.396 548.314 516.106 621.041 551.682 753.623C583.816 873.385 584.227 942.615 552.936 965.271C544.903 971.088 534.986 973.729 523.496 973.73C469.67 973.735 381.176 915.803 288.438 855.098C163.752 773.479 34.8259 689.078 -27.27 732.09C-72.8476 763.655 -76.7782 860.4 -39.2881 1027.85L-40.2632 1028.07Z" fill="#E24120"/>
<path d="M-58.3398 1025.49C-93.7204 860.958 -88.3195 765.164 -41.8288 732.631C22.0842 687.91 152.141 769.718 277.917 848.834C390.88 919.889 497.578 987.005 543.568 953.31C574.81 930.421 575.182 862.517 544.702 745.715C510.624 615.131 508.062 543.049 536.874 525.347C576.044 501.274 666.833 581.574 754.628 659.229C837.692 732.701 916.144 802.1 947.322 781.982C971.576 766.334 964.24 696.774 924.896 569.329C882.852 433.137 876.153 357.309 904.417 337.51C939.269 313.102 1020.33 374.489 1106.15 439.477C1193.04 505.269 1282.89 573.298 1322.97 547.763C1349.16 531.075 1351.89 476.434 1331.31 380.719L1332.28 380.509C1352.97 476.681 1350.09 531.666 1323.5 548.606C1317.44 552.465 1310.29 554.237 1302.21 554.237C1256.05 554.241 1179.73 496.442 1105.55 440.273C1020.03 375.513 939.248 314.337 904.99 338.329C877.129 357.846 883.952 433.31 925.852 569.034C965.345 696.966 972.546 766.898 947.864 782.823C944.025 785.301 939.493 786.465 934.36 786.465C896.97 786.473 827.257 724.806 753.966 659.978C666.444 582.566 575.945 502.515 537.398 526.198C509.01 543.639 511.717 615.361 545.669 745.464C576.265 862.706 575.77 930.958 544.158 954.118C535.574 960.407 524.924 963.245 512.568 963.247C457.932 963.254 369.752 907.781 277.384 849.681C151.885 770.738 22.1155 689.111 -41.2548 733.45C-87.3804 765.727 -92.6486 861.185 -57.3616 1025.28L-58.3398 1025.49Z" fill="#D1696C"/>
<path d="M-76.6241 1023.23C-109.816 862.005 -103.092 767.471 -56.0662 734.228C9.14628 688.13 140.12 767.19 266.782 843.649C380.533 912.314 487.976 977.169 534.858 942.414C566.42 919.02 567.685 852.07 538.722 737.741C506.261 609.602 504.698 538.502 533.946 520.377C573.9 495.613 664.825 573.665 752.758 649.141C835.96 720.556 914.546 788.009 946.332 767.29C970.938 751.246 964.51 682.712 926.678 557.764C886.288 424.353 880.558 349.641 909.164 329.361C944.662 304.189 1026.1 363.73 1112.31 426.766C1199.53 490.546 1289.73 556.502 1330.63 530.213C1357.2 513.14 1360.72 459.196 1341.38 365.301L1342.36 365.1C1361.78 459.446 1358.13 513.732 1331.17 531.054C1324.7 535.213 1317.03 537.113 1308.37 537.114C1261.53 537.122 1185.57 481.572 1111.72 427.573C1025.8 364.756 944.658 305.425 909.742 330.177C881.53 350.177 887.385 424.526 927.636 557.474C965.613 682.905 971.908 751.809 946.878 768.128C942.776 770.802 937.925 772.054 932.418 772.054C894.422 772.057 825.032 712.494 752.106 649.901C664.448 574.658 573.802 496.854 534.473 521.228C505.644 539.093 507.352 609.836 539.692 737.496C568.764 852.261 567.378 919.553 535.454 943.218C526.281 950.018 514.846 953.07 501.553 953.072C446.117 953.076 358.252 900.032 266.265 844.506C139.876 768.211 9.18795 689.328 -55.4886 735.044C-102.155 768.034 -108.747 862.234 -75.6449 1023.02L-76.6241 1023.23Z" fill="#D570BF"/>
<path d="M-95.1142 1021.27C-126.143 863.313 -118.112 770.019 -70.5636 736.062C-4.01991 688.534 127.956 764.875 255.587 838.698C370.197 904.991 478.451 967.605 526.248 931.755C558.116 907.853 560.256 841.844 532.795 729.962C501.931 604.229 501.356 534.087 531.037 515.531C571.775 490.065 662.884 565.881 750.997 639.201C834.385 708.591 913.155 774.134 945.56 752.779C970.521 736.335 964.992 668.797 928.66 546.302C889.907 415.638 885.136 342.026 914.076 321.258C950.253 295.297 1032.1 353.013 1118.75 414.118C1206.36 475.91 1296.96 539.809 1338.7 512.746C1365.64 495.285 1369.93 442.021 1351.84 349.913L1352.82 349.721C1371 442.274 1366.56 495.875 1339.24 513.586C1296.95 541.015 1206.06 476.919 1118.17 414.935C1031.82 354.041 950.255 296.519 914.659 322.071C886.107 342.559 891 415.812 929.619 546.019C966.093 668.99 971.488 736.895 946.111 753.614C941.728 756.502 936.529 757.849 930.624 757.85C892.017 757.853 822.935 700.365 750.359 639.97C662.517 566.875 571.687 491.298 531.568 516.379C502.3 534.678 503.019 604.463 533.765 729.722C561.335 842.038 559.072 908.386 526.848 932.555C478.523 968.799 369.992 906.027 255.087 839.565C127.728 765.899 -3.96471 689.722 -69.9824 736.875C-117.178 770.58 -125.077 863.544 -94.1324 1021.08L-95.1142 1021.27Z" fill="#D52866"/>
<path d="M-113.813 1019.62C-142.697 864.877 -133.376 772.799 -85.3147 738.13C-17.3996 689.141 115.652 762.774 244.324 833.982C359.856 897.921 468.981 958.313 517.713 921.334C549.876 896.925 552.881 831.842 526.9 722.363C497.621 598.994 498.028 529.79 528.141 510.796C569.692 484.588 661.033 558.214 749.373 629.413C832.991 696.806 911.967 760.466 945.028 738.454C970.337 721.601 965.701 655.04 930.855 534.967C893.715 407.002 889.888 334.462 919.155 313.201C956.023 286.418 1038.32 342.332 1125.45 401.53C1213.51 461.357 1304.56 523.221 1347.15 495.361C1374.45 477.508 1379.52 424.911 1362.65 334.568L1363.64 334.383C1380.58 425.169 1375.37 478.099 1347.7 496.198C1340.31 501.031 1331.5 503.217 1321.54 503.218C1273.35 503.225 1198.09 452.09 1124.89 402.357C1038.06 343.362 956.039 287.639 919.744 314.01C890.859 334.993 894.807 407.178 931.815 534.689C966.8 655.236 971.304 722.16 945.583 739.287C940.899 742.405 935.329 743.853 928.992 743.853C889.773 743.858 820.985 688.414 748.747 630.191C660.679 559.213 569.613 485.822 528.676 511.641C498.969 530.38 498.705 599.232 527.873 722.132C553.956 832.037 550.829 897.458 518.317 922.13C507.848 930.075 494.652 933.596 479.261 933.597C422.255 933.602 335.043 885.333 243.839 834.858C115.439 763.797 -17.3324 690.315 -84.7303 738.941C-132.444 773.361 -141.637 865.113 -112.83 1019.44L-113.813 1019.62Z" fill="#E13AA6"/>
<path d="M-132.76 1018.28C-159.524 866.698 -148.926 775.816 -100.362 740.436C-31.0408 689.93 103.175 760.881 232.971 829.496C349.502 891.098 459.568 949.282 509.255 911.138C541.702 886.228 545.556 822.056 521.042 714.953C493.336 593.913 494.718 525.626 525.263 506.186C567.627 479.22 659.263 550.673 747.879 619.774C831.774 685.192 911.016 746.979 944.722 724.297C970.379 707.026 966.624 641.42 933.244 523.726C897.706 398.429 894.814 326.944 924.399 305.186C961.979 277.554 1044.79 331.686 1132.45 388.996C1220.99 446.876 1312.55 506.724 1356.01 478.045C1383.66 459.797 1389.5 407.853 1373.85 319.244L1374.83 319.069C1390.55 408.113 1384.58 460.388 1356.55 478.88C1348.66 484.09 1339.22 486.434 1328.53 486.436C1279.68 486.44 1204.78 437.471 1131.91 389.832C1044.53 332.716 962.004 278.77 924.991 305.992C895.782 327.473 898.796 398.605 934.204 523.453C967.719 641.617 971.343 707.584 945.28 725.126C940.278 728.493 934.306 730.052 927.507 730.053C887.676 730.058 819.176 676.638 747.264 620.562C658.923 551.677 567.578 480.443 525.8 507.029C495.655 526.214 494.416 594.153 522.016 714.729C546.628 822.252 542.652 886.758 509.864 911.932C498.679 920.52 484.499 924.297 467.934 924.298C410.163 924.301 323.292 878.374 232.503 830.38C102.98 761.909 -30.9548 691.109 -99.7736 741.244C-147.998 776.377 -158.466 866.938 -131.776 1018.1L-132.76 1018.28Z" fill="#BC259A"/>
<path d="M-151.916 1017.24C-176.586 868.778 -164.736 779.068 -115.683 742.981C-44.9135 690.919 90.5412 759.203 221.536 825.24C339.139 884.524 450.219 940.519 500.882 901.173C533.599 875.766 538.29 812.49 515.224 707.735C489.078 588.976 491.426 521.577 522.404 501.687C565.619 473.935 657.584 543.248 746.522 610.283C830.734 673.753 910.279 733.706 944.647 710.316C970.646 692.627 967.764 627.957 935.84 512.611C901.884 389.936 899.911 319.483 929.807 297.223C968.104 268.711 1051.47 321.073 1139.73 376.515C1228.81 432.467 1320.92 490.321 1365.28 460.795C1393.29 442.149 1399.88 390.841 1385.44 303.939L1386.42 303.775C1400.94 391.107 1394.2 442.741 1365.84 461.628C1357.4 467.245 1347.26 469.757 1335.8 469.757C1286.3 469.763 1211.75 422.932 1139.2 377.36C1051.24 322.107 968.154 269.924 930.404 298.025C900.878 320.009 902.971 390.113 936.804 512.344C968.858 628.155 971.607 693.183 945.21 711.143C910.246 734.939 830.424 674.773 745.919 611.08C657.255 544.253 565.567 475.156 522.944 502.528C492.362 522.167 490.155 589.22 516.2 707.519C539.359 812.691 534.548 876.295 501.495 901.963C489.547 911.242 474.306 915.292 456.475 915.295C397.955 915.299 311.447 871.685 221.087 826.132C90.3593 760.232 -44.8161 692.083 -115.091 743.788C-163.809 779.63 -175.533 869.02 -150.93 1017.07L-151.916 1017.24Z" fill="#6F3EA2"/>
<path d="M-171.322 1016.51C-193.922 871.124 -180.831 782.568 -131.301 745.783C-59.0481 692.114 77.7326 757.747 210.009 821.216C328.752 878.192 440.91 932.009 492.58 891.427C525.557 865.526 531.07 803.131 509.434 700.679C484.829 584.179 488.134 517.655 519.537 497.307C563.613 468.743 655.962 535.936 745.266 600.919C829.85 662.467 909.74 720.595 944.8 696.482C971.137 678.363 969.118 614.604 938.63 501.564C906.244 381.488 905.178 312.054 935.374 289.292C974.412 259.87 1058.39 310.484 1147.29 364.073C1236.96 418.12 1329.68 474.005 1374.96 443.603C1403.32 424.56 1410.66 373.875 1397.42 288.652L1398.41 288.499C1411.72 374.144 1404.24 425.151 1375.52 444.432C1329.7 475.189 1236.71 419.136 1146.78 364.931C1058.17 311.52 974.481 261.074 935.976 290.091C906.142 312.578 907.328 381.666 939.595 501.303C970.208 614.803 972.094 678.916 945.365 697.306C909.724 721.824 829.554 663.488 744.68 601.728C655.648 536.943 563.583 469.953 520.081 498.146C489.065 518.243 485.902 584.424 510.411 700.472C532.135 803.335 526.504 866.055 493.197 892.214C441.039 933.179 328.61 879.233 209.577 822.119C77.5681 758.776 -58.9377 693.279 -130.705 746.584C-179.909 783.13 -192.871 871.371 -170.334 1016.35L-171.322 1016.51Z" fill="#C36F84"/>
<path d="M-190.967 1016.08C-211.523 873.721 -197.211 786.298 -147.215 748.819C-73.4253 693.506 64.7643 756.494 198.406 817.407C318.365 872.082 431.668 923.723 484.365 881.879C517.588 855.494 523.905 793.972 503.678 693.799C480.604 579.516 484.858 513.844 516.686 493.035C561.653 463.631 654.433 528.738 744.156 591.702C829.154 651.35 909.43 707.688 945.196 682.819C971.864 664.268 970.7 601.407 941.637 490.641C910.798 373.115 910.629 304.675 941.117 281.41C980.914 251.044 1065.55 299.924 1155.15 351.677C1245.45 403.827 1338.82 457.756 1385.05 426.454C1413.76 407.014 1421.85 356.938 1409.78 273.367L1410.77 273.225C1422.89 357.213 1414.66 407.604 1385.61 427.282C1338.86 458.934 1245.21 404.847 1154.65 352.542C1065.35 300.962 980.989 252.24 941.724 282.204C911.592 305.198 911.88 373.295 942.602 490.386C971.786 601.607 972.821 664.82 945.766 683.639C939.664 687.884 932.31 689.82 923.9 689.822C882.236 689.824 814.548 642.32 743.582 592.52C654.132 529.747 561.636 464.846 517.233 493.872C485.786 514.432 481.674 579.764 504.66 693.602C524.968 794.179 518.532 856.021 484.988 882.662C471.353 893.49 453.737 898.138 433.065 898.139C373.12 898.145 287.405 859.071 197.992 818.316C64.6163 757.524 -73.2999 694.666 -146.615 749.619C-196.292 786.859 -210.475 873.972 -189.976 1015.94L-190.967 1016.08Z" fill="#D37C3E"/>
<path d="M-210.87 1015.96C-229.409 876.583 -213.895 790.279 -163.446 752.118C-88.0832 695.113 51.6043 755.468 186.694 813.839C307.943 866.227 422.469 915.714 476.218 872.561C509.673 845.701 516.781 785.041 497.947 687.114C476.387 575.007 481.583 510.167 513.833 488.89C559.717 458.621 652.975 521.654 743.167 582.614C828.63 640.379 909.353 694.939 945.823 669.29C972.819 650.301 972.501 588.318 944.847 479.797C915.541 364.794 916.253 297.334 947.023 273.565C987.591 242.222 1072.95 289.382 1163.31 339.315C1254.3 389.59 1348.38 441.575 1395.57 409.35C1424.62 389.511 1433.45 340.035 1422.56 258.094L1423.54 257.962C1434.49 340.314 1425.53 390.103 1396.13 410.175C1348.44 442.747 1254.08 390.611 1162.83 340.19C1072.76 290.422 987.689 243.417 947.634 274.357C917.214 297.855 916.619 364.975 945.815 479.55C973.583 588.521 973.775 650.853 946.399 670.107C939.881 674.691 931.99 676.774 922.962 676.775C880.694 676.782 813.269 631.203 742.607 583.442C652.69 522.666 559.709 459.821 514.383 489.725C482.509 510.755 477.453 575.259 498.929 686.923C517.839 785.249 510.615 846.227 476.843 873.341C462.279 885.032 443.334 890.006 421.071 890.007C360.457 890.013 275.186 853.163 186.297 814.756C51.4704 756.502 -87.9468 696.261 -162.842 752.915C-212.979 790.839 -228.365 876.841 -209.879 1015.83L-210.87 1015.96Z" fill="#B92599"/>
<path d="M-231.042 1016.15C-247.587 879.694 -230.89 794.486 -179.996 755.656C-103.01 696.916 38.2636 754.647 174.885 810.477C297.5 860.584 413.314 907.914 468.144 863.428C501.818 836.104 509.7 776.294 492.238 680.58C472.181 570.622 478.31 506.598 510.977 484.852C557.798 453.684 651.59 514.676 742.297 573.657C828.274 629.564 909.481 682.368 946.684 655.912C974.001 636.484 974.516 575.357 948.254 469.038C920.465 356.52 922.044 290.025 953.084 265.753C994.45 233.404 1080.58 278.858 1171.75 326.982C1263.48 375.394 1358.33 425.453 1406.52 392.278C1435.9 372.046 1445.46 323.156 1435.72 242.814L1436.7 242.694C1446.5 323.44 1436.81 372.638 1407.08 393.102C1396.06 400.686 1382.66 403.984 1367.48 403.985C1315.51 403.988 1242.46 365.433 1171.29 327.866C1080.4 279.897 994.553 234.589 953.7 266.541C923.004 290.544 921.54 356.704 949.226 468.798C975.596 575.562 974.954 637.033 947.262 656.726C940.297 661.681 931.84 663.917 922.14 663.917C879.272 663.92 812.104 620.242 741.752 574.496C651.316 515.689 557.801 454.881 511.532 485.684C479.233 507.185 473.244 570.877 493.222 680.401C510.756 776.506 502.758 836.63 468.773 864.204C453.218 876.826 432.837 882.141 408.857 882.142C347.612 882.147 262.825 847.494 174.506 811.404C38.1448 755.681 -102.859 698.064 -179.39 756.45C-229.978 795.047 -246.548 879.957 -230.05 1016.03L-231.042 1016.15Z" fill="#8B2636"/>
<path d="M-251.478 1016.63C-266.058 883.067 -248.197 798.947 -196.874 759.462C-118.22 698.946 24.7242 754.057 162.962 807.35C287.029 855.181 404.217 900.357 460.153 854.505C494.037 826.727 502.679 767.755 486.573 674.222C467.998 566.375 475.047 503.149 508.126 480.929C555.899 448.839 650.281 507.799 741.557 564.821C828.101 618.887 909.845 669.95 947.794 642.661C975.425 622.79 976.761 562.507 951.881 458.366C925.589 348.301 928.023 282.755 959.322 257.983C1001.51 224.59 1088.45 268.351 1180.5 314.675C1273.02 361.235 1368.68 409.379 1417.89 375.229C1447.62 354.602 1457.89 306.283 1449.29 227.513L1450.29 227.405C1458.93 306.573 1448.52 355.195 1418.46 376.05C1406.69 384.222 1392.32 387.747 1376 387.747C1323.47 387.75 1250.85 351.197 1180.05 315.569C1088.3 269.393 1001.63 225.774 959.943 258.766C928.979 283.273 926.662 348.486 952.854 458.134C977.839 562.714 976.374 623.338 948.378 643.471C909.879 671.158 827.862 619.917 741.027 565.67C650.023 508.817 555.918 450.03 508.685 481.759C475.967 503.735 469.057 566.634 487.558 674.053C503.731 767.971 494.974 827.251 460.786 855.278C404.398 901.499 286.949 856.219 162.603 808.283C24.6226 755.087 -118.054 700.081 -196.265 760.253C-247.287 799.509 -265.023 883.334 -250.485 1016.52L-251.478 1016.63Z" fill="#A21661"/>
<path d="M-272.202 1017.44C-284.844 886.707 -265.836 803.652 -214.092 763.524C-133.716 701.191 10.9927 753.682 150.938 804.442C276.529 849.998 395.157 893.026 452.228 845.771C486.306 817.555 495.69 759.414 480.917 668.027C463.814 562.261 471.78 499.814 505.269 477.119C554.03 444.079 649.052 501.029 740.949 556.107C828.106 608.346 910.433 657.687 949.146 629.533C977.084 609.218 979.234 549.762 955.72 447.77C930.906 340.123 934.178 275.514 965.725 250.245C1008.74 215.786 1096.57 257.851 1189.56 302.39C1282.92 347.107 1379.46 393.349 1429.72 358.198C1459.77 337.182 1470.76 289.427 1463.29 212.207L1464.28 212.111C1471.78 289.722 1460.66 337.775 1430.29 359.018C1417.7 367.819 1402.28 371.585 1384.77 371.586C1331.71 371.593 1259.53 337.01 1189.13 303.291C1096.44 258.895 1008.89 216.959 966.35 251.026C935.134 276.029 931.974 340.311 956.694 447.545C980.308 549.971 978.032 609.765 949.736 630.342C941.784 636.125 932.048 638.702 920.86 638.703C876.813 638.707 810.169 598.759 740.434 556.965C648.808 502.049 554.06 445.261 505.83 477.947C472.697 500.401 464.87 562.523 481.904 667.869C496.74 759.635 487.241 818.079 452.865 846.541C435.113 861.24 411.501 867.293 383.654 867.294C321.282 867.298 237.614 836.946 150.597 805.382C10.9063 754.714 -133.539 702.323 -213.479 764.315C-264.931 804.215 -283.814 886.981 -271.207 1017.34L-272.202 1017.44Z" fill="#D42624"/>
<path d="M-293.211 1018.52C-303.944 890.591 -283.809 808.594 -231.659 767.846C-149.511 703.657 -2.94467 753.524 138.792 801.754C265.989 845.034 386.131 885.91 444.371 837.231C478.632 808.591 488.741 751.274 475.278 662.003C459.632 558.281 468.501 496.597 502.394 473.427C552.164 439.402 647.886 494.363 740.456 547.515C828.285 597.943 911.244 645.578 950.747 616.531C978.983 595.771 981.936 537.129 959.773 437.25C936.417 331.99 940.514 268.299 972.296 242.542C1016.17 206.978 1104.94 247.362 1198.91 290.118C1293.17 333.002 1390.64 377.346 1441.98 341.174C1472.36 319.771 1484.04 272.569 1477.69 196.87L1478.69 196.787C1485.08 272.87 1473.25 320.366 1442.56 341.991C1429.1 351.471 1412.54 355.49 1393.74 355.493C1340.19 355.497 1268.47 322.862 1198.5 291.029C1104.81 248.403 1016.32 208.146 972.925 243.319C941.468 268.814 937.484 332.179 960.75 437.033C983.008 537.339 979.929 596.318 951.339 617.338C942.844 623.582 932.394 626.351 920.373 626.353C875.753 626.357 809.376 588.241 739.957 548.382C647.657 495.385 552.213 440.582 502.96 474.253C469.414 497.185 460.684 558.549 476.266 661.854C489.786 751.499 479.562 809.117 445.013 837.998C426.048 853.851 400.62 860.298 370.601 860.299C307.752 860.303 224.737 832.054 138.47 802.7C-3.01706 754.558 -149.319 704.778 -231.043 768.633C-282.908 809.158 -302.916 890.87 -292.215 1018.44L-293.211 1018.52Z" fill="#804B1B"/>
<path d="M-314.514 1019.94C-323.366 894.744 -302.122 813.782 -249.569 772.429C-211.963 742.839 -157.527 733.588 -83.1505 744.153C-17.4026 753.492 55.7693 776.77 126.532 799.284C255.411 840.284 377.141 879.012 436.577 828.873C471.006 799.829 481.826 743.329 469.654 656.141C455.453 554.433 465.221 493.497 499.514 469.852C550.325 434.819 646.798 487.8 740.093 539.04C828.645 587.675 912.286 633.604 952.598 603.647C981.129 582.441 984.873 524.592 964.047 426.794C942.135 323.884 947.041 261.105 979.046 234.865C1023.81 198.165 1113.57 236.876 1208.6 277.86C1303.81 318.921 1402.26 361.379 1454.72 324.163C1485.41 302.381 1497.78 255.723 1492.53 181.521L1493.53 181.452C1498.81 256.029 1486.29 302.977 1455.29 324.979C1402.38 362.524 1303.66 319.949 1208.2 278.779C1113.46 237.92 1023.97 199.329 979.681 235.639C947.991 261.619 943.198 324.077 965.027 426.585C985.942 524.805 982.071 582.985 953.194 604.449C912.369 634.796 828.453 588.708 739.611 539.916C646.582 488.824 550.381 435.987 500.082 470.676C466.13 494.085 456.501 554.707 470.645 656.004C482.867 743.558 471.935 800.355 437.222 829.637C377.362 880.129 255.378 841.322 126.229 800.236C-17.1395 754.625 -165.39 707.461 -248.95 773.215C-301.223 814.348 -322.343 895.028 -313.517 1019.87L-314.514 1019.94Z" fill="#9C1856"/>
<path d="M-336.118 1021.66C-343.119 899.153 -320.786 819.216 -267.843 777.281C-229.395 746.829 -174.002 736.488 -98.501 745.676C-31.7556 753.795 42.4146 775.776 114.144 797.033C244.789 835.752 368.187 872.323 428.854 820.7C463.442 791.269 474.955 735.575 464.051 650.432C451.278 550.707 461.933 490.504 496.621 466.384C548.499 430.312 645.778 481.332 739.853 530.671C829.182 577.52 913.558 621.773 954.694 590.861C983.507 569.213 988.031 512.145 968.527 416.399C948.034 315.811 953.733 253.929 985.95 227.216C1031.62 189.351 1122.43 226.387 1218.58 265.6C1314.8 304.84 1414.29 345.423 1467.89 307.131C1498.9 284.976 1511.96 238.852 1507.8 166.123L1508.8 166.065C1512.98 239.164 1499.78 285.573 1468.48 307.945C1453.09 318.933 1434 323.499 1412.34 323.5C1357.9 323.504 1287.22 294.672 1218.2 266.525C1122.34 227.431 1031.8 190.503 986.587 227.987C954.682 254.441 949.094 316.007 969.506 416.2C989.097 512.363 984.449 569.756 955.294 591.661C945.597 598.948 933.561 602.131 919.681 602.131C873.953 602.135 808.138 567.613 739.389 531.556C645.578 482.356 548.575 431.48 497.191 467.205C462.838 491.092 452.322 550.984 465.043 650.304C475.994 735.808 464.367 791.795 429.501 821.463C368.425 873.439 244.773 836.79 113.859 797.994C-31.4791 754.917 -181.767 710.38 -267.222 778.065C-319.891 819.784 -342.102 899.445 -335.119 1021.6L-336.118 1021.66Z" fill="#EF3220"/>
<path d="M-358.043 1023.69C-363.223 903.822 -339.819 824.895 -286.492 782.4C-247.175 751.071 -190.792 739.631 -114.114 747.429C-46.3304 754.321 28.8853 775.002 101.623 795.002C234.113 831.429 359.256 865.839 421.186 812.707C455.922 782.907 468.113 728.011 458.454 644.882C447.093 547.105 458.622 487.619 493.701 463.027C546.681 425.883 644.828 474.955 739.742 522.41C829.904 567.488 915.068 610.066 957.05 578.181C986.14 556.09 991.432 499.797 973.232 406.078C954.14 307.771 960.618 246.774 993.034 219.598C1039.63 180.533 1131.56 215.901 1228.89 253.345C1326.17 290.773 1426.77 329.473 1481.53 290.095C1512.86 267.573 1526.6 221.971 1523.52 150.685L1524.52 150.642C1527.61 222.291 1513.74 268.173 1482.12 290.907C1465.68 302.733 1445.16 307.591 1421.9 307.593C1367.1 307.596 1297 280.622 1228.53 254.278C1131.48 216.942 1039.82 181.678 993.677 220.365C961.565 247.284 955.197 307.97 974.213 405.889C992.493 500.017 987.077 556.634 957.656 578.977C947.297 586.843 934.373 590.251 919.458 590.253C873.201 590.258 807.688 557.498 739.294 523.303C644.642 475.981 546.77 427.049 494.276 463.846C459.525 488.207 448.133 547.387 459.448 644.767C469.148 728.251 456.845 783.433 421.837 813.466C398.69 833.324 366.834 841.054 329.149 841.057C265.349 841.059 184.816 818.912 101.358 795.964C-46.0428 755.436 -198.462 713.531 -285.868 783.183C-338.927 825.464 -362.21 904.122 -357.044 1023.65L-358.043 1023.69Z" fill="#AD66BA"/>
<path d="M-380.289 1026.02C-383.678 908.738 -359.219 830.807 -305.515 787.777C-265.303 755.556 -207.886 743.006 -129.99 749.407C-61.1243 755.066 15.182 774.442 88.9747 793.18C223.393 827.311 350.357 859.553 413.585 804.889C448.457 774.742 461.307 720.641 452.873 639.494C442.909 543.633 455.305 484.853 490.767 459.794C544.882 421.557 643.943 468.686 739.747 514.262C830.797 557.577 916.802 598.491 959.654 565.601C989.01 543.075 995.059 487.537 978.149 395.814C960.441 299.759 967.683 239.638 1000.29 212.013C1047.84 171.715 1140.95 205.414 1239.52 241.091C1337.93 276.706 1439.68 313.534 1495.66 273.041C1527.29 250.161 1541.69 205.074 1539.66 135.205L1540.66 135.177C1542.69 205.401 1528.17 250.763 1496.25 273.851C1478.65 286.574 1456.62 291.741 1431.65 291.742C1376.53 291.746 1307.07 266.601 1239.18 242.031C1140.89 206.455 1048.04 172.854 1000.93 212.775C968.627 240.149 961.495 299.962 979.134 395.633C996.117 487.761 989.945 543.618 960.263 566.395C916.917 599.655 830.649 558.614 739.317 515.165C643.774 469.713 544.977 422.71 491.345 460.61C456.202 485.442 443.945 543.922 453.867 639.39C462.338 720.887 449.377 775.27 414.239 805.644C350.613 860.65 223.406 828.346 88.7289 794.149C-60.8238 756.174 -215.467 716.907 -304.89 788.556C-358.333 831.378 -382.667 909.043 -379.289 1025.99L-380.289 1026.02Z" fill="#834B9F"/>
<path d="M-402.866 1028.67C-404.497 913.915 -379.002 836.967 -324.927 793.426C-283.793 760.304 -225.315 746.626 -146.146 751.63C-76.1577 756.046 1.28241 774.111 76.1725 791.579C212.603 823.406 341.467 853.464 406.034 797.25C441.035 766.778 454.531 713.459 447.297 634.247C438.713 540.272 451.963 482.183 487.806 456.66C543.082 417.302 643.127 462.499 739.877 506.207C831.871 547.768 918.766 587.026 962.522 553.104C992.134 530.146 998.927 475.355 983.293 385.598C966.945 291.759 974.934 232.502 1007.72 204.439C1056.26 162.88 1150.61 194.911 1250.49 228.82C1350.06 262.623 1453.04 297.579 1510.25 255.958C1542.18 232.73 1557.24 188.15 1556.26 119.67L1557.26 119.656C1558.24 188.483 1543.05 233.332 1510.84 256.766C1492.02 270.451 1468.34 275.936 1441.52 275.938C1386.17 275.94 1317.4 252.592 1250.17 229.768C1150.56 195.951 1056.48 164.014 1008.36 205.199C975.875 233.011 967.995 291.964 984.277 385.426C999.982 475.582 993.066 530.688 963.134 553.895C918.902 588.187 831.743 548.807 739.466 507.119C642.973 463.526 543.19 418.45 488.386 457.475C452.858 482.774 439.743 540.567 448.293 634.156C455.559 713.711 441.951 767.306 406.691 798.004C380.217 821.054 343.067 829.706 299.109 829.709C235.217 829.711 156.919 811.443 75.946 792.554C-75.8463 757.145 -232.806 720.531 -324.301 794.206C-378.119 837.542 -403.491 914.23 -401.866 1028.65L-402.866 1028.67Z" fill="#9C571D"/>
<path d="M-424.793 1031.63H-425.793C-425.69 919.356 -399.173 843.378 -344.73 799.351C-302.641 765.313 -243.054 750.503 -162.57 754.09C-91.4144 757.255 -12.7925 774.001 63.2403 790.194C201.763 819.697 332.603 847.566 398.543 789.779C433.663 759.003 447.788 706.463 441.73 629.157C434.51 537.037 448.606 479.627 484.823 453.646C541.298 413.138 642.38 456.409 740.138 498.257C833.139 538.07 920.979 575.674 965.655 540.69C995.516 517.309 1003.04 463.253 988.664 375.431C973.658 283.778 982.378 225.377 1015.32 196.894C1064.88 154.049 1160.53 184.403 1261.79 216.541C1362.6 248.534 1466.82 281.615 1525.33 238.843C1557.57 215.275 1573.26 171.191 1573.33 104.071L1574.33 104.073C1574.26 171.533 1558.44 215.882 1525.92 239.651C1505.8 254.367 1480.33 260.185 1451.52 260.186C1396 260.189 1328 238.606 1261.49 217.494C1160.5 185.443 1065.11 155.173 1015.98 197.65C983.317 225.887 974.706 283.987 989.651 375.27C1004.09 463.483 996.446 517.851 966.271 541.478C921.13 576.826 833.026 539.109 739.745 499.175C642.243 457.437 541.42 414.275 485.406 454.459C449.496 480.218 435.536 537.337 442.727 629.078C448.811 706.722 434.575 759.533 399.203 790.53C332.883 848.649 201.807 820.73 63.0315 791.173C-91.092 758.347 -250.462 724.405 -344.101 800.129C-398.296 843.954 -424.69 919.679 -424.793 1031.63Z" fill="#ED1153"/>
<path d="M-448.061 1034.9L-449.061 1034.89C-447.259 925.039 -419.741 850.018 -364.934 805.533C-321.863 770.575 -261.141 754.627 -179.287 756.785C-106.925 758.69 -27.0793 774.109 50.1374 789.02C190.835 816.191 323.731 841.853 391.087 782.478C426.319 751.423 441.061 699.653 436.154 624.209C430.282 533.914 445.214 477.173 481.802 450.742C539.511 409.055 641.695 450.407 740.518 490.401C834.582 528.466 923.429 564.422 969.047 528.354C999.149 504.555 1007.39 451.223 994.254 365.31C980.569 275.805 990.005 218.251 1023.1 189.363C1073.71 145.201 1170.72 173.879 1273.42 204.239C1375.52 234.419 1481.08 265.628 1540.9 221.69C1573.44 197.793 1589.78 154.198 1590.86 88.4128L1591.86 88.4302C1590.77 154.549 1574.3 198.401 1541.49 222.497C1481.28 266.727 1375.46 235.447 1273.14 205.199C1170.7 174.918 1073.95 146.317 1023.76 190.117C990.941 218.762 981.613 276.018 995.245 365.159C1008.44 451.459 1000.08 505.098 969.669 529.138C923.591 565.569 834.481 529.506 740.142 491.326C641.574 451.435 539.646 410.186 482.387 451.553C446.102 477.766 431.305 534.221 437.151 624.143C442.079 699.917 427.227 751.955 391.75 783.229C324.025 842.927 190.895 817.22 49.9474 790.002C-106.591 759.774 -268.461 728.517 -364.305 806.309C-418.867 850.597 -446.265 925.37 -448.061 1034.9Z" fill="#93201F"/>
<path d="M-471.689 1038.5L-472.688 1038.47C-469.217 930.989 -440.71 856.909 -385.538 811.992C-341.455 776.102 -279.561 759.021 -196.285 759.726C-122.672 760.364 -41.555 774.448 36.8903 788.068C179.848 812.887 314.879 836.329 383.694 775.356C419.03 744.044 434.372 693.036 430.596 619.417C426.052 530.908 441.807 474.818 478.76 447.945C537.74 405.054 641.082 444.493 741.022 482.632C836.21 518.96 926.116 553.269 972.71 516.086C1003.04 491.88 1012 439.26 1000.08 355.222C987.691 267.83 997.826 211.118 1031.07 181.844C1082.74 136.34 1181.18 163.334 1285.4 191.912C1388.84 220.276 1495.78 249.604 1556.97 204.488C1589.8 180.273 1606.77 137.154 1608.86 72.6705L1609.86 72.7038C1607.77 137.513 1590.66 180.884 1557.56 205.292C1534.5 222.297 1505.02 228.812 1471.76 228.813C1416.17 228.817 1349.97 210.659 1285.13 192.877C1181.18 164.372 1083 137.445 1031.73 182.594C998.759 211.628 988.731 268.049 1001.07 355.081C1013.04 439.501 1003.97 492.421 973.334 516.868C926.295 554.409 836.125 519.997 740.665 483.566C640.974 445.521 537.89 406.18 479.348 448.754C442.691 475.412 427.07 531.22 431.595 619.365C435.388 693.308 419.936 744.577 384.356 776.104C315.182 837.4 179.923 813.914 36.7195 789.052C-122.328 761.439 -286.79 732.885 -384.907 812.766C-439.841 857.49 -468.228 931.328 -471.689 1038.5Z" fill="#CA4A7E"/>
<path d="M-495.693 1042.42L-496.691 1042.37C-491.579 937.2 -462.095 864.042 -406.557 818.72C-361.429 781.892 -298.303 763.634 -213.574 762.909C-138.658 762.27 -56.2322 775.004 23.4849 787.321C168.782 809.77 306.023 830.977 376.333 768.389C411.77 736.845 427.695 686.589 425.022 614.754C421.794 528.004 438.365 472.56 475.679 445.254C535.973 401.134 640.535 438.661 741.659 474.953C838.027 509.538 929.051 542.206 976.644 503.884C1007.2 479.282 1016.85 427.372 1006.14 345.186C995.018 259.874 1005.84 203.993 1039.21 174.352C1092 127.477 1191.93 152.778 1297.73 179.565C1402.56 206.108 1510.96 233.552 1573.54 187.24C1606.68 162.718 1624.28 120.074 1627.34 56.8718L1628.34 56.9197C1625.26 120.441 1607.53 163.333 1574.14 188.044C1511.18 234.638 1402.54 207.133 1297.48 180.534C1191.94 153.814 1092.26 128.574 1039.88 175.098C1006.77 204.504 996.055 260.098 1007.13 345.057C1017.89 427.616 1008.12 479.825 977.273 504.664C929.239 543.336 837.963 510.577 741.321 475.894C640.447 439.692 536.137 402.253 476.271 446.061C439.243 473.156 422.806 528.324 426.021 614.718C428.707 686.869 412.671 737.38 376.997 769.135C306.337 832.034 168.87 810.797 23.3328 788.309C-138.313 763.333 -305.461 737.508 -405.925 819.494C-461.231 864.629 -490.595 937.547 -495.693 1042.42Z" fill="#96251F"/>
<path d="M-520.073 1046.66L-521.07 1046.59C-514.349 943.671 -483.904 871.422 -427.997 825.722C-381.792 787.951 -317.408 768.528 -231.166 766.344C-154.916 764.428 -71.1259 775.793 9.90735 786.797C157.631 806.86 297.163 825.808 369.012 761.603C404.548 729.848 421.047 680.337 419.452 610.244C417.522 525.219 434.896 470.408 472.571 442.681C534.218 397.309 640.062 432.925 742.419 467.368C840.031 500.212 932.23 531.237 980.855 491.748C1011.63 466.759 1021.95 415.543 1012.43 335.172C1002.56 251.899 1014.05 196.84 1047.55 166.853C1101.47 118.587 1202.96 142.188 1310.41 167.176C1416.69 191.893 1526.6 217.451 1590.61 169.931C1624.05 145.115 1642.26 102.931 1646.32 40.968L1647.3 41.0334C1643.24 103.307 1624.89 145.732 1591.21 170.733C1526.82 218.529 1416.69 192.917 1310.18 168.149C1202.99 143.223 1101.75 119.68 1048.22 167.599C1014.97 197.352 1003.59 252.129 1013.42 335.055C1022.99 415.793 1012.54 467.301 981.486 492.524C965.026 505.891 943.667 511.269 918.867 511.272C869.763 511.275 807.136 490.199 742.1 468.315C639.984 433.955 534.391 398.424 473.163 443.487C435.771 471.007 418.528 525.545 420.452 610.221C422.054 680.625 405.446 730.387 369.679 762.348C332.18 795.856 276.436 806.841 210.802 806.844C150.072 806.845 80.8798 797.445 9.77246 787.789C-71.2224 776.791 -154.981 765.421 -231.14 767.344C-317.152 769.521 -381.337 788.871 -427.364 826.496C-483.045 872.014 -513.369 944.027 -520.073 1046.66Z" fill="#93611D"/>
<path d="M-544.837 1051.21L-545.834 1051.13C-537.534 950.395 -506.143 879.041 -449.865 832.988C-402.551 794.269 -336.869 773.674 -249.066 770.019C-171.439 766.788 -86.241 776.8 -3.84772 786.481C146.387 804.136 288.29 820.81 361.73 754.975C397.359 723.035 414.418 674.263 413.881 605.873C413.226 522.536 431.394 468.348 469.423 440.209C532.462 393.567 639.645 427.268 743.299 459.857C842.221 490.96 935.656 520.333 985.341 479.657C1016.32 454.296 1027.32 403.767 1018.96 325.182C1010.32 243.915 1022.46 189.676 1056.07 159.364C1111.16 109.687 1214.28 131.576 1323.44 154.754C1431.25 177.639 1542.72 201.305 1608.21 152.567C1641.94 127.467 1660.77 85.7362 1665.78 24.9868L1666.78 25.0682C1661.74 86.1202 1642.78 128.088 1608.81 153.369C1580.45 174.475 1543.57 182.093 1502.16 182.095C1447.41 182.096 1384.73 168.788 1323.23 155.732C1214.32 132.609 1111.45 110.772 1056.74 160.107C1023.38 190.188 1011.35 244.151 1019.96 325.076C1028.35 404.021 1017.23 454.839 985.973 480.431C968.379 494.835 945.405 500.549 918.713 500.551C869.39 500.552 807.357 481.047 742.999 460.811C639.583 428.296 532.647 394.673 470.018 441.013C432.265 468.948 414.229 522.872 414.881 605.865C415.421 674.56 398.253 723.576 362.397 755.719C288.621 821.856 146.501 805.155 -3.9649 787.475C-86.3187 777.798 -171.477 767.799 -249.025 771.019C-336.603 774.663 -402.091 795.186 -449.231 833.762C-505.289 879.633 -536.561 950.762 -544.837 1051.21Z" fill="#DA6E59"/>
<path d="M-570.003 1056.08L-570.998 1055.98C-563.41 980.015 -541.55 919.039 -506.027 874.75C-474.139 834.994 -431.499 807.695 -375.666 791.298C-272.541 761.009 -143.023 773.91 -17.774 786.386C135.053 801.609 279.402 815.987 354.477 748.524C390.199 716.423 407.805 668.38 408.299 601.651C408.906 519.969 427.861 466.388 466.245 437.851C530.719 389.915 639.303 421.697 744.312 452.434C844.597 481.787 939.316 509.511 990.094 467.623C1021.27 441.903 1032.92 392.052 1025.72 315.226C1018.28 235.924 1031.06 182.492 1064.78 151.878C1121.08 100.768 1225.89 120.932 1336.84 142.282C1446.21 163.326 1559.3 185.084 1626.33 135.123C1660.36 109.751 1679.8 68.4631 1685.74 8.89648L1686.74 8.99512C1680.77 68.8565 1661.2 110.375 1626.93 135.924C1559.54 186.151 1446.24 164.349 1336.65 143.264C1225.95 121.964 1121.39 101.844 1065.46 152.619C1031.98 183.007 1019.31 236.166 1026.71 315.131C1033.95 392.315 1022.18 442.447 990.73 468.394C939.549 510.619 844.578 482.823 744.031 453.394C639.257 422.726 530.917 391.014 466.841 438.654C428.725 466.992 409.903 520.311 409.299 601.659C408.803 668.686 391.089 716.969 355.145 749.269C311.622 788.379 245.034 800.118 167.094 800.121C110.005 800.122 46.8358 793.827 -17.8732 787.381C-143.029 774.912 -272.446 762.022 -375.385 792.257C-492.031 826.518 -555.691 912.814 -570.003 1056.08Z" fill="#A6128D"/>
<path d="M-595.583 1061.28L-596.576 1061.16C-587.726 986.03 -564.643 925.485 -527.971 881.206C-495.055 841.462 -451.432 813.858 -394.609 796.813C-289.651 765.326 -158.61 776.089 -31.8796 786.496C123.621 799.265 270.497 811.325 347.255 742.233C383.072 709.993 401.213 662.668 402.714 597.554C404.562 517.492 424.29 464.513 463.028 435.589C528.979 386.344 639.026 416.209 745.452 445.09C847.165 472.694 943.236 498.768 995.14 455.645C1026.51 429.582 1038.81 380.406 1032.73 305.305C1026.47 227.922 1039.88 175.288 1073.7 144.393C1131.25 91.8343 1237.81 110.26 1350.62 129.766C1461.61 148.96 1576.37 168.805 1644.97 117.612C1679.3 91.9823 1699.34 51.1263 1706.22 -7.29102L1707.22 -7.17371C1700.3 51.5316 1680.13 92.6116 1645.56 118.414C1576.62 169.864 1461.65 149.982 1350.45 130.753C1237.88 111.286 1131.57 92.9036 1074.38 145.13C1040.79 175.804 1027.5 228.17 1033.73 305.224C1039.83 380.673 1027.42 430.129 995.778 456.414C943.478 499.866 847.162 473.729 745.19 446.056C638.996 417.237 529.186 387.437 463.625 436.39C425.152 465.118 405.554 517.842 403.714 597.577C402.205 662.981 383.956 710.541 347.924 742.976C270.848 812.357 123.76 800.279 -31.9619 787.492C-158.599 777.091 -289.547 766.338 -394.323 797.771C-513.057 833.389 -578.891 919.582 -595.583 1061.28Z" fill="#CC8A19"/>
<path d="M-621.587 1066.8L-622.578 1066.67C-612.462 992.343 -588.147 932.202 -550.311 887.919C-516.353 848.175 -471.731 820.251 -413.898 802.554C-307.066 769.86 -174.445 778.486 -46.1891 786.826C112.067 797.118 261.551 806.838 340.042 736.118C375.954 703.76 394.62 657.143 397.108 593.602C400.179 515.123 420.675 462.732 459.766 433.435C527.247 382.86 638.821 410.799 746.719 437.816C849.922 463.658 947.402 488.067 1000.46 443.694C1032.02 417.303 1044.95 368.79 1039.98 295.379C1034.88 219.886 1048.89 168.044 1082.81 136.895C1141.64 82.8697 1250.02 99.5457 1364.76 117.199C1477.42 134.534 1593.93 152.458 1664.14 100.028C1698.8 74.1523 1719.42 33.7205 1727.22 -23.5769L1728.21 -23.4423C1720.38 34.135 1699.61 74.7857 1664.74 100.83C1594.2 153.512 1477.48 135.555 1364.61 118.188C1250.11 100.571 1141.96 83.931 1083.48 137.631C1049.8 168.563 1035.9 220.14 1040.98 295.311C1045.97 369.064 1032.92 417.852 1001.11 444.462C979.6 462.446 950.914 469.234 917.585 469.235C868.078 469.239 808.308 454.268 746.476 438.786C638.803 411.824 527.466 383.947 460.365 434.236C421.531 463.34 401.166 515.482 398.107 593.64C395.608 657.466 376.834 704.314 340.711 736.86C261.907 807.865 112.221 798.13 -46.2542 787.823C-174.417 779.49 -306.947 770.871 -413.606 803.51C-534.475 840.498 -602.507 926.623 -621.587 1066.8Z" fill="#8F1B1E"/>
<path d="M-648.012 1072.66L-649 1072.51C-637.615 998.953 -612.06 939.193 -573.045 894.888C-538.032 855.125 -492.393 826.872 -433.525 808.513C-324.775 774.597 -190.519 781.088 -60.6841 787.365C54.9133 792.954 164.101 798.232 246.987 774.773C340.021 748.441 385.94 689.66 391.495 589.783C395.771 512.849 417.024 461.036 456.468 431.38C525.52 379.463 638.677 405.465 748.111 430.612C852.868 454.685 951.817 477.423 1006.07 431.779C1037.81 405.077 1051.36 357.219 1047.48 285.467C1043.51 211.821 1058.11 160.765 1092.13 129.385C1152.28 73.8854 1262.54 88.7866 1379.29 104.567C1546.44 127.156 1719.26 150.519 1748.76 -40L1749.74 -39.8467C1720.1 151.641 1546.77 128.211 1379.16 105.557C1262.65 89.8107 1152.61 74.9387 1092.81 130.12C1059.02 161.287 1044.53 212.083 1048.48 285.413C1052.37 357.5 1038.71 405.628 1006.72 432.545C983.703 451.905 952.773 459.067 916.848 459.069C867.479 459.072 808.665 445.553 747.887 431.587C638.677 406.491 525.748 380.541 457.068 432.179C417.875 461.647 396.752 513.217 392.493 589.837C389.547 642.811 375.243 683.809 348.765 715.177C325.011 743.317 291.808 763.127 247.26 775.736C164.216 799.239 54.9492 793.954 -60.7326 788.364C-190.481 782.092 -324.647 775.606 -433.227 809.466C-556.281 847.844 -626.539 933.935 -648.012 1072.66Z" fill="#D32E23"/>
</g>
</svg>
