<svg width="24" height="24" viewBox="0 0 24 24" fill="none" xmlns="http://www.w3.org/2000/svg">
<g clip-path="url(#clip0_250_2975)">
<path d="M17.6757 15.7427C17.4643 15.5302 17.2132 15.3616 16.9367 15.2466C16.6601 15.1316 16.3637 15.0724 16.0642 15.0724C15.7648 15.0724 15.4684 15.1316 15.1918 15.2466C14.9153 15.3616 14.6642 15.5302 14.4528 15.7427L13.3532 16.8443C12.1152 16.0571 10.9682 15.1348 9.9332 14.0941C8.89667 13.0553 7.97619 11.9064 7.18806 10.6678L8.28763 9.56623C8.49972 9.35449 8.668 9.10288 8.78282 8.82585C8.89764 8.54882 8.95675 8.2518 8.95675 7.95183C8.95675 7.65186 8.89764 7.35485 8.78282 7.07781C8.668 6.80078 8.49972 6.54918 8.28763 6.33744L6.14157 4.19504C5.9332 3.98186 5.68418 3.81282 5.40931 3.69797C5.13444 3.58312 4.83932 3.52481 4.54151 3.52649C4.24158 3.52575 3.94446 3.58444 3.66726 3.69918C3.39005 3.81391 3.13823 3.98243 2.92628 4.19504L1.89496 5.22065C1.40339 5.75015 1.03651 6.38328 0.821292 7.0735C0.606075 7.76372 0.547989 8.49349 0.651303 9.20916C0.893966 12.0581 2.75945 15.4844 5.6335 18.3713C8.50755 21.2582 11.9655 23.1195 14.8092 23.393C15.0214 23.4044 15.234 23.4044 15.4462 23.393C16.0584 23.4188 16.6695 23.3218 17.2437 23.1079C17.818 22.894 18.3438 22.5673 18.7904 22.1471L19.8142 21.1139C20.0264 20.9016 20.1946 20.6493 20.3091 20.3716C20.4236 20.0938 20.4822 19.7962 20.4815 19.4957C20.4832 19.1973 20.425 18.9017 20.3103 18.6263C20.1957 18.3509 20.027 18.1015 19.8142 17.8927L17.6757 15.7427ZM18.7449 20.0427L17.7136 21.0683C17.3323 21.3867 16.8871 21.6193 16.4083 21.7504C15.9294 21.8814 15.4281 21.9079 14.9381 21.828C12.4736 21.6153 9.33412 19.868 6.74065 17.2697C4.14718 14.6715 2.40303 11.5491 2.16795 9.08001C2.08617 8.58917 2.11162 8.0864 2.24254 7.60636C2.37346 7.12632 2.60673 6.68044 2.92628 6.29945L3.99551 5.26624C4.06637 5.19583 4.15041 5.14012 4.2428 5.10231C4.33519 5.06451 4.43412 5.04534 4.53392 5.04592C4.63373 5.04534 4.73266 5.06451 4.82505 5.10231C4.91744 5.14012 5.00148 5.19583 5.07233 5.26624L7.21839 7.43902C7.35963 7.58137 7.43891 7.77392 7.43891 7.97462C7.43891 8.17533 7.35963 8.36788 7.21839 8.51022L5.70174 10.0297C5.58306 10.148 5.5068 10.3023 5.48486 10.4686C5.46291 10.6349 5.49651 10.8038 5.58041 10.9489C6.48842 12.4975 7.59205 13.9224 8.86396 15.1881C10.1274 16.4624 11.5496 17.568 13.0954 18.4777C13.2403 18.5617 13.4089 18.5954 13.5749 18.5734C13.7408 18.5514 13.8949 18.475 14.013 18.3561L15.5296 16.8367C15.6717 16.6952 15.8639 16.6158 16.0642 16.6158C16.2646 16.6158 16.4568 16.6952 16.5989 16.8367L18.7449 18.9867C18.8152 19.0577 18.8708 19.1419 18.9086 19.2344C18.9463 19.327 18.9654 19.4261 18.9648 19.5261C18.9601 19.7201 18.8814 19.905 18.7449 20.0427ZM20.0644 3.93674C19.0105 2.87691 17.7577 2.03657 16.3781 1.46415C14.9985 0.89174 13.5194 0.598583 12.0262 0.601585C11.8251 0.601585 11.6322 0.681626 11.49 0.824101C11.3477 0.966575 11.2678 1.15981 11.2678 1.3613C11.2678 1.56279 11.3477 1.75603 11.49 1.8985C11.6322 2.04097 11.8251 2.12102 12.0262 2.12102C13.3278 2.12097 14.6166 2.37917 15.8181 2.88072C17.0196 3.38227 18.1101 4.11723 19.0266 5.0432C19.9432 5.96917 20.6676 7.06781 21.1581 8.27572C21.6485 9.48363 21.8954 10.7769 21.8844 12.0809C21.8844 12.2824 21.9643 12.4756 22.1065 12.6181C22.2487 12.7606 22.4416 12.8406 22.6427 12.8406C22.8438 12.8406 23.0367 12.7606 23.1789 12.6181C23.3211 12.4756 23.401 12.2824 23.401 12.0809C23.4156 10.569 23.1278 9.0695 22.5548 7.67078C21.9817 6.27207 21.135 5.00244 20.0644 3.93674Z" fill="#be0b0b"/>
<path d="M15.8351 8.14723C16.2512 8.55635 16.5804 9.04366 16.8033 9.5805C17.0262 10.1173 17.1383 10.6928 17.133 11.2732C17.133 11.4655 17.2102 11.65 17.3477 11.786C17.4853 11.922 17.6718 11.9984 17.8663 11.9984C18.0607 11.9984 18.2473 11.922 18.3848 11.786C18.5223 11.65 18.5995 11.4655 18.5995 11.2732C18.6092 10.5051 18.4647 9.74283 18.1742 9.03048C17.8838 8.31813 17.4532 7.66991 16.9075 7.12342C16.3618 6.57693 15.7118 6.14305 14.9953 5.84694C14.2787 5.55082 13.5099 5.39838 12.7333 5.39844C12.5388 5.39844 12.3523 5.47485 12.2148 5.61087C12.0773 5.74688 12 5.93136 12 6.12371C12 6.31607 12.0773 6.50054 12.2148 6.63656C12.3523 6.77257 12.5388 6.84899 12.7333 6.84899C13.3112 6.85329 13.8825 6.97016 14.4147 7.19292C14.947 7.41567 15.4296 7.73995 15.8351 8.14723Z" fill="#be0b0b"/>
</g>
<defs>
<clipPath id="clip0_250_2975">
<rect width="24" height="24" fill="white"/>
</clipPath>
</defs>
</svg>
