<svg width="32" height="32" viewBox="0 0 32 32" fill="none" xmlns="http://www.w3.org/2000/svg">
<path d="M5.33333 23.9993L12 15.9993M26.6667 23.9993L20 15.9993M4 10.666L13.6333 17.0881C14.4887 17.6584 14.9163 17.9436 15.3785 18.0543C15.7871 18.1523 16.2129 18.1523 16.6215 18.0543C17.0837 17.9436 17.5113 17.6584 18.3667 17.0881L28 10.666M8.26667 25.3327H23.7333C25.2268 25.3327 25.9736 25.3327 26.544 25.042C27.0457 24.7864 27.4537 24.3784 27.7093 23.8767C28 23.3063 28 22.5595 28 21.066V10.9327C28 9.43922 28 8.69247 27.7093 8.12204C27.4537 7.62027 27.0457 7.21232 26.544 6.95667C25.9736 6.66602 25.2268 6.66602 23.7333 6.66602H8.26667C6.7732 6.66602 6.02645 6.66602 5.45603 6.95667C4.95425 7.21232 4.54631 7.62027 4.29065 8.12204C4 8.69247 4 9.4392 4 10.9327V21.066C4 22.5595 4 23.3063 4.29065 23.8767C4.54631 24.3784 4.95425 24.7864 5.45603 25.042C6.02645 25.3327 6.77319 25.3327 8.26667 25.3327Z" stroke="#01020E" stroke-width="2" stroke-linecap="round" stroke-linejoin="round"/>
</svg>
