<svg width="26" height="26" viewBox="0 0 26 26" fill="none" xmlns="http://www.w3.org/2000/svg">
<path d="M7.78601 1.56073V4.98646L6.6055 3.80376C6.40184 3.59985 6.0758 3.59985 5.87254 3.80376L4.69162 4.98646V1.56073H7.78601ZM14.5045 1.56073V4.98646L13.3235 3.80376C13.1199 3.59985 12.7943 3.59985 12.5906 3.80376L11.4097 4.98646V1.56073H14.5045ZM21.2632 1.56073V4.98646L20.0823 3.76298C19.8786 3.55907 19.553 3.55907 19.3493 3.76298L18.1684 4.94567V1.51995H21.2632V1.56073ZM1.02691 1.56073H3.63307V6.25071C3.63307 6.45462 3.75543 6.65854 3.95909 6.7401C4.16235 6.82167 4.366 6.78088 4.52901 6.61775L6.23923 4.90489L7.94903 6.61775C8.03033 6.69932 8.19334 6.78088 8.3157 6.78088C8.60067 6.78088 8.84458 6.53619 8.84458 6.25071V1.56073H10.3918V6.25071C10.3918 6.45462 10.5141 6.65854 10.7178 6.7401C10.9211 6.82167 11.1247 6.78088 11.2877 6.61775L12.9979 4.90489L14.7081 6.61775C14.7894 6.69932 14.952 6.78088 15.0744 6.78088C15.3594 6.78088 15.6033 6.53619 15.6033 6.25071V1.56073H17.1509V6.25071C17.1509 6.45462 17.2732 6.65854 17.4765 6.7401C17.6798 6.82167 17.8834 6.78088 18.0468 6.61775L19.7566 4.90489L21.4669 6.61775C21.5482 6.69932 21.7108 6.78088 21.8331 6.78088C22.1181 6.78088 22.3624 6.53619 22.3624 6.25071V1.56073H24.9686C25.2535 1.56073 25.4974 1.31604 25.4974 1.03056C25.4974 0.745081 25.2535 0.500386 24.9686 0.500386C19.716 0.500386 5.66889 0.500386 1.10902 0.500386C0.823648 0.500386 0.579327 0.745081 0.579327 1.03056C0.498023 1.31604 0.74194 1.56073 1.02691 1.56073Z" fill="#be0b0b"/>
<path d="M21.2652 14.3256L20.0842 13.1429C19.8806 12.939 19.555 12.939 19.3513 13.1429L18.1704 14.3256V10.8998H21.2652V14.3256ZM14.5065 14.3256L13.3255 13.1429C13.1219 12.939 12.7962 12.939 12.5926 13.1429L11.4117 14.3256V10.8998H14.5065V14.3256ZM7.78799 14.3256L6.60748 13.1429C6.40382 12.939 6.07778 12.939 5.87452 13.1429L4.6936 14.3256V10.8998H7.78799V14.3256ZM24.8888 9.88027C21.4688 9.88027 4.4497 9.88027 1.02889 9.88027C0.743918 9.88027 0.5 10.125 0.5 10.4104C0.5 10.6959 0.743918 10.9406 1.02889 10.9406H3.63505V15.6306C3.63505 15.8345 3.75741 16.0384 3.96107 16.12C4.16433 16.2015 4.36798 16.1608 4.53099 15.9976L6.24121 14.2848L7.95101 15.9976C8.03231 16.0792 8.19532 16.1608 8.31768 16.1608C8.60264 16.1608 8.84656 15.9161 8.84656 15.6306V10.8998H10.3938V15.5898C10.3938 15.7937 10.5161 15.9976 10.7198 16.0792C10.923 16.1608 11.1267 16.12 11.2897 15.9569L12.9999 14.244L14.7101 15.9569C14.8727 16.12 15.0764 16.1608 15.2801 16.0792C15.4837 15.9976 15.6053 15.7937 15.6053 15.5898V10.8998H17.1529V15.5898C17.1529 15.7937 17.2752 15.9976 17.4785 16.0792C17.6817 16.1608 17.8854 16.12 18.0488 15.9569L19.7586 14.244L21.4688 15.9569C21.6314 16.12 21.8351 16.1608 22.0388 16.0792C22.2424 15.9976 22.3644 15.7937 22.3644 15.5898V10.8998H24.9706C25.2555 10.8998 25.4994 10.6551 25.4994 10.3697C25.4181 10.0842 25.1738 9.88027 24.8888 9.88027Z" fill="#be0b0b"/>
<path d="M21.2652 23.6647L20.0842 22.482C19.8806 22.2781 19.555 22.2781 19.3513 22.482L18.1704 23.6647V20.239H21.2652V23.6647ZM14.5065 23.6647L13.3255 22.482C13.1219 22.2781 12.7962 22.2781 12.5926 22.482L11.4117 23.6647V20.239H14.5065V23.6647ZM7.78799 23.6647L6.60748 22.482C6.40382 22.2781 6.07778 22.2781 5.87452 22.482L4.6936 23.6647V20.239H7.78799V23.6647ZM24.8888 19.2194C19.6367 19.2194 5.58957 19.2194 1.02889 19.2194C0.743918 19.2194 0.5 19.4641 0.5 19.7496C0.5 20.0351 0.743918 20.2798 1.02889 20.2798H3.63505V24.9698C3.63505 25.1737 3.75741 25.3776 3.96107 25.4592C4.16433 25.5407 4.36798 25.4999 4.53099 25.3368L6.24121 23.6239L7.95101 25.3368C8.03231 25.4184 8.19532 25.4999 8.31768 25.4999C8.60264 25.4999 8.84656 25.2552 8.84656 24.9698V20.239H10.3938V24.929C10.3938 25.1329 10.5161 25.3368 10.7198 25.4184C10.923 25.4999 11.1267 25.4592 11.2897 25.296L12.9999 23.5832L14.7101 25.296C14.7914 25.3776 14.954 25.4592 15.0764 25.4592C15.3614 25.4592 15.6053 25.2145 15.6053 24.929V20.239H17.1529V24.929C17.1529 25.1329 17.2752 25.3368 17.4785 25.4184C17.6817 25.4999 17.8854 25.4592 18.0488 25.296L19.7586 23.5832L21.4688 25.296C21.6314 25.4592 21.8351 25.4999 22.0388 25.4184C22.2424 25.3368 22.3644 25.1329 22.3644 24.929V20.239H24.9706C25.2555 20.239 25.4994 19.9943 25.4994 19.7088C25.4181 19.4641 25.1738 19.2194 24.8888 19.2194Z" fill="#be0b0b"/>
<path d="M5.18262 7.79947H6.20053V8.81903H5.18262V7.79947Z" fill="#be0b0b"/>
<path d="M8.27502 7.79947H9.29333V8.81903H8.27502V7.79947Z" fill="#be0b0b"/>
<path d="M11.4115 7.79947H12.4298V8.81903H11.4115V7.79947Z" fill="#be0b0b"/>
<path d="M14.5104 7.79947H15.5279V8.81903H14.5104V7.79947Z" fill="#be0b0b"/>
<path d="M17.6387 7.79947H18.6562V8.81903H17.6387V7.79947Z" fill="#be0b0b"/>
<path d="M20.7377 7.79947H21.756V8.81903H20.7377V7.79947Z" fill="#be0b0b"/>
<path d="M5.18262 17.1399H6.20053V18.1594H5.18262V17.1399Z" fill="#be0b0b"/>
<path d="M8.27502 17.1399H9.29333V18.1594H8.27502V17.1399Z" fill="#be0b0b"/>
<path d="M11.4115 17.1399H12.4298V18.1594H11.4115V17.1399Z" fill="#be0b0b"/>
<path d="M14.5104 17.1399H15.5279V18.1594H14.5104V17.1399Z" fill="#be0b0b"/>
<path d="M17.6387 17.1399H18.6562V18.1594H17.6387V17.1399Z" fill="#be0b0b"/>
<path d="M20.7377 17.1399H21.756V18.1594H20.7377V17.1399Z" fill="#be0b0b"/>
</svg>
