<svg width="40" height="40" viewBox="0 0 40 40" fill="none" xmlns="http://www.w3.org/2000/svg">
<path fill-rule="evenodd" clip-rule="evenodd" d="M19.9987 2.08398C20.3302 2.08398 20.6482 2.21568 20.8826 2.4501C21.117 2.68452 21.2487 3.00246 21.2487 3.33398V21.6223L24.0487 18.354C24.1555 18.2292 24.2858 18.1267 24.4323 18.0523C24.5787 17.978 24.7383 17.9331 24.9021 17.9205C25.0658 17.9078 25.2304 17.9274 25.3866 17.9784C25.5427 18.0293 25.6873 18.1105 25.812 18.2173C25.9368 18.3241 26.0393 18.4545 26.1137 18.6009C26.1881 18.7473 26.2329 18.9069 26.2456 19.0707C26.2583 19.2344 26.2386 19.3991 26.1876 19.5552C26.1367 19.7113 26.0555 19.8559 25.9487 19.9806L20.9487 25.814C20.8313 25.9512 20.6857 26.0614 20.5217 26.1369C20.3577 26.2125 20.1793 26.2516 19.9987 26.2516C19.8181 26.2516 19.6397 26.2125 19.4757 26.1369C19.3117 26.0614 19.166 25.9512 19.0487 25.814L14.0487 19.9806C13.9419 19.8559 13.8607 19.7113 13.8098 19.5552C13.7588 19.3991 13.7391 19.2344 13.7518 19.0707C13.7645 18.9069 13.8093 18.7473 13.8837 18.6009C13.9581 18.4545 14.0606 18.3241 14.1854 18.2173C14.3101 18.1105 14.4547 18.0293 14.6108 17.9784C14.767 17.9274 14.9316 17.9078 15.0953 17.9205C15.2591 17.9331 15.4187 17.978 15.5651 18.0523C15.7116 18.1267 15.8419 18.2292 15.9487 18.354L18.7487 21.6207V3.33398C18.7487 3.00246 18.8804 2.68452 19.1148 2.4501C19.3492 2.21568 19.6672 2.08398 19.9987 2.08398ZM11.6587 13.754C11.9902 13.7522 12.3089 13.8822 12.5445 14.1154C12.7802 14.3486 12.9136 14.6658 12.9154 14.9973C12.9171 15.3288 12.7871 15.6475 12.554 15.8832C12.3208 16.1188 12.0036 16.2522 11.672 16.254C9.85036 16.264 8.5587 16.3107 7.57703 16.4907C6.6337 16.6657 6.08536 16.944 5.68036 17.349C5.2187 17.8107 4.9187 18.459 4.7537 19.6823C4.58536 20.9407 4.58203 22.609 4.58203 25.0007V26.6673C4.58203 29.0606 4.58536 30.729 4.7537 31.9873C4.9187 33.2106 5.22036 33.8573 5.68036 34.3206C6.14203 34.7806 6.7887 35.0807 8.0137 35.2456C9.27036 35.4156 10.9404 35.4173 13.332 35.4173H26.6654C29.057 35.4173 30.7254 35.4156 31.9854 35.2456C33.2087 35.0807 33.8554 34.7807 34.317 34.319C34.7787 33.8573 35.0787 33.2106 35.2437 31.9873C35.412 30.729 35.4154 29.0606 35.4154 26.6673V25.0007C35.4154 22.609 35.412 20.9406 35.2437 19.6807C35.0787 18.459 34.777 17.8107 34.317 17.349C33.9104 16.944 33.3637 16.6657 32.4204 16.4907C31.4387 16.3107 30.147 16.264 28.3254 16.254C28.1612 16.2531 27.9988 16.2199 27.8475 16.1563C27.6962 16.0927 27.5589 15.9998 27.4434 15.8832C27.328 15.7665 27.2366 15.6282 27.1746 15.4762C27.1126 15.3242 27.0812 15.1615 27.082 14.9973C27.0829 14.8332 27.1161 14.6708 27.1797 14.5195C27.2434 14.3681 27.3362 14.2308 27.4529 14.1154C27.5696 13.9999 27.7078 13.9086 27.8598 13.8466C28.0118 13.7846 28.1745 13.7531 28.3387 13.754C30.142 13.764 31.6437 13.8073 32.872 14.0323C34.1354 14.2656 35.2104 14.7073 36.0854 15.5823C37.0887 16.584 37.5187 17.849 37.722 19.349C37.9154 20.7923 37.9154 22.6306 37.9154 24.909V26.759C37.9154 29.039 37.9154 30.8757 37.722 32.3207C37.5187 33.8207 37.0887 35.084 36.0854 36.0873C35.082 37.0907 33.8187 37.5207 32.3187 37.724C30.8737 37.9173 29.0354 37.9173 26.757 37.9173H13.2404C10.962 37.9173 9.1237 37.9173 7.6787 37.724C6.1787 37.5223 4.91536 37.0907 3.91203 36.0873C2.9087 35.084 2.4787 33.8207 2.27703 32.3207C2.08203 30.8757 2.08203 29.0373 2.08203 26.759V24.909C2.08203 22.6306 2.08203 20.7923 2.27703 19.3473C2.47703 17.8473 2.91036 16.584 3.91203 15.5807C4.78703 14.7073 5.86203 14.264 7.12536 14.0323C8.3537 13.8073 9.85536 13.764 11.6587 13.754Z" fill="white"/>
</svg>
