<svg width="32" height="32" viewBox="0 0 32 32" fill="none" xmlns="http://www.w3.org/2000/svg">
<path d="M4.8 24V16H12.8V24H4.8ZM6.4 17.6V22.4H11.2V17.6H6.4ZM16 7.2H24V10.4H16V7.2ZM3.2 28.8C2.35131 28.8 1.53737 28.4629 0.937258 27.8627C0.337142 27.2626 0 26.4487 0 25.6V3.2C0 2.35131 0.337142 1.53737 0.937258 0.937258C1.53737 0.337142 2.35131 0 3.2 0H25.6C26.4487 0 27.2626 0.337142 27.8627 0.937258C28.4629 1.53737 28.8 2.35131 28.8 3.2V13.072C28 12.896 27.2 12.8 26.4 12.8H25.6V3.2H3.2V25.6H16.272C16.544 26.752 17.008 27.824 17.6 28.8H3.2ZM12.8 4.8V12.8H4.8V4.8H12.8ZM11.2 11.2V6.4H6.4V11.2H11.2ZM25.6 14.4V16.8C27.2974 16.8 28.9252 17.4743 30.1255 18.6745C31.3257 19.8748 32 21.5026 32 23.2C32 24.512 31.6 25.728 30.928 26.736L29.184 24.992C29.456 24.448 29.6 23.84 29.6 23.2C29.6 22.1391 29.1786 21.1217 28.4284 20.3716C27.6783 19.6214 26.6609 19.2 25.6 19.2V21.6L22 18L25.6 14.4ZM25.6 32V29.6C23.9026 29.6 22.2748 28.9257 21.0745 27.7255C19.8743 26.5252 19.2 24.8974 19.2 23.2C19.2 21.888 19.6 20.672 20.272 19.664L22.016 21.408C21.744 21.952 21.6 22.56 21.6 23.2C21.6 24.2609 22.0214 25.2783 22.7716 26.0284C23.5217 26.7786 24.5391 27.2 25.6 27.2V24.8L29.2 28.4L25.6 32Z" fill="#130A06"/>
</svg>
