<svg width="840" height="458" viewBox="0 0 840 458" fill="none" xmlns="http://www.w3.org/2000/svg">
<g opacity="0.2">
<path d="M69.3785 460.973C86.0354 448.881 94.8459 434.452 88.3299 413.253C66.2074 341.719 -7.8459 282.685 7.24712 203.86C15.0517 163.39 49.0066 127.572 97.3842 99.902C326.224 -30.5884 541.663 21.3964 606.64 58.0542C673.235 95.6047 637.533 170.515 602.472 219.195C559.304 279.186 504.61 339.123 498.31 404.696C491.671 473.934 458.631 631.811 414.513 700.727C383.386 749.349 306.14 817.546 228.33 826.44C150.52 835.333 74.0694 787.154 15.2246 757.73C-43.6201 728.307 -289.744 872.039 -317.405 826.315C-354.599 764.831 -272.063 687.213 -212.872 637.44C-152.849 586.985 -83.3127 541.516 -7.75947 500.943C20.2425 485.987 50.0664 475.034 69.3785 460.973Z" stroke="white" stroke-opacity="0.1" stroke-width="3"/>
<path d="M616.564 46.7303C687.531 86.7201 649.367 166.614 612.093 218.486C566.192 282.414 507.706 346.311 501.145 416.225C494.117 490.013 474.057 642.096 426.973 715.564C393.795 767.458 311.794 833.847 228.747 843.339C154.528 851.822 81.7665 809.393 24.0346 783.075C-35.4537 755.978 -258.429 879.43 -289.726 836.376C-332.922 776.754 -269.595 700.841 -222.656 648.648C-175.589 596.245 -115.889 548.275 -47.6165 505.008C-22.3131 488.988 5.07842 476.649 23.6814 461.689C39.6625 448.988 48.8998 434.315 45.4759 413.643C40.2487 382.5 28.5923 353.463 18.7758 324.607C10.3544 300.001 3.45156 275.416 3.95301 249.3C4.17313 236.637 6.76525 223.507 11.6852 209.524C25.2303 171.532 60.9749 136.783 111.06 108.134C185.494 65.7303 258.521 38.8677 326.568 24.1343C454.072 -3.56691 566.331 18.3798 616.564 46.7303Z" stroke="white" stroke-opacity="0.1" stroke-width="3"/>
<path d="M626.639 35.3894C701.978 77.8185 661.502 162.679 621.866 217.76C573.082 285.642 511.103 353.466 503.981 427.754C496.563 506.093 489.496 652.478 439.595 730.481C404.354 785.549 317.46 850.244 229.475 860.301C158.698 868.391 89.6143 831.615 33.1561 808.482C-27.1255 783.729 -227.09 887.016 -261.586 846.482C-310.934 788.738 -266.504 714.594 -231.967 659.998C-197.547 605.709 -148.142 555.194 -87.151 509.232C-64.6847 492.263 -39.7256 478.536 -21.693 462.564C-6.39896 449.158 3.4037 434.126 3.08305 414.08C2.58294 383.179 -1.32053 354.334 -3.05171 325.926C-4.58476 301.903 -4.70477 278.307 1.22179 253.236C4.10727 241.346 9.3427 228.796 16.5956 215.329C35.4434 179.965 73.5651 146.12 125.058 116.526C197.325 75.0555 268.458 44.8826 336.562 25.3424C454.846 -8.75042 569.441 3.13262 626.639 35.3894Z" stroke="white" stroke-opacity="0.1" stroke-width="3"/>
<path d="M636.711 24.0512C716.432 69.0162 673.632 158.747 631.795 217.116C580.129 288.953 514.519 360.816 507.123 439.348C499.167 522.255 505.23 662.829 452.512 745.366C415.208 803.609 323.571 866.593 230.349 877.249C163.164 884.928 97.4696 853.936 42.2739 833.892C-18.7898 811.58 -195.766 894.507 -233.599 856.608C-289.249 800.76 -263.556 728.464 -241.443 671.271C-219.818 615.114 -180.56 562.035 -126.861 513.282C-107.082 495.347 -84.7051 480.25 -67.232 463.362C-52.6249 449.25 -42.2457 433.957 -39.6128 414.553C-35.3858 383.896 -31.5363 355.242 -25.1932 327.184C-19.8269 303.843 -13.3248 281.155 -1.82347 257.112C3.56669 245.916 11.4675 234.139 21.0313 220.996C45.0321 188.275 85.5309 155.334 138.581 124.778C208.853 84.4175 277.964 51.1449 346.231 26.3939C455.716 -13.061 572.548 -12.1119 636.711 24.0512Z" stroke="white" stroke-opacity="0.1" stroke-width="3"/>
<path d="M646.782 12.7109C730.875 60.1152 685.763 154.813 641.564 216.391C587.175 292.261 517.912 367.971 509.955 450.878C501.61 538.336 520.664 673.212 464.969 760.204C425.614 821.719 329.073 882.912 230.775 894.246C167.18 901.514 104.737 876.421 51.0813 859.238C-10.9031 839.48 -164.88 902.144 -205.934 866.572C-268.184 812.655 -260.769 742.251 -251.23 682.479C-242.079 624.613 -213.127 568.892 -166.709 517.444C-149.768 498.56 -129.823 482.075 -112.909 464.271C-98.9782 449.552 -88.0338 433.9 -82.3087 415.024C-73.0664 384.479 -61.8907 356.261 -47.3236 328.537C-35.3683 305.814 -21.9447 284.001 -4.69697 261.163C3.19787 250.66 13.753 239.559 25.7993 226.916C54.6428 196.776 97.9788 164.784 152.437 133.285C220.702 93.9367 287.847 58.0478 356.243 27.796C456.802 -16.8105 575.494 -27.4381 646.782 12.7109Z" stroke="white" stroke-opacity="0.1" stroke-width="3"/>
<path d="M656.856 1.37016C745.321 51.2138 697.896 150.878 651.336 215.665C594.064 295.49 521.158 375.142 512.929 462.293C504.194 554.302 536.379 683.367 477.728 775.007C436.311 839.697 335.027 899.179 231.491 911.111C171.487 917.969 112.296 898.774 60.1906 884.549C-2.86423 867.362 -133.853 909.667 -177.805 876.582C-246.796 824.708 -257.22 756.05 -260.554 693.733C-263.727 634.14 -245.232 575.794 -206.118 521.458C-191.852 501.704 -174.501 483.752 -158.307 464.953C-145.052 449.625 -133.392 433.597 -124.863 415.38C-110.595 385.045 -92.2757 356.991 -69.313 329.777C-50.7576 307.769 -30.7118 286.864 -7.59004 265.02C2.65986 255.227 15.7085 244.723 30.3871 232.563C63.763 204.942 110.108 174.076 166.262 141.5C232.521 103.165 298.192 64.9957 366.363 28.7937C458.405 -20.0315 578.603 -42.6851 656.856 1.37016Z" stroke="white" stroke-opacity="0.1" stroke-width="3"/>
<path d="M666.791 -9.85518C759.628 42.4277 709.879 146.962 661.106 214.941C600.951 298.72 524.553 382.298 515.763 473.824C506.489 570.401 551.804 693.654 490.337 789.829C446.857 857.693 340.691 915.578 232.206 927.978C175.644 934.443 119.865 921.226 69.2993 909.861C5.18515 895.343 -102.965 917.305 -149.828 886.61C-225.696 836.894 -253.833 769.771 -270.039 704.908C-285.398 643.476 -277.509 582.521 -245.825 525.508C-234.248 504.787 -219.329 485.448 -203.844 465.75C-191.276 449.717 -178.89 433.41 -167.557 415.853C-148.113 385.71 -122.938 357.949 -91.4525 331.034C-66.3081 309.645 -39.5016 289.535 -10.6334 268.895C2.12122 259.796 17.6636 249.888 34.9854 238.307C72.722 213.029 122.386 183.351 179.937 149.734C244.19 112.413 308.87 72.2011 376.194 29.9239C460.64 -23.0293 581.712 -57.9305 666.791 -9.85518Z" stroke="white" stroke-opacity="0.1" stroke-width="3"/>
<path d="M676.864 -21.1956C774.083 33.6233 721.873 143.141 670.738 214.329C607.7 302.063 527.66 389.584 518.607 485.45C508.944 586.578 567.251 704.134 502.818 804.86C457.436 875.979 346.366 932.073 232.644 945.072C179.673 951.126 127.028 944.114 77.9804 935.417C12.6793 923.778 -72.4932 925.284 -122.277 896.882C-205.002 849.517 -250.723 783.718 -279.791 716.407C-307.186 653.117 -309.893 589.65 -285.651 529.863C-276.76 508.176 -264.274 487.45 -249.498 466.853C-237.456 450.194 -224.356 433.512 -210.23 416.517C-185.587 386.76 -153.452 358.889 -113.56 332.581C-81.9869 311.73 -48.4087 292.511 -13.6333 273.156C1.47637 264.767 19.5013 255.359 39.616 244.341C81.7023 221.309 134.696 192.916 193.656 158.354C255.879 121.852 320.2 79.8203 386.046 31.2463C463.345 -25.8862 584.82 -73.1773 676.864 -21.1956Z" stroke="white" stroke-opacity="0.1" stroke-width="3"/>
<path d="M-16.6874 276.934C72.0217 237.405 236.363 169.931 395.889 32.473C466.81 -28.7309 587.779 -88.4058 686.937 -32.535C788.528 24.7232 734.005 139.208 680.659 213.588C614.887 305.258 531.205 396.723 521.591 496.963C511.389 602.659 582.826 714.404 515.577 819.665C468.132 893.958 352.169 948.358 233.359 961.938C114.55 975.518 -4.2923 951.679 -94.1608 906.796C-184.04 861.817 -246.908 797.193 -289.137 727.468C-374.747 585.896 -337.444 441.442 -135.572 333.628C-97.5705 313.316 -57.2203 294.988 -16.6874 276.934Z" stroke="white" stroke-opacity="0.1" stroke-width="3"/>
</g>
</svg>
