<svg width="32" height="32" viewBox="0 0 32 32" fill="none" xmlns="http://www.w3.org/2000/svg">
<path d="M9.32925 1.35727V5.74219L7.81821 4.22835C7.55752 3.96734 7.14019 3.96734 6.88001 4.22835L5.36844 5.74219V1.35727H9.32925ZM17.9289 1.35727V5.74219L16.4173 4.22835C16.1566 3.96734 15.7398 3.96734 15.4791 4.22835L13.9676 5.74219V1.35727H17.9289ZM26.5801 1.35727V5.74219L25.0685 4.17615C24.8078 3.91514 24.391 3.91514 24.1303 4.17615L22.6187 5.68999V1.30506H26.5801V1.35727ZM0.677603 1.35727H4.01349V7.36044C4.01349 7.62145 4.17011 7.88246 4.4308 7.98686C4.69098 8.09126 4.95165 8.03906 5.1603 7.83026L7.34938 5.63779L9.53792 7.83026C9.64199 7.93466 9.85064 8.03906 10.0073 8.03906C10.372 8.03906 10.6842 7.72585 10.6842 7.36044V1.35727H12.6646V7.36044C12.6646 7.62145 12.8213 7.88246 13.0819 7.98686C13.3421 8.09126 13.6028 8.03906 13.8114 7.83026L16.0005 5.63779L18.1896 7.83026C18.2936 7.93466 18.5018 8.03906 18.6584 8.03906C19.0232 8.03906 19.3354 7.72585 19.3354 7.36044V1.35727H21.3163V7.36044C21.3163 7.62145 21.4729 7.88246 21.7331 7.98686C21.9933 8.09126 22.254 8.03906 22.4631 7.83026L24.6517 5.63779L26.8407 7.83026C26.9448 7.93466 27.1529 8.03906 27.3096 8.03906C27.6743 8.03906 27.9871 7.72585 27.9871 7.36044V1.35727H31.3229C31.6877 1.35727 31.9999 1.04406 31.9999 0.678646C31.9999 0.313235 31.6877 2.57492e-05 31.3229 2.57492e-05C24.5996 2.57492e-05 6.61935 2.57492e-05 0.782705 2.57492e-05C0.417432 2.57492e-05 0.1047 0.313235 0.1047 0.678646C0.000630885 1.04406 0.312845 1.35727 0.677603 1.35727Z" fill="#E31112"/>
<path d="M26.5794 17.6959L25.0678 16.182C24.8071 15.921 24.3903 15.921 24.1297 16.182L22.6181 17.6959V13.3109H26.5794V17.6959ZM17.9283 17.6959L16.4167 16.182C16.156 15.921 15.7392 15.921 15.4785 16.182L13.9669 17.6959V13.3109H17.9283V17.6959ZM9.32862 17.6959L7.81758 16.182C7.55689 15.921 7.13956 15.921 6.87938 16.182L5.36781 17.6959V13.3109H9.32862V17.6959ZM31.2177 12.0059C26.8401 12.0059 5.05561 12.0059 0.676973 12.0059C0.312215 12.0059 0 12.3191 0 12.6845C0 13.0499 0.312215 13.3631 0.676973 13.3631H4.01286V19.3663C4.01286 19.6273 4.16948 19.8883 4.43017 19.9927C4.69035 20.0971 4.95102 20.0449 5.15967 19.8361L7.34875 17.6437L9.53729 19.8361C9.64136 19.9405 9.85001 20.0449 10.0066 20.0449C10.3714 20.0449 10.6836 19.7317 10.6836 19.3663V13.3109H12.664V19.3141C12.664 19.5751 12.8206 19.8361 13.0813 19.9405C13.3415 20.0449 13.6022 19.9927 13.8108 19.7839L15.9999 17.5914L18.1889 19.7839C18.3971 19.9927 18.6578 20.0449 18.9185 19.9405C19.1792 19.8361 19.3347 19.5751 19.3347 19.3141V13.3109H21.3157V19.3141C21.3157 19.5751 21.4723 19.8361 21.7325 19.9405C21.9926 20.0449 22.2533 19.9927 22.4625 19.7839L24.651 17.5914L26.8401 19.7839C27.0483 19.9927 27.3089 20.0449 27.5696 19.9405C27.8303 19.8361 27.9864 19.5751 27.9864 19.3141V13.3109H31.3223C31.6871 13.3109 31.9993 12.9977 31.9993 12.6323C31.8952 12.2669 31.5825 12.0059 31.2177 12.0059Z" fill="#E31112"/>
<path d="M26.5794 29.6509L25.0678 28.1371C24.8071 27.8761 24.3903 27.8761 24.1297 28.1371L22.6181 29.6509V25.266H26.5794V29.6509ZM17.9283 29.6509L16.4167 28.1371C16.156 27.8761 15.7392 27.8761 15.4785 28.1371L13.9669 29.6509V25.266H17.9283V29.6509ZM9.32862 29.6509L7.81758 28.1371C7.55689 27.8761 7.13956 27.8761 6.87938 28.1371L5.36781 29.6509V25.266H9.32862V29.6509ZM31.2177 23.961C24.4949 23.961 6.51465 23.961 0.676973 23.961C0.312215 23.961 0 24.2742 0 24.6396C0 25.005 0.312215 25.3182 0.676973 25.3182H4.01286V31.3214C4.01286 31.5824 4.16948 31.8434 4.43017 31.9478C4.69035 32.0522 4.95102 32 5.15967 31.7912L7.34875 29.5987L9.53729 31.7912C9.64136 31.8956 9.85001 32 10.0066 32C10.3714 32 10.6836 31.6868 10.6836 31.3214V25.266H12.664V31.2692C12.664 31.5302 12.8206 31.7912 13.0813 31.8956C13.3415 32 13.6022 31.9478 13.8108 31.739L15.9999 29.5465L18.1889 31.739C18.293 31.8434 18.5012 31.9478 18.6578 31.9478C19.0225 31.9478 19.3347 31.6346 19.3347 31.2692V25.266H21.3157V31.2692C21.3157 31.5302 21.4723 31.7912 21.7325 31.8956C21.9926 32 22.2533 31.9478 22.4625 31.739L24.651 29.5465L26.8401 31.739C27.0483 31.9478 27.3089 32 27.5696 31.8956C27.8303 31.7912 27.9864 31.5302 27.9864 31.2692V25.266H31.3223C31.6871 25.266 31.9993 24.9528 31.9993 24.5874C31.8952 24.2742 31.5825 23.961 31.2177 23.961Z" fill="#E31112"/>
<path d="M5.99377 9.3434H7.2967V10.6484H5.99377V9.3434Z" fill="#E31112"/>
<path d="M9.95428 9.3434H11.2577V10.6484H9.95428V9.3434Z" fill="#E31112"/>
<path d="M13.9678 9.3434H15.2713V10.6484H13.9678V9.3434Z" fill="#E31112"/>
<path d="M17.9288 9.3434H19.2312V10.6484H17.9288V9.3434Z" fill="#E31112"/>
<path d="M21.9414 9.3434H23.2438V10.6484H21.9414V9.3434Z" fill="#E31112"/>
<path d="M25.9019 9.3434H27.2053V10.6484H25.9019V9.3434Z" fill="#E31112"/>
<path d="M5.99377 21.2985H7.2967V22.6035H5.99377V21.2985Z" fill="#E31112"/>
<path d="M9.95428 21.2985H11.2577V22.6035H9.95428V21.2985Z" fill="#E31112"/>
<path d="M13.9678 21.2985H15.2713V22.6035H13.9678V21.2985Z" fill="#E31112"/>
<path d="M17.9288 21.2985H19.2312V22.6035H17.9288V21.2985Z" fill="#E31112"/>
<path d="M21.9414 21.2985H23.2438V22.6035H21.9414V21.2985Z" fill="#E31112"/>
<path d="M25.9019 21.2985H27.2053V22.6035H25.9019V21.2985Z" fill="#E31112"/>
</svg>
