<svg width="34" height="32" viewBox="0 0 34 32" fill="none" xmlns="http://www.w3.org/2000/svg">
<path d="M32.1462 25.2045H30.2596C30.4754 24.8835 30.6369 24.5089 30.6907 24.1343C30.7451 24.0273 30.7451 23.9738 30.7451 23.8667V2.67611C30.7451 2.19451 30.6369 1.7129 30.3672 1.33832H32.0924L32.1462 25.2045ZM8.1019 25.2045V11.559H19.0997C19.4771 11.559 19.8005 11.238 19.8005 10.8634C19.8005 10.4888 19.4771 10.1677 19.0997 10.1677H8.1019V6.10086H21.1484V21.0841C21.1484 21.4587 21.4719 21.7798 21.8492 21.7798H27.6716C28.6421 21.7798 29.3967 22.5289 29.3967 23.4921C29.3967 24.4554 28.6421 25.2045 27.6716 25.2045C26.7016 25.2045 9.12622 25.2045 8.1019 25.2045ZM1.95547 11.559H6.75356V25.2045H1.95547V11.559ZM6.75356 6.10086V10.1677H1.95547V6.10086H6.75356ZM22.55 1.33832C23.3052 1.33832 27.4563 1.33832 28.0489 1.33832C28.8036 1.33832 29.3967 1.92695 29.3967 2.67611V20.9236C28.9118 20.6025 28.3186 20.3885 27.6716 20.3885H22.4962L22.55 1.33832ZM32.847 0.000528336C32.5235 0.000528336 22.2803 0.000528336 21.8492 0.000528336C21.4719 0.000528336 21.1484 0.321598 21.1484 0.69618V4.76307H1.20082C0.823498 4.76307 0.5 5.08414 0.5 5.45872V25.9002C0.5 26.2748 0.823498 26.5958 1.20082 26.5958C2.33279 26.5958 31.068 26.5958 32.7932 26.5958C33.1705 26.5958 33.494 26.2748 33.494 25.9002V0.642668C33.5484 0.268085 33.2249 0.000528336 32.847 0.000528336Z" fill="#E31112"/>
<path d="M14.3022 14.2878C15.0568 14.2878 15.65 14.8764 15.65 15.6256C15.65 16.3748 15.0568 16.9634 14.3022 16.9634C13.547 16.9634 12.9544 16.3748 12.9544 15.6256C12.9544 14.9299 13.547 14.2878 14.3022 14.2878ZM14.3022 18.4082C15.812 18.4082 17.0517 17.1774 17.0517 15.6791C17.0517 14.1808 15.812 12.95 14.3022 12.95C12.7924 12.95 11.5527 14.1808 11.5527 15.6791C11.5527 17.1774 12.7924 18.4082 14.3022 18.4082Z" fill="#E31112"/>
<path d="M18.4012 19.7454H10.8537C10.4758 19.7454 10.1523 20.0665 10.1523 20.4411C10.1523 20.8156 10.4758 21.1367 10.8537 21.1367H18.4012C18.7786 21.1367 19.1021 20.8156 19.1021 20.4411C19.1021 20.0665 18.8324 19.7454 18.4012 19.7454Z" fill="#E31112"/>
<path d="M18.4012 22.4759H10.8537C10.4758 22.4759 10.1523 22.797 10.1523 23.1715C10.1523 23.5461 10.4758 23.8672 10.8537 23.8672H18.4012C18.7786 23.8672 19.1021 23.5461 19.1021 23.1715C19.1021 22.797 18.8324 22.4759 18.4012 22.4759Z" fill="#E31112"/>
<path d="M5.35316 3.37268H14.3024C14.6797 3.37268 15.0032 3.05161 15.0032 2.67703C15.0032 2.30245 14.6797 1.98138 14.3024 1.98138H5.35316C4.97584 1.98138 4.65234 2.30245 4.65234 2.67703C4.70617 3.10512 4.97584 3.37268 5.35316 3.37268Z" fill="#E31112"/>
<path d="M17.0522 28.6287C17.0522 28.2541 16.7287 27.933 16.3513 27.933H6.0538C5.67648 27.933 5.35352 28.2541 5.35352 28.6287C5.35352 29.0033 5.67648 29.3243 6.0538 29.3243H16.3513C16.7287 29.2708 17.0522 29.0033 17.0522 28.6287Z" fill="#E31112"/>
<path d="M30.0982 27.933H24.5993C24.2219 27.933 23.8984 28.2541 23.8984 28.6287C23.8984 29.0033 24.2219 29.3243 24.5993 29.3243H30.0982C30.476 29.3243 30.7995 29.0033 30.7995 28.6287C30.7995 28.2541 30.476 27.933 30.0982 27.933Z" fill="#E31112"/>
<path d="M10.8496 30.6623H12.1974V32.0001H10.8496V30.6623Z" fill="#E31112"/>
<path d="M13.5996 30.6623H14.9474V32.0001H13.5996V30.6623Z" fill="#E31112"/>
<path d="M16.3496 30.6623H17.6974V32.0001H16.3496V30.6623Z" fill="#E31112"/>
<path d="M19.0996 30.6623H20.4474V32.0001H19.0996V30.6623Z" fill="#E31112"/>
<path d="M21.8496 30.6623H23.1974V32.0001H21.8496V30.6623Z" fill="#E31112"/>
<path d="M27.3473 15.6796C27.7246 15.6796 28.0481 15.3585 28.0481 14.9839V6.10098C28.0481 5.72639 27.7246 5.40532 27.3473 5.40532C26.97 5.40532 26.6465 5.72639 26.6465 6.10098V14.9839C26.6465 15.3585 26.97 15.6796 27.3473 15.6796Z" fill="#E31112"/>
</svg>
