<svg width="32" height="32" viewBox="0 0 32 32" fill="none" xmlns="http://www.w3.org/2000/svg">
<path d="M1.3594 28.6538C1.3594 27.9218 1.98691 27.2943 2.71934 27.2943L4.70575 27.242V30.0656L2.66662 30.0133C1.9347 30.0133 1.3594 29.3858 1.3594 28.6538ZM31.3208 30.6408L5.96074 30.0656V27.1897L31.3208 26.6146C31.6868 26.6146 32 26.3009 31.9483 25.9348C31.9483 25.5688 31.634 25.2551 31.2681 25.3074L2.66662 25.9348C1.20279 25.9871 0 27.1897 0 28.6538C0 30.1179 1.20279 31.3205 2.66662 31.3728C31.8956 32.0002 31.3208 32.0002 31.3208 32.0002C31.6868 32.0002 32 31.6865 32 31.3728C32 30.9545 31.6868 30.693 31.3208 30.6408Z" fill="#E31112"/>
<path d="M12.6528 1.35959C17.4113 1.35959 21.3324 5.22891 21.3324 10.0394C21.3324 14.7976 17.4635 18.7192 12.6528 18.7192C7.84265 18.7192 4.02545 14.7976 4.02545 9.98711C4.02545 5.22891 7.89485 1.35959 12.6528 1.35959ZM12.6528 19.9741C18.1437 19.9741 22.6401 15.4774 22.6401 9.98711C22.6401 4.49687 18.1437 0.000104904 12.6528 0.000104904C7.16294 0.000104904 2.66602 4.49687 2.66602 9.98711C2.66602 15.5296 7.16294 19.9741 12.6528 19.9741Z" fill="#E31112"/>
<path d="M23.4241 4.4451C27.9732 5.96145 30.3783 10.8765 28.8622 15.4256C27.3457 19.9746 22.4306 22.3799 17.882 20.8635C17.516 20.759 17.1501 20.9158 17.0451 21.2818C16.9402 21.6478 17.0974 22.0139 17.4633 22.1184C22.6921 23.8962 28.3391 21.0727 30.1172 15.8439C31.8948 10.6151 29.0711 4.91569 23.8427 3.19019C23.4768 3.08561 23.1103 3.24247 23.0059 3.60849C22.9015 3.9745 23.0581 4.34052 23.4241 4.4451Z" fill="#E31112"/>
<path d="M10.6667 6.0141C12.4965 6.0141 14.0126 7.53045 14.0126 9.36053C14.0126 11.1906 12.4965 12.707 10.6667 12.707C8.83644 12.707 7.31989 11.1906 7.31989 9.36053C7.31989 7.47816 8.83644 6.0141 10.6667 6.0141ZM10.6667 14.0142C13.229 14.0142 15.3203 11.9226 15.3203 9.36053C15.3203 6.79842 13.229 4.7069 10.6667 4.7069C8.10453 4.7069 6.01318 6.79842 6.01318 9.36053C6.01318 11.9226 8.10453 14.0142 10.6667 14.0142Z" fill="#E31112"/>
<path d="M25.9864 12.0272C26.3524 12.0272 26.6661 12.3409 26.6661 12.7069C26.6661 13.0729 26.3524 13.3866 25.9864 13.3866C25.6205 13.3866 25.3067 13.0729 25.3067 12.7069C25.3067 12.2886 25.6205 12.0272 25.9864 12.0272ZM25.9864 14.6938C27.0843 14.6938 27.9733 13.805 27.9733 12.7069C27.9733 11.6089 27.0843 10.72 25.9864 10.72C24.888 10.72 23.9995 11.6089 23.9995 12.7069C24 13.7527 24.888 14.6938 25.9864 14.6938Z" fill="#E31112"/>
<path d="M4.0249 22.6413H5.33209V23.9485H4.0249V22.6413Z" fill="#E31112"/>
<path d="M6.69189 22.6413H7.99961V23.9485H6.69189V22.6413Z" fill="#E31112"/>
<path d="M9.3584 22.6413H10.6661V23.9485H9.3584V22.6413Z" fill="#E31112"/>
<path d="M12.0259 22.6413H13.3331V23.9485H12.0259V22.6413Z" fill="#E31112"/>
<path d="M28.6543 0.680837H29.961V1.98804H28.6543V0.680837Z" fill="#E31112"/>
<path d="M28.6543 3.34783H29.961V4.65503H28.6543V3.34783Z" fill="#E31112"/>
<path d="M30.0122 1.98748H31.3199V3.29468H30.0122V1.98748Z" fill="#E31112"/>
<path d="M27.3457 1.98748H28.6534V3.29468H27.3457V1.98748Z" fill="#E31112"/>
<path d="M30.0123 22.6412C30.0123 23.0072 29.6986 23.321 29.3326 23.321C28.9667 23.321 28.6534 23.0072 28.6534 22.6412C28.6534 22.2752 28.9667 21.9615 29.3326 21.9615C29.6986 22.0138 30.0123 22.2752 30.0123 22.6412ZM27.3457 22.6412C27.3457 23.7393 28.2347 24.6282 29.3326 24.6282C30.431 24.6282 31.32 23.7393 31.32 22.6412C31.32 21.5432 30.431 20.6543 29.3326 20.6543C28.2347 20.6543 27.3457 21.5432 27.3457 22.6412Z" fill="#E31112"/>
<path d="M1.98691 1.35944C2.35339 1.35944 2.66662 1.67316 2.66662 2.03918C2.66662 2.4052 2.35339 2.71892 1.98691 2.71892C1.62096 2.71892 1.30721 2.4052 1.30721 2.03918C1.35942 1.62088 1.62096 1.35944 1.98691 1.35944ZM1.98691 4.02612C3.0853 4.02612 3.97383 3.13723 3.97383 2.03918C3.97383 0.941131 3.0853 0.0522351 1.98691 0.0522351C0.889044 0.0522351 0 0.941131 0 2.03918C0 3.08494 0.889044 4.02612 1.98691 4.02612Z" fill="#E31112"/>
</svg>
