<svg width="24" height="24" viewBox="0 0 24 24" fill="none" xmlns="http://www.w3.org/2000/svg">
<path d="M2.20293 12.104C2.55436 12.4456 2.90579 12.5562 3.59921 12.566L11.2029 12.596C11.2732 12.596 11.3332 12.6063 11.3636 12.6363C11.3936 12.6663 11.4035 12.7267 11.4035 12.797L11.4335 20.4012C11.4438 21.0942 11.5544 21.4456 11.9058 21.797C12.3781 22.2792 13.0411 22.199 13.5331 21.7169C13.7945 21.4554 14.0054 21.0239 14.1961 20.6219L21.8804 4.04859C22.2819 3.20516 22.2318 2.58202 21.8204 2.18002C21.4179 1.76859 20.7952 1.71845 19.9518 2.12002L3.37807 9.80431C2.97607 9.99502 2.5445 10.2059 2.28307 10.4673C1.80093 10.9593 1.72079 11.6219 2.20293 12.104ZM4.24207 11.0399C4.23179 11.0099 4.25193 10.9799 4.31236 10.9494L20.2128 3.64573C20.2934 3.61573 20.3332 3.61573 20.3636 3.63588C20.3838 3.66588 20.3838 3.70616 20.3534 3.78673L13.0514 19.6872C13.0214 19.7476 12.9914 19.7677 12.9614 19.7574C12.9408 19.7574 12.9108 19.7176 12.9108 19.6773L12.9609 11.7419C12.9609 11.4907 12.8709 11.3304 12.7702 11.2297C12.6695 11.1294 12.5088 11.039 12.2581 11.039L4.32264 11.0892C4.28236 11.0892 4.2425 11.0592 4.2425 11.039" fill="#000565"/>
</svg>
