<svg width="32" height="32" viewBox="0 0 32 32" fill="none" xmlns="http://www.w3.org/2000/svg">
<path fill-rule="evenodd" clip-rule="evenodd" d="M15.9983 28.2505L16.9598 27.1671C18.0509 25.9175 19.0322 24.732 19.9054 23.6044L20.6261 22.6535C23.6357 18.5987 25.1412 15.3804 25.1412 13.0017C25.1412 7.9244 21.0482 3.80859 15.9983 3.80859C10.9484 3.80859 6.85547 7.9244 6.85547 13.0017C6.85547 15.3804 8.36099 18.5987 11.3705 22.6535L12.0913 23.6044C13.3369 25.2004 14.6401 26.7491 15.9983 28.2505Z" stroke="#be0b0b" stroke-width="1.5" stroke-linecap="round" stroke-linejoin="round"/>
<path d="M15.997 16.7597C18.101 16.7597 19.8065 15.0541 19.8065 12.9501C19.8065 10.8462 18.101 9.14062 15.997 9.14062C13.8931 9.14062 12.1875 10.8462 12.1875 12.9501C12.1875 15.0541 13.8931 16.7597 15.997 16.7597Z" stroke="#be0b0b" stroke-width="1.5" stroke-linecap="round" stroke-linejoin="round"/>
</svg>
