<svg width="32" height="32" viewBox="0 0 32 32" fill="none" xmlns="http://www.w3.org/2000/svg">
<path d="M28.4407 3.62625C28.1593 3.34688 27.8064 3.15048 27.4207 3.05865C27.035 2.96681 26.6314 2.98308 26.2543 3.10568L4.4948 10.3638C4.09125 10.4917 3.73464 10.7363 3.47001 11.0667C3.20539 11.3972 3.04463 11.7986 3.00802 12.2203C2.97142 12.6421 3.06062 13.0652 3.26435 13.4363C3.46809 13.8074 3.77723 14.1097 4.15272 14.3052L13.1808 18.7672L17.6427 27.825C17.8221 28.1795 18.0965 28.4772 18.4354 28.6847C18.7742 28.8922 19.1641 29.0014 19.5614 29H19.7101C20.1356 28.9686 20.5419 28.8101 20.8761 28.5448C21.2103 28.2796 21.457 27.9199 21.5841 27.5127L28.9464 5.81261C29.0779 5.43771 29.1001 5.03317 29.0106 4.6461C28.9211 4.25903 28.7234 3.90535 28.4407 3.62625ZM5.41694 12.4163L24.4101 6.08033L13.8649 16.6255L5.41694 12.4163ZM19.6655 26.65L15.4415 18.202L25.9866 7.65689L19.6655 26.65Z" fill="#be0b0b"/>
</svg>
