<svg width="24" height="25" viewBox="0 0 24 25" fill="none" xmlns="http://www.w3.org/2000/svg">
<path d="M18.75 14.2402C21.2353 14.2402 23.25 12.2255 23.25 9.74023C23.25 7.25495 21.2353 5.24023 18.75 5.24023C16.2647 5.24023 14.25 7.25495 14.25 9.74023C14.25 12.2255 16.2647 14.2402 18.75 14.2402Z" stroke="url(#paint0_linear_250_1364)" stroke-width="1.5" stroke-linecap="round" stroke-linejoin="round"/>
<path d="M23.25 9.74023C23.25 12.525 22.1438 15.1957 20.1746 17.1649C18.2055 19.134 15.5348 20.2402 12.75 20.2402" stroke="url(#paint1_linear_250_1364)" stroke-width="1.5" stroke-linecap="round" stroke-linejoin="round"/>
<path d="M6.75 14.2402C9.23528 14.2402 11.25 12.2255 11.25 9.74023C11.25 7.25495 9.23528 5.24023 6.75 5.24023C4.26472 5.24023 2.25 7.25495 2.25 9.74023C2.25 12.2255 4.26472 14.2402 6.75 14.2402Z" stroke="url(#paint2_linear_250_1364)" stroke-width="1.5" stroke-linecap="round" stroke-linejoin="round"/>
<path d="M11.25 9.74023C11.25 12.525 10.1438 15.1957 8.17462 17.1649C6.20549 19.134 3.53477 20.2402 0.75 20.2402" stroke="url(#paint3_linear_250_1364)" stroke-width="1.5" stroke-linecap="round" stroke-linejoin="round"/>
<defs>
<linearGradient id="paint0_linear_250_1364" x1="14.25" y1="9.74023" x2="23.25" y2="9.74023" gradientUnits="userSpaceOnUse">
<stop stop-color="#FB3F52"/>
<stop offset="1" stop-color="#FA7D3C"/>
</linearGradient>
<linearGradient id="paint1_linear_250_1364" x1="12.75" y1="14.9902" x2="23.25" y2="14.9902" gradientUnits="userSpaceOnUse">
<stop stop-color="#FB3F52"/>
<stop offset="1" stop-color="#FA7D3C"/>
</linearGradient>
<linearGradient id="paint2_linear_250_1364" x1="2.25" y1="9.74023" x2="11.25" y2="9.74023" gradientUnits="userSpaceOnUse">
<stop stop-color="#FB3F52"/>
<stop offset="1" stop-color="#FA7D3C"/>
</linearGradient>
<linearGradient id="paint3_linear_250_1364" x1="0.75" y1="14.9902" x2="11.25" y2="14.9902" gradientUnits="userSpaceOnUse">
<stop stop-color="#FB3F52"/>
<stop offset="1" stop-color="#FA7D3C"/>
</linearGradient>
</defs>
</svg>
