<svg width="36" height="36" viewBox="0 0 36 36" fill="none" xmlns="http://www.w3.org/2000/svg">
<g clip-path="url(#clip0_291_5357)">
<path d="M34.663 19.3269C34.4092 22.5168 33.245 25.5667 31.3088 28.1144C29.3725 30.6621 26.7457 32.6005 23.7402 33.6992C20.7348 34.7979 17.4772 35.0108 14.3543 34.3125C11.2315 33.6143 8.37469 32.0343 6.12337 29.7602C3.87206 27.4862 2.32085 24.6137 1.65404 21.484C0.987221 18.3543 1.23283 15.0989 2.36168 12.1047C3.49054 9.11045 5.45518 6.5032 8.02221 4.59268C10.5892 2.68216 13.6507 1.54868 16.843 1.3269" stroke="#01020E" stroke-width="2" stroke-linecap="round" stroke-linejoin="round"/>
<path d="M25.1745 20.8029C24.7101 21.9981 23.9552 23.0587 22.9779 23.8888C22.0006 24.7189 20.8318 25.2923 19.5773 25.5571C18.3227 25.822 17.0219 25.7699 15.7925 25.4057C14.5631 25.0415 13.4439 24.3765 12.536 23.471C11.6282 22.5655 10.9604 21.448 10.593 20.2196C10.2256 18.9911 10.1702 17.6904 10.4318 16.4352C10.6934 15.1799 11.2638 14.0097 12.0914 13.0303C12.919 12.0509 13.9776 11.2932 15.1716 10.8258M18.0002 18.0001L24.4287 11.5715M24.4287 11.5715L29.5716 12.8572L34.7145 7.71434L29.5716 6.42862L28.2859 1.28577L23.143 6.42862L24.4287 11.5715Z" stroke="#01020E" stroke-width="2" stroke-linecap="round" stroke-linejoin="round"/>
</g>
<defs>
<clipPath id="clip0_291_5357">
<rect width="36" height="36" fill="white"/>
</clipPath>
</defs>
</svg>
