<svg width="40" height="40" viewBox="0 0 40 40" fill="none" xmlns="http://www.w3.org/2000/svg">
<path d="M5.4491 3.6592C8.45702 2.48304 11.8566 3.98591 12.9676 7.05699C14.1452 10.0627 12.6406 13.5259 9.63329 14.702C6.62601 15.8782 3.22645 14.3753 2.11479 11.3042C0.937864 8.29849 2.44182 4.83536 5.4491 3.6592ZM4.92624 16.2702L7.01832 21.1056C7.14888 21.4323 7.47592 21.6283 7.80295 21.6283C8.3911 21.6283 8.78406 21.0402 8.58758 20.4521L6.95306 16.7276C9.30628 16.9237 11.5296 16.0089 13.0336 14.31L14.2098 17.7078C14.341 18.0345 14.6681 18.2958 14.9944 18.2958C15.5832 18.2958 15.9755 17.7078 15.7797 17.185L14.2098 12.6764C15.1909 10.7815 15.3215 8.49452 14.5369 6.46891C13.0335 2.54838 8.71814 0.653461 4.79569 2.15633C0.937863 3.6592 -0.958412 8.03713 0.480274 11.9577C1.33017 13.9179 2.89941 15.4861 4.92624 16.2702Z" fill="#be0b0b"/>
<path d="M9.04423 13.0691C9.89413 12.7424 10.6787 12.089 11.1363 11.2395C11.3981 10.8475 11.2016 10.3247 10.8093 10.1287C10.417 9.86733 9.8941 10.0634 9.69827 10.4554C9.43651 10.9781 8.97894 11.3049 8.45608 11.5662C7.99849 11.7623 7.80201 12.2196 7.99849 12.677C8.12904 13.0691 8.58664 13.2651 9.04423 13.0691Z" fill="#be0b0b"/>
<path d="M4.40231 11.2393C4.9911 11.2393 5.3834 10.6512 5.18757 10.1284C4.66471 8.8216 5.31813 7.31873 6.62561 6.86133C7.08384 6.66531 7.27902 6.20791 7.08383 5.75052C6.88736 5.29312 6.42979 5.09709 5.9722 5.29312C3.81417 6.14257 2.76843 8.56023 3.61768 10.7165C3.74953 11.0432 4.07592 11.2393 4.40231 11.2393Z" fill="#be0b0b"/>
<path d="M16.1055 33.8475L15.1903 31.4952L16.7589 30.9071L17.6747 33.2594C17.8706 33.7168 17.6095 34.1742 17.2165 34.3702C16.6943 34.5009 16.2367 34.3049 16.1055 33.8475ZM26.6319 33.3247L19.6363 36.0691C19.244 36.2651 18.7211 36.0038 18.5899 35.6117L18.5246 35.481C19.3092 34.8276 19.6363 33.6515 19.244 32.6713L18.3281 30.319L19.1128 29.9923C19.571 29.7963 19.7668 29.3389 19.571 28.8815C19.3745 28.4241 18.9169 28.2281 18.4594 28.4241L12.2483 30.8417C11.7907 31.0378 11.5942 31.4952 11.7907 31.9526C11.9872 32.41 12.4448 32.606 12.9024 32.41L13.687 32.0832L14.6022 34.4356C14.9938 35.481 15.9749 36.0691 17.0213 36.0691C17.0213 36.1345 17.2824 37.1146 18.3941 37.6373C18.9822 37.8987 19.7016 37.8987 20.2897 37.7027L27.286 34.9583C27.7436 34.7623 28.2012 35.0236 28.3317 35.4157C28.5276 35.8731 28.2665 36.3305 27.8742 36.5265L23.2317 38.3561C22.7741 38.5521 22.5783 39.0095 22.7741 39.4669C22.9706 39.9243 23.4282 40.1203 23.8858 39.9243L28.5276 38.0947C29.8357 37.572 30.4239 36.1345 29.9663 34.8276C29.3781 33.5208 27.8741 32.8674 26.6319 33.3247Z" fill="#be0b0b"/>
<path d="M34.5421 22.8704C31.4689 24.0465 28.0693 22.5436 26.8924 19.5379C26.4348 18.2964 26.3701 16.9896 26.7618 15.6827C27.5464 13.1997 29.8996 11.6315 32.3847 11.6315C34.7386 11.6315 37.0265 13.069 37.8764 15.356C39.1186 18.2964 37.6153 21.6942 34.5421 22.8704ZM11.0707 22.8704L12.6393 22.2169L14.5356 27.1176L12.9017 27.6403C12.7712 27.1829 13.0969 28.0977 11.0707 22.8704ZM8.38982 27.5096C7.93224 27.7057 7.40936 27.4443 7.27816 27.0523C7.08297 26.5949 7.34409 26.1375 7.73575 26.0068L10.0903 25.092L10.6784 26.6602L8.38982 27.5096ZM16.1048 26.5295L14.1439 21.4982L24.8655 16.7935C24.6697 19.0152 25.4543 21.2368 27.2194 22.8704L16.1048 26.5295ZM39.5116 14.7026C38.007 10.8474 33.6269 8.95247 29.7045 10.39C27.677 11.1741 26.1078 12.7423 25.3231 14.7679L9.63201 21.6289C9.24035 21.8249 9.0439 22.2823 9.17445 22.6743L9.50146 23.4584L7.1476 24.3732C6.10187 24.7653 5.51308 25.7454 5.51308 26.7909C5.44781 26.7909 4.46737 27.0523 3.94386 28.1631C3.68275 28.7511 3.68275 29.4699 3.87923 30.058L6.62475 37.0496C6.82058 37.507 6.55947 37.9644 6.16716 38.0951C5.70957 38.2911 5.252 38.0297 5.05552 37.6377L3.22515 32.9984C3.02867 32.541 2.57111 32.345 2.11352 32.541C1.65593 32.737 1.46009 33.1944 1.65593 33.6518L3.48626 38.2911C4.00978 39.5979 5.4478 40.186 6.75594 39.7286C8.06277 39.2059 8.71684 37.7684 8.19397 36.4615L5.44782 29.4699C5.25199 29.0125 5.5131 28.5551 5.90541 28.4244L6.0366 28.3591C6.75594 29.1432 7.86761 29.4699 8.84742 29.0779L11.2013 28.1631L11.5283 28.9472C11.6595 29.3392 12.1171 29.6006 12.5747 29.4046L28.8539 24.0465C32.777 26.0068 37.4841 24.3732 39.2492 20.3874C40.1643 18.6231 40.2303 16.5975 39.5116 14.7026Z" fill="#be0b0b"/>
<path d="M31.1411 19.6029C30.6189 19.3415 30.2919 18.8841 30.0308 18.3614C29.8343 17.904 29.3767 17.7079 28.9838 17.904C28.5262 18.1 28.3303 18.5574 28.5262 19.0148C28.8532 19.8642 29.5073 20.6483 30.3565 21.1057C30.7495 21.3018 31.2723 21.1711 31.4682 20.779C31.6646 20.3216 31.5341 19.7989 31.1411 19.6029Z" fill="#be0b0b"/>
<path d="M30.9468 13.5266C30.4892 13.7226 30.2927 14.18 30.4892 14.5721C30.6844 15.0295 31.142 15.2255 31.535 15.0295C32.8424 14.5067 34.3457 15.1602 34.8033 16.467C34.9345 16.7937 35.2609 16.9897 35.588 16.9897C36.1767 16.9897 36.5691 16.4017 36.3726 15.8789C35.5233 13.788 33.1035 12.7425 30.9468 13.5266Z" fill="#be0b0b"/>
<path d="M21.1404 20.8449L21.7285 22.4131L23.2978 21.825L22.7096 20.2568L21.1404 20.8449Z" fill="#be0b0b"/>
<path d="M24.147 1.63337C24.6046 1.63337 24.9969 2.02542 24.9969 2.48282C24.9969 2.94021 24.6046 3.33227 24.147 3.33227C23.6894 3.33227 23.2971 2.94021 23.2971 2.48282C23.3624 1.96008 23.6894 1.63337 24.147 1.63337ZM24.147 4.96582C25.5198 4.96582 26.6314 3.855 26.6314 2.48282C26.6314 1.11063 25.5198 -0.000184059 24.147 -0.000184059C22.7736 -0.000184059 21.662 1.11063 21.662 2.48282C21.662 3.78966 22.7736 4.96582 24.147 4.96582Z" fill="#be0b0b"/>
<path d="M35.8503 33.259C35.3927 33.259 34.9998 32.867 34.9998 32.4096C34.9998 31.9522 35.3927 31.5601 35.8503 31.5601C36.3079 31.5601 36.6996 31.9522 36.6996 32.4096C36.6996 32.867 36.3079 33.259 35.8503 33.259ZM35.8503 29.9266C34.4769 29.9266 33.3652 31.0374 33.3652 32.4096C33.3652 33.7818 34.4769 34.8926 35.8503 34.8926C37.2231 34.8926 38.3341 33.7818 38.3341 32.4096C38.3341 31.0374 37.2231 29.9266 35.8503 29.9266Z" fill="#be0b0b"/>
<path d="M20.814 7.44897H22.5137V9.08252H20.814V7.44897Z" fill="#be0b0b"/>
<path d="M20.814 10.782H22.5137V12.4155H20.814V10.782Z" fill="#be0b0b"/>
<path d="M22.514 9.08324H24.2139V10.7168H22.514V9.08324Z" fill="#be0b0b"/>
<path d="M19.1796 9.08324H20.8787V10.7168H19.1796V9.08324Z" fill="#be0b0b"/>
<path d="M29.1809 26.5954H30.8807V28.229H29.1809V26.5954Z" fill="#be0b0b"/>
<path d="M29.1809 29.927H30.8807V31.5605H29.1809V29.927Z" fill="#be0b0b"/>
<path d="M30.8809 28.2283H32.5807V29.8618H30.8809V28.2283Z" fill="#be0b0b"/>
<path d="M27.4828 28.2283H29.1826V29.8618H27.4828V28.2283Z" fill="#be0b0b"/>
</svg>
