<svg width="32" height="32" viewBox="0 0 32 32" fill="none" xmlns="http://www.w3.org/2000/svg">
<path d="M1.3594 28.6536C1.3594 27.9215 1.98691 27.2941 2.71934 27.2941L4.70575 27.2418V30.0653L2.66662 30.0131C1.9347 30.0131 1.3594 29.3856 1.3594 28.6536ZM31.3208 30.6405L5.96074 30.0653V27.1895L31.3208 26.6143C31.6868 26.6143 32 26.3006 31.9483 25.9346C31.9483 25.5686 31.634 25.2548 31.2681 25.3071L2.66662 25.9346C1.20279 25.9869 0 27.1895 0 28.6536C0 30.1176 1.20279 31.3203 2.66662 31.3725C31.8956 32 31.3208 32 31.3208 32C31.6868 32 32 31.6863 32 31.3725C32 30.9542 31.6868 30.6928 31.3208 30.6405Z" fill="white"/>
<path d="M12.6528 1.35947C17.4113 1.35947 21.3324 5.22878 21.3324 10.0393C21.3324 14.7975 17.4635 18.7191 12.6528 18.7191C7.84265 18.7191 4.02545 14.7975 4.02545 9.98699C4.02545 5.22878 7.89485 1.35947 12.6528 1.35947ZM12.6528 19.974C18.1437 19.974 22.6401 15.4772 22.6401 9.98699C22.6401 4.49675 18.1437 -1.71661e-05 12.6528 -1.71661e-05C7.16294 -1.71661e-05 2.66602 4.49675 2.66602 9.98699C2.66602 15.5295 7.16294 19.974 12.6528 19.974Z" fill="white"/>
<path d="M23.4245 4.44467C27.9737 5.96102 30.3787 10.8761 28.8627 15.4251C27.3462 19.9742 22.4311 22.3795 17.8825 20.8631C17.5165 20.7585 17.1505 20.9154 17.0456 21.2814C16.9407 21.6474 17.0978 22.0134 17.4638 22.118C22.6926 23.8958 28.3396 21.0723 30.1177 15.8435C31.8953 10.6147 29.0715 4.91526 23.8432 3.18976C23.4773 3.08518 23.1108 3.24204 23.0064 3.60806C22.902 3.97408 23.0586 4.34009 23.4245 4.44467Z" fill="white"/>
<path d="M10.6672 6.01343C12.497 6.01343 14.013 7.52978 14.013 9.35986C14.013 11.1899 12.497 12.7063 10.6672 12.7063C8.83693 12.7063 7.32038 11.1899 7.32038 9.35986C7.32038 7.47749 8.83693 6.01343 10.6672 6.01343ZM10.6672 14.0135C13.2294 14.0135 15.3208 11.922 15.3208 9.35986C15.3208 6.79775 13.2294 4.70623 10.6672 4.70623C8.10501 4.70623 6.01367 6.79775 6.01367 9.35986C6.01367 11.922 8.10501 14.0135 10.6672 14.0135Z" fill="white"/>
<path d="M25.9869 12.0262C26.3529 12.0262 26.6666 12.3399 26.6666 12.7059C26.6666 13.0719 26.3529 13.3857 25.9869 13.3857C25.621 13.3857 25.3072 13.0719 25.3072 12.7059C25.3072 12.2876 25.621 12.0262 25.9869 12.0262ZM25.9869 14.6929C27.0848 14.6929 27.9738 13.804 27.9738 12.7059C27.9738 11.6079 27.0848 10.719 25.9869 10.719C24.8885 10.719 24 11.6079 24 12.7059C24.0005 13.7517 24.8885 14.6929 25.9869 14.6929Z" fill="white"/>
<path d="M4.02441 22.6405H5.3316V23.9477H4.02441V22.6405Z" fill="white"/>
<path d="M6.69238 22.6405H8.0001V23.9477H6.69238V22.6405Z" fill="white"/>
<path d="M9.3584 22.6405H10.6661V23.9477H9.3584V22.6405Z" fill="white"/>
<path d="M12.0254 22.6405H13.3326V23.9477H12.0254V22.6405Z" fill="white"/>
<path d="M28.6543 0.679555H29.961V1.98676H28.6543V0.679555Z" fill="white"/>
<path d="M28.6543 3.34655H29.961V4.65375H28.6543V3.34655Z" fill="white"/>
<path d="M30.0127 1.98626H31.3204V3.29346H30.0127V1.98626Z" fill="white"/>
<path d="M27.3447 1.98626H28.6524V3.29346H27.3447V1.98626Z" fill="white"/>
<path d="M30.0113 22.6409C30.0113 23.0069 29.6976 23.3207 29.3316 23.3207C28.9657 23.3207 28.6524 23.0069 28.6524 22.6409C28.6524 22.2749 28.9657 21.9612 29.3316 21.9612C29.6976 22.0135 30.0113 22.2749 30.0113 22.6409ZM27.3447 22.6409C27.3447 23.739 28.2338 24.6279 29.3316 24.6279C30.43 24.6279 31.3191 23.739 31.3191 22.6409C31.3191 21.5429 30.43 20.654 29.3316 20.654C28.2338 20.654 27.3447 21.5429 27.3447 22.6409Z" fill="white"/>
<path d="M1.98691 1.35901C2.35339 1.35901 2.66662 1.67274 2.66662 2.03875C2.66662 2.40477 2.35339 2.7185 1.98691 2.7185C1.62096 2.7185 1.30721 2.40477 1.30721 2.03875C1.35942 1.62045 1.62096 1.35901 1.98691 1.35901ZM1.98691 4.0257C3.0853 4.0257 3.97383 3.1368 3.97383 2.03875C3.97383 0.940704 3.0853 0.0518079 1.98691 0.0518079C0.889044 0.0518079 0 0.940704 0 2.03875C0 3.08451 0.889044 4.0257 1.98691 4.0257Z" fill="white"/>
</svg>
