<svg width="32" height="32" viewBox="0 0 32 32" fill="none" xmlns="http://www.w3.org/2000/svg">
<path d="M22.5971 8.66514C23.3276 8.66514 23.9013 9.23936 23.9013 9.97018C23.9013 10.701 23.3276 11.2752 22.5971 11.2752C21.8661 11.2752 21.2924 10.701 21.2924 9.97018C21.2924 9.23936 21.8661 8.66514 22.5971 8.66514ZM22.5971 12.6324C24.0582 12.6324 25.2582 11.4318 25.2582 9.97018V4.64564C25.2582 4.28023 24.9455 3.96702 24.5803 3.96702C24.215 3.96702 23.9013 4.28023 23.9013 4.64564V7.67332C23.4845 7.46451 23.0666 7.30791 22.5971 7.30791C21.1355 7.30791 19.9355 8.50854 19.9355 9.97018C19.9355 11.4318 21.1355 12.6324 22.5971 12.6324Z" fill="white"/>
<path d="M26.6167 18.6365C27.3472 18.6365 27.9209 19.2107 27.9209 19.9415C27.9209 20.6723 27.3472 21.2465 26.6167 21.2465C25.8861 21.2465 25.3119 20.6723 25.3119 19.9415C25.2593 19.2107 25.8861 18.6365 26.6167 18.6365ZM23.9551 19.9415C23.9551 21.4031 25.1551 22.6038 26.6167 22.6038C28.0777 22.6038 29.2256 21.4553 29.2782 19.9937L30.1656 15.6088L30.6872 16.8616C30.8435 17.227 31.2087 17.3836 31.574 17.227C31.9398 17.0704 32.0961 16.705 31.9398 16.3396L30.6351 12.9987C30.5308 12.7377 30.2698 12.5811 29.9561 12.5811C29.6435 12.6333 29.4345 12.8421 29.3824 13.1031L28.443 17.8534C27.9735 17.4358 27.3993 17.227 26.7209 17.227C25.1551 17.2792 23.9551 18.4799 23.9551 19.9415Z" fill="white"/>
<path d="M4.6442 22.6038V14.6691H9.96787V22.656C9.96787 24.1176 8.76734 25.3182 7.30629 25.3182C5.84473 25.3182 4.6442 24.1176 4.6442 22.6038ZM1.35684 12.6333C1.35684 12.2679 1.67 11.9547 2.03527 11.9547H12.6815C13.0468 11.9547 13.3605 12.2679 13.3605 12.6333C13.3605 12.9987 13.0468 13.3119 12.6815 13.3119C11.5336 13.3119 3.34 13.3119 2.03527 13.3119C1.61738 13.3119 1.35684 12.9987 1.35684 12.6333ZM2.66157 6.00372C2.66157 3.44585 4.74894 1.3578 7.30629 1.3578C9.65471 1.3578 11.5857 3.08044 11.8989 5.3251H6.67997C6.31471 5.3251 6.00156 5.63831 6.00156 6.00372C6.00156 6.36913 6.31471 6.68234 6.67997 6.68234H11.951C11.6379 8.927 9.70681 10.6496 7.3584 10.6496C4.74894 10.6496 2.66157 8.56159 2.66157 6.00372ZM31.2609 30.5906H14.2994C14.9257 29.8597 15.3431 28.9723 15.3431 27.9283V24.5874C15.3431 23.1258 16.5436 21.9251 18.0047 21.9251C19.4657 21.9251 20.6668 23.1258 20.6668 24.5874V28.5547C20.6668 28.9201 20.9794 29.2333 21.3452 29.2333C21.7104 29.2333 22.0236 28.9201 22.0236 28.5547V24.5874C22.0236 22.3949 20.2489 20.6201 18.0573 20.6201C15.8652 20.6201 14.091 22.3949 14.091 24.5874V27.9283C14.091 29.3899 12.8905 30.5906 11.4289 30.5906H10.7505C9.28944 30.5906 8.08892 29.3899 8.08892 27.9283V26.5189C9.96786 26.2056 11.4289 24.5352 11.4289 22.6038V14.6691H12.7336C13.8299 14.6691 14.7168 13.7817 14.7168 12.6855C14.7168 11.5893 13.8299 10.7018 12.7336 10.7018H11.1684C12.5252 9.60561 13.4126 7.93517 13.4126 6.05592C13.4126 2.76723 10.7505 0.052763 7.41051 0.052763C4.12263 0.052763 1.40895 2.71503 1.40895 6.05592C1.40895 7.93517 2.29631 9.60561 3.65315 10.7018H2.08737C0.991069 10.7018 0.104214 11.5893 0.104214 12.6855C0.104214 13.7817 0.991069 14.6691 2.08737 14.6691H3.39209V22.656C3.39209 24.6396 4.85314 26.2578 6.73208 26.5711V27.9805C6.73208 29.0245 7.09735 29.9119 7.77577 30.6428H0.67791C0.312647 30.6428 0 30.956 0 31.3214C0 31.6868 0.312647 32 0.67791 32C1.25212 32 29.7473 32 31.2609 32C31.6262 32 31.9393 31.6868 31.9393 31.3214C31.9393 30.9038 31.6262 30.5906 31.2609 30.5906Z" fill="white"/>
<path d="M6.67972 17.2786C6.67972 16.9132 6.99288 16.5999 7.35815 16.5999C7.72341 16.5999 8.03656 16.9132 8.03656 17.2786C8.03656 17.644 7.72341 17.9572 7.35815 17.9572C6.94078 17.9572 6.67972 17.6962 6.67972 17.2786ZM9.34129 17.2786C9.34129 16.1823 8.45394 15.2949 7.35815 15.2949C6.26236 15.2949 5.375 16.1823 5.375 17.2786C5.375 18.3748 6.26236 19.2622 7.35815 19.2622C8.40183 19.3144 9.34129 18.427 9.34129 17.2786Z" fill="white"/>
<path d="M17.9536 1.35728C18.6846 1.35728 19.2583 1.9315 19.2583 2.66232C19.2583 3.39313 18.6846 3.96735 17.9536 3.96735C17.223 3.96735 16.6488 3.39313 16.6488 2.66232C16.6488 1.9315 17.223 1.35728 17.9536 1.35728ZM17.9536 5.32458C19.4151 5.32458 20.6151 4.12395 20.6151 2.66232C20.6151 1.20068 19.4151 4.52995e-05 17.9536 4.52995e-05C16.4925 4.52995e-05 15.292 1.20068 15.292 2.66232C15.292 4.12395 16.4925 5.32458 17.9536 5.32458Z" fill="white"/>
<path d="M28.5996 27.9282C27.8691 27.9282 27.2943 27.3539 27.2943 26.6231C27.2943 25.8923 27.8691 25.3181 28.5996 25.3181C29.3301 25.3181 29.9043 25.8923 29.9043 26.6231C29.9559 27.3539 29.3301 27.9282 28.5996 27.9282ZM28.5996 23.9609C27.1385 23.9609 25.9375 25.1615 25.9375 26.6231C25.9375 28.0848 27.1385 29.2854 28.5996 29.2854C30.0606 29.2854 31.2612 28.0848 31.2612 26.6231C31.2612 25.1615 30.0606 23.9609 28.5996 23.9609Z" fill="white"/>
<path d="M17.2744 14.6691H18.5791V15.9741H17.2744V14.6691Z" fill="white"/>
<path d="M17.2744 17.2788H18.5791V18.5839H17.2744V17.2788Z" fill="white"/>
<path d="M18.6309 15.9735H19.9361V17.2786H18.6309V15.9735Z" fill="white"/>
<path d="M15.9688 15.9735H17.2735V17.2786H15.9688V15.9735Z" fill="white"/>
<path d="M28.5996 1.35769H29.9043V2.66272H28.5996V1.35769Z" fill="white"/>
<path d="M28.5996 4.01955H29.9043V5.32458H28.5996V4.01955Z" fill="white"/>
<path d="M29.9551 2.66225H31.2603V3.96729H29.9551V2.66225Z" fill="white"/>
<path d="M27.2939 2.66225H28.5992V3.96729H27.2939V2.66225Z" fill="white"/>
<path d="M22.5971 8.66514C23.3276 8.66514 23.9013 9.23936 23.9013 9.97018C23.9013 10.701 23.3276 11.2752 22.5971 11.2752C21.8661 11.2752 21.2924 10.701 21.2924 9.97018C21.2924 9.23936 21.8661 8.66514 22.5971 8.66514ZM22.5971 12.6324C24.0582 12.6324 25.2582 11.4318 25.2582 9.97018V4.64564C25.2582 4.28023 24.9455 3.96702 24.5803 3.96702C24.215 3.96702 23.9013 4.28023 23.9013 4.64564V7.67332C23.4845 7.46451 23.0666 7.30791 22.5971 7.30791C21.1355 7.30791 19.9355 8.50854 19.9355 9.97018C19.9355 11.4318 21.1355 12.6324 22.5971 12.6324Z" fill="white"/>
<path d="M26.6167 18.6365C27.3472 18.6365 27.9209 19.2107 27.9209 19.9415C27.9209 20.6723 27.3472 21.2465 26.6167 21.2465C25.8861 21.2465 25.3119 20.6723 25.3119 19.9415C25.2593 19.2107 25.8861 18.6365 26.6167 18.6365ZM23.9551 19.9415C23.9551 21.4031 25.1551 22.6038 26.6167 22.6038C28.0777 22.6038 29.2256 21.4553 29.2782 19.9937L30.1656 15.6088L30.6872 16.8616C30.8435 17.227 31.2087 17.3836 31.574 17.227C31.9398 17.0704 32.0961 16.705 31.9398 16.3396L30.6351 12.9987C30.5308 12.7377 30.2698 12.5811 29.9561 12.5811C29.6435 12.6333 29.4345 12.8421 29.3824 13.1031L28.443 17.8534C27.9735 17.4358 27.3993 17.227 26.7209 17.227C25.1551 17.2792 23.9551 18.4799 23.9551 19.9415Z" fill="white"/>
<path d="M4.6442 22.6038V14.6691H9.96787V22.656C9.96787 24.1176 8.76734 25.3182 7.30629 25.3182C5.84473 25.3182 4.6442 24.1176 4.6442 22.6038ZM1.35684 12.6333C1.35684 12.2679 1.67 11.9547 2.03527 11.9547H12.6815C13.0468 11.9547 13.3605 12.2679 13.3605 12.6333C13.3605 12.9987 13.0468 13.3119 12.6815 13.3119C11.5336 13.3119 3.34 13.3119 2.03527 13.3119C1.61738 13.3119 1.35684 12.9987 1.35684 12.6333ZM2.66157 6.00372C2.66157 3.44585 4.74894 1.3578 7.30629 1.3578C9.65471 1.3578 11.5857 3.08044 11.8989 5.3251H6.67997C6.31471 5.3251 6.00156 5.63831 6.00156 6.00372C6.00156 6.36913 6.31471 6.68234 6.67997 6.68234H11.951C11.6379 8.927 9.70681 10.6496 7.3584 10.6496C4.74894 10.6496 2.66157 8.56159 2.66157 6.00372ZM31.2609 30.5906H14.2994C14.9257 29.8597 15.3431 28.9723 15.3431 27.9283V24.5874C15.3431 23.1258 16.5436 21.9251 18.0047 21.9251C19.4657 21.9251 20.6668 23.1258 20.6668 24.5874V28.5547C20.6668 28.9201 20.9794 29.2333 21.3452 29.2333C21.7104 29.2333 22.0236 28.9201 22.0236 28.5547V24.5874C22.0236 22.3949 20.2489 20.6201 18.0573 20.6201C15.8652 20.6201 14.091 22.3949 14.091 24.5874V27.9283C14.091 29.3899 12.8905 30.5906 11.4289 30.5906H10.7505C9.28944 30.5906 8.08892 29.3899 8.08892 27.9283V26.5189C9.96786 26.2056 11.4289 24.5352 11.4289 22.6038V14.6691H12.7336C13.8299 14.6691 14.7168 13.7817 14.7168 12.6855C14.7168 11.5893 13.8299 10.7018 12.7336 10.7018H11.1684C12.5252 9.60561 13.4126 7.93517 13.4126 6.05592C13.4126 2.76723 10.7505 0.052763 7.41051 0.052763C4.12263 0.052763 1.40895 2.71503 1.40895 6.05592C1.40895 7.93517 2.29631 9.60561 3.65315 10.7018H2.08737C0.991069 10.7018 0.104214 11.5893 0.104214 12.6855C0.104214 13.7817 0.991069 14.6691 2.08737 14.6691H3.39209V22.656C3.39209 24.6396 4.85314 26.2578 6.73208 26.5711V27.9805C6.73208 29.0245 7.09735 29.9119 7.77577 30.6428H0.67791C0.312647 30.6428 0 30.956 0 31.3214C0 31.6868 0.312647 32 0.67791 32C1.25212 32 29.7473 32 31.2609 32C31.6262 32 31.9393 31.6868 31.9393 31.3214C31.9393 30.9038 31.6262 30.5906 31.2609 30.5906Z" fill="white"/>
<path d="M6.67972 17.2786C6.67972 16.9132 6.99288 16.5999 7.35815 16.5999C7.72341 16.5999 8.03656 16.9132 8.03656 17.2786C8.03656 17.644 7.72341 17.9572 7.35815 17.9572C6.94078 17.9572 6.67972 17.6962 6.67972 17.2786ZM9.34129 17.2786C9.34129 16.1823 8.45394 15.2949 7.35815 15.2949C6.26236 15.2949 5.375 16.1823 5.375 17.2786C5.375 18.3748 6.26236 19.2622 7.35815 19.2622C8.40183 19.3144 9.34129 18.427 9.34129 17.2786Z" fill="white"/>
<path d="M17.9536 1.35728C18.6846 1.35728 19.2583 1.9315 19.2583 2.66232C19.2583 3.39313 18.6846 3.96735 17.9536 3.96735C17.223 3.96735 16.6488 3.39313 16.6488 2.66232C16.6488 1.9315 17.223 1.35728 17.9536 1.35728ZM17.9536 5.32458C19.4151 5.32458 20.6151 4.12395 20.6151 2.66232C20.6151 1.20068 19.4151 4.52995e-05 17.9536 4.52995e-05C16.4925 4.52995e-05 15.292 1.20068 15.292 2.66232C15.292 4.12395 16.4925 5.32458 17.9536 5.32458Z" fill="white"/>
<path d="M28.5996 27.9282C27.8691 27.9282 27.2943 27.3539 27.2943 26.6231C27.2943 25.8923 27.8691 25.3181 28.5996 25.3181C29.3301 25.3181 29.9043 25.8923 29.9043 26.6231C29.9559 27.3539 29.3301 27.9282 28.5996 27.9282ZM28.5996 23.9609C27.1385 23.9609 25.9375 25.1615 25.9375 26.6231C25.9375 28.0848 27.1385 29.2854 28.5996 29.2854C30.0606 29.2854 31.2612 28.0848 31.2612 26.6231C31.2612 25.1615 30.0606 23.9609 28.5996 23.9609Z" fill="white"/>
<path d="M17.2744 14.6691H18.5791V15.9741H17.2744V14.6691Z" fill="white"/>
<path d="M17.2744 17.2788H18.5791V18.5839H17.2744V17.2788Z" fill="white"/>
<path d="M18.6309 15.9735H19.9361V17.2786H18.6309V15.9735Z" fill="white"/>
<path d="M15.9688 15.9735H17.2735V17.2786H15.9688V15.9735Z" fill="white"/>
<path d="M28.5996 1.35769H29.9043V2.66272H28.5996V1.35769Z" fill="white"/>
<path d="M28.5996 4.01955H29.9043V5.32458H28.5996V4.01955Z" fill="white"/>
<path d="M29.9551 2.66225H31.2603V3.96729H29.9551V2.66225Z" fill="white"/>
<path d="M27.2939 2.66225H28.5992V3.96729H27.2939V2.66225Z" fill="white"/>
</svg>
