<svg width="40" height="40" viewBox="0 0 40 40" fill="none" xmlns="http://www.w3.org/2000/svg">
<path d="M5.4491 3.65914C8.45702 2.48298 11.8566 3.98585 12.9676 7.05693C14.1452 10.0627 12.6406 13.5258 9.63329 14.702C6.62601 15.8781 3.22645 14.3753 2.11479 11.3042C0.937864 8.29843 2.44182 4.8353 5.4491 3.65914ZM4.92624 16.2702L7.01832 21.1055C7.14888 21.4322 7.47592 21.6282 7.80295 21.6282C8.3911 21.6282 8.78406 21.0402 8.58758 20.4521L6.95306 16.7276C9.30628 16.9236 11.5296 16.0088 13.0336 14.3099L14.2098 17.7077C14.341 18.0344 14.6681 18.2958 14.9944 18.2958C15.5832 18.2958 15.9755 17.7077 15.7797 17.185L14.2098 12.6764C15.1909 10.7814 15.3215 8.49446 14.5369 6.46885C13.0335 2.54832 8.71814 0.6534 4.79569 2.15627C0.937863 3.65914 -0.958412 8.03706 0.480274 11.9576C1.33017 13.9179 2.89941 15.4861 4.92624 16.2702Z" fill="white"/>
<path d="M9.04447 13.0691C9.89437 12.7424 10.679 12.089 11.1366 11.2395C11.3983 10.8475 11.2018 10.3247 10.8095 10.1287C10.4172 9.86733 9.89435 10.0634 9.69851 10.4554C9.43676 10.9781 8.97919 11.3049 8.45632 11.5662C7.99874 11.7623 7.80225 12.2196 7.99873 12.677C8.12929 13.0691 8.58689 13.2651 9.04447 13.0691Z" fill="white"/>
<path d="M4.4028 11.2393C4.99159 11.2393 5.38389 10.6512 5.18806 10.1284C4.6652 8.8216 5.31861 7.31873 6.6261 6.86133C7.08433 6.66531 7.27951 6.20791 7.08432 5.75052C6.88784 5.29312 6.43028 5.09709 5.97269 5.29312C3.81466 6.14257 2.76892 8.56023 3.61817 10.7165C3.75002 11.0432 4.07641 11.2393 4.4028 11.2393Z" fill="white"/>
<path d="M16.1055 33.8475L15.1903 31.4952L16.7589 30.9071L17.6747 33.2594C17.8706 33.7168 17.6095 34.1742 17.2165 34.3702C16.6943 34.5009 16.2367 34.3049 16.1055 33.8475ZM26.6319 33.3247L19.6363 36.0691C19.244 36.2651 18.7211 36.0038 18.5899 35.6117L18.5246 35.481C19.3092 34.8276 19.6363 33.6515 19.244 32.6713L18.3281 30.319L19.1128 29.9923C19.571 29.7963 19.7668 29.3389 19.571 28.8815C19.3745 28.4241 18.9169 28.2281 18.4594 28.4241L12.2483 30.8417C11.7907 31.0378 11.5942 31.4952 11.7907 31.9526C11.9872 32.41 12.4448 32.606 12.9024 32.41L13.687 32.0832L14.6022 34.4356C14.9938 35.481 15.9749 36.0691 17.0213 36.0691C17.0213 36.1345 17.2824 37.1146 18.3941 37.6373C18.9822 37.8987 19.7016 37.8987 20.2897 37.7027L27.286 34.9583C27.7436 34.7623 28.2012 35.0236 28.3317 35.4157C28.5276 35.8731 28.2665 36.3305 27.8742 36.5265L23.2317 38.3561C22.7741 38.5521 22.5783 39.0095 22.7741 39.4669C22.9706 39.9243 23.4282 40.1203 23.8858 39.9243L28.5276 38.0947C29.8357 37.572 30.4239 36.1345 29.9663 34.8276C29.3781 33.5208 27.8741 32.8674 26.6319 33.3247Z" fill="white"/>
<path d="M34.5419 22.8704C31.4687 24.0465 28.0691 22.5436 26.8921 19.5379C26.4345 18.2964 26.3699 16.9896 26.7616 15.6827C27.5462 13.1997 29.8994 11.6315 32.3845 11.6315C34.7383 11.6315 37.0263 13.069 37.8762 15.356C39.1184 18.2964 37.6151 21.6942 34.5419 22.8704ZM11.0705 22.8704L12.6391 22.2169L14.5353 27.1176L12.9015 27.6403C12.7709 27.1829 13.0967 28.0977 11.0705 22.8704ZM8.38958 27.5096C7.93199 27.7057 7.40912 27.4443 7.27792 27.0523C7.08273 26.5949 7.34384 26.1375 7.73551 26.0068L10.09 25.092L10.6782 26.6602L8.38958 27.5096ZM16.1046 26.5295L14.1437 21.4982L24.8653 16.7935C24.6695 19.0152 25.4541 21.2368 27.2192 22.8704L16.1046 26.5295ZM39.5113 14.7026C38.0067 10.8474 33.6267 8.95247 29.7042 10.39C27.6768 11.1741 26.1075 12.7423 25.3229 14.7679L9.63177 21.6289C9.24011 21.8249 9.04365 22.2823 9.17421 22.6743L9.50121 23.4584L7.14736 24.3732C6.10163 24.7653 5.51284 25.7454 5.51284 26.7909C5.44756 26.7909 4.46712 27.0523 3.94361 28.1631C3.6825 28.7511 3.6825 29.4699 3.87898 30.058L6.6245 37.0496C6.82034 37.507 6.55922 37.9644 6.16691 38.0951C5.70932 38.2911 5.25176 38.0297 5.05528 37.6377L3.22491 32.9984C3.02843 32.541 2.57086 32.345 2.11327 32.541C1.65569 32.737 1.45985 33.1944 1.65568 33.6518L3.48602 38.2911C4.00953 39.5979 5.44756 40.186 6.75569 39.7286C8.06253 39.2059 8.7166 37.7684 8.19373 36.4615L5.44758 29.4699C5.25174 29.0125 5.51286 28.5551 5.90517 28.4244L6.03636 28.3591C6.7557 29.1432 7.86737 29.4699 8.84717 29.0779L11.201 28.1631L11.5281 28.9472C11.6593 29.3392 12.1168 29.6006 12.5744 29.4046L28.8537 24.0465C32.7768 26.0068 37.4838 24.3732 39.2489 20.3874C40.1641 18.6231 40.23 16.5975 39.5113 14.7026Z" fill="white"/>
<path d="M31.1408 19.6029C30.6185 19.3415 30.2915 18.8841 30.0304 18.3614C29.8339 17.904 29.3763 17.7079 28.9834 17.904C28.5258 18.1 28.33 18.5574 28.5258 19.0148C28.8528 19.8642 29.5069 20.6483 30.3562 21.1057C30.7491 21.3018 31.272 21.1711 31.4678 20.779C31.6643 20.3216 31.5337 19.7989 31.1408 19.6029Z" fill="white"/>
<path d="M30.9466 13.5266C30.489 13.7226 30.2925 14.18 30.489 14.5721C30.6842 15.0295 31.1418 15.2255 31.5347 15.0295C32.8422 14.5067 34.3455 15.1602 34.8031 16.467C34.9343 16.7937 35.2607 16.9897 35.5877 16.9897C36.1765 16.9897 36.5688 16.4017 36.3723 15.8789C35.5231 13.788 33.1033 12.7425 30.9466 13.5266Z" fill="white"/>
<path d="M21.1406 20.8449L21.7288 22.4131L23.298 21.825L22.7099 20.2568L21.1406 20.8449Z" fill="white"/>
<path d="M24.1472 1.63337C24.6047 1.63337 24.997 2.02542 24.997 2.48282C24.997 2.94021 24.6047 3.33227 24.1472 3.33227C23.6896 3.33227 23.2973 2.94021 23.2973 2.48282C23.3625 1.96008 23.6896 1.63337 24.1472 1.63337ZM24.1472 4.96582C25.5199 4.96582 26.6316 3.855 26.6316 2.48282C26.6316 1.11063 25.5199 -0.000184059 24.1472 -0.000184059C22.7737 -0.000184059 21.6621 1.11063 21.6621 2.48282C21.6621 3.78966 22.7737 4.96582 24.1472 4.96582Z" fill="white"/>
<path d="M35.8503 33.259C35.3927 33.259 34.9998 32.867 34.9998 32.4096C34.9998 31.9522 35.3927 31.5601 35.8503 31.5601C36.3079 31.5601 36.6996 31.9522 36.6996 32.4096C36.6996 32.867 36.3079 33.259 35.8503 33.259ZM35.8503 29.9266C34.4769 29.9266 33.3652 31.0374 33.3652 32.4096C33.3652 33.7818 34.4769 34.8926 35.8503 34.8926C37.2231 34.8926 38.3341 33.7818 38.3341 32.4096C38.3341 31.0374 37.2231 29.9266 35.8503 29.9266Z" fill="white"/>
<path d="M20.8135 7.44897H22.5133V9.08252H20.8135V7.44897Z" fill="white"/>
<path d="M20.8135 10.782H22.5133V12.4155H20.8135V10.782Z" fill="white"/>
<path d="M22.5137 9.08324H24.2135V10.7168H22.5137V9.08324Z" fill="white"/>
<path d="M19.1797 9.08324H20.8788V10.7168H19.1797V9.08324Z" fill="white"/>
<path d="M29.1807 26.5954H30.8804V28.229H29.1807V26.5954Z" fill="white"/>
<path d="M29.1807 29.927H30.8804V31.5605H29.1807V29.927Z" fill="white"/>
<path d="M30.8809 28.2283H32.5807V29.8618H30.8809V28.2283Z" fill="white"/>
<path d="M27.4824 28.2283H29.1822V29.8618H27.4824V28.2283Z" fill="white"/>
</svg>
