<svg width="36" height="36" viewBox="0 0 36 36" fill="none" xmlns="http://www.w3.org/2000/svg">
<path d="M24 31.4625V26.9625H19.5V23.9625H24V19.4625H27V23.9625H31.5V26.9625H27V31.4625H24ZM4.5 27V24H7.5V27H4.5ZM10.5 27V24H16.6125C16.5375 24.525 16.5065 25.025 16.5195 25.5C16.5325 25.975 16.576 26.475 16.65 27H10.5ZM4.5 21V18H7.5V21H4.5ZM10.5 21V18H20.475C19.9 18.4 19.3815 18.85 18.9195 19.35C18.4575 19.85 18.051 20.4 17.7 21H10.5ZM4.5 15V12H7.5V15H4.5ZM10.5 15V12H28.5V15H10.5ZM4.5 9V6H7.5V9H4.5ZM10.5 9V6H28.5V9H10.5Z" fill="#01020E"/>
</svg>
