<svg width="32" height="32" viewBox="0 0 32 32" fill="none" xmlns="http://www.w3.org/2000/svg">
<path d="M14.0131 30.5905V29.2855H15.3203C15.6863 29.2855 16 28.9723 16 28.6069C16 28.2414 15.6863 27.9282 15.3203 27.9282H14.0131V25.2659H15.3203C15.6863 25.2659 16 24.9527 16 24.5873C16 24.2219 15.6863 23.9086 15.3203 23.9086H14.0131V22.6036H17.9869V25.9445H16.6797C16.3137 25.9445 16 26.2577 16 26.6232C16 26.9886 16.3137 27.3018 16.6797 27.3018H17.9869V30.6427L14.0131 30.5905ZM9.35966 7.98695C9.35966 5.27243 11.0328 2.92333 13.3334 1.87928V3.65416C13.3334 4.5938 14.0653 5.32463 15.0066 5.32463C15.9478 5.32463 16.6797 4.5938 16.6797 3.65416V1.35726C20.026 1.67047 22.6926 4.5416 22.6926 7.98695V21.2985C21.1238 21.2985 10.9284 21.2985 9.35966 21.2985V7.98695ZM14.6928 1.46166C14.9022 1.40946 15.111 1.40946 15.3725 1.35726V3.65416C15.3725 3.86297 15.2159 3.96737 15.0588 3.96737C14.8499 3.96737 14.745 3.81077 14.745 3.65416V1.46166H14.6928ZM31.3198 30.5905H19.3463V22.6036H23.32C23.686 22.6036 23.9998 22.2904 23.9998 21.925V7.98695C23.9998 3.60196 20.3919 0 16 0C11.6081 0 8.00026 3.60196 8.00026 7.98695V21.9772C8.00026 22.3426 8.314 22.6558 8.67995 22.6558H12.6537V30.6427H0.680209C0.314258 30.6427 0 30.956 0 31.3214C0 31.6868 0.314258 32 0.680209 32C1.88247 32 29.9604 32 31.3198 32C31.6863 32 32 31.6868 32 31.3214C32 30.9038 31.6863 30.5905 31.3198 30.5905Z" fill="white"/>
<path d="M12.6539 16.652V7.98638C12.6539 7.62097 12.9676 7.30775 13.3336 7.30775C13.6995 7.30775 14.0133 7.62097 14.0133 7.98638V16.652C14.0133 17.0174 13.6995 17.3306 13.3336 17.3306C12.9676 17.2784 12.6539 17.0174 12.6539 16.652ZM15.3204 16.652V7.98638C15.3204 6.89014 14.4314 6.0027 13.3336 6.0027C12.2352 6.0027 11.3467 6.89014 11.3467 7.98638V16.652C11.3467 17.7482 12.2352 18.6357 13.3336 18.6357C14.4314 18.6357 15.3204 17.7482 15.3204 16.652Z" fill="white"/>
<path d="M17.9869 7.98638C17.9869 7.62097 18.3006 7.30775 18.6666 7.30775C19.0325 7.30775 19.3463 7.62097 19.3463 7.98638V16.652C19.3463 17.0174 19.0325 17.3306 18.6666 17.3306C18.3006 17.3306 17.9869 17.0174 17.9869 16.652V7.98638ZM18.6666 18.6357C19.7644 18.6357 20.6535 17.7482 20.6535 16.652V7.98638C20.6535 6.89014 19.7644 6.0027 18.6666 6.0027C17.5687 6.0027 16.6797 6.89014 16.6797 7.98638V16.652C16.6797 17.7482 17.5687 18.6357 18.6666 18.6357Z" fill="white"/>
<path d="M2.66658 23.2822C3.399 23.2822 3.97429 23.8565 3.97429 24.5873C3.97429 25.3181 3.399 25.8923 2.66658 25.8923C1.93468 25.8923 1.35939 25.3181 1.35939 24.5873C1.35939 23.9087 1.93468 23.2822 2.66658 23.2822ZM2.66658 27.3018C4.1309 27.3018 5.33316 26.1012 5.33316 24.6395C5.33316 23.1778 4.1309 21.9772 2.66658 21.9772C1.20278 21.9772 0 23.1778 0 24.6395C0 26.1012 1.20278 27.3018 2.66658 27.3018Z" fill="white"/>
<path d="M28.6529 6.68119C29.3853 6.68119 29.9601 7.25541 29.9601 7.98624C29.9601 8.71708 29.3853 9.2913 28.6529 9.2913C27.921 9.2913 27.3457 8.71708 27.3457 7.98624C27.3457 7.25541 27.921 6.68119 28.6529 6.68119ZM28.6529 10.6486C30.1172 10.6486 31.3195 9.44791 31.3195 7.98624C31.3195 6.52458 30.1172 5.32393 28.6529 5.32393C27.1891 5.32393 25.9863 6.52458 25.9863 7.98624C25.9863 9.44791 27.1891 10.6486 28.6529 10.6486Z" fill="white"/>
<path d="M28.6529 17.2784C28.2869 17.2784 27.9732 16.9652 27.9732 16.5998C27.9732 16.2343 28.2869 15.9211 28.6529 15.9211C29.0194 15.9211 29.3331 16.2343 29.3331 16.5998C29.3331 17.0174 29.0194 17.2784 28.6529 17.2784ZM28.6529 14.6683C27.555 14.6683 26.666 15.5557 26.666 16.652C26.666 17.7482 27.555 18.6357 28.6529 18.6357C29.7513 18.6357 30.6398 17.7482 30.6398 16.652C30.6398 15.5557 29.7513 14.6683 28.6529 14.6683Z" fill="white"/>
<path d="M5.33357 13.3111C5.33357 13.6765 5.02034 13.9897 4.65439 13.9897C4.28844 13.9897 3.9747 13.6765 3.9747 13.3111C3.9747 12.9457 4.28844 12.6325 4.65439 12.6325C5.02034 12.6325 5.33357 12.9457 5.33357 13.3111ZM2.66699 13.3111C2.66699 14.4073 3.55602 15.2948 4.65439 15.2948C5.75224 15.2948 6.64076 14.4073 6.64076 13.3111C6.64076 12.2148 5.75224 11.3274 4.65439 11.3274C3.55602 11.3274 2.66699 12.2148 2.66699 13.3111Z" fill="white"/>
<path d="M2.66699 4.01901H3.9747V5.32407H2.66699V4.01901Z" fill="white"/>
<path d="M2.66699 6.68087H3.9747V7.98593H2.66699V6.68087Z" fill="white"/>
<path d="M4.02637 5.32434H5.33304V6.62939H4.02637V5.32434Z" fill="white"/>
<path d="M1.35938 5.32434H2.66657V6.62939H1.35938V5.32434Z" fill="white"/>
<path d="M27.3467 21.9768H28.6539V23.2819H27.3467V21.9768Z" fill="white"/>
<path d="M27.3467 24.6387H28.6539V25.9437H27.3467V24.6387Z" fill="white"/>
<path d="M28.6533 23.2821H29.9605V24.5872H28.6533V23.2821Z" fill="white"/>
<path d="M25.9863 23.2821H27.2935V24.5872H25.9863V23.2821Z" fill="white"/>
</svg>
