<svg width="41" height="40" viewBox="0 0 41 40" fill="none" xmlns="http://www.w3.org/2000/svg">
<path d="M30.748 4.19004C28.4037 4.19004 26.4607 6.08857 26.4607 8.37989C26.4607 8.83816 26.862 9.23096 27.3309 9.23096C27.7998 9.23096 28.2024 8.83816 28.2024 8.37989C28.2024 7.0051 29.3414 5.89217 30.748 5.89217C31.2169 5.89217 31.6189 5.49937 31.6189 5.0411C31.6189 4.58284 31.2169 4.19004 30.748 4.19004Z" fill="#be0b0b"/>
<path d="M3.41602 15.0567C3.41602 15.5149 3.81802 15.9077 4.28689 15.9077C4.75576 15.9077 5.15774 15.5149 5.15774 15.0567C5.15774 13.6819 6.2968 12.5689 7.7034 12.5689C8.17227 12.5689 8.57425 12.1761 8.57425 11.7179C8.57425 11.2596 8.17227 10.8668 7.7034 10.8668C5.35906 10.8668 3.41602 12.6999 3.41602 15.0567Z" fill="#be0b0b"/>
<path d="M15.408 10.8677C15.408 11.326 15.8093 11.7188 16.2782 11.7188C16.7477 11.7188 17.149 11.326 17.149 10.8677C17.149 9.49289 18.2881 8.37996 19.6947 8.37996C20.1635 8.37996 20.5662 7.98716 20.5662 7.5289C20.5662 7.07063 20.1635 6.67783 19.6947 6.67783C17.2834 6.67783 15.408 8.57636 15.408 10.8677Z" fill="#be0b0b"/>
<path d="M29.8777 18.1997C30.9499 18.3961 32.1558 18.3961 33.2942 18.1997V20.8838H29.8777V18.1997ZM23.9155 9.1653C23.9155 5.04092 27.3321 1.63666 31.6201 1.63666C35.8406 1.63666 39.324 4.97545 39.324 9.1653C39.324 13.2897 35.9075 16.6939 31.6201 16.6939C27.3321 16.6939 23.9155 13.3552 23.9155 9.1653ZM39.2571 38.3633H25.591C24.6533 38.3633 23.9155 37.6432 23.9155 36.7267C23.9155 35.8101 24.6533 35.09 25.591 35.09H29.0075C30.883 35.09 32.424 33.5843 32.424 31.7512V22.5859H34.0982C34.5677 22.5859 34.9697 22.1931 34.9697 21.7349V17.7414C38.4531 16.4321 40.9319 13.0933 40.9319 9.1653C40.9319 4.12439 36.7114 0 31.5532 0C26.3943 0 22.1738 4.12439 22.1738 9.1653C22.1738 13.0278 24.6533 16.3666 28.136 17.7414V21.6694C28.136 22.1277 28.5387 22.5205 29.0075 22.5205H30.6823V31.6858C30.6823 32.6023 29.9453 33.3224 29.0075 33.3224H25.591C23.7155 33.3224 22.1738 34.8282 22.1738 36.6612C22.1738 38.4943 23.7155 40 25.591 40H39.2571C39.726 40 40.1279 39.6072 40.1279 39.1489C40.1279 38.7561 39.726 38.3633 39.2571 38.3633Z" fill="#be0b0b"/>
<path d="M12.7952 27.5615H8.50787V25.0083C8.77608 25.0083 9.04362 25.0738 9.37872 25.0738C9.84759 25.0738 10.2502 24.681 10.2502 24.2227C10.2502 23.7644 9.84759 23.3716 9.37872 23.3716C5.15823 23.3716 1.67414 20.0329 1.67414 15.843C1.67414 11.6532 5.09135 8.31436 9.37872 8.31436C9.84759 8.31436 10.2502 7.92156 10.2502 7.4633C10.2502 7.00503 9.84759 6.61223 9.37872 6.61223C4.22049 6.61223 0 10.7366 0 15.7775C0 19.9674 2.88078 23.5026 6.83305 24.6155V28.2816C6.83305 28.7399 7.23503 29.1327 7.7039 29.1327H9.37872V34.1081C9.37872 36.3995 7.43634 38.298 5.09133 38.298C4.6218 38.298 4.22048 38.6908 4.22048 39.1491C4.22048 39.6073 4.6218 40.0001 5.09133 40.0001C8.37408 40.0001 11.0535 37.3815 11.0535 34.1736V29.1982H12.7952C13.2641 29.1982 13.6668 28.8054 13.6668 28.3471C13.6668 27.8888 13.2641 27.5615 12.7952 27.5615Z" fill="#be0b0b"/>
<path d="M22.1746 25.8596H23.8501C24.319 25.8596 24.7203 25.4668 24.7203 25.0085C24.7203 24.5502 24.319 24.1574 23.8501 24.1574H19.5621V21.6697C19.8303 21.6697 20.0985 21.7352 20.4336 21.7352C20.9025 21.7352 21.3038 21.3424 21.3038 20.8841C21.3038 20.4259 20.9025 20.0331 20.4336 20.0331C16.2793 20.0331 12.7959 16.6943 12.7959 12.5044C12.7959 8.31457 16.2124 4.97578 20.4998 4.97578C20.9687 4.97578 21.3713 4.58298 21.3713 4.12471C21.3713 3.66645 20.9687 3.27365 20.4998 3.27365C15.3416 3.27365 11.1211 7.39804 11.1211 12.439C11.1211 16.6288 14.0025 20.164 17.9541 21.2769V24.943C17.9541 25.4013 18.3568 25.7941 18.8256 25.7941H20.4998V32.4717C20.4998 32.93 20.9025 33.3228 21.3713 33.3228C21.8402 33.3228 22.2422 32.93 22.2422 32.4717L22.1746 25.8596Z" fill="#be0b0b"/>
<path d="M3.41765 1.70174C3.88652 1.70174 4.28853 2.09454 4.28853 2.5528C4.28853 3.01107 3.88652 3.40387 3.41765 3.40387C2.94878 3.40387 2.5468 3.01107 2.5468 2.5528C2.5468 2.02907 2.94878 1.70174 3.41765 1.70174ZM3.41765 5.04053C4.82426 5.04053 5.96331 3.9276 5.96331 2.5528C5.96331 1.17801 4.82426 0.0650768 3.41765 0.0650768C2.01038 0.0650768 0.871338 1.17801 0.871338 2.5528C0.871338 3.86213 2.01038 5.04053 3.41765 5.04053Z" fill="#be0b0b"/>
<path d="M38.4536 31.6861C37.9848 31.6861 37.5828 31.2933 37.5828 30.835C37.5828 30.3768 37.9848 29.984 38.4536 29.984C38.9225 29.984 39.3245 30.3768 39.3245 30.835C39.2576 31.3588 38.9225 31.6861 38.4536 31.6861ZM38.4536 28.3473C37.0464 28.3473 35.908 29.4602 35.908 30.835C35.908 32.2098 37.0464 33.3228 38.4536 33.3228C39.8602 33.3228 40.9993 32.2098 40.9993 30.835C40.9993 29.5257 39.8602 28.3473 38.4536 28.3473Z" fill="#be0b0b"/>
<path d="M31.6208 35.8749H33.295V37.5116H31.6208V35.8749Z" fill="#be0b0b"/>
<path d="M35.0369 35.8749H36.7117V37.5116H35.0369V35.8749Z" fill="#be0b0b"/>
<path d="M15.408 34.2388H17.0821V35.8755H15.408V34.2388Z" fill="#be0b0b"/>
<path d="M15.408 37.5781H17.0821V39.2147H15.408V37.5781Z" fill="#be0b0b"/>
<path d="M17.0818 35.8749H18.7566V37.5116H17.0818V35.8749Z" fill="#be0b0b"/>
<path d="M13.6677 35.8749H15.3419V37.5116H13.6677V35.8749Z" fill="#be0b0b"/>
<path d="M38.4526 35.8749H40.1275V37.5116H38.4526V35.8749Z" fill="#be0b0b"/>
</svg>
