<svg width="32" height="32" viewBox="0 0 32 32" fill="none" xmlns="http://www.w3.org/2000/svg">
<path d="M11.2082 30.1723L11.2605 23.3315C11.2605 22.9659 10.947 22.6526 10.5813 22.6526L6.7676 22.6004C6.50634 22.6004 6.29754 22.3915 6.24528 22.0782C6.24528 21.8171 6.45407 21.556 6.71554 21.556L8.02132 21.5038C8.28259 21.5038 8.49153 21.3471 8.59606 21.086C8.70074 20.8249 8.64832 20.5638 8.49153 20.3549C8.49153 20.3549 6.66328 18.2661 7.96906 15.7596C7.96906 15.7073 8.02132 15.7073 8.02132 15.6551C8.02132 15.6029 8.59606 14.0885 8.96179 12.3653C9.53631 9.85871 9.48405 8.23988 8.80505 7.40436C8.753 7.35214 8.70074 7.29992 8.64832 7.2477L1.4389 2.49568C1.33458 2.2868 1.23011 1.81682 1.33458 1.45128L21.1339 12.9397C21.1339 12.9919 21.0817 13.0441 21.0295 13.0963C20.9252 13.1486 20.6118 13.3574 19.4622 13.0963L13.7678 9.64982C13.4545 9.44094 13.0365 9.54539 12.8275 9.85871C12.7755 9.91092 11.9918 11.3209 11.5215 13.5141C11.1036 15.5507 10.8948 18.6317 12.3575 22.026L12.044 30.0156C12.044 30.2767 11.835 30.4856 11.5738 30.4856C11.4695 30.6423 11.2082 30.4334 11.2082 30.1723ZM18.9401 8.70986C20.5596 8.91875 22.0221 7.97878 22.5447 6.4644L30.6418 1.71238C30.6418 2.13014 30.5375 2.60012 30.1719 2.96566L23.276 7.2477C23.0668 7.35214 22.9625 7.56102 22.9625 7.7699L22.4399 18.6317L20.5069 21.1382C20.2983 21.5038 19.9327 21.6082 19.6192 21.5038L18.9922 21.2949L20.194 17.6917C20.2983 17.3262 20.1413 16.9606 19.7757 16.8562C19.41 16.7517 19.0444 16.9084 18.9401 17.2739L17.2159 22.2871C17.1637 22.3915 17.1637 22.496 17.2159 22.6004C18.5218 29.5457 18.4696 29.2323 18.4696 29.2846C18.5218 29.5979 18.3653 29.859 18.0518 29.9112C17.7905 29.9634 17.5817 29.8068 17.5294 29.5457C16.3799 23.4881 16.4322 23.8015 16.4322 23.7492C16.3799 23.5404 16.3799 23.3315 16.3799 23.1226L16.4845 21.1382C16.4845 20.8249 16.5889 20.5638 16.6935 20.3027C16.6935 20.3027 16.6412 20.4594 19.1487 15.0807C19.2009 14.9763 19.2009 14.8718 19.2009 14.7152L19.1487 14.4018C20.4548 14.7674 21.4473 14.7152 22.0221 14.1407C22.7012 13.5141 22.5969 12.6264 22.5447 12.5219C22.4921 12.313 22.3877 12.1564 22.2313 12.0519L17.4772 9.3365L18.9401 8.70986ZM19.41 3.38342C20.5069 3.38342 21.3952 4.27116 21.3952 5.42C21.3952 6.51662 20.5069 7.45658 19.41 7.45658C18.3131 7.45658 17.4249 6.56884 17.4249 5.42C17.3725 4.32338 18.3131 3.38342 19.41 3.38342ZM13.2457 12.8875C13.4545 12.2086 13.6635 11.6342 13.8725 11.2686L14.9172 11.8953L13.2457 12.8875ZM13.8204 21.8171C12.8275 19.5194 12.5142 17.1173 12.8798 14.7152C12.9844 14.6629 12.7755 14.7674 16.0665 12.783C16.1187 12.7308 16.171 12.7308 16.2234 12.6786L17.8427 13.6185C17.8427 13.723 17.8427 13.723 17.947 14.6629L15.5963 19.6761C15.3875 20.0938 15.2307 20.5638 15.2307 21.0338L15.022 23.0704C15.022 23.3837 15.022 23.7492 15.1262 24.0626C16.2757 30.1201 16.2234 29.8068 16.2234 29.859C16.2757 30.1723 16.4322 30.4334 16.6412 30.6423H13.4545C13.5068 30.4856 13.5068 30.3812 13.5068 30.2245L13.8204 22.0782C13.8725 21.9738 13.8725 21.8693 13.8204 21.8171ZM12.7232 2.0257C13.8204 2.0257 14.7084 2.91344 14.7084 4.06228C14.7084 5.1589 13.8204 6.09886 12.7232 6.09886C11.626 6.09886 10.7378 5.21112 10.7378 4.06228C10.7378 2.96566 11.626 2.0257 12.7232 2.0257ZM31.3209 30.6423H19.3057C19.7235 30.1723 19.8805 29.5457 19.7235 28.9712L18.5739 22.5482L19.2009 22.7571C20.0891 23.0182 21.0295 22.7048 21.5517 22.026L23.5895 19.3105C23.6938 19.2061 23.6938 19.0494 23.7459 18.945L24.2686 8.18766C31.3209 3.80118 30.9031 4.06228 30.9553 4.01006C32.5748 2.65234 31.7387 0.511318 31.6865 0.406879C31.53 0.041338 31.0601 -0.115322 30.7466 0.0935593L22.6491 4.84558C22.3877 3.22676 21.0295 2.0257 19.3579 2.0257C17.5294 2.0257 16.0144 3.54008 16.0144 5.36778C16.0144 6.41218 16.4845 7.35214 17.2682 7.97878L16.1187 8.5532L13.8204 7.19548C15.1262 6.7255 16.0665 5.47222 16.0665 4.01006C16.0665 2.18236 14.5515 0.667978 12.7232 0.667978C10.6335 0.667978 9.06626 2.60012 9.43199 4.68892L1.59584 0.145779C1.38664 0.041338 1.12563 0.041338 0.916842 0.145779C-0.389356 0.981298 -0.0236211 2.60012 0.342112 3.3312C0.394168 3.43564 0.446377 3.54008 0.550902 3.5923L7.8648 8.44876C8.02132 8.70986 8.28259 9.64982 7.70806 12.2086C7.39454 13.723 6.92454 15.0807 6.81981 15.2896C5.98428 16.9606 6.03628 18.6839 6.81981 20.2505H6.71554C5.72281 20.2505 4.88708 21.1382 4.93908 22.1304C4.93908 23.1226 5.77508 23.9059 6.7676 23.9059L9.90225 23.9581L9.84978 30.1201C9.84978 30.2767 9.84978 30.4856 9.90225 30.6423H0.707639C0.342112 30.6423 0.0285873 30.9556 0.0285873 31.3211C0.0285873 31.6867 0.342112 32 0.707639 32H31.3209C31.6865 32 32 31.6867 32 31.3211C32 30.9556 31.6865 30.6423 31.3209 30.6423Z" fill="white"/>
<path d="M29.3371 23.3316C29.3371 23.6971 29.0236 24.0104 28.658 24.0104C28.2924 24.0104 27.9789 23.6971 27.9789 23.3316C27.9789 22.966 28.2924 22.6527 28.658 22.6527C29.0236 22.6527 29.3371 22.966 29.3371 23.3316ZM26.6729 23.3316C26.6729 24.4282 27.5611 25.3159 28.658 25.3159C29.7554 25.3159 30.6431 24.4282 30.6431 23.3316C30.6431 22.2349 29.7554 21.3472 28.658 21.3472C27.5611 21.3472 26.6729 22.2349 26.6729 23.3316Z" fill="white"/>
<path d="M2.01434 12.0521C1.64881 12.0521 1.33529 11.7388 1.33529 11.3732C1.33529 11.0077 1.64881 10.6944 2.01434 10.6944C2.38028 10.6944 2.69354 11.0077 2.69354 11.3732C2.69354 11.7388 2.38028 12.0521 2.01434 12.0521ZM2.01434 9.38888C0.917553 9.38888 0.0292969 10.2766 0.0292969 11.3732C0.0292969 12.4699 0.917553 13.3576 2.01434 13.3576C3.11154 13.3576 3.99954 12.4699 3.99954 11.3732C4.0518 10.2766 3.11154 9.38888 2.01434 9.38888Z" fill="white"/>
<path d="M28.6572 12.0521H29.9633V13.3576H28.6572V12.0521Z" fill="white"/>
<path d="M28.6572 14.7156H29.9633V16.0211H28.6572V14.7156Z" fill="white"/>
<path d="M30.0146 13.3571H31.3207V14.6626H30.0146V13.3571Z" fill="white"/>
<path d="M27.3506 13.3571H28.6566V14.6626H27.3506V13.3571Z" fill="white"/>
<path d="M2.01367 24.6889H3.31987V25.9944H2.01367V24.6889Z" fill="white"/>
<path d="M2.01367 27.3525H3.31987V28.658H2.01367V27.3525Z" fill="white"/>
<path d="M3.37207 25.9947H4.67806V27.3002H3.37207V25.9947Z" fill="white"/>
<path d="M0.708008 25.9947H2.014V27.3002H0.708008V25.9947Z" fill="white"/>
<path d="M11.2082 30.1723L11.2605 23.3315C11.2605 22.9659 10.947 22.6526 10.5813 22.6526L6.7676 22.6004C6.50634 22.6004 6.29754 22.3915 6.24528 22.0782C6.24528 21.8171 6.45407 21.556 6.71554 21.556L8.02132 21.5038C8.28258 21.5038 8.49153 21.3471 8.59606 21.086C8.70074 20.8249 8.64832 20.5638 8.49153 20.3549C8.49153 20.3549 6.66328 18.2661 7.96906 15.7596C7.96906 15.7073 8.02132 15.7073 8.02132 15.6551C8.02132 15.6029 8.59606 14.0885 8.96179 12.3653C9.53631 9.85871 9.48405 8.23988 8.80505 7.40436C8.753 7.35214 8.70073 7.29992 8.64832 7.2477L1.4389 2.49568C1.33458 2.2868 1.23011 1.81682 1.33458 1.45128L21.1339 12.9397C21.1339 12.9919 21.0817 13.0441 21.0295 13.0963C20.9252 13.1486 20.6118 13.3574 19.4622 13.0963L13.7678 9.64982C13.4545 9.44094 13.0365 9.54539 12.8275 9.85871C12.7755 9.91093 11.9918 11.3209 11.5215 13.5141C11.1036 15.5507 10.8948 18.6317 12.3575 22.026L12.044 30.0156C12.044 30.2767 11.835 30.4856 11.5738 30.4856C11.4695 30.6423 11.2082 30.4334 11.2082 30.1723ZM18.9401 8.70986C20.5596 8.91874 22.0221 7.97878 22.5447 6.4644L30.6418 1.71238C30.6418 2.13014 30.5375 2.60012 30.1719 2.96566L23.276 7.2477C23.0668 7.35214 22.9625 7.56102 22.9625 7.7699L22.4399 18.6317L20.5069 21.1382C20.2983 21.5038 19.9327 21.6082 19.6192 21.5038L18.9922 21.2949L20.194 17.6917C20.2983 17.3262 20.1413 16.9606 19.7757 16.8562C19.41 16.7517 19.0444 16.9084 18.9401 17.2739L17.2159 22.2871C17.1637 22.3915 17.1637 22.496 17.2159 22.6004C18.5218 29.5457 18.4696 29.2323 18.4696 29.2846C18.5218 29.5979 18.3653 29.859 18.0518 29.9112C17.7905 29.9634 17.5817 29.8068 17.5294 29.5457C16.3799 23.4881 16.4322 23.8015 16.4322 23.7492C16.3799 23.5404 16.3799 23.3315 16.3799 23.1226L16.4845 21.1382C16.4845 20.8249 16.5889 20.5638 16.6935 20.3027C16.6935 20.3027 16.6412 20.4594 19.1487 15.0807C19.2009 14.9763 19.2009 14.8718 19.2009 14.7152L19.1487 14.4018C20.4548 14.7674 21.4473 14.7152 22.0221 14.1407C22.7012 13.5141 22.5969 12.6264 22.5447 12.5219C22.4921 12.313 22.3877 12.1564 22.2313 12.0519L17.4772 9.3365L18.9401 8.70986ZM19.41 3.38342C20.5069 3.38342 21.3952 4.27116 21.3952 5.42C21.3952 6.51662 20.5069 7.45658 19.41 7.45658C18.3131 7.45658 17.4249 6.56884 17.4249 5.42C17.3725 4.32338 18.3131 3.38342 19.41 3.38342ZM13.2457 12.8875C13.4545 12.2086 13.6635 11.6342 13.8725 11.2686L14.9172 11.8953L13.2457 12.8875ZM13.8204 21.8171C12.8275 19.5194 12.5142 17.1173 12.8798 14.7152C12.9844 14.6629 12.7755 14.7674 16.0665 12.783C16.1187 12.7308 16.171 12.7308 16.2234 12.6786L17.8427 13.6185C17.8427 13.723 17.8427 13.723 17.947 14.6629L15.5963 19.6761C15.3875 20.0938 15.2307 20.5638 15.2307 21.0338L15.022 23.0704C15.022 23.3837 15.022 23.7492 15.1262 24.0626C16.2757 30.1201 16.2234 29.8068 16.2234 29.859C16.2757 30.1723 16.4322 30.4334 16.6412 30.6423H13.4545C13.5068 30.4856 13.5068 30.3812 13.5068 30.2245L13.8204 22.0782C13.8725 21.9738 13.8725 21.8693 13.8204 21.8171ZM12.7232 2.0257C13.8204 2.0257 14.7084 2.91344 14.7084 4.06228C14.7084 5.1589 13.8204 6.09886 12.7232 6.09886C11.626 6.09886 10.7378 5.21112 10.7378 4.06228C10.7378 2.96566 11.626 2.0257 12.7232 2.0257ZM31.3209 30.6423H19.3057C19.7235 30.1723 19.8805 29.5457 19.7235 28.9712L18.5739 22.5482L19.2009 22.7571C20.0891 23.0182 21.0295 22.7048 21.5517 22.026L23.5895 19.3105C23.6938 19.2061 23.6938 19.0494 23.7459 18.945L24.2686 8.18766C31.3209 3.80118 30.9031 4.06228 30.9553 4.01006C32.5748 2.65234 31.7387 0.511319 31.6865 0.406879C31.53 0.0413392 31.0601 -0.115321 30.7466 0.0935593L22.6491 4.84558C22.3877 3.22676 21.0295 2.0257 19.3579 2.0257C17.5294 2.0257 16.0144 3.54008 16.0144 5.36778C16.0144 6.41218 16.4845 7.35214 17.2682 7.97878L16.1187 8.5532L13.8204 7.19548C15.1262 6.7255 16.0665 5.47222 16.0665 4.01006C16.0665 2.18236 14.5515 0.667978 12.7232 0.667978C10.6335 0.667978 9.06626 2.60012 9.43199 4.68892L1.59584 0.145779C1.38664 0.0413386 1.12563 0.0413386 0.916842 0.145779C-0.389356 0.981299 -0.0236211 2.60012 0.342112 3.3312C0.394168 3.43564 0.446377 3.54008 0.550902 3.5923L7.8648 8.44876C8.02132 8.70986 8.28259 9.64983 7.70806 12.2086C7.39454 13.723 6.92454 15.0807 6.81981 15.2896C5.98428 16.9606 6.03628 18.6839 6.81981 20.2505H6.71554C5.72281 20.2505 4.88708 21.1382 4.93908 22.1304C4.93908 23.1226 5.77508 23.9059 6.7676 23.9059L9.90225 23.9581L9.84978 30.1201C9.84978 30.2767 9.84979 30.4856 9.90225 30.6423H0.707639C0.342112 30.6423 0.0285873 30.9556 0.0285873 31.3211C0.0285873 31.6867 0.342112 32 0.707639 32H31.3209C31.6865 32 32 31.6867 32 31.3211C32 30.9556 31.6865 30.6423 31.3209 30.6423Z" fill="white"/>
<path d="M29.3371 23.3316C29.3371 23.6971 29.0236 24.0104 28.658 24.0104C28.2924 24.0104 27.9789 23.6971 27.9789 23.3316C27.9789 22.966 28.2924 22.6527 28.658 22.6527C29.0236 22.6527 29.3371 22.966 29.3371 23.3316ZM26.6729 23.3316C26.6729 24.4282 27.5611 25.3159 28.658 25.3159C29.7554 25.3159 30.6431 24.4282 30.6431 23.3316C30.6431 22.2349 29.7554 21.3472 28.658 21.3472C27.5611 21.3472 26.6729 22.2349 26.6729 23.3316Z" fill="white"/>
<path d="M2.01434 12.0521C1.64881 12.0521 1.33529 11.7388 1.33529 11.3732C1.33529 11.0077 1.64881 10.6944 2.01434 10.6944C2.38028 10.6944 2.69354 11.0077 2.69354 11.3732C2.69354 11.7388 2.38028 12.0521 2.01434 12.0521ZM2.01434 9.38888C0.917553 9.38888 0.0292969 10.2766 0.0292969 11.3732C0.0292969 12.4699 0.917553 13.3576 2.01434 13.3576C3.11154 13.3576 3.99954 12.4699 3.99954 11.3732C4.0518 10.2766 3.11154 9.38888 2.01434 9.38888Z" fill="white"/>
<path d="M28.6572 12.0521H29.9633V13.3576H28.6572V12.0521Z" fill="white"/>
<path d="M28.6572 14.7156H29.9633V16.0211H28.6572V14.7156Z" fill="white"/>
<path d="M30.0146 13.3571H31.3207V14.6626H30.0146V13.3571Z" fill="white"/>
<path d="M27.3506 13.3571H28.6566V14.6626H27.3506V13.3571Z" fill="white"/>
<path d="M2.01367 24.6889H3.31987V25.9944H2.01367V24.6889Z" fill="white"/>
<path d="M2.01367 27.3525H3.31987V28.658H2.01367V27.3525Z" fill="white"/>
<path d="M3.37207 25.9947H4.67806V27.3002H3.37207V25.9947Z" fill="white"/>
<path d="M0.708008 25.9947H2.014V27.3002H0.708008V25.9947Z" fill="white"/>
</svg>
