<svg width="41" height="40" viewBox="0 0 41 40" fill="none" xmlns="http://www.w3.org/2000/svg">
<path d="M3.87351 28.2852H12.0199C12.4873 28.2852 12.888 27.8925 12.888 27.4344C12.888 26.9763 12.4873 26.5836 12.0199 26.5836H3.1388C2.53744 25.0129 2.07009 23.3113 1.93675 21.6097H6.945C7.41235 21.6097 7.81303 21.217 7.81303 20.7589C7.81303 20.3008 7.41235 19.9081 6.945 19.9081H1.87008C1.87008 11.0075 8.41374 3.41573 17.1615 1.84502C11.0179 9.63309 11.4859 20.9552 18.8976 28.2197C22.5704 31.8193 27.3786 33.8481 32.4529 34.0444C29.3821 36.6623 25.5752 38.1021 21.5017 38.2984H19.6323C12.7546 37.9712 6.87832 33.979 3.87351 28.2852ZM40.1326 38.2984H28.7807C31.2515 37.2513 33.3883 35.746 35.2577 33.8481C35.5244 33.5863 35.5917 33.2591 35.391 32.9318C35.2577 32.6046 34.9237 32.4083 34.5897 32.4737C23.7058 33.1936 14.5574 24.6857 14.5574 14.1489C14.5574 9.37131 16.4268 4.85554 19.7656 1.3869C20.033 1.12512 20.0996 0.79789 19.899 0.470657C19.7656 0.143429 19.4316 -0.0529099 19.0982 0.0125351C8.21372 0.732441 -0.266699 9.82943 0.0666555 20.6935C0.0666555 20.8243 0.0666555 20.8898 0.0666555 21.0207C0.467341 28.9396 5.47559 35.4188 12.2199 38.2984H0.868036C0.400679 38.2984 0 38.6911 0 39.1492C0 39.6073 0.400679 40 0.868036 40C1.60274 40 35.9924 40 39.9993 40C40.4666 40 40.8666 39.6073 40.8666 39.1492C41.0006 38.6911 40.6 38.2984 40.1326 38.2984Z" fill="#be0b0b"/>
<path d="M26.1761 7.47337C26.5775 7.47337 26.8441 7.21159 26.9775 6.88436L27.3788 5.64089L27.7788 6.88436C27.9129 7.21159 28.2469 7.47337 28.5802 7.47337H29.9156L28.8476 8.25872C28.5802 8.45506 28.4469 8.84774 28.5136 9.17497L28.9142 10.4184L27.8462 9.63309C27.5788 9.43675 27.1115 9.43675 26.8441 9.63309L25.7761 10.4184L26.1761 9.17497C26.3101 8.84774 26.1761 8.45506 25.8421 8.25872L24.774 7.47337C24.8414 7.47337 26.1761 7.47337 26.1761 7.47337ZM21.7025 7.34248L24.374 9.24041L23.372 12.3818C23.2386 12.709 23.372 13.1017 23.706 13.2981C23.9727 13.4944 24.44 13.4944 24.7074 13.2981L27.3788 11.4001L30.049 13.2981C30.1836 13.429 30.383 13.429 30.5163 13.429C31.1183 13.429 31.5184 12.9054 31.3184 12.3164L30.317 9.17497L32.9878 7.27703C33.2551 7.0807 33.3884 6.68802 33.3211 6.36079C33.1878 6.03356 32.8538 5.77178 32.5204 5.77178H29.1816L28.1795 2.63037C28.0462 2.30314 27.7122 2.04136 27.3788 2.04136C26.9775 2.04136 26.7108 2.30314 26.5775 2.63037L25.5754 5.77178H22.2366C21.8359 5.77178 21.5692 6.03356 21.4352 6.36079C21.3019 6.75347 21.3685 7.0807 21.7025 7.34248Z" fill="#be0b0b"/>
<path d="M33.8554 20.9552L34.2554 19.7117L34.6567 20.9552C34.7901 21.2824 35.1241 21.5442 35.4581 21.5442H36.7935L35.7248 22.2641C35.4581 22.4604 35.3248 22.8531 35.3908 23.1803L35.7921 24.4238L34.7228 23.6385C34.4561 23.4421 33.9887 23.4421 33.722 23.6385L32.6533 24.4238L33.054 23.1803C33.1874 22.8531 33.054 22.4604 32.72 22.2641L31.6513 21.4787H32.9873C33.388 21.4787 33.722 21.2824 33.8554 20.9552ZM29.0478 19.8426C28.6465 19.8426 28.3798 20.1044 28.2464 20.4316C28.1124 20.7588 28.2464 21.1515 28.5798 21.3479L31.2513 23.2458L30.2492 26.3872C30.1159 26.7144 30.2492 27.1071 30.5832 27.3034C30.8499 27.4998 31.3179 27.4998 31.5853 27.3034L34.2554 25.4055L36.9269 27.3034C37.0602 27.4343 37.2609 27.4343 37.3942 27.4343C37.9949 27.4343 38.3963 26.9108 38.1956 26.3217L37.1942 23.1803L39.865 21.2824C40.1324 21.0861 40.2657 20.6934 40.199 20.3662C40.065 20.0389 39.731 19.7771 39.3976 19.7771H36.0588L35.0568 16.6357C34.9234 16.374 34.6568 16.1776 34.2554 16.1776C33.8554 16.1776 33.588 16.4394 33.4547 16.7666L32.4527 19.908L29.0478 19.8426Z" fill="#be0b0b"/>
<path d="M22.2347 19.1232C22.7021 19.1232 23.1028 19.5159 23.1028 19.974C23.1028 20.4321 22.7021 20.8248 22.2347 20.8248C21.7674 20.8248 21.3667 20.4321 21.3667 19.974C21.4334 19.5159 21.7674 19.1232 22.2347 19.1232ZM22.2347 22.4609C23.6368 22.4609 24.7722 21.3484 24.7722 19.974C24.7722 18.5996 23.6368 17.487 22.2347 17.487C20.8326 17.487 19.6973 18.5996 19.6973 19.974C19.6973 21.3484 20.8326 22.4609 22.2347 22.4609Z" fill="#be0b0b"/>
<path d="M38.4611 1.64859C38.9291 1.64859 39.3298 2.04126 39.3298 2.49938C39.3298 2.9575 38.9291 3.35018 38.4611 3.35018C37.9938 3.35018 37.5937 2.9575 37.5937 2.49938C37.5937 1.97582 37.9938 1.64859 38.4611 1.64859ZM38.4611 4.98633C39.8639 4.98633 40.9992 3.87375 40.9992 2.49938C40.9992 1.12502 39.8639 0.0124378 38.4611 0.0124378C37.0591 0.0124378 35.9243 1.12502 35.9243 2.49938C35.857 3.8083 37.0591 4.98633 38.4611 4.98633Z" fill="#be0b0b"/>
<path d="M14.6233 31.6231H16.2927V33.2593H14.6233V31.6231Z" fill="#be0b0b"/>
<path d="M36.7263 9.10995H38.3957V10.7461H36.7263V9.10995Z" fill="#be0b0b"/>
<path d="M36.7263 12.4478H38.3957V14.084H36.7263V12.4478Z" fill="#be0b0b"/>
<path d="M38.4626 10.8111H40.1327V12.4473H38.4626V10.8111Z" fill="#be0b0b"/>
<path d="M35.0564 10.8111H36.7265V12.4473H35.0564V10.8111Z" fill="#be0b0b"/>
<path d="M18.8984 34.1754H20.5679V35.8115H18.8984V34.1754Z" fill="#be0b0b"/>
<path d="M8.01172 12.1851L8.47974 13.8213L10.1485 13.3632L9.68113 11.727L8.01172 12.1851Z" fill="#be0b0b"/>
<path d="M4.61523 15.7908L6.22061 15.3418L6.67873 16.9151L5.07335 17.3647L4.61523 15.7908Z" fill="#be0b0b"/>
</svg>
