<svg width="32" height="32" viewBox="0 0 32 32" fill="none" xmlns="http://www.w3.org/2000/svg">
<path d="M15.9992 7.68663C17.8295 7.68663 19.3461 9.20297 19.3461 11.033C19.3461 12.8631 17.8295 14.3794 15.9992 14.3794C14.1695 14.3794 12.6529 12.8631 12.6529 11.033C12.6529 9.15068 14.1695 7.68663 15.9992 7.68663ZM15.9992 15.6343C18.5615 15.6343 20.6528 13.5428 20.6528 10.9807C20.6528 8.41865 18.5615 6.32715 15.9992 6.32715C13.4375 6.32715 11.3457 8.41865 11.3457 10.9807C11.3457 13.5428 13.4375 15.6343 15.9992 15.6343Z" fill="white"/>
<path d="M15.9996 10.3007C16.3656 10.3007 16.6793 10.6144 16.6793 10.9804C16.6793 11.3464 16.3656 11.6602 15.9996 11.6602C15.6337 11.6602 15.3199 11.3464 15.3199 10.9804C15.3199 10.6144 15.6337 10.3007 15.9996 10.3007ZM15.9996 12.9673C17.098 12.9673 17.9865 12.0785 17.9865 10.9804C17.9865 9.88238 17.098 8.99349 15.9996 8.99349C14.9017 8.99349 14.0127 9.88238 14.0127 10.9804C14.0127 12.0785 14.9017 12.9673 15.9996 12.9673Z" fill="white"/>
<path d="M11.2949 16.6276L10.824 17.0982C10.563 17.3596 10.1448 17.3596 9.88326 17.0982C9.62171 16.8367 9.62171 16.4184 9.88326 16.157L10.3536 15.6864C10.6674 16.0001 10.9811 16.3138 11.2949 16.6276ZM9.88326 5.80403C9.62171 5.5426 9.62171 5.1243 9.88326 4.86286C10.1448 4.60142 10.563 4.60142 10.824 4.86286L11.2949 5.33345C10.9289 5.59488 10.6152 5.90861 10.3536 6.27462L9.88326 5.80403ZM22.0141 10.9805C22.0141 14.2746 19.3475 16.9936 16.0006 16.9936C12.7065 16.9936 9.98767 14.3269 9.98767 10.9805C9.98767 7.68639 12.6543 4.96743 16.0006 4.96743C19.2947 5.01972 22.0141 7.68639 22.0141 10.9805ZM21.1772 4.86286C21.2817 4.75828 21.491 4.65371 21.6476 4.65371C22.0141 4.65371 22.3273 4.96743 22.3273 5.33345C22.3273 5.49031 22.2751 5.69946 22.1185 5.80403L21.6476 6.32691C21.3866 5.9609 21.0728 5.64717 20.7069 5.38573L21.1772 4.86286ZM22.1185 16.157C22.38 16.4184 22.38 16.8367 22.1185 17.0982C21.857 17.3596 21.4388 17.3596 21.1772 17.0982L20.7069 16.6276C21.0728 16.3661 21.3866 16.0524 21.6476 15.6864L22.1185 16.157ZM8.94199 18.0393C9.72611 18.8236 10.9811 18.8236 11.7652 18.0393L12.4449 17.3596C14.6412 18.6145 17.3605 18.6145 19.609 17.3596L20.2882 18.0393C21.0728 18.8236 22.3273 18.8236 23.112 18.0393C23.8966 17.255 23.8966 16.0001 23.112 15.2158L22.4323 14.5361C23.6867 12.34 23.6867 9.62103 22.4323 7.37266L23.112 6.69292C23.8966 5.90861 23.8966 4.65371 23.112 3.86939C22.3273 3.08508 21.0728 3.08508 20.2882 3.86939L19.609 4.54913C17.4128 3.29423 14.6934 3.29423 12.4449 4.54913L11.7652 3.86939C10.9811 3.08508 9.72611 3.08508 8.94199 3.86939C8.15736 4.65371 8.15736 5.90861 8.94199 6.69292L9.62171 7.37266C8.3667 9.56874 8.3667 12.2877 9.62171 14.5361L8.94199 15.2158C8.15736 16.0001 8.15736 17.255 8.94199 18.0393Z" fill="white"/>
<path d="M9.35999 22.0128C10.0919 22.0128 10.6672 22.588 10.6672 23.32C10.6672 24.0521 10.0919 24.6272 9.35999 24.6272C8.62807 24.6272 8.05278 24.0521 8.05278 23.32C8.00057 22.588 8.62807 22.0128 9.35999 22.0128ZM9.35999 25.9867C10.8238 25.9867 12.0266 24.7841 12.0266 23.32C12.0266 21.856 10.8238 20.6534 9.35999 20.6534C7.89564 20.6534 6.69336 21.856 6.69336 23.32C6.69336 24.7841 7.84344 25.9867 9.35999 25.9867Z" fill="white"/>
<path d="M23.9997 23.32C23.9997 24.0521 23.4238 24.6272 22.6919 24.6272C21.96 24.6272 21.3852 24.0521 21.3852 23.32C21.3852 22.588 21.96 22.0128 22.6919 22.0128C23.4238 22.0128 23.9997 22.588 23.9997 23.32ZM19.9736 23.32C19.9736 24.7841 21.1759 25.9867 22.6402 25.9867C24.1041 25.9867 25.3064 24.7841 25.3064 23.32C25.3064 21.856 24.1041 20.6534 22.6402 20.6534C21.1759 20.6534 19.9736 21.856 19.9736 23.32Z" fill="white"/>
<path d="M22.0132 30.6405V29.3333H24.6793V30.6405H22.0132ZM7.32017 30.6405V29.3333H9.9868V30.6405H7.32017ZM20.6533 29.3333V30.6405H11.3462V29.3333H20.6533ZM4.65302 1.35948H27.2943V28.0261C25.1502 28.0261 7.84274 28.0261 4.65302 28.0261V1.35948ZM31.3203 30.6405H25.9865V29.3333H27.9734C28.3394 29.3333 28.6537 29.0196 28.6537 28.6536V0.679739C28.6537 0.313725 28.3394 0 27.9734 0H4.02604C3.66009 0 3.34633 0.313725 3.34633 0.679739V28.6536C3.34633 29.0196 3.66009 29.3333 4.02604 29.3333H6.01296V30.6405H0.679197C0.313241 30.6405 0 30.9542 0 31.3203C0 31.6863 0.313241 32 0.679197 32C1.35942 32 31.2676 32 31.3203 32C31.6863 32 32 31.6863 32 31.3203C32 30.9542 31.6863 30.6405 31.3203 30.6405Z" fill="white"/>
<path d="M1.98687 26.6668C2.35283 26.6668 2.66657 26.3531 2.66657 25.9871V14.0132C2.66657 13.6472 2.35283 13.3335 1.98687 13.3335C1.6204 13.3335 1.30664 13.6472 1.30664 14.0132V25.9871C1.35936 26.3531 1.6204 26.6668 1.98687 26.6668Z" fill="white"/>
<path d="M1.36035 9.98737H2.66756V11.2946H1.36035V9.98737Z" fill="white"/>
<path d="M1.36035 6.69232H2.66756V7.99951H1.36035V6.69232Z" fill="white"/>
<path d="M1.36035 3.34674H2.66756V4.65393H1.36035V3.34674Z" fill="white"/>
<path d="M30.0132 16.6798C30.3797 16.6798 30.6934 16.3661 30.6934 16.0001V4.02621C30.6934 3.6602 30.3797 3.34648 30.0132 3.34648C29.6472 3.34648 29.334 3.6602 29.334 4.02621V16.0001C29.334 16.3661 29.6472 16.6798 30.0132 16.6798Z" fill="white"/>
<path d="M29.334 25.3076H30.6407V26.6147H29.334V25.3076Z" fill="white"/>
<path d="M29.334 22.0132H30.6407V23.3204H29.334V22.0132Z" fill="white"/>
<path d="M29.334 18.6669H30.6407V19.9741H29.334V18.6669Z" fill="white"/>
</svg>
