<svg width="45" height="44" viewBox="0 0 45 44" fill="none" xmlns="http://www.w3.org/2000/svg">
<path d="M22.5009 13.7321C24.0447 13.7321 25.2949 14.9543 25.2949 16.4641C25.2949 17.9739 24.0447 19.1961 22.5009 19.1961C20.957 19.1961 19.7068 17.9739 19.7068 16.4641C19.7068 14.9543 20.957 13.7321 22.5009 13.7321ZM22.5009 21.0654C25.0747 21.0654 27.2066 18.9805 27.2066 16.4641C27.2066 13.9478 25.0747 11.8628 22.5009 11.8628C19.9271 11.8628 17.7952 13.9478 17.7952 16.4641C17.7952 19.0524 19.9271 21.0654 22.5009 21.0654Z" fill="#be0b0b"/>
<path d="M22.5008 10.9995C23.0154 10.9995 23.4566 10.5681 23.4566 10.0649V8.26749C23.4566 7.76422 23.0154 7.33285 22.5008 7.33285C21.9861 7.33285 21.5449 7.76422 21.5449 8.26749V10.0649C21.5449 10.5681 21.9861 10.9995 22.5008 10.9995Z" fill="#be0b0b"/>
<path d="M22.5008 21.9998C21.9861 21.9998 21.5449 22.4312 21.5449 22.9345V24.7319C21.5449 25.2351 21.9861 25.6665 22.5008 25.6665C23.0154 25.6665 23.4566 25.2351 23.4566 24.7319V22.9345C23.4566 22.4312 23.0154 21.9998 22.5008 21.9998Z" fill="#be0b0b"/>
<path d="M27.7938 12.5815L29.1174 11.2873C29.4852 10.9279 29.4852 10.3527 29.1174 9.99323C28.7496 9.63375 28.1616 9.63375 27.7938 9.99323L26.4709 11.2873C26.1031 11.6468 26.1031 12.222 26.4709 12.5815C26.838 12.9409 27.4267 12.9409 27.7938 12.5815Z" fill="#be0b0b"/>
<path d="M18.5295 20.418C18.1617 20.0586 17.5737 20.0586 17.2059 20.418L15.883 21.7122C15.5152 22.0716 15.5152 22.6468 15.883 23.0063C16.2508 23.3657 16.8388 23.3657 17.2059 23.0063L18.5295 21.7122C18.8973 21.3527 18.8973 20.7775 18.5295 20.418Z" fill="#be0b0b"/>
<path d="M28.0879 16.5356C28.0879 17.0388 28.5291 17.4702 29.0437 17.4702H30.9554C31.47 17.4702 31.9112 17.0388 31.9112 16.5356C31.9112 16.0323 31.47 15.6009 30.9554 15.6009H29.1171C28.5291 15.6009 28.0879 16.0323 28.0879 16.5356Z" fill="#be0b0b"/>
<path d="M16.9117 16.5356C16.9117 16.0323 16.4705 15.6009 15.9558 15.6009H14.0442C13.5288 15.6009 13.0876 16.0323 13.0876 16.5356C13.0876 17.0388 13.5288 17.4702 14.0442 17.4702H15.8824C16.4705 17.3983 16.9117 17.0388 16.9117 16.5356Z" fill="#be0b0b"/>
<path d="M27.7938 20.418C27.4267 20.0586 26.838 20.0586 26.4709 20.418C26.1031 20.7775 26.1031 21.3527 26.4709 21.7122L27.7938 23.0063C28.1616 23.3657 28.7496 23.3657 29.1174 23.0063C29.4852 22.6468 29.4852 22.0716 29.1174 21.7122L27.7938 20.418Z" fill="#be0b0b"/>
<path d="M17.2059 12.5815C17.5737 12.9409 18.1617 12.9409 18.5295 12.5815C18.8973 12.222 18.8973 11.6468 18.5295 11.2873L17.2059 9.99323C16.8388 9.63375 16.2508 9.63375 15.883 9.99323C15.5152 10.3527 15.5152 10.9279 15.883 11.2873L17.2059 12.5815Z" fill="#be0b0b"/>
<path d="M39.3386 18.3335C39.8532 18.3335 40.2944 17.9021 40.2944 17.3989V4.60147C40.2944 4.0982 39.854 3.66683 39.3386 3.66683C38.824 3.66683 38.3828 4.0982 38.3828 4.60147V17.3989C38.4562 17.9021 38.824 18.3335 39.3386 18.3335Z" fill="#be0b0b"/>
<path d="M4.70703 16.536V29.3334C4.70703 29.8367 5.1475 30.2681 5.66285 30.2681C6.17747 30.2681 6.61867 29.8367 6.61867 29.3334V16.536C6.61867 16.0328 6.17747 15.6014 5.66285 15.6014C5.1475 15.6014 4.70703 16.0328 4.70703 16.536Z" fill="#be0b0b"/>
<path d="M41.2499 34.7967C41.7645 34.7967 42.2057 35.2281 42.2057 35.7314C42.2057 36.2346 41.7645 36.666 41.2499 36.666C40.7352 36.666 40.2933 36.2346 40.2933 35.7314C40.2933 35.2281 40.7352 34.7967 41.2499 34.7967ZM41.2499 38.4634C42.7937 38.4634 44.0432 37.2412 44.0432 35.7314C44.0432 34.2215 42.7937 32.9993 41.2499 32.9993C39.7053 32.9993 38.4551 34.2215 38.4551 35.7314C38.4551 37.2412 39.7053 38.4634 41.2499 38.4634Z" fill="#be0b0b"/>
<path d="M2.79405 4.60091C3.30867 4.60091 3.74988 5.03228 3.74988 5.53555C3.74988 6.03882 3.30867 6.47019 2.79405 6.47019C2.27943 6.47019 1.83823 6.03882 1.83823 5.53555C1.91164 5.03228 2.27943 4.60091 2.79405 4.60091ZM2.79405 8.26758C4.33863 8.26758 5.58884 7.04536 5.58884 5.53555C5.58884 4.02575 4.33863 2.80353 2.79405 2.80353C1.2502 2.80353 0 4.02575 0 5.53555C0 7.04536 1.2502 8.26758 2.79405 8.26758Z" fill="#be0b0b"/>
<path d="M6.54492 34.7978H8.38243V36.5952H6.54492V34.7978Z" fill="#be0b0b"/>
<path d="M6.54492 38.4638H8.38243V40.2612H6.54492V38.4638Z" fill="#be0b0b"/>
<path d="M8.45532 36.666H10.2943V38.4634H8.45532V36.666Z" fill="#be0b0b"/>
<path d="M4.70703 36.666H6.54526V38.4634H4.70703V36.666Z" fill="#be0b0b"/>
<path d="M40.293 21.0649H42.1312V22.8623H40.293V21.0649Z" fill="#be0b0b"/>
<path d="M40.293 24.7319H42.1312V26.5293H40.293V24.7319Z" fill="#be0b0b"/>
<path d="M42.2073 22.935H44.0448V24.7324H42.2073V22.935Z" fill="#be0b0b"/>
<path d="M38.4551 22.935H40.2933V24.7324H38.4551V22.935Z" fill="#be0b0b"/>
<path d="M29.9998 42.1307V33H31.838V42.1307H29.9998ZM20.6618 35.732H18.8235V33H28.1615V42.1307H23.1614C23.9704 41.4837 24.4116 40.4771 24.4116 39.3987C24.3382 37.3856 22.7202 35.732 20.6618 35.732ZM18.7501 37.6013H20.6618C21.691 37.6013 22.5 38.3922 22.5 39.3987C22.5 40.4052 21.691 41.1961 20.6618 41.1961C19.6325 41.1961 18.8235 40.4052 18.8235 39.3987V37.6013H18.7501ZM10.2945 30.9869V6.39869H25.2941C25.8087 6.39869 26.2499 5.96732 26.2499 5.46405C26.2499 4.96078 25.8087 4.52941 25.2941 4.52941H10.2945V1.94117C10.2945 1.86928 10.3679 1.79738 10.4414 1.79738H34.4852C34.5586 1.79738 34.632 1.86928 34.632 1.94117V26.5294H19.7059C19.1913 26.5294 18.7501 26.9608 18.7501 27.4641C18.7501 27.9673 19.1913 28.3987 19.7059 28.3987H34.7055V30.9869C34.7055 31.0588 34.632 31.1307 34.5586 31.1307C33.7496 31.1307 10.8092 31.1307 10.5148 31.1307C10.3679 31.1307 10.2945 31.0588 10.2945 30.9869ZM44.0435 42.1307H33.7496V33H34.5586C35.662 33 36.6178 32.1373 36.6178 30.9869V2.01307C36.6178 0.934639 35.7354 -3.8147e-06 34.5586 -3.8147e-06H10.4414C9.33799 -3.8147e-06 8.38217 0.862743 8.38217 2.01307V30.9869C8.38217 32.0654 9.26457 33 10.4414 33H16.8385V35.732H14.0444C13.5291 35.732 13.0879 36.1634 13.0879 36.6667V40.3333C13.0879 40.8366 13.5291 41.268 14.0444 41.268C14.559 41.268 15.0002 40.8366 15.0002 40.3333V37.6013H16.8385V39.3987C16.8385 40.4771 17.3531 41.4837 18.0879 42.1307H0.956544C0.441926 42.1307 0 42.5621 0 43.0654C0 43.5686 0.441926 44 0.956544 44C9.19116 44 35.2201 44 44.0435 44C44.5588 44 45 43.5686 45 43.0654C45 42.5621 44.5588 42.1307 44.0435 42.1307Z" fill="#be0b0b"/>
</svg>
