<svg width="33" height="32" viewBox="0 0 33 32" fill="none" xmlns="http://www.w3.org/2000/svg">
<path d="M20.5929 19.0181C20.5929 19.3921 20.2684 19.7126 19.8905 19.7126C19.5126 19.7126 19.1886 19.3921 19.1886 19.0181C19.1886 18.6442 19.5126 18.3237 19.8905 18.3237C20.3229 18.3771 20.5929 18.6442 20.5929 19.0181ZM9.19975 18.11C9.36148 17.7895 9.7394 17.5758 10.1178 17.736C10.4418 17.8963 10.6575 18.2702 10.4957 18.6442C10.3335 18.9647 9.95556 19.1784 9.57766 19.0181C9.19975 18.8579 9.03749 18.4305 9.19975 18.11ZM24.6426 16.1334C27.1262 16.8813 27.9898 17.7895 27.9898 18.3771C27.9898 18.9647 27.1262 19.8195 24.6426 20.6208C19.6749 22.17 11.5216 22.17 6.55389 20.6208C4.07029 19.8729 3.20613 18.9647 3.20613 18.3771C3.20613 17.7895 4.07029 16.9347 6.55389 16.1334C6.98571 16.0266 7.36361 15.8663 7.84987 15.7594L8.44341 16.8279C8.22777 17.0416 8.0116 17.2552 7.90378 17.5758C7.47197 18.5908 7.95769 19.8195 8.98359 20.2468C10.0095 20.6742 11.2515 20.1934 11.6834 19.1784C11.8995 18.6976 11.8995 18.11 11.6834 17.6292C11.3594 16.7745 10.4957 16.3471 9.68548 16.3471C9.63157 16.2937 9.68547 16.2937 9.25366 15.4923C13.2494 14.7979 18.2166 14.7979 22.1585 15.5458L20.8086 17.2018C20.5385 17.095 20.215 16.9881 19.945 16.9881C18.8107 16.9881 17.8932 17.8963 17.8932 19.0181C17.8932 20.14 18.8107 21.0481 19.945 21.0481C21.0787 21.0481 21.9967 20.14 21.9967 19.0181C21.9967 18.6976 21.9423 18.4305 21.7806 18.1634C21.8345 18.11 21.7267 18.2168 23.6701 15.8663C23.9946 15.9197 24.3181 16.0266 24.6426 16.1334ZM24.6426 27.4053C23.7779 27.6724 22.8065 27.8861 21.7267 28.0997L27.9898 20.8879V25.1616C27.9898 25.7492 27.1262 26.6574 24.6426 27.4053ZM16.4349 23.1316C19.297 23.0781 22.6442 22.7042 25.3984 21.796L20.4307 27.5655L16.4349 23.1316ZM8.49732 27.8861L14.815 23.3453L19.3503 28.3668C15.8948 28.7408 11.8451 28.5805 8.49732 27.8861ZM3.20613 25.1616V21.7426L6.22989 27.2984C4.01584 26.5505 3.20613 25.6958 3.20613 25.1616ZM4.556 21.2618C6.93179 22.3303 10.2796 22.8645 12.9254 23.0247L7.57978 26.871L4.556 21.2618ZM32.7414 3.52601C32.4719 3.31232 31.9851 3.36574 31.7694 3.63285L23.1305 14.3171C18.7029 13.3555 12.9793 13.3555 8.55177 14.2102L1.26215 0.908371C1.10042 0.587843 0.668072 0.481001 0.344611 0.641266C0.0206167 0.801529 -0.0877405 1.2289 0.0745238 1.54943L7.20187 14.4773C5.09618 15.0116 1.85623 16.1868 1.85623 18.3237C1.85623 19.3921 1.85623 24.0931 1.85623 25.1082C1.85623 26.5505 3.36838 27.7792 6.17598 28.6339C14.3292 31.1982 29.3936 29.6489 29.3936 25.1082V18.3771C29.3936 16.4005 26.586 15.2787 24.6426 14.691L32.8498 4.48759C33.0654 4.16706 33.0654 3.73969 32.7414 3.52601Z" fill="white"/>
<path d="M24.0488 30.6111H6.87865C6.50075 30.6111 6.17676 30.9316 6.17676 31.3055C6.17676 31.6795 6.50075 32 6.87865 32H24.1032C24.4811 32 24.8046 31.6795 24.8046 31.3055C24.7512 30.9316 24.4267 30.6111 24.0488 30.6111Z" fill="white"/>
<path d="M30.2584 12.9283C29.8805 12.9283 29.5565 12.6077 29.5565 12.2338C29.5565 11.8598 29.8805 11.5393 30.2584 11.5393C30.6363 11.5393 30.9597 11.8598 30.9597 12.2338C30.9597 12.6077 30.6363 12.9283 30.2584 12.9283ZM30.2584 10.2038C29.1241 10.2038 28.2061 11.1119 28.2061 12.2338C28.2061 13.3556 29.1241 14.2638 30.2584 14.2638C31.3921 14.2638 32.3102 13.3556 32.3102 12.2338C32.3102 11.1119 31.3921 10.2038 30.2584 10.2038Z" fill="white"/>
<path d="M8.22854 2.67091C8.60645 2.67091 8.93045 2.99143 8.93045 3.36538C8.93045 3.73933 8.60645 4.05986 8.22854 4.05986C7.85064 4.05986 7.52665 3.73933 7.52665 3.36538C7.52665 2.99143 7.85064 2.67091 8.22854 2.67091ZM8.22854 5.39539C9.36226 5.39539 10.2803 4.48723 10.2803 3.36538C10.2803 2.24354 9.36226 1.33538 8.22854 1.33538C7.09483 1.33538 6.17676 2.24354 6.17676 3.36538C6.17676 4.48723 7.09483 5.39539 8.22854 5.39539Z" fill="white"/>
<path d="M21.9981 6.78468C22.376 6.78468 22.7 7.1052 22.7 7.47915C22.7 7.8531 22.376 8.17363 21.9981 8.17363C21.6196 8.17363 21.2956 7.8531 21.2956 7.47915C21.2956 7.1052 21.6196 6.78468 21.9981 6.78468ZM21.9981 9.50916C23.1318 9.50916 24.0493 8.601 24.0493 7.47915C24.0493 6.35731 23.1318 5.44915 21.9981 5.44915C20.8638 5.44915 19.9463 6.35731 19.9463 7.47915C19.9463 8.601 20.8638 9.50916 21.9981 9.50916Z" fill="white"/>
<path d="M13.0342 6.78459H14.3841V8.12012H13.0342V6.78459Z" fill="white"/>
<path d="M13.0342 9.50944H14.3841V10.845H13.0342V9.50944Z" fill="white"/>
<path d="M14.4375 8.1204H15.7874V9.45593H14.4375V8.1204Z" fill="white"/>
<path d="M11.6836 8.1204H13.0335V9.45593H11.6836V8.1204Z" fill="white"/>
<path d="M26.1016 4.25577e-05H27.4515V1.33557H26.1016V4.25577e-05Z" fill="white"/>
<path d="M26.1016 2.67155H27.4515V4.00708H26.1016V2.67155Z" fill="white"/>
<path d="M27.5049 1.33586H28.8542V2.67139H27.5049V1.33586Z" fill="white"/>
<path d="M24.751 1.33586H26.1003V2.67139H24.751V1.33586Z" fill="white"/>
<path d="M20.5929 19.0181C20.5929 19.3921 20.2684 19.7126 19.8905 19.7126C19.5126 19.7126 19.1886 19.3921 19.1886 19.0181C19.1886 18.6442 19.5126 18.3237 19.8905 18.3237C20.3229 18.3771 20.5929 18.6442 20.5929 19.0181ZM9.19975 18.11C9.36148 17.7895 9.7394 17.5758 10.1178 17.736C10.4418 17.8963 10.6575 18.2702 10.4957 18.6442C10.3335 18.9647 9.95556 19.1784 9.57766 19.0181C9.19975 18.8579 9.03749 18.4305 9.19975 18.11ZM24.6426 16.1334C27.1262 16.8813 27.9898 17.7895 27.9898 18.3771C27.9898 18.9647 27.1262 19.8195 24.6426 20.6208C19.6749 22.17 11.5216 22.17 6.55389 20.6208C4.07029 19.8729 3.20613 18.9647 3.20613 18.3771C3.20613 17.7895 4.07029 16.9347 6.55389 16.1334C6.98571 16.0266 7.36361 15.8663 7.84987 15.7594L8.44341 16.8279C8.22777 17.0416 8.0116 17.2552 7.90378 17.5758C7.47197 18.5908 7.95769 19.8195 8.98359 20.2468C10.0095 20.6742 11.2515 20.1934 11.6834 19.1784C11.8995 18.6976 11.8995 18.11 11.6834 17.6292C11.3594 16.7745 10.4957 16.3471 9.68548 16.3471C9.63157 16.2937 9.68547 16.2937 9.25366 15.4923C13.2494 14.7979 18.2166 14.7979 22.1585 15.5458L20.8086 17.2018C20.5385 17.095 20.215 16.9881 19.945 16.9881C18.8107 16.9881 17.8932 17.8963 17.8932 19.0181C17.8932 20.14 18.8107 21.0481 19.945 21.0481C21.0787 21.0481 21.9967 20.14 21.9967 19.0181C21.9967 18.6976 21.9423 18.4305 21.7806 18.1634C21.8345 18.11 21.7267 18.2168 23.6701 15.8663C23.9946 15.9197 24.3181 16.0266 24.6426 16.1334ZM24.6426 27.4053C23.7779 27.6724 22.8065 27.8861 21.7267 28.0997L27.9898 20.8879V25.1616C27.9898 25.7492 27.1262 26.6574 24.6426 27.4053ZM16.4349 23.1316C19.297 23.0781 22.6442 22.7042 25.3984 21.796L20.4307 27.5655L16.4349 23.1316ZM8.49732 27.8861L14.815 23.3453L19.3503 28.3668C15.8948 28.7408 11.8451 28.5805 8.49732 27.8861ZM3.20613 25.1616V21.7426L6.22989 27.2984C4.01584 26.5505 3.20613 25.6958 3.20613 25.1616ZM4.556 21.2618C6.93179 22.3303 10.2796 22.8645 12.9254 23.0247L7.57978 26.871L4.556 21.2618ZM32.7414 3.52601C32.4719 3.31232 31.9851 3.36574 31.7694 3.63285L23.1305 14.3171C18.7029 13.3555 12.9793 13.3555 8.55177 14.2102L1.26215 0.908371C1.10042 0.587843 0.668072 0.481001 0.344611 0.641266C0.0206167 0.801529 -0.0877405 1.2289 0.0745238 1.54943L7.20187 14.4773C5.09618 15.0116 1.85623 16.1868 1.85623 18.3237C1.85623 19.3921 1.85623 24.0931 1.85623 25.1082C1.85623 26.5505 3.36838 27.7792 6.17598 28.6339C14.3292 31.1982 29.3936 29.6489 29.3936 25.1082V18.3771C29.3936 16.4005 26.586 15.2787 24.6426 14.691L32.8498 4.48759C33.0654 4.16706 33.0654 3.73969 32.7414 3.52601Z" fill="white"/>
<path d="M24.0488 30.6111H6.87865C6.50075 30.6111 6.17676 30.9316 6.17676 31.3055C6.17676 31.6795 6.50075 32 6.87865 32H24.1032C24.4811 32 24.8046 31.6795 24.8046 31.3055C24.7512 30.9316 24.4267 30.6111 24.0488 30.6111Z" fill="white"/>
<path d="M30.2584 12.9283C29.8805 12.9283 29.5565 12.6077 29.5565 12.2338C29.5565 11.8598 29.8805 11.5393 30.2584 11.5393C30.6363 11.5393 30.9597 11.8598 30.9597 12.2338C30.9597 12.6077 30.6363 12.9283 30.2584 12.9283ZM30.2584 10.2038C29.1241 10.2038 28.2061 11.1119 28.2061 12.2338C28.2061 13.3556 29.1241 14.2638 30.2584 14.2638C31.3921 14.2638 32.3102 13.3556 32.3102 12.2338C32.3102 11.1119 31.3921 10.2038 30.2584 10.2038Z" fill="white"/>
<path d="M8.22854 2.67091C8.60645 2.67091 8.93045 2.99143 8.93045 3.36538C8.93045 3.73933 8.60645 4.05986 8.22854 4.05986C7.85064 4.05986 7.52665 3.73933 7.52665 3.36538C7.52665 2.99143 7.85064 2.67091 8.22854 2.67091ZM8.22854 5.39539C9.36226 5.39539 10.2803 4.48723 10.2803 3.36538C10.2803 2.24354 9.36226 1.33538 8.22854 1.33538C7.09483 1.33538 6.17676 2.24354 6.17676 3.36538C6.17676 4.48723 7.09483 5.39539 8.22854 5.39539Z" fill="white"/>
<path d="M21.9981 6.78468C22.376 6.78468 22.7 7.1052 22.7 7.47915C22.7 7.8531 22.376 8.17363 21.9981 8.17363C21.6196 8.17363 21.2956 7.8531 21.2956 7.47915C21.2956 7.1052 21.6196 6.78468 21.9981 6.78468ZM21.9981 9.50916C23.1318 9.50916 24.0493 8.601 24.0493 7.47915C24.0493 6.35731 23.1318 5.44915 21.9981 5.44915C20.8638 5.44915 19.9463 6.35731 19.9463 7.47915C19.9463 8.601 20.8638 9.50916 21.9981 9.50916Z" fill="white"/>
<path d="M13.0342 6.78459H14.3841V8.12012H13.0342V6.78459Z" fill="white"/>
<path d="M13.0342 9.50944H14.3841V10.845H13.0342V9.50944Z" fill="white"/>
<path d="M14.4375 8.1204H15.7874V9.45593H14.4375V8.1204Z" fill="white"/>
<path d="M11.6836 8.1204H13.0335V9.45593H11.6836V8.1204Z" fill="white"/>
<path d="M26.1016 4.25577e-05H27.4515V1.33557H26.1016V4.25577e-05Z" fill="white"/>
<path d="M26.1016 2.67155H27.4515V4.00708H26.1016V2.67155Z" fill="white"/>
<path d="M27.5049 1.33586H28.8542V2.67139H27.5049V1.33586Z" fill="white"/>
<path d="M24.751 1.33586H26.1003V2.67139H24.751V1.33586Z" fill="white"/>
</svg>
