<svg width="40" height="40" viewBox="0 0 40 40" fill="none" xmlns="http://www.w3.org/2000/svg">
<path d="M1.69647 6.65579C1.69647 5.74225 2.41441 5.02447 3.3278 5.02447H25.5788C25.1879 5.61174 24.9266 6.32952 24.9266 7.11256V13.3768H1.69647C1.69647 12.398 1.69647 7.37357 1.69647 6.65579ZM30.7992 1.69658V3.98042C30.4083 3.71941 29.9509 3.52365 29.4942 3.4584C29.3633 3.39315 29.2988 3.39315 29.1678 3.39315H3.3278C2.74081 3.39315 2.15316 3.52365 1.69647 3.84992V1.76183H30.7992V1.69658ZM31.5823 34.1272C31.1256 34.1272 30.734 34.5188 30.734 34.9755V38.3034H7.5045V15.0082H25.7749C26.2316 15.0082 26.6225 14.6166 26.6225 14.1599V7.04731C26.6225 5.87276 27.5365 4.95922 28.7112 4.95922C29.8858 4.95922 30.7992 5.87276 30.7992 7.04731C30.7992 9.72268 30.7992 13.6378 30.7992 16.6395C30.7992 17.0962 31.1907 17.4878 31.6474 17.4878C32.1041 17.4878 32.4957 17.0962 32.4957 16.6395C32.4957 12.9853 32.4957 4.11093 32.4957 0.848286C32.4957 0.391518 32.1041 0 31.6474 0H0.848234C0.391539 0 0 0.391518 0 0.848286C0 1.43556 0 13.5726 0 14.1599C0 14.6166 0.391539 15.0082 0.848234 15.0082H5.80737V39.1517C5.80737 39.6085 6.19891 40 6.6556 40H31.5823C32.039 40 32.4305 39.6085 32.4305 39.1517V34.9755C32.4305 34.4535 32.039 34.1272 31.5823 34.1272Z" fill="#be0b0b"/>
<path d="M3.33017 22.4469C2.87347 22.4469 2.48193 22.8384 2.48193 23.2952V34.1272C2.48193 34.5839 2.87347 34.9755 3.33017 34.9755C3.78686 34.9755 4.17906 34.5839 4.17906 34.1272V23.2952C4.17906 22.8384 3.78686 22.4469 3.33017 22.4469Z" fill="#be0b0b"/>
<path d="M7.50148 8.35242H18.3331C18.7898 8.35242 19.1814 7.9609 19.1814 7.50413C19.1814 7.04736 18.7898 6.65584 18.3331 6.65584H7.50148C7.04479 6.65584 6.65259 7.04736 6.65259 7.50413C6.65259 7.9609 7.04479 8.35242 7.50148 8.35242Z" fill="#be0b0b"/>
<path d="M25.7758 20.8151H12.464V19.1838H25.7758V20.8151ZM27.4723 18.3355C27.4723 17.8787 27.0808 17.4872 26.6234 17.4872H11.6809C11.2242 17.4872 10.8333 17.8787 10.8333 18.3355V21.5981C10.8333 22.0549 11.2242 22.4464 11.6809 22.4464H26.6234C27.0808 22.4464 27.4723 22.0549 27.4723 21.5981V18.3355Z" fill="#be0b0b"/>
<path d="M13.3128 27.4707C12.8562 27.4707 12.464 27.0792 12.464 26.6224C12.464 26.1657 12.8562 25.7742 13.3128 25.7742C13.7695 25.7742 14.1604 26.1657 14.1604 26.6224C14.1604 27.0792 13.7695 27.4707 13.3128 27.4707ZM13.3128 24.1428C11.9428 24.1428 10.8333 25.2521 10.8333 26.6224C10.8333 27.9928 11.9428 29.1021 13.3128 29.1021C14.6829 29.1021 15.7918 27.9928 15.7918 26.6224C15.7918 25.2521 14.6829 24.1428 13.3128 24.1428Z" fill="#be0b0b"/>
<path d="M19.1182 27.4707C18.6615 27.4707 18.2693 27.0792 18.2693 26.6224C18.2693 26.1657 18.6615 25.7742 19.1182 25.7742C19.5749 25.7742 19.9665 26.1657 19.9665 26.6224C19.9665 27.0792 19.5749 27.4707 19.1182 27.4707ZM19.1182 24.1428C17.7482 24.1428 16.6387 25.2521 16.6387 26.6224C16.6387 27.9928 17.7482 29.1021 19.1182 29.1021C20.4883 29.1021 21.5972 27.9928 21.5972 26.6224C21.5972 25.2521 20.4883 24.1428 19.1182 24.1428Z" fill="#be0b0b"/>
<path d="M24.9234 27.4707C24.4667 27.4707 24.0752 27.0792 24.0752 26.6224C24.0752 26.1657 24.4667 25.7742 24.9234 25.7742C25.3801 25.7742 25.7717 26.1657 25.7717 26.6224C25.7717 27.0792 25.3801 27.4707 24.9234 27.4707ZM24.9234 24.1428C23.5533 24.1428 22.4438 25.2521 22.4438 26.6224C22.4438 27.9928 23.5533 29.1021 24.9234 29.1021C26.2941 29.1021 27.403 27.9928 27.403 26.6224C27.4682 25.2521 26.3586 24.1428 24.9234 24.1428Z" fill="#be0b0b"/>
<path d="M13.3128 34.1269C12.8562 34.1269 12.464 33.7353 12.464 33.2786C12.464 32.8218 12.8562 32.4303 13.3128 32.4303C13.7695 32.4303 14.1604 32.8218 14.1604 33.2786C14.1604 33.7353 13.7695 34.1269 13.3128 34.1269ZM13.3128 30.799C11.9428 30.799 10.8333 31.9083 10.8333 33.2786C10.8333 34.6489 11.9428 35.7582 13.3128 35.7582C14.6829 35.7582 15.7918 34.6489 15.7918 33.2786C15.7918 31.9083 14.6829 30.799 13.3128 30.799Z" fill="#be0b0b"/>
<path d="M19.1182 34.1269C18.6615 34.1269 18.2693 33.7353 18.2693 33.2786C18.2693 32.8218 18.6615 32.4303 19.1182 32.4303C19.5749 32.4303 19.9665 32.8218 19.9665 33.2786C19.9665 33.7353 19.5749 34.1269 19.1182 34.1269ZM19.1182 30.799C17.7482 30.799 16.6387 31.9083 16.6387 33.2786C16.6387 34.6489 17.7482 35.7582 19.1182 35.7582C20.4883 35.7582 21.5972 34.6489 21.5972 33.2786C21.5972 31.9083 20.4883 30.799 19.1182 30.799Z" fill="#be0b0b"/>
<path d="M24.9234 34.1269C24.4667 34.1269 24.0752 33.7353 24.0752 33.2786C24.0752 32.8218 24.4667 32.4303 24.9234 32.4303C25.3801 32.4303 25.7717 32.8218 25.7717 33.2786C25.7717 33.7353 25.3801 34.1269 24.9234 34.1269ZM24.9234 30.799C23.5533 30.799 22.4438 31.9083 22.4438 33.2786C22.4438 34.6489 23.5533 35.7582 24.9234 35.7582C26.2941 35.7582 27.403 34.6489 27.403 33.2786C27.4682 31.9083 26.3586 30.799 24.9234 30.799Z" fill="#be0b0b"/>
<path d="M38.2408 25.774C37.6538 25.774 31.1284 25.774 29.9545 25.774V24.9257H38.2408V25.774ZM36.6094 30.2111C36.6094 30.5374 36.3488 30.7332 36.0876 30.7332H32.1721C31.8464 30.7332 31.6503 30.4722 31.6503 30.2111V27.4705H36.6094V30.2111ZM32.6946 22.5113C32.6946 22.5113 32.8249 22.3808 33.1513 22.4461C33.2165 22.4461 33.2816 22.4461 33.2816 22.4461C33.2816 22.7071 33.3468 23.0333 33.4771 23.2943H32.4334C32.4334 23.0333 32.5637 22.6418 32.6946 22.5113ZM35.3696 23.2943C35.1735 22.9681 35.0432 22.6418 34.9787 22.4461H35.0432C35.3696 22.3808 35.4999 22.5113 35.4999 22.5113C35.6309 22.6418 35.7618 23.0333 35.7618 23.2943H35.3696ZM39.0896 23.2943H37.4577C37.3925 21.7283 36.4791 20.619 34.9129 20.8147H33.3468C31.7812 20.619 30.8678 21.7283 30.802 23.2943H29.1056C28.6489 23.2943 28.2573 23.6859 28.2573 24.1426V26.6222C28.2573 27.079 28.6489 27.4705 29.1056 27.4705H29.9545V30.2764C29.9545 31.5162 30.9323 32.495 32.1721 32.495H36.0876C37.3273 32.495 38.3066 31.5162 38.3066 30.2764V27.4705H39.1541C39.6108 27.4705 40.003 27.079 40.003 26.6222V24.1426C39.9372 23.6859 39.5463 23.2943 39.0896 23.2943Z" fill="#be0b0b"/>
<path d="M35.7612 10.8316H37.3919V12.4629H35.7612V10.8316Z" fill="#be0b0b"/>
<path d="M35.7612 14.1585H37.3919V15.7898H35.7612V14.1585Z" fill="#be0b0b"/>
<path d="M37.4519 12.4638H39.0839V14.0951H37.4519V12.4638Z" fill="#be0b0b"/>
<path d="M34.1287 12.4638H35.7606V14.0951H34.1287V12.4638Z" fill="#be0b0b"/>
</svg>
