<svg width="16" height="16" viewBox="0 0 16 16" fill="none" xmlns="http://www.w3.org/2000/svg">
<g id="uiw:time-o" clip-path="url(#clip0_278_5538)">
<path id="Vector" d="M8 0C12.4184 0 16 3.5816 16 8C16 12.4184 12.4184 16 8 16C3.5816 16 0 12.4184 0 8C0 3.5816 3.5816 0 8 0ZM8 1.116C6.17425 1.116 4.42328 1.84128 3.13228 3.13228C1.84128 4.42328 1.116 6.17425 1.116 8C1.116 9.82575 1.84128 11.5767 3.13228 12.8677C4.42328 14.1587 6.17425 14.884 8 14.884C9.82575 14.884 11.5767 14.1587 12.8677 12.8677C14.1587 11.5767 14.884 9.82575 14.884 8C14.884 6.17425 14.1587 4.42328 12.8677 3.13228C11.5767 1.84128 9.82575 1.116 8 1.116ZM7.256 4.4648C7.564 4.4648 7.8136 4.7152 7.8136 5.0232V8.9304H11.7208C11.8651 8.93587 12.0017 8.99705 12.1019 9.1011C12.2021 9.20514 12.2581 9.34396 12.2581 9.4884C12.2581 9.63284 12.2021 9.77166 12.1019 9.8757C12.0017 9.97975 11.8651 10.0409 11.7208 10.0464H7.256C7.10803 10.046 6.96625 9.98701 6.86162 9.88238C6.75699 9.77775 6.69802 9.63597 6.6976 9.488V5.024C6.6976 4.7152 6.9472 4.4648 7.256 4.4648Z" fill="#01020E"/>
</g>
<defs>
<clipPath id="clip0_278_5538">
<rect width="16" height="16" fill="white"/>
</clipPath>
</defs>
</svg>
