<svg width="16" height="16" viewBox="0 0 16 16" fill="none" xmlns="http://www.w3.org/2000/svg">
<g id="Group 1000009792">
<path id="Vector" d="M7.8 15.8C3.48706 15.8 0 12.3129 0 7.99995C0 3.68701 3.48706 0.199951 7.8 0.199951C12.1129 0.199951 15.6 3.68701 15.6 7.99995C15.6 12.3129 12.0671 15.8 7.8 15.8ZM7.8 1.1176C3.99176 1.1176 0.917647 4.19172 0.917647 7.99995C0.917647 11.8082 3.99176 14.8823 7.8 14.8823C11.6082 14.8823 14.6824 11.8082 14.6824 7.99995C14.6824 4.19172 11.5624 1.1176 7.8 1.1176Z" fill="#01020E"/>
<path id="Vector_2" d="M3.88016 13.9196L3.16016 13.5996C3.36016 13.1196 4.00016 12.8396 4.68016 12.5196C5.36016 12.1996 6.20016 11.8396 6.20016 11.3996V10.7996C5.96016 10.5996 5.56016 10.1596 5.48016 9.51956C5.28016 9.31956 4.96016 8.95956 4.96016 8.47956C4.96016 8.19956 5.08016 7.95956 5.16016 7.79956C5.08016 7.47956 5.00016 6.87956 5.00016 6.39956C5.00016 4.83956 6.08016 3.79956 7.80016 3.79956C8.28016 3.79956 8.88016 3.91956 9.20016 4.27956C9.96016 4.43956 10.6002 5.31956 10.6002 6.39956C10.6002 7.07956 10.4802 7.63956 10.4002 7.91956C10.4802 8.03956 10.5602 8.23956 10.5602 8.47956C10.5602 8.99956 10.2802 9.35956 10.0402 9.51956C9.96016 10.1596 9.60016 10.5596 9.36016 10.7596V11.3996C9.36016 11.7596 10.0802 12.0396 10.7202 12.2796C11.4802 12.5596 12.2802 12.8796 12.5602 13.5196L11.8002 13.7996C11.6802 13.4796 11.0402 13.2396 10.4402 13.0396C9.56016 12.7196 8.56016 12.3596 8.56016 11.4396V10.3996L8.76016 10.2796C8.76016 10.2796 9.24016 9.95956 9.24016 9.31956V9.03956L9.48016 8.91956C9.52016 8.91956 9.72016 8.79956 9.72016 8.47956C9.72016 8.39956 9.64016 8.27956 9.60016 8.23956L9.44016 8.07956L9.52016 7.87956C9.52016 7.87956 9.72016 7.23956 9.72016 6.43956C9.72016 5.67956 9.28016 5.11956 8.92016 5.11956H8.68016L8.56016 4.91956C8.56016 4.75956 8.28016 4.59956 7.80016 4.59956C6.56016 4.59956 5.80016 5.27956 5.80016 6.39956C5.80016 6.91956 6.00016 7.79956 6.00016 7.79956L6.04016 7.99956L5.88016 8.19956C5.84016 8.19956 5.76016 8.31956 5.76016 8.47956C5.76016 8.67956 6.00016 8.91956 6.12016 8.99956L6.28016 9.11956V9.31956C6.28016 9.91956 6.80016 10.2396 6.80016 10.2796L7.00016 10.3996V11.4396C7.00016 12.3996 5.96016 12.8796 5.00016 13.2796C4.56016 13.4396 3.96016 13.7196 3.88016 13.9196Z" fill="#01020E"/>
</g>
</svg>
