<svg width="16" height="17" viewBox="0 0 16 17" fill="none" xmlns="http://www.w3.org/2000/svg">
<path d="M8 0.667969C7.17591 0.667969 6.37033 0.912339 5.68512 1.37018C4.99992 1.82802 4.46587 2.47876 4.1505 3.24012C3.83514 4.00148 3.75262 4.83926 3.91339 5.64751C4.07417 6.45577 4.471 7.19819 5.05372 7.78091C5.63644 8.36363 6.37887 8.76047 7.18712 8.92124C7.99538 9.08201 8.83315 8.9995 9.59451 8.68413C10.3559 8.36877 11.0066 7.83472 11.4645 7.14951C11.9223 6.46431 12.1667 5.65872 12.1667 4.83464C12.1667 3.72957 11.7277 2.66976 10.9463 1.88836C10.1649 1.10696 9.10507 0.667969 8 0.667969ZM8 7.33464C7.50555 7.33464 7.0222 7.18801 6.61107 6.91331C6.19995 6.63861 5.87952 6.24816 5.6903 5.79134C5.50108 5.33453 5.45157 4.83186 5.54804 4.34691C5.6445 3.86196 5.8826 3.4165 6.23223 3.06687C6.58186 2.71724 7.02732 2.47914 7.51227 2.38267C7.99723 2.28621 8.49989 2.33572 8.95671 2.52494C9.41352 2.71416 9.80397 3.03459 10.0787 3.44571C10.3534 3.85683 10.5 4.34018 10.5 4.83464C10.5 5.49768 10.2366 6.13356 9.76777 6.6024C9.29893 7.07124 8.66304 7.33464 8 7.33464ZM15.5 16.5013V15.668C15.5 14.1209 14.8854 12.6371 13.7915 11.5432C12.6975 10.4492 11.2138 9.83463 9.66667 9.83463H6.33333C4.78624 9.83463 3.30251 10.4492 2.20854 11.5432C1.11458 12.6371 0.5 14.1209 0.5 15.668V16.5013H2.16667V15.668C2.16667 14.5629 2.60565 13.5031 3.38705 12.7217C4.16846 11.9403 5.22826 11.5013 6.33333 11.5013H9.66667C10.7717 11.5013 11.8315 11.9403 12.6129 12.7217C13.3943 13.5031 13.8333 14.5629 13.8333 15.668V16.5013H15.5Z" fill="#15213D"/>
</svg>
