<svg width="16" height="10" viewBox="0 0 16 10" fill="none" xmlns="http://www.w3.org/2000/svg">
<path d="M7.32742 6.86957C7.99755 6.42344 8.50632 5.77349 8.77849 5.01585C9.05066 4.25821 9.07178 3.43309 8.83874 2.66251C8.6057 1.89193 8.13086 1.2168 7.48444 0.736961C6.83802 0.257122 6.05435 -0.00195312 5.2493 -0.00195312C4.44425 -0.00195312 3.66057 0.257122 3.01416 0.736961C2.36774 1.2168 1.8929 1.89193 1.65986 2.66251C1.42681 3.43309 1.44794 4.25821 1.72011 5.01585C1.99228 5.77349 2.50105 6.42344 3.17117 6.86957C1.95898 7.31634 0.92374 8.14309 0.219924 9.22644C0.182933 9.28142 0.15724 9.3432 0.144337 9.4082C0.131434 9.47319 0.131578 9.5401 0.144762 9.60504C0.157946 9.66998 0.183905 9.73165 0.221133 9.78646C0.25836 9.84128 0.306112 9.88815 0.361613 9.92435C0.417114 9.96055 0.479256 9.98536 0.544429 9.99733C0.609601 10.0093 0.676503 10.0082 0.741246 9.99409C0.805989 9.97998 0.867281 9.95314 0.92156 9.91513C0.975839 9.87712 1.02202 9.82871 1.05742 9.77269C1.51142 9.07443 2.13265 8.50064 2.8647 8.10343C3.59675 7.70622 4.41643 7.49816 5.2493 7.49816C6.08217 7.49816 6.90185 7.70622 7.6339 8.10343C8.36595 8.50064 8.98718 9.07443 9.44117 9.77269C9.51451 9.88169 9.62779 9.95744 9.75654 9.98358C9.88528 10.0097 10.0191 9.98414 10.1292 9.91237C10.2392 9.8406 10.3166 9.72841 10.3445 9.60006C10.3725 9.4717 10.3489 9.33749 10.2787 9.22644C9.57486 8.14309 8.53962 7.31634 7.32742 6.86957ZM2.4993 3.74957C2.4993 3.20567 2.66058 2.67399 2.96276 2.22175C3.26493 1.76952 3.69442 1.41704 4.19692 1.2089C4.69942 1.00076 5.25235 0.9463 5.7858 1.05241C6.31924 1.15852 6.80925 1.42043 7.19384 1.80502C7.57844 2.18962 7.84035 2.67962 7.94646 3.21307C8.05257 3.74652 7.99811 4.29945 7.78997 4.80195C7.58183 5.30444 7.22935 5.73394 6.77712 6.03611C6.32488 6.33828 5.7932 6.49957 5.2493 6.49957C4.52021 6.49874 3.82121 6.20874 3.30567 5.6932C2.79012 5.17765 2.50013 4.47866 2.4993 3.74957ZM15.633 9.91832C15.522 9.99074 15.3867 10.0161 15.257 9.98878C15.1272 9.96147 15.0136 9.88374 14.9412 9.77269C14.4877 9.07402 13.8666 8.49998 13.1344 8.10293C12.4022 7.70588 11.5822 7.49845 10.7493 7.49957C10.6167 7.49957 10.4895 7.44689 10.3957 7.35312C10.302 7.25935 10.2493 7.13218 10.2493 6.99957C10.2493 6.86696 10.302 6.73978 10.3957 6.64601C10.4895 6.55225 10.6167 6.49957 10.7493 6.49957C11.1543 6.49919 11.5542 6.40936 11.9204 6.23651C12.2867 6.06367 12.6102 5.81206 12.8679 5.49968C13.1257 5.18729 13.3112 4.82184 13.4113 4.42943C13.5115 4.03702 13.5237 3.62734 13.4471 3.22966C13.3705 2.83198 13.2071 2.45613 12.9684 2.12894C12.7298 1.80176 12.4218 1.53132 12.0665 1.33696C11.7112 1.1426 11.3174 1.02912 10.9131 1.00461C10.5089 0.980102 10.1042 1.04518 9.72805 1.19519C9.66672 1.22171 9.60069 1.23566 9.53387 1.23622C9.46706 1.23679 9.4008 1.22395 9.33903 1.19848C9.27726 1.17301 9.22122 1.13541 9.17422 1.08791C9.12722 1.04041 9.09023 0.983977 9.06541 0.921937C9.04059 0.859897 9.02846 0.793512 9.02974 0.726705C9.03101 0.659898 9.04566 0.594024 9.07283 0.532976C9.09999 0.471927 9.13912 0.416943 9.18789 0.371271C9.23667 0.3256 9.2941 0.290168 9.3568 0.267068C10.2177 -0.0762747 11.1753 -0.0886302 12.0448 0.232385C12.9142 0.553401 13.634 1.18504 14.0653 2.00545C14.4966 2.82587 14.6087 3.77692 14.3801 4.67514C14.1515 5.57336 13.5984 6.35511 12.8274 6.86957C14.0396 7.31634 15.0749 8.14309 15.7787 9.22644C15.8511 9.33751 15.8764 9.47279 15.8491 9.60254C15.8218 9.73228 15.7441 9.84587 15.633 9.91832Z" fill="#DF6D3B"/>
</svg>
