<svg width="1101" height="804" viewBox="0 0 1101 804" fill="none" xmlns="http://www.w3.org/2000/svg">
<g opacity="0.05">
<path d="M-615.818 1147.98C-696.993 987.604 -718.647 890.235 -682.016 850.31C-632.833 796.697 -487.734 855.081 -347.417 911.54C-221.362 962.263 -102.305 1010.17 -67.1111 970.288C-42.6139 942.523 -61.2477 874.09 -124.078 761.078C-193.851 635.593 -216.599 563.719 -193.623 541.351C-162.757 511.294 -54.466 575.348 50.2565 637.297C149.303 695.89 242.859 751.222 267.229 726.544C286.443 707.085 259.851 638.597 185.933 517.169C106.76 387.102 79.084 312.127 101.324 287.962C128.259 258.697 221.788 305.487 320.808 355.023C421.195 405.241 524.992 457.169 556.337 425.683C577.157 404.765 564.391 349.381 517.313 256.37L518.204 255.918C565.504 349.363 578.209 405.126 557.047 426.388C552.923 430.531 547.583 433.265 541.203 434.776C498.289 444.931 408.028 399.773 320.36 355.918C272.851 332.151 223.723 307.574 184.513 293.248C140.855 277.294 113.885 275.789 102.061 288.638C80.162 312.432 107.876 387.014 186.787 516.647C260.978 638.527 287.524 707.414 267.942 727.246C265.326 729.893 261.954 731.652 257.897 732.612C223.265 740.805 138.715 690.788 49.7475 638.157C-54.6514 576.401 -162.604 512.547 -192.926 542.066C-215.534 564.077 -192.726 635.557 -123.205 760.593C-60.1424 874.019 -41.5485 942.827 -66.3627 970.95C-72.0641 977.413 -79.9158 981.615 -89.586 983.903C-140.387 995.927 -241.611 955.192 -347.791 912.468C-487.791 856.134 -632.562 797.877 -681.279 850.986C-717.595 890.567 -695.891 987.568 -614.925 1147.53L-615.818 1147.98Z" fill="#884B1C"/>
<path d="M-633.773 1148.95C-711.956 991.42 -731.967 895.045 -694.953 854.312C-644.885 799.206 -499.768 854.68 -359.43 908.321C-233.366 956.509 -114.293 1002.02 -78.5094 961.015C-53.789 932.681 -71.2834 865.017 -131.997 754.154C-199.562 630.792 -221.076 559.716 -197.772 536.858C-166.336 506.024 -58.5901 567.796 45.6059 627.525C144.173 684.025 237.282 737.397 262.085 712.04C281.567 692.138 256.137 624.502 184.342 505.262C107.498 377.638 81.0716 303.594 103.555 278.898C130.93 248.829 224.24 293.698 323.028 341.205C423.136 389.345 526.65 439.124 558.576 406.799C579.675 385.435 567.868 330.595 522.479 239.146L523.374 238.701C568.976 330.581 580.724 385.795 559.286 407.502C554.89 411.954 549.17 414.886 542.334 416.505C498.75 426.821 409.399 383.849 322.596 342.106C275.196 319.313 226.184 295.744 187.005 282.254C143.379 267.234 116.326 266.358 104.294 279.571C82.1485 303.895 108.613 377.551 185.199 504.745C257.261 624.43 282.645 692.466 262.801 712.74C260.015 715.587 256.401 717.476 252.056 718.504C216.844 726.842 133.154 678.862 45.1081 628.392C-58.7675 568.848 -166.173 507.28 -197.071 537.572C-220.012 560.072 -198.441 630.758 -131.121 753.672C-70.1817 864.948 -52.7253 932.985 -77.7568 961.672C-83.8353 968.637 -92.2605 973.154 -102.659 975.615C-154.252 987.826 -254.588 949.467 -359.787 909.257C-499.812 855.733 -644.602 800.389 -694.213 854.984C-730.919 895.376 -710.856 991.387 -632.877 1148.5L-633.773 1148.95Z" fill="#DC223B"/>
<path d="M-651.833 1150.28C-727.059 995.549 -745.451 900.135 -708.06 858.589C-657.084 801.948 -511.868 854.516 -371.434 905.352C-245.299 951.013 -126.157 994.142 -89.7738 951.972C-64.8421 923.071 -81.2164 856.162 -139.836 747.424C-205.215 626.146 -225.507 555.839 -201.87 532.485C-169.871 500.863 -62.6076 560.353 41.1257 617.888C139.254 672.315 231.945 723.724 257.203 697.686C276.945 677.333 252.664 610.521 182.967 493.434C108.427 368.213 83.236 295.079 105.954 269.848C133.786 238.936 226.922 281.909 325.526 327.398C425.404 373.473 528.685 421.114 561.2 387.929C582.576 366.115 571.717 311.8 528.001 221.886L528.902 221.448C572.824 311.79 583.622 366.476 561.913 388.629C528.907 422.319 425.3 374.526 325.106 328.305C226.844 282.975 134.034 240.159 106.697 270.516C84.3114 295.379 109.54 368.128 183.826 492.922C253.786 610.452 278.023 677.659 257.923 698.382C254.951 701.446 251.082 703.472 246.423 704.576C210.628 713.051 127.775 667.09 40.6408 618.763C-62.7678 561.407 -169.697 502.098 -201.167 533.197C-224.445 556.195 -204.095 626.115 -138.956 746.948C-80.1166 856.097 -63.7812 923.374 -89.0166 952.624C-95.4954 960.133 -104.538 964.986 -115.719 967.632C-168.099 980.028 -267.551 944.021 -371.773 906.293C-511.897 855.566 -656.79 803.108 -707.317 859.259C-744.405 900.468 -725.961 995.519 -650.934 1149.84L-651.833 1150.28Z" fill="#E24120"/>
<path d="M-670.016 1151.93C-742.318 999.964 -759.113 905.499 -721.359 863.138C-669.456 804.906 -524.061 854.581 -383.451 902.62C-257.166 945.765 -137.884 986.518 -100.885 943.142C-75.7504 913.676 -91.0189 847.51 -147.566 740.861C-210.788 621.628 -229.873 552.07 -205.909 528.212C-173.333 495.769 -66.498 553.015 36.814 608.375C134.56 660.754 226.879 710.231 252.59 683.476C272.59 662.666 249.44 596.663 181.816 481.696C109.552 358.839 85.5787 286.589 108.526 260.816C136.824 229.041 229.838 270.121 328.316 313.608C428.013 357.634 531.106 403.155 564.232 369.08C585.878 346.812 575.961 293.009 533.899 204.602L534.801 204.172C577.068 293 586.923 347.172 564.949 369.777C559.943 374.926 553.385 378.298 545.525 380.157C500.606 390.787 413.028 352.108 327.912 314.522C229.778 271.187 137.088 230.248 109.273 261.481C86.6522 286.888 110.662 358.755 182.679 481.189C250.56 596.595 273.665 662.992 253.311 684.171C250.145 687.465 246.003 689.641 241.007 690.823C204.624 699.437 122.588 655.474 36.3429 609.256C-66.6485 554.07 -173.143 497 -205.204 528.92C-228.815 552.427 -209.672 621.599 -146.684 740.393C-89.9217 847.445 -74.6926 913.978 -100.125 943.793C-107.03 951.889 -116.742 957.102 -128.766 959.948C-181.933 972.531 -280.514 938.845 -383.775 903.567C-524.075 855.632 -669.149 806.068 -720.612 863.803C-758.069 905.831 -741.223 999.938 -669.113 1151.5L-670.016 1151.93Z" fill="#D1696C"/>
<path d="M-688.33 1153.94C-757.741 1004.69 -772.957 911.145 -734.847 867.969C-681.996 808.099 -536.342 854.887 -395.481 900.137C-268.979 940.775 -149.493 979.156 -111.869 934.543C-86.5404 904.512 -100.72 839.069 -155.221 734.477C-216.307 617.251 -234.194 548.42 -209.903 524.049C-176.723 490.753 -70.2728 545.78 32.6726 598.988C130.078 649.334 222.081 696.886 248.244 669.407C268.497 648.13 246.466 582.915 180.889 470.031C110.874 349.5 88.1005 278.113 111.27 251.793C140.021 219.126 232.974 258.323 331.378 299.823C430.945 341.811 533.899 385.235 567.653 350.236C589.574 327.507 580.582 274.201 540.156 187.278L541.062 186.857C581.678 274.2 590.618 327.868 568.372 350.931C563.032 356.467 556.002 360.082 547.576 362.077C501.995 372.867 415.286 336.293 330.989 300.744C232.926 259.388 140.301 220.33 112.021 252.454C89.1698 278.411 111.981 349.416 181.754 469.529C247.583 582.85 269.57 648.454 248.969 670.096C245.592 673.643 241.16 675.978 235.801 677.246C198.826 685.994 117.588 644.004 32.2131 599.878C-70.4114 546.833 -176.532 491.984 -209.195 524.756C-233.138 548.777 -215.192 617.227 -154.335 734.015C-99.6262 839.006 -85.4847 904.811 -111.104 935.189C-118.466 943.918 -128.891 949.52 -141.827 952.581C-195.773 965.345 -293.489 933.951 -395.787 901.091C-536.343 855.937 -681.68 809.254 -734.097 868.63C-771.916 911.477 -756.648 1004.66 -687.423 1153.52L-688.33 1153.94Z" fill="#D570BF"/>
<path d="M-706.774 1156.29C-773.329 1009.72 -786.989 917.082 -748.533 873.091C-694.717 811.522 -548.713 855.434 -407.516 897.896C-280.723 936.028 -160.964 972.042 -122.702 926.153C-97.1922 895.556 -110.304 830.828 -162.781 728.271C-221.758 613.018 -238.463 544.893 -213.85 520.003C-180.069 485.843 -73.9542 538.651 28.6702 589.72C125.792 638.053 217.533 683.704 244.152 655.463C264.658 633.715 243.731 569.263 180.178 458.421C112.389 340.186 90.8017 269.649 114.184 242.777C143.414 209.185 236.346 246.512 334.732 286.032C434.22 325.996 537.096 367.324 571.482 331.381C593.677 308.188 585.594 255.366 546.785 169.896L547.701 169.483C586.69 255.367 594.708 308.551 572.206 332.073C537.357 368.502 434.157 327.048 334.359 286.96C236.312 247.576 143.697 210.375 114.938 243.434C91.8691 269.944 113.493 340.104 181.046 457.925C244.847 569.198 265.728 634.038 244.88 656.149C241.28 659.968 236.531 662.475 230.785 663.836C193.215 672.725 112.755 632.683 28.2257 590.616C-74.0821 539.704 -179.87 487.064 -213.138 520.706C-237.408 545.25 -220.646 612.996 -161.892 727.814C-109.209 830.768 -96.1391 895.855 -121.934 926.793C-160.619 973.187 -280.685 937.083 -407.803 898.855C-548.698 856.483 -694.39 812.665 -747.781 873.749C-785.95 917.412 -772.239 1009.7 -705.863 1155.88L-706.774 1156.29Z" fill="#D52866"/>
<path d="M-725.35 1158.99C-789.078 1015.05 -801.202 923.301 -762.412 878.499C-707.597 815.193 -561.169 856.222 -419.561 895.9C-292.414 931.528 -172.317 965.179 -133.406 917.976C-107.725 886.819 -119.782 822.792 -170.266 722.234C-227.156 608.917 -242.69 541.477 -217.758 516.061C-183.355 480.993 -77.5191 531.617 24.8376 580.569C121.722 626.905 213.231 670.677 240.338 641.646C261.088 619.419 241.255 555.712 179.706 446.886C114.107 330.906 93.6859 261.195 117.273 233.767C146.986 199.217 239.946 234.685 338.364 272.238C437.828 310.189 540.676 349.432 575.706 312.518C598.162 288.86 590.986 236.51 553.776 152.475L554.694 152.068C592.083 236.515 599.194 289.224 576.436 313.206C570.352 319.611 562.281 323.766 552.589 326.06C505.695 337.159 420.689 304.72 338.008 273.172C239.926 235.749 147.282 200.402 118.032 234.419C94.7527 261.487 115.211 330.826 180.576 446.394C242.37 555.65 262.158 619.741 241.07 642.329C237.229 646.441 232.142 649.132 225.975 650.591C187.811 659.623 108.108 621.502 24.407 581.471C-77.6343 532.67 -183.148 482.212 -217.043 516.761C-241.638 541.834 -226.047 608.898 -169.372 721.784C-118.691 822.734 -106.675 887.118 -132.635 918.612C-140.994 928.753 -153.026 935.217 -168.003 938.76C-223.477 951.888 -319.458 924.989 -419.832 896.864C-561.14 857.266 -707.261 816.32 -761.656 879.154C-800.166 923.632 -787.992 1015.04 -724.435 1158.59L-725.35 1158.99Z" fill="#E13AA6"/>
<path d="M-744.098 1162.04C-805.035 1020.69 -815.642 929.813 -776.525 884.205C-720.691 819.099 -573.747 857.25 -431.643 894.145C-304.062 927.27 -183.558 958.556 -143.985 909.999C-118.144 878.289 -129.164 814.953 -177.674 716.369C-232.497 604.957 -246.871 538.186 -221.621 512.237C-186.602 476.242 -80.979 524.684 21.1634 571.532C117.863 615.881 209.201 657.769 236.78 627.938C257.773 605.225 239.017 542.244 179.442 435.395C116.016 321.642 96.7473 252.742 120.53 224.759C150.74 189.219 243.784 222.836 342.291 258.427C441.775 294.372 544.651 331.538 580.339 293.626C603.049 269.503 596.776 217.609 561.146 134.983L562.066 134.586C597.86 217.62 604.08 269.866 581.063 294.313C574.581 301.2 565.93 305.655 555.533 308.116C507.995 319.364 423.832 288.951 341.95 259.366C243.774 223.896 151.045 190.396 121.292 225.406C97.8112 253.035 117.118 321.563 180.314 434.908C240.128 542.184 258.839 605.545 237.514 628.616C233.421 633.044 227.968 635.935 221.352 637.501C182.592 646.675 103.635 610.457 20.7466 572.44C-81.0788 525.739 -186.368 477.444 -220.904 512.933C-245.824 538.542 -231.391 604.941 -176.777 715.927C-128.076 814.897 -117.097 878.586 -143.21 910.631C-152.118 921.563 -165.048 928.503 -181.168 932.317C-237.387 945.618 -332.496 920.921 -431.895 895.113C-573.701 858.296 -720.336 820.226 -775.767 884.856C-814.609 930.146 -803.95 1020.69 -743.181 1161.65L-744.098 1162.04Z" fill="#BC259A"/>
<path d="M-762.979 1165.44C-821.16 1026.65 -830.278 936.618 -790.849 890.209C-733.964 823.255 -586.428 858.526 -443.75 892.637C-315.659 923.258 -194.673 952.181 -154.427 902.23C-128.437 869.973 -138.437 807.318 -184.996 710.684C-237.777 601.133 -251.007 535.004 -225.438 508.517C-189.772 471.563 -84.3215 517.846 17.6579 562.608C114.219 604.99 205.428 645.022 233.489 614.35C254.718 591.151 237.028 528.882 179.41 423.981C118.128 312.416 99.9906 244.309 123.96 215.765C154.666 179.204 247.847 210.97 346.5 244.607C446.063 278.552 549.016 313.651 585.387 274.707C608.357 250.114 602.956 198.667 568.9 117.422L569.823 117.035C604.055 198.68 609.375 250.481 586.124 275.389C579.204 282.798 569.921 287.575 558.768 290.213C510.594 301.614 427.268 273.2 346.177 245.552C247.856 212.03 154.993 180.373 124.726 216.409C101.053 244.599 119.227 312.339 180.287 423.499C238.137 528.822 255.781 591.471 234.227 615.025C205.679 646.23 114.152 606.054 17.255 563.523C-84.4106 518.9 -189.542 472.763 -224.719 509.211C-249.96 535.362 -236.673 601.123 -184.096 710.25C-137.351 807.266 -127.391 870.27 -153.649 902.857C-163.14 914.637 -177.04 922.087 -194.391 926.194C-251.339 939.668 -345.563 917.139 -443.982 893.608C-586.368 859.569 -733.601 824.365 -790.087 890.858C-829.247 936.952 -820.079 1026.64 -762.058 1165.05L-762.979 1165.44Z" fill="#6F3EA2"/>
<path d="M-782.031 1169.2C-837.49 1032.92 -845.135 943.731 -805.402 896.532C-747.443 827.673 -599.228 860.059 -455.894 891.376C-327.225 919.489 -205.69 946.044 -164.75 894.657C-138.62 861.861 -147.617 799.873 -192.255 705.152C-243.016 597.444 -255.112 531.946 -229.237 504.916C-192.919 466.973 -87.583 511.105 14.2809 553.786C110.761 594.211 201.885 632.389 230.453 600.853C251.913 577.159 235.272 515.577 179.583 412.59C120.426 303.193 103.407 235.868 127.552 206.768C158.769 169.149 252.142 199.074 350.995 230.76C450.693 262.716 553.785 295.759 590.85 255.75C614.065 230.69 609.547 179.675 577.046 99.7886L577.971 99.4122C610.634 179.695 615.096 231.053 591.585 256.428C554.08 296.905 450.685 263.762 350.69 231.713C252.166 200.133 159.113 170.305 128.321 207.407C104.465 236.156 121.522 303.116 180.462 412.114C236.378 515.519 252.972 577.477 231.193 601.525C202.153 633.589 110.708 595.274 13.8964 554.709C-87.6575 512.157 -192.669 468.158 -228.514 505.607C-254.071 532.304 -241.915 597.436 -191.352 704.726C-146.533 799.826 -137.577 862.158 -163.968 895.281C-205.295 947.152 -327.123 920.535 -456.107 892.354C-599.151 861.098 -747.068 828.781 -804.637 897.175C-844.108 944.065 -836.411 1032.92 -781.106 1168.82L-782.031 1169.2Z" fill="#C36F84"/>
<path d="M-801.248 1173.31C-854.021 1039.5 -860.217 951.129 -820.19 903.149C-761.114 832.336 -612.137 861.823 -468.062 890.338C-338.74 915.932 -216.592 940.106 -174.942 887.256C-148.685 853.932 -156.699 792.608 -199.44 699.781C-248.201 593.878 -259.178 528.99 -232.994 501.414C-196.004 462.449 -90.7284 504.45 11.0783 545.071C107.525 583.552 198.613 619.899 227.694 587.465C249.375 563.274 233.773 502.369 179.994 401.266C122.931 293.995 107.012 227.432 131.326 197.774C163.065 159.063 256.679 187.149 355.789 216.886C455.666 246.851 558.939 277.841 596.725 236.736C620.186 211.21 616.536 160.616 585.556 82.0672L586.484 81.7013C617.611 160.644 621.205 211.577 597.461 237.413C559.253 278.976 455.671 247.898 355.5 217.843C256.72 188.205 163.413 160.21 132.099 198.407C108.069 227.719 124.024 293.922 180.875 400.796C234.876 502.313 250.434 563.591 228.438 588.132C223.476 593.668 216.766 597.244 208.581 599.182C168.037 608.775 91.2316 578.127 10.7087 546C-90.7893 505.502 -195.741 463.635 -232.27 502.103C-258.139 529.349 -247.102 593.873 -198.531 699.363C-155.617 792.564 -147.645 854.227 -174.156 887.874C-184.932 901.55 -201.005 910.128 -221.122 914.887C-279.456 928.691 -371.863 910.397 -468.256 891.319C-612.044 862.86 -760.725 833.436 -819.422 903.789C-859.194 951.464 -852.943 1039.5 -800.317 1172.94L-801.248 1173.31Z" fill="#D37C3E"/>
<path d="M-820.643 1177.77C-870.767 1046.4 -875.537 958.845 -835.226 910.096C-775.009 837.274 -625.179 863.855 -480.281 889.563C-350.229 912.635 -227.388 934.43 -185.015 880.064C-158.641 846.224 -165.687 785.557 -206.556 694.595C-253.342 590.462 -263.211 526.167 -236.725 498.037C-199.041 458.019 -93.7774 497.893 8.02466 536.455C104.489 572.997 195.603 607.511 225.19 574.156C247.09 549.462 232.513 489.217 180.622 389.975C125.631 284.807 110.795 218.994 135.268 188.78C167.532 148.941 261.45 175.188 360.882 202.98C460.998 230.961 564.522 259.893 603.024 217.671C626.731 191.678 623.932 141.499 594.47 64.265L595.399 63.9094C625.008 141.53 627.75 192.045 603.759 218.346C564.844 261.021 461.018 232.005 360.613 203.942C261.507 176.243 167.902 150.081 136.045 189.411C111.851 219.281 126.722 284.735 181.507 389.512C233.613 489.165 248.148 549.779 225.939 574.818C220.65 580.78 213.451 584.623 204.666 586.702C163.534 596.438 87.4282 567.604 7.67035 537.39C-93.8221 498.944 -198.773 459.189 -235.997 498.723C-262.175 526.526 -252.248 590.462 -205.645 694.184C-164.609 785.516 -157.603 846.52 -184.227 880.679C-195.709 895.409 -213 904.61 -234.665 909.736C-293.651 923.693 -385.114 907.462 -480.457 890.547C-625.072 864.892 -774.612 838.36 -834.455 910.733C-874.516 959.179 -869.692 1046.41 -819.709 1177.42L-820.643 1177.77Z" fill="#B92599"/>
<path d="M-840.231 1182.59C-887.741 1053.61 -891.105 966.851 -850.517 917.348C-789.119 842.465 -638.35 866.127 -492.546 889.01C-361.69 909.547 -238.091 928.947 -194.974 873.035C-168.493 838.693 -174.591 778.675 -213.615 689.55C-258.444 587.163 -267.217 523.447 -240.433 494.765C-202.044 453.656 -96.7309 491.421 5.11664 527.939C101.654 562.554 192.835 595.248 222.949 560.939C245.06 535.744 231.491 476.14 181.462 378.722C128.519 275.621 114.749 210.549 139.368 179.784C172.178 138.781 266.453 163.19 366.26 189.034C466.664 215.033 570.492 241.914 609.748 198.538C633.689 172.085 631.738 122.307 603.76 46.3665L604.693 46.0226C632.816 122.344 634.707 172.453 610.483 199.211C601.511 209.127 589.23 215.42 574.452 218.917C523.878 230.882 443.921 210.176 366.01 190.002C266.524 164.241 172.551 139.911 140.149 180.409C115.802 210.833 129.607 275.553 182.352 378.265C232.589 476.092 246.115 536.059 223.699 561.598C218.062 568.023 210.346 572.146 200.906 574.379C159.19 584.249 83.772 557.205 4.77904 528.881C-96.7649 492.47 -201.766 454.821 -239.702 495.447C-266.184 523.806 -257.352 587.166 -212.699 689.15C-173.514 778.639 -167.457 838.989 -194.183 873.645C-206.415 889.509 -225.025 899.373 -248.361 904.893C-307.961 918.996 -398.447 904.79 -492.702 889.998C-638.228 867.16 -788.708 843.547 -849.744 917.982C-890.089 967.187 -886.67 1053.63 -839.293 1182.25L-840.231 1182.59Z" fill="#8B2636"/>
<path d="M-860.008 1187.77C-904.94 1061.15 -906.922 975.175 -866.066 924.936C-803.454 847.941 -651.663 868.668 -504.87 888.71C-373.125 906.698 -248.685 923.686 -204.805 866.19C-178.225 831.358 -183.389 771.981 -220.593 684.667C-263.494 583.992 -271.187 520.84 -244.112 491.603C-205.008 449.378 -99.589 485.03 2.36135 519.51C99.0267 552.203 190.329 583.079 220.978 547.787C243.293 522.09 230.717 463.118 182.533 367.5C131.612 266.443 118.894 202.097 143.65 170.786C177.017 128.578 271.701 151.151 371.94 175.043C472.687 199.058 576.86 223.889 616.891 179.328C641.078 152.411 639.946 103.026 613.446 28.3504L614.394 28.0151C641.025 103.068 642.084 152.782 617.638 179.995C608.062 190.658 594.886 197.397 579.004 201.153C527.893 213.245 448.802 194.392 371.708 176.016C271.789 152.2 177.408 129.703 144.435 171.404C119.943 202.38 132.699 266.376 183.427 367.05C231.814 463.071 244.343 522.404 221.733 548.441C190.641 584.246 99.0314 553.26 2.04178 520.458C-99.6052 486.079 -204.715 450.533 -243.377 492.282C-270.157 521.199 -262.404 584 -219.673 684.275C-182.315 771.949 -177.192 831.653 -204.011 866.796C-248.245 924.756 -372.964 907.727 -505.004 889.701C-651.524 869.694 -803.032 849.007 -865.291 925.566C-905.908 975.512 -903.872 1061.17 -859.067 1187.43L-860.008 1187.77Z" fill="#A21661"/>
<path d="M-879.989 1193.32C-922.383 1069.01 -923.004 983.815 -881.886 932.854C-818.017 853.693 -665.111 871.464 -517.239 888.648C-384.535 904.071 -259.188 918.638 -214.527 859.515C-187.858 824.213 -192.109 765.472 -227.522 679.94C-268.511 580.951 -275.134 518.347 -247.768 488.553C-207.921 445.177 -102.343 478.724 -0.234727 511.17C96.6067 541.944 188.08 571.01 219.273 534.7C241.784 508.5 230.191 450.146 183.831 356.305C134.905 257.261 123.217 193.634 148.101 161.781C182.032 118.346 277.186 139.064 377.928 161.003C479.074 183.03 583.668 205.807 624.481 160.032C648.89 132.663 648.589 83.6614 623.548 10.2337L624.486 9.91325C649.656 83.7119 649.895 133.034 625.227 160.698C615.005 172.16 600.859 179.376 583.823 183.407C532.19 195.626 453.983 178.588 377.715 161.98C277.292 140.112 182.441 119.455 148.889 162.398C124.266 193.914 135.988 257.198 184.728 355.862C231.284 450.103 242.833 508.814 220.033 535.352C213.626 542.81 204.744 547.559 193.857 550.136C150.994 560.279 76.9443 536.744 -0.538264 512.123C-102.345 479.773 -207.621 446.319 -247.031 489.23C-274.106 518.707 -267.423 580.963 -226.598 679.559C-191.037 765.446 -186.828 824.507 -213.73 860.117C-227.621 878.508 -249.206 889.833 -276.305 896.245C-337.001 910.605 -425.409 900.327 -517.355 889.641C-664.957 872.489 -817.583 854.754 -881.107 933.482C-921.993 984.154 -921.317 1069.04 -879.043 1193L-879.989 1193.32Z" fill="#D42624"/>
<path d="M-900.184 1199.22C-940.077 1077.19 -939.358 992.761 -897.987 941.102C-832.821 859.728 -678.711 874.519 -529.679 888.828C-395.935 901.667 -269.611 913.791 -224.14 853.013C-197.391 817.256 -200.747 759.151 -234.397 675.376C-273.499 578.041 -279.066 515.971 -251.416 485.622C-210.815 441.055 -105.012 472.506 -2.69352 502.923C94.3851 531.78 186.081 559.039 217.837 521.68C240.536 494.978 229.911 437.23 185.353 345.135C138.395 248.078 127.722 185.154 152.721 152.773C187.233 108.064 282.911 126.931 384.205 146.907C485.804 166.943 590.857 187.662 632.498 140.642C657.13 112.822 657.631 64.1988 634.03 -8.00623L634.984 -8.31689C658.712 64.2526 658.136 113.195 633.244 141.305C622.335 153.627 607.144 161.35 588.85 165.68C536.736 178.011 459.431 162.761 384.011 147.889C283.03 127.973 187.649 109.166 153.512 153.385C128.768 185.436 139.477 248.017 186.254 344.699C231.003 437.188 241.583 495.292 218.598 522.329C211.769 530.36 202.238 535.461 190.54 538.229C147.119 548.504 73.75 526.69 -2.9793 503.881C-105 473.553 -210.496 442.192 -250.676 486.295C-278.042 516.333 -272.413 578.059 -233.47 675.003C-199.678 759.13 -196.364 817.553 -223.338 853.611C-238.145 873.405 -261.406 885.531 -290.618 892.443C-351.779 906.913 -439.067 898.531 -529.775 889.823C-678.544 875.542 -832.376 860.775 -897.207 941.727C-938.351 993.102 -939.013 1077.23 -899.234 1198.91L-900.184 1199.22Z" fill="#804B1B"/>
<path d="M-920.588 1205.5C-958.021 1085.7 -955.983 1002.02 -914.36 949.684C-884.576 912.232 -833.731 890.699 -758.919 883.86C-692.787 877.814 -616.222 883.625 -542.177 889.245C-407.321 899.478 -279.946 909.146 -233.647 846.673C-206.828 810.483 -209.304 753.01 -241.218 670.965C-278.45 575.257 -282.971 513.709 -255.041 482.805C-213.659 437.016 -107.581 466.368 -4.99683 494.757C92.3722 521.703 184.34 547.146 216.674 508.714C239.557 481.51 229.884 424.353 187.107 333.975C142.095 238.872 132.418 176.65 157.524 143.747C192.637 97.7292 288.897 114.739 390.806 132.749C492.911 150.791 598.496 169.446 640.975 121.155C665.83 92.8935 667.131 44.6396 644.939 -26.3599L645.896 -26.6576C668.201 44.7017 666.824 93.2709 641.72 121.817C598.877 170.533 493.009 151.825 390.632 133.734C289.029 115.78 193.064 98.8242 158.319 144.354C133.461 176.931 143.173 238.815 188.012 333.546C230.974 424.314 240.6 481.823 217.438 509.358C184.695 548.287 92.4232 522.753 -5.26359 495.721C-107.555 467.415 -213.336 438.14 -254.299 483.476C-281.951 514.072 -277.367 575.282 -240.286 670.603C-208.238 752.993 -205.803 810.781 -232.843 847.267C-279.474 910.182 -407.115 900.496 -542.253 890.241C-692.271 878.856 -847.396 867.084 -913.577 950.306C-954.979 1002.37 -956.96 1085.74 -919.634 1205.2L-920.588 1205.5Z" fill="#9C1856"/>
<path d="M-941.216 1212.15C-976.229 1094.54 -972.895 1011.61 -931.027 958.614C-900.621 920.13 -849.096 897.315 -773.507 888.877C-706.685 881.414 -629.447 885.732 -554.751 889.908C-418.702 897.514 -290.199 904.699 -243.044 840.498C-216.159 803.896 -217.775 747.047 -247.985 666.7C-283.37 572.593 -286.86 511.554 -258.655 480.097C-216.473 433.052 -110.062 460.31 -7.15684 486.67C90.5577 511.699 182.855 535.342 215.77 495.791C238.827 468.092 230.093 411.515 189.074 322.829C145.977 229.659 137.278 168.128 162.482 134.716C198.207 87.3552 295.107 102.493 397.701 118.521C500.367 134.56 606.527 151.151 649.874 101.55C674.955 72.8512 677.04 24.961 656.251 -44.8577L657.211 -45.1437C678.111 25.0283 675.949 73.2298 650.632 102.207C638.188 116.442 620.658 125.28 599.587 130.265C546.61 142.8 471.186 131.013 397.545 119.509C295.262 103.529 198.646 88.4351 163.279 135.319C138.32 168.407 147.053 229.606 189.98 322.41C231.18 411.481 239.868 468.403 216.538 496.431C208.779 505.754 197.799 511.622 184.291 514.817C139.792 525.347 67.7984 506.902 -7.40458 487.638C-110.021 461.353 -216.13 434.172 -257.911 480.765C-285.843 511.918 -282.291 572.623 -247.049 666.347C-216.711 747.035 -215.138 804.194 -242.239 841.091C-289.711 905.73 -418.478 898.529 -554.807 890.908C-706.158 882.443 -862.662 873.696 -930.242 959.234C-971.894 1011.96 -975.172 1094.59 -940.258 1211.86L-941.216 1212.15Z" fill="#EF3220"/>
<path d="M-962.085 1219.17C-994.718 1103.71 -990.111 1021.52 -947.998 967.887C-916.948 928.349 -864.712 904.238 -788.298 894.176C-720.748 885.28 -642.792 888.093 -567.403 890.812C-430.087 895.764 -300.384 900.445 -252.346 834.484C-225.402 797.488 -226.175 741.26 -254.71 662.587C-288.273 570.05 -290.746 509.508 -262.27 477.502C-219.262 429.16 -112.456 454.323 -9.16619 478.655C88.9504 501.77 181.628 523.6 215.144 482.907C238.367 454.714 230.559 398.714 191.275 311.701C150.067 220.429 142.331 159.579 167.621 125.671C203.976 76.9281 301.577 90.186 404.909 104.221C508.194 118.252 615 132.756 659.226 81.8311C684.533 52.7008 687.401 5.16278 667.995 -63.5007L668.958 -63.7724C688.461 5.24086 685.528 53.0821 659.984 82.4862C646.707 97.7782 627.856 107.23 605.228 112.584C551.9 125.202 477.474 115.087 404.774 105.213C301.743 91.2169 204.424 77.9991 168.423 126.269C143.37 159.858 151.142 220.379 192.187 311.291C231.643 398.684 239.405 455.028 215.916 483.543C207.646 493.582 195.854 499.874 181.34 503.308C136.326 513.961 65.0312 497.161 -9.39665 479.628C-112.4 455.363 -218.907 430.274 -261.522 478.166C-289.732 509.873 -287.196 570.086 -253.769 662.246C-225.113 741.256 -224.384 797.787 -251.538 835.072C-269.492 859.725 -298.714 874.58 -335.386 883.257C-397.473 897.946 -480.941 894.931 -567.44 891.81C-720.212 886.3 -878.183 880.604 -947.21 968.506C-989.112 1021.86 -993.663 1103.77 -961.124 1218.9L-962.085 1219.17Z" fill="#AD66BA"/>
<path d="M-983.197 1226.56C-1013.49 1113.2 -1007.63 1031.74 -965.272 977.5C-933.556 936.888 -880.57 911.458 -803.292 899.757C-734.973 889.412 -656.256 890.703 -580.131 891.953C-441.466 894.226 -310.49 896.377 -261.543 828.626C-234.547 791.262 -234.494 735.656 -261.381 658.63C-293.143 567.636 -294.61 507.581 -265.868 475.032C-222.008 425.365 -114.759 448.427 -11.0364 470.726C87.5383 491.92 180.652 511.939 214.783 470.067C238.165 441.389 231.268 385.95 193.698 300.583C154.356 211.183 147.565 151.009 172.934 116.621C209.939 66.4588 308.303 77.8205 412.441 89.85C516.399 101.858 623.892 114.276 669.054 61.9827C694.565 32.4371 698.2 -14.7536 680.145 -82.2802L681.112 -82.5376C699.248 -14.6658 695.56 32.821 669.812 62.6365C655.613 79.0688 635.367 89.1668 611.065 94.9166C557.426 107.608 484.044 99.1265 412.326 90.8431C308.481 78.8486 210.395 67.5208 173.738 117.215C148.601 151.289 155.428 211.138 194.615 300.179C232.348 385.924 239.2 441.702 215.558 470.7C181.032 513.045 87.6331 492.963 -11.2476 471.704C-114.687 449.465 -221.651 426.466 -265.119 475.693C-293.602 507.948 -292.069 567.679 -260.437 658.299C-233.434 735.658 -233.53 791.564 -260.732 829.211C-309.988 897.386 -441.215 895.23 -580.147 892.952C-734.425 890.421 -893.955 887.806 -964.484 978.114C-1006.63 1032.09 -1012.44 1113.27 -982.231 1226.3L-983.197 1226.56Z" fill="#834B9F"/>
<path d="M-1004.56 1234.33C-1032.56 1123.03 -1025.46 1042.28 -982.862 987.464C-950.456 945.763 -896.698 918.992 -818.503 905.638C-749.377 893.825 -669.858 893.58 -592.958 893.34C-452.865 892.908 -320.542 892.497 -270.649 822.929C-243.602 785.219 -242.742 730.225 -268.015 654.806C-298 565.33 -298.477 505.751 -269.472 472.663C-224.74 421.638 -116.977 442.592 -12.7648 462.857C86.3263 482.126 179.924 500.328 214.697 457.245C238.229 428.087 232.228 373.204 196.352 289.455C158.843 201.9 152.978 142.394 178.419 107.54C216.097 55.922 315.282 65.3757 420.289 75.3827C524.966 85.3584 633.22 95.6729 679.317 41.9996C705.046 12.0448 709.433 -34.8032 692.723 -101.22L693.693 -101.463C710.483 -34.7091 706.028 12.4317 680.074 42.6508C664.916 60.2992 643.134 71.0879 617.028 77.2643C563.168 90.0069 490.877 83.1142 420.195 76.3792C315.475 66.3988 216.565 56.9761 179.226 108.13C154.011 142.674 159.913 201.858 197.27 289.062C233.306 373.181 239.261 428.4 215.474 457.874C180.324 501.426 86.4408 483.166 -12.9545 463.839C-116.891 443.627 -224.37 422.73 -268.72 473.322C-297.47 506.12 -296.929 565.38 -267.067 654.488C-241.683 730.234 -242.589 785.522 -269.836 823.512C-290.294 852.037 -324.454 869.008 -367.232 879.129C-429.408 893.839 -509.807 894.084 -592.954 894.341C-748.821 894.822 -909.994 895.322 -982.073 988.079C-1024.47 1042.64 -1031.51 1123.11 -1003.59 1234.08L-1004.56 1234.33Z" fill="#9C571D"/>
<path d="M-1025.21 1242.26L-1026.19 1242.49C-1051.93 1133.21 -1043.61 1053.17 -1000.77 997.791C-967.644 954.978 -913.067 926.851 -833.918 911.815C-763.945 898.516 -683.579 896.715 -605.861 894.971C-464.267 891.796 -330.525 888.799 -279.657 817.386C-252.565 779.353 -250.913 724.972 -274.603 651.136C-302.834 563.152 -302.331 504.039 -273.067 470.419C-227.433 417.999 -119.105 436.84 -14.3396 455.062C85.3288 472.399 179.466 488.774 214.889 444.445C238.567 414.818 233.449 360.481 199.241 278.328C163.54 192.59 158.583 133.75 184.088 98.4484C222.451 45.3465 322.518 52.8693 428.458 60.8349C533.922 68.7649 642.965 76.9666 690.055 21.8759C716.004 -8.48039 721.128 -54.993 705.743 -120.326L706.717 -120.555C722.18 -54.8911 716.987 -8.08961 690.812 22.5271C674.619 41.4792 651.176 53.0024 623.136 59.636C569.108 72.4185 497.973 67.0662 428.381 61.8326C322.728 53.8885 222.933 46.3875 184.898 99.0337C159.614 134.031 164.608 192.553 200.164 277.944C234.524 360.464 239.596 415.132 215.67 445.07C179.878 489.86 85.4575 473.436 -14.5109 456.047C-119.002 437.872 -227.052 419.078 -272.313 471.076C-301.329 504.409 -301.766 563.207 -273.651 650.83C-249.858 724.988 -251.555 779.658 -278.842 817.965C-330.003 889.789 -463.986 892.791 -605.839 895.972C-763.38 899.505 -926.283 903.158 -999.977 998.403C-1042.63 1053.53 -1050.88 1133.29 -1025.21 1242.26Z" fill="#ED1153"/>
<path d="M-1047.11 1250.8L-1048.08 1251.01C-1071.61 1143.7 -1062.1 1064.36 -1019.01 1008.45C-985.14 964.522 -929.719 935.025 -849.567 918.283C-778.71 903.48 -697.459 900.106 -618.884 896.842C-475.709 890.898 -340.475 885.28 -288.595 811.995C-261.457 773.664 -259.029 719.891 -281.17 647.602C-307.668 561.084 -306.198 502.429 -276.677 468.286C-230.113 414.435 -121.154 431.155 -15.7792 447.327C84.5209 462.719 179.258 477.258 215.35 431.658C239.165 401.569 234.912 347.771 202.349 267.19C168.429 183.238 164.363 125.058 189.925 89.3267C229.003 34.702 330.01 40.2802 436.947 46.1835C543.245 52.053 653.154 58.1248 701.26 1.59615C727.419 -29.1481 733.292 -75.3349 719.2 -139.602L720.177 -139.816C734.333 -75.2208 728.403 -28.756 702.017 2.24609C653.602 59.1492 543.429 53.0657 436.892 47.1831C330.235 41.2944 229.495 35.7325 190.739 89.9083C165.392 125.34 169.494 183.205 203.279 266.815C235.986 347.76 240.193 401.884 216.135 432.278C179.68 478.336 84.6616 463.754 -15.9322 448.314C-121.036 432.184 -229.721 415.504 -275.92 468.94C-305.198 502.802 -306.603 561.147 -280.214 647.309C-257.977 719.913 -260.451 773.973 -287.777 812.573C-339.942 886.258 -475.414 891.885 -618.842 897.842C-778.135 904.459 -942.853 911.301 -1018.22 1009.07C-1061.12 1064.72 -1070.57 1143.8 -1047.11 1250.8Z" fill="#93201F"/>
<path d="M-1069.27 1259.74L-1070.25 1259.94C-1091.61 1154.55 -1080.92 1075.9 -1037.57 1019.49C-1002.93 974.412 -946.633 943.542 -865.431 925.06C-793.648 908.736 -711.468 903.77 -631.994 898.967C-487.162 890.213 -350.361 881.944 -297.429 806.768C-270.249 768.163 -267.06 714.993 -287.681 644.22C-312.476 559.134 -310.055 500.924 -280.28 466.266C-232.757 410.951 -123.112 425.543 -17.0769 439.653C83.9171 453.095 179.307 465.787 216.09 418.878C240.038 388.339 236.639 335.071 205.7 256.033C173.525 173.84 170.333 116.318 195.944 80.1777C235.754 24.0016 337.765 27.6119 445.76 31.433C552.952 35.225 663.777 39.148 712.936 -18.8407C739.307 -49.9614 745.899 -95.8292 733.093 -159.063L734.074 -159.261C746.955 -95.7103 740.291 -49.5666 713.692 -18.1934C695.172 3.66183 667.983 16.7874 635.61 24.4462C581.517 37.2453 512.915 34.8125 445.724 32.4335C338.005 28.6211 236.259 25.0179 196.761 80.756C171.358 116.599 174.587 173.814 206.63 255.668C237.71 335.066 241.063 388.653 216.877 419.495C179.743 466.856 84.0729 454.124 -17.2095 440.645C-122.981 426.568 -232.352 412.012 -279.522 466.918C-309.059 501.298 -311.414 559.203 -286.721 643.94C-266.009 715.024 -269.244 768.473 -296.612 807.343C-349.82 882.916 -486.852 891.196 -631.933 899.964C-793.066 909.703 -959.685 919.772 -1036.78 1020.09C-1079.94 1076.26 -1090.57 1154.65 -1069.27 1259.74Z" fill="#CA4A7E"/>
<path d="M-1091.73 1269.08L-1092.71 1269.26C-1111.94 1165.74 -1100.09 1087.76 -1056.48 1030.87C-1021.04 984.644 -963.811 952.346 -881.524 932.137C-808.766 914.271 -725.623 907.689 -645.211 901.326C-498.648 889.727 -360.211 878.774 -306.196 801.682C-278.972 762.828 -275.042 710.256 -294.179 640.966C-317.289 557.288 -313.925 499.518 -283.898 464.357C-235.379 407.543 -124.987 419.993 -18.2242 432.033C83.5171 443.508 179.616 454.346 217.11 406.097C241.182 375.123 238.62 322.386 209.28 244.873C178.823 164.411 176.49 107.54 202.146 71.0117C242.721 13.2464 345.792 14.8657 454.918 16.5792C563.041 18.2794 674.847 20.0344 725.093 -39.4404C751.692 -70.9301 759.003 -116.48 747.439 -178.692L748.424 -178.875C760.048 -116.35 752.664 -70.5283 725.862 -38.7961C675.318 21.0398 563.264 19.2802 454.902 17.579C346.049 15.8696 243.231 14.2531 202.964 71.5855C177.512 107.823 179.884 164.39 210.215 244.519C239.689 322.384 242.203 375.439 217.901 406.712C180.059 455.402 83.6938 444.533 -18.337 433.027C-124.835 421.016 -234.962 408.594 -283.136 465.005C-312.933 499.896 -316.23 557.366 -293.215 640.701C-273.993 710.296 -277.971 763.141 -305.378 802.256C-359.662 879.731 -498.326 890.706 -645.132 902.322C-808.186 915.225 -976.79 928.569 -1055.68 1031.48C-1099.12 1088.13 -1110.91 1165.85 -1091.73 1269.08Z" fill="#96251F"/>
<path d="M-1114.48 1278.82L-1115.46 1278.98C-1132.61 1177.28 -1119.61 1099.96 -1075.73 1042.62C-1039.46 995.227 -981.274 961.506 -897.852 939.529C-824.09 920.113 -739.934 911.886 -658.543 903.942C-510.169 889.462 -370.022 875.783 -314.881 796.763C-287.609 757.682 -282.95 705.703 -300.636 637.859C-322.086 555.561 -317.795 498.223 -287.514 462.568C-237.967 404.225 -126.767 414.521 -19.2297 424.477C83.3212 433.971 180.186 442.94 218.415 393.318C242.608 361.917 240.868 309.7 213.098 233.68C184.328 154.914 182.834 98.6891 208.532 61.7965C249.896 2.41378 354.091 2.02066 464.408 1.60415C573.525 1.19343 686.363 0.765558 737.719 -60.2133C764.549 -92.0602 772.563 -137.304 762.244 -198.536L763.22 -198.699C773.596 -137.162 765.508 -91.6528 738.488 -59.5702C686.832 1.76315 573.761 2.18989 464.411 2.60349C354.36 3.02015 250.418 3.41387 209.354 62.368C183.854 98.974 185.387 154.9 214.037 233.337C241.934 309.705 243.625 362.234 219.208 393.928C206.267 410.725 186.72 420.876 162.586 426.587C114.801 437.892 49.0051 431.798 -19.3219 425.472C-126.605 415.54 -237.541 405.27 -286.752 463.216C-316.806 498.604 -321.031 555.647 -299.668 637.606C-281.904 705.751 -286.611 757.999 -314.061 797.335C-342.839 838.575 -394.558 862.097 -458.429 877.207C-517.528 891.188 -587.026 897.967 -658.446 904.938C-739.798 912.879 -823.925 921.095 -897.596 940.496C-980.797 962.414 -1038.8 996.018 -1074.93 1043.23C-1118.64 1100.34 -1131.58 1177.4 -1114.48 1278.82Z" fill="#93611D"/>
<path d="M-1137.53 1288.94L-1138.52 1289.1C-1153.63 1189.16 -1139.51 1112.5 -1095.34 1054.72C-1058.21 1006.16 -999.03 970.993 -914.426 947.226C-839.628 926.213 -754.413 916.345 -672.003 906.801C-521.74 889.4 -379.809 872.962 -323.495 791.99C-296.175 752.706 -290.8 701.317 -307.065 634.888C-326.886 553.939 -321.679 497.024 -291.148 460.888C-240.538 400.987 -128.476 409.111 -20.1033 416.966C83.321 424.463 181.008 431.541 219.996 380.52C244.304 348.709 243.375 297.005 217.157 222.453C190.04 145.358 189.369 89.7815 215.104 52.5458C257.276 -8.47759 362.66 -10.9114 474.231 -13.4849C584.41 -16.0296 698.331 -18.6564 750.847 -81.1618C777.897 -113.353 786.613 -158.296 777.508 -218.568L778.499 -218.719C787.648 -158.147 778.858 -112.941 751.616 -80.5188C728.875 -53.4522 694.739 -37.5489 654.438 -28.0149C601.162 -15.4118 537.102 -13.9344 474.253 -12.4847C362.945 -9.91687 257.811 -7.4889 215.926 53.1145C190.386 90.0671 191.098 145.35 218.1 222.122C244.439 297.015 245.319 349.027 220.789 381.127C206.984 399.194 185.941 410.044 159.967 416.189C111.969 427.544 47.1114 422.841 -20.1758 417.963C-128.299 410.126 -240.103 402.021 -290.384 461.533C-320.693 497.408 -325.832 554.035 -306.094 634.65C-289.756 701.376 -295.18 753.028 -322.675 792.561C-379.246 873.904 -521.394 890.365 -671.889 907.794C-754.259 917.334 -839.432 927.205 -914.156 948.189C-998.544 971.895 -1057.55 1006.94 -1094.54 1055.33C-1138.54 1112.88 -1152.6 1189.29 -1137.53 1288.94Z" fill="#DA6E59"/>
<path d="M-1160.9 1299.47L-1161.89 1299.61C-1171.99 1223.94 -1164.75 1159.57 -1140.38 1108.29C-1118.5 1062.26 -1083.29 1025.88 -1032.73 997.071C-939.345 943.858 -810.336 926.599 -685.578 909.91C-533.351 889.546 -389.568 870.311 -332.039 787.379C-304.664 747.917 -298.59 697.112 -313.469 632.061C-331.681 552.432 -325.568 495.927 -294.784 459.321C-243.075 397.831 -130.091 403.765 -20.8263 409.505C83.5215 414.986 182.079 420.163 221.851 367.711C246.27 335.506 246.134 284.312 221.439 211.206C195.948 135.746 196.084 80.8078 221.855 43.2525C264.88 -19.4441 371.509 -23.9452 484.4 -28.7095C595.675 -33.4054 710.74 -38.2634 764.466 -102.312C791.739 -134.835 801.153 -179.489 793.229 -238.825L794.224 -238.959C802.191 -179.33 792.7 -134.421 765.235 -101.67C711.219 -37.2806 595.936 -32.4163 484.442 -27.7097C371.809 -22.9556 265.423 -18.4667 222.68 43.8193C197.099 81.0966 197.002 135.745 222.385 210.885C247.198 284.33 247.283 335.825 222.648 368.315C182.56 421.188 83.7419 415.999 -20.879 410.504C-129.899 404.777 -242.63 398.855 -294.019 459.965C-324.589 496.316 -330.631 552.536 -312.494 631.838C-297.548 697.179 -303.673 748.243 -331.217 787.949C-364.568 836.028 -426.666 862.779 -502.513 880.722C-558.069 893.864 -620.99 902.28 -685.445 910.901C-810.11 927.576 -939.019 944.822 -1032.23 997.939C-1137.86 1058.13 -1179.95 1156.76 -1160.9 1299.47Z" fill="#A6128D"/>
<path d="M-1184.59 1310.43L-1185.59 1310.54C-1194.27 1235.39 -1185.74 1171.16 -1160.25 1119.63C-1137.36 1073.37 -1101.27 1036.47 -1049.89 1006.8C-955.001 952.002 -825.002 932.312 -699.279 913.268C-545.015 889.9 -399.307 867.828 -340.515 782.923C-313.08 743.304 -306.32 693.074 -319.847 629.363C-336.478 551.025 -329.474 494.928 -298.435 457.864C-245.591 394.76 -131.623 398.492 -21.4077 402.1C83.9283 405.55 183.421 408.81 224.005 354.897C248.533 322.314 249.18 271.628 225.982 199.941C202.08 126.077 203.006 71.771 228.812 33.9195C272.717 -30.4744 380.653 -37.0714 494.929 -44.0571C607.354 -50.9266 723.6 -58.0301 778.574 -123.639C806.086 -156.483 816.183 -200.855 809.432 -259.288L810.432 -259.404C817.211 -200.682 807.036 -156.061 779.33 -122.993C724.09 -57.0581 607.628 -49.9405 494.988 -43.0569C380.963 -36.0898 273.269 -29.5063 229.639 34.4817C204.018 72.0616 203.132 126.083 226.933 199.633C250.238 271.652 249.542 322.637 224.803 355.499C183.91 409.823 84.1638 406.558 -21.4399 403.1C-131.417 399.5 -245.137 395.776 -297.669 458.506C-328.497 495.319 -335.431 551.138 -318.868 629.155C-305.282 693.15 -312.094 743.634 -339.692 783.492C-398.728 868.751 -544.646 890.856 -699.13 914.256C-824.76 933.285 -954.667 952.963 -1049.39 1007.67C-1156.74 1069.66 -1200.97 1168.69 -1184.59 1310.43Z" fill="#CC8A19"/>
<path d="M-1208.63 1321.79L-1209.62 1321.89C-1216.89 1247.23 -1207.07 1183.1 -1180.44 1131.3C-1156.54 1084.81 -1119.55 1047.36 -1067.34 1016.83C-970.904 960.422 -839.859 938.288 -713.127 916.882C-556.752 890.469 -409.044 865.52 -348.94 778.631C-321.441 738.876 -314.006 689.214 -326.211 626.806C-341.287 549.728 -333.401 494.026 -302.104 456.518C-248.076 391.768 -133.068 393.274 -21.8476 394.729C84.532 396.121 185.013 397.436 226.437 342.04C251.071 309.095 252.483 258.909 230.754 188.612C208.409 116.321 210.109 62.6469 235.949 24.5259C280.764 -41.5906 390.072 -50.3098 505.791 -59.541C619.422 -68.6058 736.926 -77.9812 793.186 -145.165C820.952 -178.323 831.718 -222.417 826.12 -279.971L827.111 -280.067C832.748 -222.234 821.89 -177.893 793.954 -144.523C737.429 -77.0163 619.709 -67.6242 505.876 -58.5445C390.398 -49.3332 281.324 -40.6324 236.776 25.0865C211.118 62.9411 209.46 116.334 231.709 188.316C253.54 258.941 252.077 309.421 227.237 342.64C210.449 365.091 184.096 378.3 151.662 385.974C103.485 397.373 41.8747 396.562 -21.8608 395.728C-132.849 394.276 -247.613 392.775 -301.337 457.16C-332.428 494.421 -340.245 549.85 -325.23 626.614C-312.97 689.301 -320.457 739.212 -348.118 779.2C-408.462 866.437 -556.369 891.418 -712.961 917.867C-839.6 939.259 -970.556 961.378 -1066.84 1017.69C-1175.95 1081.51 -1222.33 1180.98 -1208.63 1321.79Z" fill="#8F1B1E"/>
<path d="M-1233 1333.57L-1233.99 1333.65C-1239.84 1259.45 -1228.73 1195.41 -1200.96 1143.32C-1176.04 1096.56 -1138.13 1058.56 -1085.07 1027.14C-987.048 969.107 -854.903 944.52 -727.11 920.743C-613.33 899.573 -505.859 879.575 -430.599 837.667C-346.124 790.628 -314.969 722.855 -332.554 624.381C-346.102 548.529 -337.346 493.215 -305.787 455.276C-250.54 388.858 -134.436 388.115 -22.1527 387.397C85.3329 386.71 186.859 386.061 229.15 329.154C253.889 295.864 256.055 246.172 235.771 177.238C214.953 106.485 217.411 53.4389 243.288 15.0722C289.05 -52.7838 399.784 -63.6638 517.026 -75.1805C684.884 -91.6723 858.448 -108.719 843.295 -300.911L844.29 -300.989C859.524 -107.82 685.452 -90.7227 517.125 -74.1857C400.12 -62.6911 289.617 -51.8356 244.117 15.6309C218.417 53.7366 216.001 106.506 236.73 176.957C257.109 246.212 254.893 296.192 229.953 329.751C212.014 353.889 183.564 367.978 148.604 376.25C100.561 387.616 40.2152 387.998 -22.1463 388.397C-134.2 389.113 -250.07 389.855 -305.019 455.915C-336.377 493.614 -345.062 548.662 -331.569 624.204C-322.243 676.433 -326.726 719.624 -345.272 756.244C-361.911 789.096 -389.662 816.017 -430.112 838.541C-505.516 880.529 -613.065 900.538 -726.927 921.725C-854.635 945.488 -986.691 970.059 -1084.56 1028C-1195.48 1093.68 -1244.03 1193.63 -1233 1333.57Z" fill="#D32E23"/>
</g>
</svg>
